<svg width="155" height="154" viewBox="0 0 155 154" fill="none" xmlns="http://www.w3.org/2000/svg">
<g filter="url(#filter0_d_146_240)">
<path d="M54.7502 64.8116C54.6595 64.8712 54.5958 64.964 54.5728 65.0701C54.5499 65.1762 54.5695 65.2871 54.6276 65.3788C54.6584 65.4219 54.6979 65.4581 54.7434 65.4852C54.789 65.5122 54.8396 65.5295 54.8922 65.536C54.9448 65.5425 54.9982 65.538 55.0489 65.5228C55.0997 65.5077 55.1468 65.4821 55.1871 65.4478C55.2573 65.3862 55.3045 65.3027 55.3212 65.2109C55.3379 65.119 55.3231 65.0243 55.2791 64.9419C55.2547 64.8968 55.2212 64.8573 55.1806 64.8259C55.14 64.7945 55.0933 64.772 55.0435 64.7597C54.9937 64.7474 54.9419 64.7457 54.8914 64.7546C54.8409 64.7636 54.7928 64.783 54.7502 64.8116ZM97.861 20.436C99.3276 21.3559 100.784 22.2885 102.23 23.2339C101.879 23.5512 101.543 23.8864 101.226 24.2381C100.759 23.9238 100.291 23.6172 99.8157 23.3182C99.7988 23.3118 99.7801 23.3115 99.763 23.3175C99.7459 23.3235 99.7314 23.3354 99.7222 23.351C99.7131 23.3666 99.7097 23.385 99.7128 23.4028C99.7158 23.4207 99.7251 23.4369 99.739 23.4486L101.103 24.3684C100.636 24.8973 100.199 25.4569 99.7927 26.0165C99.7467 26.0855 99.854 26.1468 99.9 26.0855C100.323 25.5252 100.776 24.9879 101.257 24.4757C101.962 24.9663 102.652 25.4646 103.342 25.9628C102.832 26.5775 102.363 27.2254 101.939 27.9022L100.774 26.8904C100.705 26.8367 100.613 26.8904 100.674 26.9824C101.057 27.3426 101.441 27.7029 101.832 28.0555C101.457 28.6697 101.116 29.3044 100.812 29.9566C100.812 30.0256 100.881 30.0869 100.92 30.0179C101.227 29.3884 101.57 28.7767 101.947 28.1858C102.675 28.8681 103.411 29.5503 104.154 30.2172C103.454 31.3071 102.857 32.4592 102.368 33.659C102.368 33.7127 102.437 33.7357 102.46 33.659C102.951 32.4796 103.555 31.3501 104.262 30.2862C104.967 30.9224 105.687 31.551 106.408 32.1642C105.345 33.3646 104.457 34.7091 103.771 36.158C103.771 36.204 103.817 36.2499 103.848 36.204C104.631 34.8226 105.548 33.521 106.584 32.3175L107.351 32.9691C107.435 33.0381 107.558 32.9231 107.474 32.8388L106.707 32.1259C106.914 31.8959 108.24 30.5928 108.738 30.2172L110.072 31.344C110.141 31.4054 110.241 31.3057 110.172 31.2444C109.758 30.8534 109.336 30.4778 108.907 30.0869C109.49 29.6346 110.103 29.213 110.724 28.8144L111.36 29.2283C111.421 29.2667 111.483 29.167 111.421 29.121L110.862 28.7224C111.276 28.4618 111.705 28.2088 112.134 27.9559C112.211 27.9175 112.134 27.8179 112.073 27.8562C111.591 28.0841 111.122 28.34 110.67 28.6228C109.712 27.9482 108.754 27.2813 107.78 26.6297C108.589 26.0792 109.482 25.6649 110.425 25.4033C110.445 25.3972 110.462 25.3832 110.472 25.3646C110.482 25.3459 110.485 25.3239 110.478 25.3036C110.472 25.2833 110.458 25.2662 110.44 25.2561C110.421 25.2461 110.399 25.2439 110.379 25.25C109.375 25.4858 108.426 25.9098 107.581 26.4994C106.661 25.8785 105.726 25.2653 104.791 24.6597C105.296 24.1895 105.914 23.857 106.584 23.6939C106.653 23.6939 106.638 23.5559 106.584 23.5635C105.849 23.6872 105.168 24.0291 104.63 24.5447L102.483 23.1879L102.675 22.9963C102.736 22.9426 102.675 22.8583 102.591 22.912C102.508 22.9742 102.429 23.0408 102.353 23.1113C100.874 22.1761 99.3788 21.2562 97.884 20.3517C97.861 20.3057 97.7997 20.3977 97.861 20.436ZM102.062 28.0019C102.414 27.4576 103.395 26.1928 103.495 26.0702C104.323 26.6834 105.136 27.3043 105.94 27.9329C105.344 28.56 104.803 29.2371 104.323 29.9566C103.579 29.2897 102.821 28.6458 102.062 28.0019ZM106.584 31.9879C105.879 31.3287 105.166 30.6848 104.438 30.0486C104.931 29.3372 105.485 28.6703 106.094 28.0555C106.937 28.7224 107.772 29.397 108.6 30.0869C107.879 30.6663 107.205 31.302 106.584 31.9879ZM110.57 28.6994C109.943 29.0787 109.341 29.4987 108.769 29.9566C107.956 29.2437 107.129 28.5538 106.278 27.8792C106.696 27.478 107.145 27.109 107.619 26.7754L110.57 28.6994ZM107.42 26.6374C106.958 26.972 106.525 27.3437 106.124 27.7489C105.312 27.1127 104.484 26.4918 103.648 25.8939C103.959 25.5142 104.294 25.1557 104.653 24.8207L107.42 26.6374ZM104.484 24.7057C104.134 25.0473 103.804 25.4081 103.495 25.7865C102.798 25.2883 102.092 24.8054 101.387 24.3378C101.709 23.9928 102.039 23.6632 102.368 23.3259L104.484 24.7057Z" fill="black"/>
<path d="M99.5092 135.587C98.413 135.326 96.7803 135.786 95.8068 135.641C95.3852 135.62 94.9831 135.457 94.6658 135.179C94.3485 134.9 94.1346 134.523 94.059 134.108C93.871 131.694 93.45 129.304 92.8019 126.971L92.4723 127.048C92.3956 126.764 92.5259 124.901 90.1726 113.204C89.2758 108.689 88.5322 104.105 85.5043 100.448C85.8799 99.8505 86.2709 99.2526 86.6005 98.647C86.7615 98.3711 87.0758 98.0108 87.0758 97.6659C87.0758 97.1063 85.6193 94.4464 85.1671 93.7871C84.2472 92.4456 83.9252 92.461 83.0284 93.2429L75.8918 85.792C76.6998 83.7074 77.2382 81.5281 77.4939 79.307C81.7022 79.4603 142.819 78.9314 144.996 78.8931C146.184 78.8931 147.595 78.8931 148.614 78.1265C148.802 77.9895 148.953 77.8075 149.052 77.5972C149.151 77.3869 149.195 77.1551 149.182 76.923C149.274 76.0491 149.557 28.707 149.511 28.0938C149.435 26.967 149.205 25.7941 148.039 25.4799C145.019 24.7133 117.431 25.0659 115.292 25.1196C114.587 24.8206 113.959 24.537 113.483 24.2917C104.132 19.4011 103.327 19.0638 100.797 17.6227C99.2179 16.7182 97.5622 15.2234 95.7224 14.9321C95.0679 14.775 94.3778 14.8836 93.8031 15.2341C93.2284 15.5847 92.8161 16.1486 92.6562 16.8025C92.2576 18.6116 92.9322 20.8652 93.3845 22.5976C93.5684 23.3028 93.8137 24.1307 94.151 25.0276C84.9524 25.5335 79.8472 25.0966 75.2172 25.3419C75.2146 24.6763 75.0232 24.025 74.6653 23.4638C72.634 20.1983 67.5441 22.7739 67.5364 22.7663C66.9859 22.1865 66.3102 21.7401 65.561 21.4612C64.8117 21.1822 64.0087 21.078 63.2131 21.1565C61.4153 21.3121 59.6858 21.9185 58.1845 22.9196C55.5782 24.8666 54.3517 28.6304 55.8005 31.6429C55.8005 31.6429 54.3134 33.8199 54.1448 35.1154C53.7845 37.8213 55.9768 40.075 58.8437 38.5342C58.6904 38.9328 59.0124 39.1014 58.9204 39.3774C58.8744 39.5154 58.7211 39.5844 58.6444 39.707C58.2688 40.2896 59.7866 40.9105 58.5448 41.7537C58.2488 41.8983 57.9874 42.1049 57.7782 42.3593C57.7124 42.449 57.6725 42.5551 57.6631 42.666C57.6536 42.7769 57.6749 42.8883 57.7246 42.9879C57.8702 43.3251 58.1002 43.2101 58.2918 43.2715C58.8974 43.4478 58.2918 44.5823 58.7824 44.9502C58.9894 45.1035 59.319 45.0575 59.4646 45.2645C59.6103 45.4715 59.4186 45.8088 59.1963 45.9851C58.7211 46.3683 58.5678 46.5906 58.9587 47.0352L60.4535 48.7063C60.2312 49.0973 59.5029 48.7983 59.3036 49.3196C59.2664 49.4335 59.2618 49.5556 59.2902 49.6721C59.3187 49.7886 59.3791 49.8948 59.4646 49.9788C59.7848 50.242 60.1932 50.3735 60.6068 50.3467V49.9788L61.5573 49.4345C62.3239 49.8715 61.404 51.2743 62.1322 51.6192C62.1322 51.8338 61.8179 51.8262 61.6263 51.9335C61.2584 52.1481 61.4883 52.8917 62.2855 52.7C62.6103 52.6191 62.8953 52.4247 63.0893 52.152C63.2833 51.8793 63.3734 51.5462 63.3434 51.2129C63.8953 51.2743 63.788 52.1175 64.2249 52.5084V52.6234C63.5958 52.5834 62.9665 52.6993 62.3928 52.9607C61.4046 53.2399 60.4322 53.5725 59.48 53.9572C54.3517 56.0269 54.2214 57.0234 50.2814 61.5767C49.4436 62.5434 48.6752 63.568 47.9817 64.6429C47.9357 64.7195 47.8591 64.6429 49.7064 66.2373C49.1361 66.7945 48.6436 67.4263 48.2423 68.1154C40.0939 67.9697 8.81866 67.8241 7.85281 67.8471C6.17407 67.8471 5.3002 68.3223 5.12389 70.0854C4.95525 71.7258 4.74062 90.1077 4.8786 94.4464C4.94759 96.6387 5.08557 98.8387 5.12389 101.031C5.16222 103.223 4.93992 106.397 6.22772 107.646C7.22424 108.589 8.9873 108.367 10.2291 108.413C14.2075 108.413 18.1476 108.413 22.1183 108.214C21.6255 109.464 21.2957 110.773 21.1371 112.108C20.0915 115.761 20.0201 119.625 20.9302 123.315C18.1859 122.211 12.7894 120.325 12.4061 120.938C13.5232 124.564 15.5375 127.85 18.2626 130.49C14.6317 129.917 10.9131 130.377 7.53086 131.816C11.7775 134.414 18.3775 138.753 23.5211 136.461C17.1894 138.147 12.5901 134.445 7.73016 131.862C11.1804 130.451 14.96 130.047 18.6305 130.697C19.0644 130.875 19.4846 131.085 19.8876 131.325C19.9336 131.325 19.995 131.241 19.811 131.118C15.9782 129.064 14.1309 124.71 12.5901 120.931C17.2814 121.697 22.0876 123.568 25.5371 126.572C24.5406 125.108 21.0451 123.407 21.1525 123.361C20.1866 118.562 20.7998 115.649 21.2138 112.744C21.6047 114.545 23.4214 113.825 23.4214 113.825C24.3285 112.296 25.6245 111.034 27.1775 110.168L28.2354 111.05C30.2824 114.415 31.7588 118.096 32.6047 121.943C32.0951 122.73 31.6662 123.568 31.3246 124.441C31.2403 124.832 31.4396 124.625 31.4779 124.549C32.8577 121.659 35.4563 118.163 37.3113 117.09C39.0848 118.179 40.9681 119.079 42.9301 119.773C42.2096 122.901 40.1859 128.749 40.1859 128.749C40.1859 128.749 40.3929 128.903 45.1608 128.083C44.3716 129.555 43.2811 130.845 41.9604 131.869C40.6397 132.892 39.1184 133.627 37.4953 134.023C37.3803 134.023 37.3803 134.207 37.4953 134.2C40.143 134.198 42.7872 134.393 45.4061 134.782C45.4751 134.782 45.4981 134.667 45.4061 134.66C43.0223 134.218 40.6018 134.005 38.1775 134.023C41.1134 133.065 44.6242 131.141 45.4521 127.975C44.1336 127.477 42.1253 128.236 40.4695 128.451C41.7648 125.724 42.6483 122.82 43.0911 119.834C44.2723 120.212 45.495 120.443 46.7322 120.524C48.9827 120.792 51.255 120.249 53.1406 118.991C54.9853 117.762 56.5478 116.155 57.7246 114.277C58.5908 114.545 59.8786 115.411 60.9517 114.975C61.9086 114.425 62.6313 113.544 62.9831 112.499C63.2725 111.851 63.3107 111.119 63.0904 110.444C64.5162 108.727 65.2981 104.641 65.5587 103.461C65.9106 102.065 66.5655 100.764 67.477 99.6497C68.3885 98.5356 69.5341 97.6358 70.8326 97.0143C71.7294 96.7843 71.2235 97.3592 71.2235 97.3592C69.738 98.0339 68.4501 99.0779 67.4826 100.392C66.5151 101.705 65.9003 103.245 65.6967 104.864L70.5183 108.98C70.0737 109.678 69.5524 110.207 69.9817 111.149C70.6042 112.278 71.5105 113.224 72.611 113.894C72.9176 114.101 73.2165 114.361 73.5921 114.254C73.9678 114.147 75.0409 112.928 75.1866 112.775C75.7526 113.377 76.3823 113.917 77.0646 114.384C77.4632 114.706 78.1071 115.059 78.2681 115.496C78.3593 115.9 78.4233 116.31 78.4597 116.722C79.3489 121.13 82.5225 126.687 85.19 130.398C84.4925 130.819 84.2089 131.034 84.2089 131.034L91.1078 141.819C97.7308 140.884 100.444 137.795 100.667 136.936C100.736 136.591 100.245 135.74 99.5092 135.587ZM148.944 76.6701C148.852 77.6742 148.614 78.0422 147.495 78.3641C145.809 78.8471 80.7057 79.077 77.5629 79.0234C77.8465 77.061 78.0688 75.4819 78.2144 73.6115C78.912 74.1251 79.5406 74.7613 80.1998 75.3209C80.2091 75.3309 80.2204 75.3389 80.2329 75.3443C80.2455 75.3497 80.259 75.3526 80.2726 75.3526C80.2863 75.3526 80.2998 75.3497 80.3123 75.3443C80.3249 75.3389 80.3361 75.3309 80.3455 75.3209C80.6904 75.0066 81.02 74.6847 81.3496 74.3551C82.7847 75.4241 84.3676 76.2788 86.0486 76.8924C86.7202 77.143 87.4352 77.2565 88.1514 77.2263C88.8677 77.196 89.5706 77.0225 90.2186 76.716C93.3194 75.173 95.7859 72.5981 97.1942 69.4338C104.208 69.2882 111.23 69.2958 118.236 68.8742C118.252 68.8754 118.269 68.873 118.284 68.8672C118.3 68.8615 118.314 68.8525 118.325 68.8408C118.337 68.8292 118.346 68.8152 118.352 68.7998C118.357 68.7844 118.36 68.768 118.359 68.7516C118.228 65.3405 118.259 61.7607 117.983 58.3495C128.408 58.0122 138.764 57.652 149.189 57.4373C149.189 61.7453 149.143 74.5774 148.944 76.6701ZM73.9678 51.1133C73.9081 51.107 73.8478 51.1128 73.7905 51.1303C73.7332 51.1479 73.68 51.1769 73.6342 51.2156C73.5883 51.2543 73.5508 51.3018 73.5238 51.3554C73.4968 51.4089 73.481 51.4674 73.4772 51.5272C73.4772 51.8108 73.4312 52.0868 73.3928 52.4854C72.9385 53.0051 72.521 53.5558 72.1434 54.1335C71.6925 55.0719 71.3282 56.0495 71.0549 57.054C70.8939 56.6248 70.135 54.3328 70.112 54.3021C69.1935 53.3536 68.1987 52.4819 67.1378 51.6959C67.1934 51.6427 67.2354 51.577 67.2604 51.5042C67.6997 50.6033 67.8496 49.5885 67.6897 48.599C67.5364 47.9398 67.1071 47.1119 67.82 46.6366C67.8822 46.5853 67.962 46.5605 68.0423 46.5676C68.4869 46.629 68.3183 47.4952 68.3183 47.7865C68.3183 49.5419 68.2646 49.9635 68.5482 50.2854C68.6035 50.3589 68.6799 50.4139 68.7671 50.4429C68.8544 50.4719 68.9485 50.4736 69.0368 50.4478C69.125 50.422 69.2033 50.3699 69.2612 50.2984C69.3191 50.2269 69.3539 50.1395 69.3608 50.0478C69.5218 49.3272 69.0618 48.576 69.1921 47.8478C69.2995 47.2499 69.7977 46.629 69.4911 46.1C69.4049 45.9944 69.328 45.8816 69.2611 45.7628C69.0312 45.2185 69.859 44.6973 69.7211 44.13C69.6291 43.7237 69.0848 43.5091 69.0925 43.0952C69.1227 42.9191 69.1906 42.7518 69.2918 42.6046C69.5132 42.1992 69.5681 41.7236 69.4451 41.2784C69.3682 41.0826 69.3241 40.8754 69.3148 40.6652C69.3148 40.4582 69.5064 40.2436 69.7134 40.2896C69.8116 40.327 69.9025 40.3815 69.9817 40.4506C70.0581 40.4887 70.1421 40.5093 70.2275 40.5109C70.3129 40.5125 70.3976 40.4951 70.4755 40.4598C70.5533 40.4246 70.6223 40.3724 70.6774 40.3072C70.7326 40.242 70.7725 40.1652 70.7942 40.0826C70.7988 39.8538 70.7651 39.6258 70.6946 39.4081C70.6455 39.0917 70.7183 38.7684 70.8982 38.5036C71.0781 38.2388 71.3518 38.052 71.664 37.981C71.9762 37.91 72.3037 37.96 72.5805 38.121C72.8572 38.282 73.0626 38.542 73.1552 38.8485C73.2625 39.2088 73.2089 39.615 73.4235 39.9217C73.6381 40.2283 73.8988 40.2896 74.1287 40.4889C74.5478 41.0315 74.7377 41.7167 74.6576 42.3976C74.6576 43.0722 74.9183 43.8847 75.5698 44.061C75.9148 43.6624 75.5698 43.0568 75.5698 42.5279C75.6379 41.9429 75.9092 41.4003 76.3364 40.9948C76.4514 40.8568 76.5893 40.6959 76.7963 40.7342C76.8619 40.7513 76.9229 40.7829 76.9746 40.8266C77.0263 40.8704 77.0676 40.9253 77.0953 40.9872C77.1644 41.2562 77.1644 41.5383 77.0953 41.8074C76.988 43.0952 78.0918 43.9844 77.9921 45.2722C77.9578 45.8408 77.8229 46.3988 77.5935 46.9203C76.4437 49.1509 76.0604 50.0401 75.4012 50.6227C75.0062 50.9678 74.4914 51.144 73.9678 51.1133ZM75.1789 53.7196C74.627 54.8157 74.2667 56.0192 73.6458 57.0924C73.2549 56.1189 72.3043 54.1871 72.2967 54.1795C72.542 53.9112 73.3852 52.8763 73.7378 52.4471C73.9728 52.4265 74.2085 52.4788 74.4128 52.5967C74.6171 52.7146 74.7802 52.8925 74.8799 53.1063C74.9366 53.329 75.0383 53.5378 75.1789 53.7196ZM69.9894 54.3788C69.3899 55.3428 68.8522 56.3439 68.3796 57.376C67.682 56.6094 65.3134 53.5432 64.5469 52.6157C64.8151 52.6694 64.9378 52.4317 65.0451 52.2708C65.231 51.9978 65.5 51.7922 65.8121 51.6845C66.1243 51.5767 66.4629 51.5727 66.7775 51.6729H66.8848C67.5671 52.3934 69.5064 53.9419 69.9894 54.3788ZM77.7928 53.0143C77.9421 53.0851 78.1054 53.121 78.2706 53.1193C78.4357 53.1175 78.5983 53.0783 78.7461 53.0044C78.8938 52.9305 79.0228 52.824 79.1232 52.693C79.2237 52.5619 79.293 52.4096 79.3259 52.2478C79.3539 51.8083 79.488 51.3822 79.7169 51.006C80.6291 49.8868 83.4117 51.4429 82.6758 47.6255C82.6044 47.4224 82.6001 47.2019 82.6636 46.9962C82.7271 46.7906 82.855 46.6108 83.0284 46.4833C83.7949 45.6708 84.5615 44.498 84.1245 43.4171C83.9921 43.1974 83.8914 42.9599 83.8256 42.7119C83.7643 42.1446 84.3622 41.6617 84.2778 41.1021C83.776 40.8672 83.3758 40.4588 83.151 39.9523C82.9747 39.3391 83.3427 38.7105 83.496 38.0896C83.6493 37.4687 83.3657 36.5565 82.7294 36.6332C82.7291 36.7442 82.6978 36.8529 82.6391 36.9472C82.5804 37.0415 82.4967 37.1175 82.3972 37.1669C82.2977 37.2162 82.1865 37.2369 82.0759 37.2266C81.9653 37.2162 81.8598 37.1753 81.7712 37.1084C81.2193 36.6945 81.6486 36.1502 81.7712 35.6826C81.7905 35.3145 81.704 34.9486 81.522 34.628C81.34 34.3075 81.07 34.0457 80.7441 33.8736C80.0843 33.542 79.4602 33.1439 78.8813 32.6854C78.9533 32.5657 79.0501 32.4627 79.1651 32.3834C79.2801 32.3041 79.4107 32.2503 79.5482 32.2255C79.6402 31.7656 79.0806 31.4589 78.6207 31.367C77.0349 31.0323 75.3852 31.1791 73.8834 31.7886C73.5886 31.9508 73.2534 32.0253 72.9176 32.0032C72.588 31.9342 72.312 31.5279 72.519 31.2366C72.6033 31.114 72.7796 31.022 72.8486 30.907C75.3169 30.907 74.8876 30.7001 84.6305 30.7767C88.5629 30.7767 92.4876 30.8764 96.42 30.884C96.9517 32.229 97.5503 33.5466 98.2137 34.8318C99.8506 37.7813 101.917 40.4707 104.346 42.8115C102.046 42.5356 94.6953 42.6812 92.9169 42.6276C92.8864 42.6276 92.8571 42.6397 92.8356 42.6612C92.814 42.6828 92.8019 42.7121 92.8019 42.7426C92.8632 47.2192 92.9552 51.7955 93.2465 56.2645C93.1359 56.4432 93.0704 56.6462 93.0557 56.8558C93.041 57.0655 93.0775 57.2756 93.1622 57.468L86.9608 63.1788C85.7113 61.6457 80.928 56.0422 76.0681 53.5356C76.6507 53.1753 76.7503 52.5314 77.7545 53.0143H77.7928ZM105.389 46.1154C102.782 48.369 97.9761 52.8304 96.742 54.2945C96.5641 54.1849 96.3651 54.114 96.158 54.0865C95.9509 54.059 95.7403 54.0754 95.54 54.1347C95.3396 54.194 95.154 54.2949 94.9953 54.4307C94.8365 54.5665 94.7082 54.7343 94.6186 54.923C94.3656 54.9908 94.1375 55.1303 93.9621 55.3249C93.7866 55.5194 93.6712 55.7605 93.6298 56.0192C93.5348 56.0479 93.4463 56.0948 93.3691 56.1572C93.1008 51.9871 92.8939 43.1258 92.9552 42.8959C92.9552 42.9725 102.537 42.8959 104.453 43.0568C104.768 43.3558 104.944 43.5244 105.266 43.8234C105.251 44.5593 105.35 45.3795 105.35 46.1307L105.389 46.1154ZM106.676 45.0345C106.416 45.2338 106.056 45.5328 105.626 45.9084C105.626 45.1955 105.565 44.5363 105.534 43.969C105.826 44.2297 106.117 44.4826 106.416 44.7356C106.462 44.8506 106.546 44.9502 106.638 45.0499L106.676 45.0345ZM105.841 42.5739C104.921 38.4882 107.504 35.3607 110.532 32.2868C111.726 30.9228 113.104 29.7309 114.626 28.7454C116.251 27.8255 118.543 27.0896 120.413 27.5879C121.245 27.8583 121.994 28.338 122.587 28.981C123.18 29.6239 123.598 30.4086 123.801 31.2596C124.828 34.8778 122.674 38.4422 120.313 41.0178C117.715 43.8464 113.529 46.7976 109.49 46.1384C108.607 45.9458 107.795 45.5121 107.144 44.8855C106.493 44.259 106.029 43.464 105.803 42.5892L105.841 42.5739ZM105.787 58.5718C105.789 58.605 105.804 58.6362 105.828 58.659C105.852 58.6818 105.884 58.6945 105.918 58.6945C109.893 58.5871 113.874 58.467 117.86 58.3342C117.86 60.9634 118.274 67.5941 118.152 68.1843C118.029 68.7746 117.102 68.6903 116.488 68.7209C115.231 68.7823 102.614 69.1042 97.3245 69.1962C98.9113 65.4401 98.4744 61.5307 97.9608 57.0387C97.9679 56.3489 97.8322 55.6651 97.5622 55.0303C97.7691 54.6241 98.3287 54.4324 98.0528 53.5739C99.9615 51.9105 103.273 48.8366 105.366 46.8436C105.366 50.7683 105.58 54.6931 105.749 58.5871L105.787 58.5718ZM87.2367 63.6847C87.413 63.5084 91.7594 59.4073 93.2771 57.9586L93.4305 60.4499C91.9726 62.4706 90.7919 64.6774 89.9197 67.0115C89.1166 66.1067 88.2082 65.3012 87.2137 64.6122C87.2619 64.3054 87.2696 63.9936 87.2367 63.6847ZM93.6144 60.1892L93.4611 57.7899L93.8291 57.4296C94.036 57.6749 94.1433 58.2422 94.3273 58.4338C94.381 58.5028 94.6186 58.7175 94.7106 58.6791C94.8026 58.6408 94.243 59.2847 93.6144 60.1816V60.1892ZM90.0653 67.5174C90.1343 67.5864 90.2723 67.5174 90.2109 67.4025C90.1496 67.2875 90.0653 67.1955 89.9657 67.0728C91.2754 64.0674 92.9515 61.2352 94.9559 58.6408C94.9638 58.6279 94.9689 58.6135 94.9708 58.5985C94.9728 58.5835 94.9715 58.5683 94.9672 58.5539C94.9629 58.5394 94.9555 58.526 94.9456 58.5146C94.9358 58.5031 94.9236 58.4939 94.9099 58.4875C94.7374 58.3969 94.5861 58.2708 94.4659 58.1176C94.3457 57.9643 94.2593 57.7873 94.2123 57.5983C94.1127 57.3223 94.1204 56.9851 93.7754 56.9391C93.5608 56.9391 93.2388 57.1997 93.2542 57.2074C93.2695 57.215 93.2542 55.7432 94.8869 56.3105C95.0249 56.3641 95.0785 56.1495 94.9406 56.0959C94.5599 55.9575 94.1477 55.9309 93.7524 56.0192C93.8743 55.6888 94.1147 55.4155 94.427 55.2527C94.6029 55.193 94.7917 55.1814 94.9736 55.2191C95.1555 55.2568 95.3241 55.3425 95.4618 55.4673C95.484 55.4839 95.5113 55.492 95.539 55.49C95.5666 55.488 95.5925 55.4762 95.6121 55.4566C95.6317 55.437 95.6435 55.4111 95.6455 55.3834C95.6475 55.3558 95.6394 55.3285 95.6228 55.3063C95.5129 55.1781 95.3723 55.0798 95.2141 55.0208C95.0559 54.9618 94.8853 54.944 94.7183 54.969C95.3928 53.9418 96.7803 54.2715 97.3859 55.2143C97.6366 55.724 97.7602 56.2869 97.7461 56.8547C98.0592 59.0637 98.2103 61.2927 98.1984 63.5237C98.2368 65.7525 97.74 67.958 96.7496 69.9551C95.5158 72.3991 93.6396 74.4608 91.3224 75.9188C90.577 76.4605 89.7126 76.8156 88.8017 76.9543C87.8907 77.093 86.9598 77.0113 86.0869 76.716C84.4468 76.1138 82.8988 75.2856 81.4876 74.2554C82.8001 72.9435 83.9575 71.4852 84.9371 69.9091C85.9314 68.3099 86.688 66.5747 87.1831 64.7579C88.1796 65.6624 89.1531 66.5593 90.0653 67.5174ZM96.9643 54.4401C97.1942 54.2638 97.5008 54.0108 97.8611 53.6736C97.9143 53.9373 97.8649 54.2114 97.7231 54.4401C97.6019 54.5564 97.5031 54.6942 97.4319 54.8464C97.3018 54.7024 97.149 54.5807 96.9796 54.4861L96.9643 54.4401ZM87.0604 63.838C87.0604 65.4631 86.0716 67.3718 85.3357 68.7439C84.087 70.9702 82.5108 72.9961 80.6597 74.7537C80.4681 74.976 80.4298 75.114 80.2611 75.0833C80.0925 75.0526 78.8277 73.7648 78.2451 73.4199C78.2451 72.96 78.3141 72.4847 78.3448 71.9941C81.2576 69.2958 84.3545 66.3906 87.0604 63.838ZM149.205 57.169C141.631 57.3223 107.504 58.5028 106.607 58.4338C106.048 58.3878 105.994 58.3342 105.971 57.7286C105.971 57.307 105.795 51.1209 105.619 46.606C106.178 46.0694 106.638 45.6248 106.922 45.3412C107.577 45.9956 108.422 46.4274 109.336 46.5753C113.261 47.1426 117.301 44.6513 119.968 41.976C123.035 38.9098 125.549 34.6555 124.016 30.6004C128.515 30.7231 145.15 30.3781 149.312 30.1558C149.327 34.0422 149.228 52.0408 149.205 57.169ZM147.319 25.5642C149.404 26.0318 149.304 27.8638 149.304 29.9182C145.127 30.0408 128.339 30.3168 123.947 30.4471C123.485 29.2341 122.611 28.222 121.479 27.5879C121.187 27.4346 118.106 26.3154 115.668 25.2882C124.828 25.1272 145.617 25.1809 147.319 25.5642ZM93.0395 19.5391C92.8862 18.4966 92.6256 17.1398 93.2082 16.1816C93.7907 15.2234 95.2012 15.0164 96.2744 15.3537C97.6235 15.7753 97.9531 16.3579 101.64 18.4199C103.787 19.6004 111.536 23.6555 113.69 24.7823C115.343 25.686 117.066 26.455 118.842 27.0819C117.833 27.1448 116.839 27.3647 115.898 27.7335C114.002 28.5553 112.311 29.7855 110.946 31.3363C109.3 32.8841 107.839 34.6179 106.592 36.5028C104.791 39.4771 105.021 42.4896 106.04 44.2373C99.4555 38.2889 97.3859 33.7969 94.5879 25.5642C93.8873 23.6078 93.3689 21.5909 93.0395 19.5391ZM94.2353 25.3572C94.8102 27.0666 95.5308 28.983 96.2284 30.7231C83.197 30.7231 76.1524 30.4931 72.7873 30.8687C72.7489 30.7384 72.565 30.6771 72.427 30.6464C73.7225 29.2896 75.1559 27.4576 75.2172 25.5948C78.4674 25.7098 89.2298 25.6332 94.2353 25.3572ZM58.4221 23.0576C59.6725 22.2654 61.0746 21.7432 62.5385 21.5245C63.3785 21.3346 64.2528 21.3594 65.0808 21.5966C65.9087 21.8337 66.6636 22.2755 67.2758 22.8812C67.2758 22.8812 60.0242 25.3572 55.9155 31.5433C55.0263 28.3697 55.5935 25.0736 58.4221 23.0576ZM60.0242 36.8555C59.9132 37.0817 59.7535 37.2807 59.5566 37.438C59.388 37.6297 59.273 37.9286 59.4416 38.1203C59.4425 38.1037 59.4389 38.0873 59.4311 38.0726C59.4234 38.058 59.4119 38.0457 59.3977 38.037C59.3836 38.0284 59.3674 38.0237 59.3508 38.0236C59.3343 38.0234 59.318 38.0276 59.3036 38.0359C57.5176 39.1551 55.2869 39.1014 54.551 36.8555C53.9838 35.1384 54.8193 33.429 55.8235 32.0645C60.6068 25.5488 68.3029 22.0994 71.8137 22.0994C74.0444 22.1377 75.1942 24.2227 74.7803 26.2617C74.443 27.9865 73.2472 29.3279 72.082 30.5391C71.3155 30.6234 70.6179 31.367 69.3301 32.5168C69.3423 32.3594 69.3267 32.2012 69.2841 32.0492C70.5336 31.0067 71.7064 29.3816 71.7448 27.7258C71.7448 27.0743 71.6451 26.0394 71.0472 25.6332C70.4493 25.2269 69.2228 25.5028 68.4563 25.6178C66.0912 26.0813 63.8723 27.1066 61.9866 28.6074C60.4535 29.7725 58.5294 31.1906 58.0388 33.2067C57.7016 34.5558 58.5754 36.4339 60.1545 36.0122C60.0242 36.3802 60.1469 36.6025 60.0242 36.8555ZM63.7573 34.7934C62.7915 34.9391 62.7148 33.9349 61.9636 33.8276C61.8541 33.8095 61.7418 33.8345 61.6503 33.8974C61.5588 33.9602 61.4953 34.0561 61.473 34.1649C61.473 34.3948 61.611 34.4945 61.7336 34.6325C61.8043 34.7339 61.8495 34.851 61.8651 34.9736C61.8808 35.0963 61.8666 35.2209 61.8237 35.3369C61.7807 35.4529 61.7104 35.5567 61.6186 35.6396C61.5269 35.7225 61.4164 35.782 61.2967 35.8129L60.9287 35.3224C60.6607 35.3956 60.4288 35.5647 60.2772 35.7976C59.9981 35.8427 59.7124 35.823 59.4422 35.7398C59.172 35.6566 58.9247 35.5123 58.7193 35.3181C58.5139 35.1238 58.3561 34.8848 58.258 34.6197C58.1599 34.3546 58.1243 34.0704 58.1538 33.7893C58.325 32.6215 58.9033 31.5518 59.7866 30.769C64.3322 26.2081 70.0507 24.9279 71.1775 26.0931C71.7524 26.691 72.0744 29.4352 69.1921 31.9112C69.1647 31.8635 69.1262 31.8231 69.0799 31.7934C69.0337 31.7636 68.981 31.7453 68.9262 31.7401C68.8714 31.7348 68.8162 31.7427 68.7651 31.7632C68.714 31.7836 68.6686 31.816 68.6326 31.8575C68.4179 32.1488 68.9928 32.4785 68.119 32.7697C67.9427 32.8311 67.5441 32.8771 67.4291 32.7697C67.2221 32.5168 67.8813 32.0952 67.6131 31.9189C67.4061 31.6123 66.8465 31.7656 66.6855 32.0798C66.5425 32.4239 66.4321 32.7806 66.3559 33.1453C66.1489 33.7049 65.5894 33.8506 65.4207 33.6053C64.9761 32.9537 65.574 32.9767 65.551 32.6088C65.551 32.0798 64.5852 32.1565 64.6312 33.13C64.6312 33.567 64.8075 34.0039 64.5085 34.4178C64.3298 34.6399 64.0711 34.783 63.788 34.8164L63.7573 34.7934ZM48.227 64.6889C48.227 64.6122 48.48 64.2979 48.526 64.229C49.3066 63.1085 50.1539 62.0359 51.0632 61.0171C54.3747 57.1844 54.735 56.2492 58.8361 54.4708C59.725 54.0822 60.6333 53.7394 61.5573 53.4436C62.2395 53.229 63.7036 52.5621 64.3935 52.838C64.6848 53.4589 64.9071 53.6812 68.2646 57.514C68.2646 57.514 68.2646 57.5676 68.3183 57.514C68.3719 57.4603 69.5294 55.4749 70.0277 54.5014C70.1197 55.4507 70.4406 56.3634 70.9629 57.1614C70.9692 57.1708 70.9777 57.1786 70.9877 57.184C70.9978 57.1894 71.009 57.1922 71.0204 57.1922C71.0318 57.1922 71.043 57.1894 71.053 57.184C71.063 57.1786 71.0716 57.1708 71.0779 57.1614C71.5605 56.2639 71.9411 55.3151 72.2124 54.3328C72.634 55.314 73.1859 56.2262 73.5768 57.2227C73.5768 57.2227 73.7455 57.2763 73.7761 57.2227C74.2514 56.0652 74.9336 54.9614 75.3092 53.7579C75.388 53.7914 75.4727 53.8087 75.5583 53.8087C75.644 53.8087 75.7287 53.7914 75.8075 53.7579C80.8437 57.1077 82.0932 57.9969 86.7998 63.3934C84.1859 65.808 81.2116 68.5523 78.3678 71.1662C78.4445 69.9895 78.4445 68.8091 78.3678 67.6324C78.3678 67.5558 78.0458 66.4443 78.0305 67.5711C78.0305 68.4143 78.0305 69.8708 77.9461 71.5572C74.3664 74.884 71.0472 77.9502 69.1998 79.7746C68.8336 79.7112 68.4575 79.7375 68.1036 79.8512C67.9597 79.9121 67.8027 79.9355 67.6472 79.9194C67.4918 79.9034 67.3429 79.8483 67.2144 79.7593C66.9308 79.6289 60.3155 76.6241 59.1503 75.9955C58.7364 75.7655 57.4946 75.3286 57.5099 74.7613C57.5099 74.562 58.3838 73.2282 58.5448 72.9216C59.411 73.5119 59.388 73.5349 59.4646 73.4659C61.6777 71.5368 63.5196 69.2196 64.8995 66.6283C64.902 66.6237 64.9036 66.6187 64.9042 66.6136C64.9048 66.6084 64.9043 66.6032 64.9029 66.5982C64.9015 66.5933 64.8991 66.5886 64.8959 66.5845C64.8927 66.5805 64.8887 66.5771 64.8841 66.5746C64.8796 66.5721 64.8746 66.5705 64.8695 66.5699C64.8643 66.5693 64.8591 66.5697 64.8541 66.5711C64.8491 66.5726 64.8445 66.575 64.8404 66.5782C64.8364 66.5814 64.833 66.5854 64.8305 66.5899C64.0026 67.9774 59.6256 73.2896 59.3803 73.2819C59.135 73.2742 53.9225 69.4492 53.6848 69.2575C54.6486 68.2864 55.5401 67.2462 56.3524 66.1453C56.4144 65.3263 56.4144 64.5037 56.3524 63.6847C56.3507 63.6629 56.3412 63.6425 56.3258 63.627C56.3103 63.6116 56.2899 63.6021 56.2681 63.6004C55.4402 63.6004 54.482 63.3474 53.9225 64.0143C52.9949 65.1105 52.0291 66.1377 51.1169 67.2415C50.8869 66.9885 48.2653 64.7502 48.2577 64.6735L48.227 64.6889ZM53.5315 69.1349C52.765 68.537 51.9984 67.9314 51.2319 67.2952C52.0444 66.5286 53.8995 64.137 54.1831 63.9147C54.7719 63.7147 55.3997 63.6569 56.0151 63.746C56.3218 63.8303 56.2528 65.2025 56.1991 65.7161C56.1455 66.2296 54.1678 68.445 53.5622 69.1195L53.5315 69.1349ZM49.8598 66.314C52.5876 68.6243 55.4354 70.789 58.3915 72.799C57.4639 74.6387 56.9197 74.838 57.119 74.9683C60.4075 77.1683 64.2556 78.2262 67.6054 80.3342C67.7664 80.4415 68.0193 79.9279 68.9928 79.9739L68.4333 80.5181C68.4134 80.461 68.4134 80.3989 68.4333 80.3418C68.4333 80.2958 68.4333 80.2728 68.3719 80.2958C68.0193 80.5948 68.7705 81.1544 69.6061 80.5411C69.741 80.6714 69.8434 80.8316 69.905 81.0087C69.9348 81.1421 69.9337 81.2805 69.9018 81.4133C69.8699 81.5462 69.8081 81.67 69.7211 81.7753C69.541 81.9726 69.3077 82.1137 69.0494 82.1817C68.791 82.2497 68.5185 82.2417 68.2646 82.1586C68.2646 82.1586 68.188 82.2122 68.2646 82.2352C68.5236 82.3623 68.8153 82.4069 69.1004 82.363C69.3855 82.3191 69.6503 82.1889 69.859 81.9899C69.9358 82.1674 69.9593 82.3633 69.9266 82.5538C69.8939 82.7444 69.8065 82.9213 69.6751 83.0631C69.2381 83.546 68.6479 83.385 68.096 83.2777C68.0832 83.2742 68.0695 83.2756 68.0576 83.2816C68.0458 83.2876 68.0366 83.2978 68.0318 83.3102C68.027 83.3226 68.027 83.3364 68.0318 83.3488C68.0366 83.3612 68.0458 83.3714 68.0577 83.3774C68.4004 83.5836 68.8086 83.6521 69.1998 83.569C69.1998 84.4199 67.5747 84.3356 67.1071 84.2129C66.6468 84.037 66.2231 83.7771 65.8577 83.4464C65.6813 83.293 65.4361 82.8791 65.2367 82.7948C65.0374 82.7105 63.7036 82.9711 59.7942 82.9021C53.5162 82.7871 52.4584 81.9363 49.9747 79.3376C46.1343 75.2903 46.5559 69.9321 49.8904 66.2986L49.8598 66.314ZM5.59915 69.0505C6.3657 67.5941 9.04863 68.1 10.3824 68.1C14.3685 68.1 39.4653 68.1843 48.1963 68.3683C47.4922 69.654 47.1034 71.0884 47.0618 72.5537C39.8563 72.385 12.1148 72.4004 5.21588 72.5077C5.24654 71.3502 5.1009 69.9627 5.59915 69.0505ZM25.5295 102.089C24.5329 102.71 23.1378 105.431 22.1873 108.007C7.99079 108.229 7.70717 108.382 6.67999 107.754C5.22354 106.872 5.3232 103.783 5.33086 102.112C5.33853 100.441 5.25421 98.7314 5.18522 97.045C4.84793 88.9349 5.23121 72.6533 5.23121 72.6227C8.62703 72.7913 39.8333 72.6227 47.0695 72.7913C47.0695 76.3098 49.1392 79.1613 51.8911 81.3C51.7761 81.5223 51.0172 82.4422 50.9713 82.5418C51.5282 83.1787 52.1441 83.7613 52.811 84.2819L46.303 100.05C46.134 99.9188 45.923 99.8543 45.7097 99.8684C45.4964 99.8825 45.2956 99.9743 45.1455 100.126C44.3789 100.832 44.2563 102.426 44.0646 103.346C43.827 104.565 43.8653 104.94 45.1455 106.412C45.1455 106.412 43.6124 108.474 43.6124 108.513C43.6124 108.551 36.8591 106.481 36.1155 106.343C36.1998 105.822 36.2458 105.508 36.2458 105.508C36.2458 105.508 27.2619 101.008 25.5295 102.089ZM55.6702 96.0868C55.6702 96.1481 57.3336 96.2477 61.2124 94.5537C61.2124 94.9369 58.1462 102.794 58.1462 102.794C58.1462 102.794 57.4793 104.235 55.6012 103.3C54.0615 102.441 52.595 101.456 51.2165 100.356C51.2165 100.356 50.197 99.6972 51.1092 97.7962C52.0214 95.8951 53.9991 91.1579 54.1141 90.9739C54.2789 92.7654 54.8057 94.5048 55.6625 96.0868H55.6702ZM54.3057 90.7209C54.5127 90.4833 54.7963 90.3146 55.0723 90.5599L60.1469 92.9362C60.4205 93.0438 60.6602 93.2229 60.8409 93.4549C61.0217 93.6868 61.1367 93.9631 61.174 94.2547C60.3615 94.638 56.7817 95.9565 55.8082 95.8338C55.0251 94.233 54.5147 92.5128 54.2981 90.7439L54.3057 90.7209ZM31.7232 110.306C31.5015 111.053 31.1819 111.767 30.7727 112.43C30.6883 112.56 30.443 112.483 30.5044 112.315C30.765 111.594 31.2096 110.92 31.5392 110.23C31.5442 110.218 31.5516 110.207 31.5609 110.197C31.5701 110.188 31.5812 110.181 31.5933 110.176C31.6054 110.171 31.6183 110.168 31.6314 110.168C31.6445 110.168 31.6574 110.171 31.6695 110.176C31.6816 110.181 31.6926 110.188 31.7018 110.198C31.711 110.207 31.7184 110.218 31.7233 110.23C31.7283 110.242 31.7309 110.255 31.7308 110.268C31.7308 110.281 31.7282 110.294 31.7232 110.306ZM30.489 109.54C30.3434 109.885 29.9448 111.211 29.7761 111.464C29.7629 111.488 29.742 111.507 29.7169 111.517C29.6917 111.528 29.6636 111.53 29.6372 111.523C29.6108 111.516 29.5874 111.5 29.571 111.478C29.5545 111.457 29.5457 111.43 29.5462 111.402C29.718 110.721 29.9756 110.064 30.3127 109.448C30.3817 109.363 30.535 109.463 30.489 109.57V109.54ZM28.289 110.559C28.4561 109.94 28.6661 109.333 28.9176 108.743C28.9247 108.716 28.942 108.694 28.9658 108.68C28.9895 108.666 29.0177 108.663 29.0441 108.67C29.0705 108.677 29.093 108.694 29.1067 108.718C29.1203 108.742 29.124 108.77 29.1169 108.796C28.9736 109.431 28.7603 110.048 28.4807 110.636C28.4668 110.65 28.4494 110.66 28.4304 110.666C28.4113 110.671 28.3911 110.672 28.3718 110.667C28.3526 110.662 28.3348 110.653 28.3203 110.639C28.3058 110.626 28.295 110.609 28.289 110.59V110.559ZM32.7427 121.713C32.1006 118.041 30.7184 114.538 28.68 111.418L33.2026 115.205C33.2026 115.205 33.3023 115.036 33.4556 114.729C34.6246 115.541 35.8404 116.283 37.0967 116.952C35.6249 117.596 33.7775 120.264 32.7427 121.743V121.713ZM52.8723 118.754C50.4883 120.287 49.1469 120.417 46.2493 120.172C43.8621 119.892 41.5552 119.136 39.4653 117.949C38.4177 117.412 37.3778 116.848 36.3455 116.255C35.4026 115.71 34.4981 115.074 33.5399 114.561C34.7933 112.058 35.6518 109.377 36.0849 106.611C36.6444 106.818 42.6389 108.467 43.7044 108.773C43.8193 108.773 43.758 108.842 45.2911 106.604C47.8361 109.478 50.9406 111.011 54.4207 112.736C55.4249 113.219 56.4291 113.71 57.4869 114.154C56.2853 116 54.714 117.577 52.8723 118.784V118.754ZM61.9789 113.763C60.8597 115.205 60.0242 114.898 58.2151 114.17C55.9922 113.28 53.8535 112.169 51.7378 111.103C49.6449 110.08 47.7235 108.738 46.0423 107.125C45.2145 106.282 43.942 105.186 44.1566 103.921C44.2639 103.285 44.8695 101.016 44.9232 100.939C45.0765 100.326 45.5441 100.119 46.326 100.326C46.326 100.372 62.4925 110.391 62.9678 110.605C63.2744 111.686 62.6688 112.897 61.9789 113.794V113.763ZM51.1552 82.5802C51.441 82.1937 51.6972 81.7863 51.9218 81.3613C53.8228 82.8178 56.5977 82.8944 58.8974 83.0018C62.8604 83.1397 63.7803 82.8101 64.8075 82.9021C65.2444 82.9404 65.0988 82.9481 65.528 83.362C64.8765 83.7683 62.7071 85.585 62.4618 86.1523C62.4583 86.1619 62.4575 86.1724 62.4597 86.1824C62.4619 86.1924 62.4669 86.2016 62.4742 86.2089C62.4815 86.2162 62.4907 86.2212 62.5007 86.2234C62.5107 86.2256 62.5212 86.2248 62.5308 86.2213C63.0827 86.1216 65.2444 84.2282 65.758 83.6073C66.2012 83.9805 66.7267 84.2432 67.2911 84.3739C67.8813 84.5042 69.3914 84.3739 69.2918 83.454C69.4578 83.4025 69.6099 83.3138 69.7365 83.1946C69.863 83.0754 69.9607 82.929 70.0221 82.7663C70.0834 82.6037 70.1068 82.4292 70.0906 82.2561C70.0743 82.083 70.0187 81.9159 69.928 81.7676C70.1887 81.4687 70.2346 80.5641 69.6597 80.3418C69.5448 80.1655 69.4681 80.4721 68.9775 80.5871C68.8937 80.5996 68.8084 80.5996 68.7245 80.5871C70.4723 79.1613 73.9984 75.9878 77.9231 72.3544C77.7315 76.5014 77.1566 82.0129 75.6695 85.6004C72.2503 86.9147 68.5975 87.5122 64.9378 87.3558C60.7294 87.2025 53.8918 85.6464 51.1552 82.5802ZM73.9754 113.671C73.1399 114.308 72.2737 113.434 71.6298 112.844C70.9859 112.253 70.0967 111.188 70.0967 110.26C70.0967 109.547 83.082 93.6415 83.312 93.4575C83.9866 92.9209 84.0785 92.8136 84.7914 93.5801C85.2974 94.1551 86.8611 96.746 86.8535 97.4129C86.8535 100.134 74.535 113.25 73.9754 113.671ZM78.6897 116.661C78.6758 116.177 78.6063 115.696 78.4827 115.228C78.1679 114.895 77.8095 114.606 77.4172 114.369C76.712 113.802 76.0451 113.196 75.3782 112.583C78.5977 109.195 82.8751 104.557 85.4123 100.64C88.7545 105.416 88.8158 107.899 89.9197 113.533C90.8089 118.079 91.6444 122.556 92.135 127.163C91.2535 127.439 85.9566 129.938 85.4123 130.267C82.7448 126.434 79.6096 121.222 78.6897 116.661ZM91.0618 131.908C91.3608 131.739 92.4876 131.049 92.7866 130.942C92.8632 130.942 92.9475 131.018 92.8939 131.087C92.4333 131.605 91.822 131.964 91.1461 132.115C91.1206 132.118 91.0946 132.114 91.0722 132.101C91.0498 132.088 91.0323 132.068 91.0226 132.044C91.0129 132.02 91.0114 131.994 91.0186 131.969C91.0257 131.944 91.0409 131.923 91.0618 131.908ZM91.4604 133.142C92.0196 132.858 92.5927 132.602 93.1775 132.375C93.2925 132.375 93.3998 132.498 93.3001 132.582C92.7663 132.937 92.175 133.196 91.5524 133.349C91.4528 133.379 91.3301 133.172 91.4528 133.119L91.4604 133.142ZM93.6221 134.207C93.138 134.646 92.5933 135.013 92.0047 135.296C91.882 135.334 91.7747 135.165 91.8744 135.081C92.3885 134.694 92.929 134.343 93.4918 134.031C93.5838 133.977 93.6834 134.108 93.6221 134.207Z" fill="black"/>
<path d="M134.517 41.309L135.452 41.608C135.353 40.8448 134.97 40.147 134.379 39.6533C134.574 39.5666 134.757 39.4559 134.924 39.3236C135.106 39.5352 135.321 39.7163 135.56 39.8602C135.629 39.8602 135.774 39.9369 135.744 39.7452C135.496 39.4962 135.205 39.2936 134.885 39.1473C134.816 39.1473 134.287 39.4233 134.165 39.477C133.908 39.2815 133.63 39.1144 133.337 38.9787C133.337 38.8561 133.375 38.3041 133.337 38.1738C133.503 38.1081 133.655 38.009 133.781 37.8825C134.257 37.5069 133.153 38.0818 133.145 38.0895C133.104 38.3429 133.086 38.5994 133.092 38.8561C132.626 38.6608 132.136 38.5293 131.635 38.4651C131.673 38.3885 131.888 37.3919 131.719 37.2616C131.719 37.2233 131.275 36.8094 131.007 36.5564C130.807 36.6024 131.535 37.2693 131.635 37.323C131.535 37.6826 131.481 38.0535 131.474 38.4268C131.079 38.3936 130.68 38.422 130.294 38.5111C130.209 37.7446 129.427 37.5836 128.761 37.9362C128.761 37.9362 127.787 34.686 127.565 34.0115C127.511 33.8658 127.488 33.8888 127.519 34.0115C127.664 34.6707 128.584 37.9515 128.63 37.9975C128.553 38.0396 128.483 38.094 128.423 38.1585C127.583 36.9553 126.426 36.0081 125.081 35.4219C124.269 35.1 124.108 35.0923 124.912 35.5216C126.243 36.2262 127.411 37.203 128.339 38.3885C128.032 38.9327 128.094 39.9675 128.684 40.1669C128.609 40.4884 128.573 40.8179 128.577 41.148C128.245 41.0829 127.904 41.0829 127.572 41.148C127.526 41.056 126.882 40.1668 126.936 40.3815C126.936 40.5118 127.442 41.263 127.641 41.286C127.954 41.3214 128.269 41.3368 128.584 41.332C128.616 41.8503 128.701 42.364 128.837 42.8651C128.55 42.8024 128.257 42.769 127.963 42.7655C127.806 42.8846 127.659 43.018 127.526 43.1641C127.112 43.6623 127.68 43.486 128.04 42.9494C129.366 43.2177 128.623 42.7731 129.251 43.877C129.056 44.1203 128.876 44.3764 128.715 44.6435C128.77 44.9443 128.89 45.2294 129.067 45.479C129.151 45.709 129.435 45.6094 129.197 45.1954C129.107 45.0262 128.999 44.8669 128.875 44.7202C129.096 44.558 129.27 44.3414 129.381 44.0916C129.623 44.4801 129.963 44.7976 130.367 45.0118C130.771 45.2259 131.224 45.329 131.681 45.3104L131.505 44.6818C131.96 44.8239 132.447 44.832 132.906 44.7049C133.366 44.5779 133.779 44.3212 134.097 43.9655C134.415 43.6098 134.623 43.1701 134.698 42.699C134.772 42.228 134.71 41.7454 134.517 41.309ZM128.738 39.9905C128.585 39.8759 128.464 39.7236 128.388 39.5484C128.311 39.3732 128.281 39.1812 128.302 38.9911C128.322 38.801 128.391 38.6194 128.502 38.464C128.613 38.3087 128.763 38.1849 128.937 38.1048C129.146 38.0327 129.367 37.9989 129.588 38.0052C129.73 38.0464 129.858 38.124 129.96 38.2302C130.063 38.3365 130.135 38.4677 130.171 38.6108C129.837 38.7043 129.531 38.8794 129.28 39.1201C129.03 39.3609 128.844 39.66 128.738 39.9905ZM130.171 39.8832L131.275 40.2435C131.064 40.5182 130.771 40.7194 130.439 40.8184L130.171 39.8832ZM130.478 40.9641C130.888 40.8786 131.256 40.6539 131.52 40.3278L132.287 40.5885C132.186 40.941 131.981 41.2552 131.7 41.4902C131.418 41.7253 131.072 41.8705 130.708 41.9069L130.478 40.9641ZM130.807 42.1139C131.203 42.0737 131.577 41.9166 131.883 41.6627C132.189 41.4087 132.412 41.0695 132.524 40.6881L133.62 41.0484C133.567 41.6769 133.293 42.2661 132.847 42.7122C132.401 43.1582 131.811 43.4323 131.183 43.486L130.807 42.1139ZM133.873 43.8846C133.567 44.1908 133.184 44.4076 132.764 44.5116C132.343 44.6156 131.903 44.6029 131.489 44.4749L131.236 43.5857C131.772 43.5832 132.293 43.4145 132.729 43.1027C133.164 42.791 133.492 42.3517 133.666 41.8456C133.777 41.6022 133.852 41.344 133.889 41.079L134.203 41.1787C134.422 41.6127 134.506 42.1023 134.444 42.5844C134.383 43.0666 134.179 43.5194 133.858 43.8846H133.873ZM36.9661 101.414L37.0888 101.974C37.4841 101.684 37.7574 101.258 37.8553 100.778C37.9515 100.859 38.0602 100.924 38.1773 100.97C37.9243 101.46 38.3459 102.112 38.3613 100.908C38.2999 100.717 38.2539 100.77 37.8937 100.51C37.9128 100.326 37.9128 100.141 37.8937 99.9578C38.0163 99.9118 37.84 99.9577 38.3536 99.7125C38.5452 99.9577 39.4574 99.9118 38.3536 99.5132C38.175 99.5585 38.0044 99.6309 37.8477 99.7278C37.8038 99.4247 37.7214 99.1284 37.6024 98.8463C37.7557 98.7849 38.1466 98.7619 38.3306 98.463C38.3306 98.3633 38.5376 98.0184 38.4379 97.7731C38.2616 97.8957 38.3766 97.9341 38.2003 98.4247C37.9615 98.4658 37.7342 98.5573 37.5334 98.6929C37.4242 98.4817 37.2876 98.2858 37.1271 98.1104C37.2102 98.0386 37.2738 97.9471 37.3121 97.8442C37.3503 97.7413 37.3619 97.6304 37.3459 97.5219C37.3298 97.4133 37.2866 97.3105 37.2202 97.2231C37.1538 97.1357 37.0664 97.0665 36.9661 97.0219C37.5487 96.309 38.6832 95.2741 39.1431 94.5766C38.2707 95.253 37.4967 96.0476 36.8435 96.9375H36.7362C37.1348 96.171 37.4337 94.3849 36.9891 93.6797C37.0772 94.7781 36.9228 95.8824 36.5369 96.9145C36.1306 96.9145 35.5327 97.3361 35.64 97.7348C34.8121 97.98 35.387 98.1947 34.7968 97.4051C34.9578 97.2518 35.2031 96.2017 34.6742 97.3591C34.5898 97.5201 34.7738 97.7578 34.9424 98.0797C34.6895 98.254 34.4534 98.4516 34.2372 98.6699C34.1671 98.4972 34.0878 98.3283 33.9996 98.164C33.9996 98.164 33.0337 97.8804 33.4937 98.2177C33.615 98.2625 33.741 98.2934 33.8693 98.3097C33.9266 98.4889 33.9984 98.6633 34.0839 98.8309C33.9719 98.9578 33.8742 99.0966 33.7926 99.2449C33.5667 99.184 33.3287 99.184 33.1027 99.2449C32.9111 99.8734 32.5508 99.6895 32.8498 99.8964C33.0142 99.7723 33.1371 99.6012 33.2024 99.4058C33.3538 99.4733 33.5218 99.4946 33.6853 99.4672C33.5532 99.7308 33.4922 100.024 33.5084 100.319C33.5245 100.613 33.6172 100.898 33.7773 101.146L34.0533 100.862C34.2985 102.073 36.2609 102.533 36.9661 101.414ZM37.0275 97.3362C37.094 97.4332 37.1297 97.5481 37.1297 97.6658C37.1297 97.7834 37.094 97.8984 37.0275 97.9954C36.8705 97.8458 36.6801 97.7358 36.4722 97.6745C36.2642 97.6132 36.0446 97.6023 35.8316 97.6428C35.856 97.5156 35.9159 97.398 36.0046 97.3037C36.0932 97.2094 36.2069 97.1422 36.3323 97.1101C36.4577 97.0779 36.5896 97.0821 36.7127 97.1222C36.8358 97.1622 36.945 97.2364 37.0275 97.3362ZM36.4449 99.1299C36.2346 99.092 36.037 99.0025 35.87 98.8692L36.2916 98.4323L36.4449 99.1299ZM35.7627 98.9766C35.9654 99.1927 36.2358 99.3333 36.5292 99.3752L36.6289 99.8274C36.4031 99.8888 36.164 99.8798 35.9435 99.8018C35.723 99.7237 35.5316 99.5802 35.3947 99.3905L35.7627 98.9766ZM35.2107 99.5515C35.3724 99.7682 35.5958 99.931 35.8516 100.019C36.1074 100.106 36.3836 100.114 36.6442 100.042L36.7898 100.717C36.4222 100.891 36.0049 100.931 35.6111 100.828C35.2172 100.726 34.872 100.488 34.6358 100.157L35.2107 99.5515ZM35.2644 101.79C34.9932 101.72 34.7462 101.578 34.5503 101.378C34.3543 101.178 34.2169 100.928 34.1529 100.655L34.5285 100.257C34.7623 100.632 35.1248 100.909 35.5481 101.036C35.9714 101.163 36.4265 101.131 36.8282 100.947V101.077C36.6645 101.327 36.4342 101.526 36.1633 101.652C35.8924 101.778 35.5917 101.826 35.2951 101.79H35.2644ZM27.2003 49.833C27.1827 50.0453 27.2269 50.2581 27.3276 50.4458C27.4282 50.6335 27.581 50.7881 27.7675 50.8909C27.5395 51.1532 27.3603 51.4544 27.2386 51.7801C26.5794 55.3215 28.7717 55.9731 28.7717 55.9731L28.856 53.2059C29.0553 54.8999 30.4351 56.732 31.6003 54.5933C33.2944 55.3599 33.5933 53.1599 32.6198 52.125C32.9111 52.0342 33.1728 51.8671 33.3777 51.641C33.5826 51.4149 33.7232 51.1381 33.785 50.8393C33.8468 50.5405 33.8275 50.2306 33.7291 49.9418C33.6307 49.6529 33.4568 49.3957 33.2254 49.1968C34.2066 48.6142 34.5975 46.4296 32.8498 46.6979C32.0832 43.463 29.6073 46.8512 29.1397 48.7139L29.9062 44.1146C29.9062 44.1146 27.6066 44.3216 27.5452 47.9473C27.6042 48.2974 27.7235 48.6346 27.8979 48.9438C27.7669 48.9764 27.6453 49.039 27.5428 49.1269C27.4403 49.2147 27.3598 49.3253 27.3076 49.4498C25.3782 48.7411 23.7533 47.387 22.7083 45.617C23.4365 47.6944 25.2763 48.8672 27.2386 49.6797C25.6595 49.5878 23.1759 49.5034 22.1641 50.7376C23.7278 49.7411 25.3682 49.7564 27.2003 49.833ZM32.9801 53.1829C33.279 54.1717 32.5815 54.808 31.6693 54.4323C31.9146 53.0372 30.0825 51.0289 29.1857 50.3313C30.6728 50.7069 32.3362 51.5808 32.9801 53.1829ZM30.2358 50.4999C29.8915 50.373 29.5378 50.2731 29.178 50.201C29.5403 50.2281 29.9042 50.2281 30.2665 50.201C30.2512 50.27 30.3202 50.2776 30.2358 50.4999ZM30.4198 50.2087C30.677 50.1897 30.9329 50.1564 31.1864 50.109C31.2198 50.2366 31.2197 50.3707 31.1861 50.4983C31.1525 50.6258 31.0866 50.7426 30.9947 50.8372C30.791 50.7303 30.5811 50.6356 30.3661 50.5536C30.4057 50.5065 30.4316 50.4494 30.4411 50.3886C30.4505 50.3278 30.4432 50.2656 30.4198 50.2087ZM31.3397 50.0783C31.644 50.0143 31.9417 49.9219 32.2289 49.8024C32.3822 50.4156 32.5508 50.9905 31.9529 51.4275C31.7096 51.2364 31.4535 51.0623 31.1864 50.9062C31.3032 50.8069 31.3822 50.6703 31.4102 50.5195C31.4381 50.3687 31.4132 50.2129 31.3397 50.0783ZM33.6393 50.4693C33.6254 50.8048 33.5134 51.1288 33.3172 51.4013C33.121 51.6738 32.8492 51.8828 32.5355 52.0024C32.3876 51.8239 32.2234 51.6596 32.0449 51.5118C32.6275 51.2895 32.6735 50.316 32.3592 49.7411C32.6312 49.6234 32.8885 49.4742 33.1257 49.2965C33.4073 49.63 33.5881 50.0368 33.647 50.4693H33.6393ZM32.3362 49.4881C31.3839 49.9518 30.3267 50.1579 29.27 50.086C30.3355 49.6644 32.6505 48.2463 32.8728 46.8435C34.9348 46.8972 33.5627 49.1202 32.3438 49.4881H32.3362ZM28.9787 49.971C31.0177 41.9682 35.8776 47.2574 29.0477 50.0783H28.9787V49.971ZM28.9787 50.2776C29.178 50.339 32.8114 53.9188 30.9334 55.1759C28.7717 56.1341 28.9404 51.1668 28.9787 50.2776ZM28.0282 49.0588C28.2475 49.4031 28.525 49.7066 28.8484 49.9557C28.839 49.9856 28.839 50.0177 28.8484 50.0477C28.5153 50.2167 28.2123 50.4394 27.9515 50.7069C27.1773 50.5996 27.2463 49.2121 28.0282 49.0588ZM122.881 43.6853C122.878 43.101 122.819 42.5184 122.705 41.9452C122.705 41.8456 122.536 41.8686 122.536 41.9452C122.523 42.5199 122.561 43.0946 122.651 43.6623C122.689 43.7543 122.881 43.8156 122.881 43.6853ZM119.984 47.4797C119.974 46.8929 119.912 46.308 119.8 45.732C119.8 45.6324 119.631 45.663 119.631 45.732C119.622 46.3091 119.66 46.886 119.746 47.4567C119.815 47.5871 119.953 47.5871 119.984 47.4797ZM144.981 47.3264C144.971 46.7396 144.909 46.1548 144.797 45.5787C144.797 45.4867 144.628 45.5097 144.628 45.5787C144.617 46.1561 144.658 46.7333 144.751 47.3034C144.789 47.4261 144.958 47.4567 144.981 47.3264ZM146.644 47.3264C146.634 46.7396 146.572 46.1548 146.46 45.5787C146.46 45.4867 146.291 45.5097 146.291 45.5787C146.278 46.1559 146.317 46.7331 146.406 47.3034C146.46 47.4261 146.644 47.4567 146.644 47.3264ZM139.852 46.1689C139.843 46.746 139.882 47.3229 139.967 47.8937C140.006 47.9933 140.174 48.0163 140.205 47.8937C140.196 47.3068 140.134 46.7219 140.021 46.1459C140.006 46.054 139.852 46.054 139.852 46.1689ZM139.898 44.0226C139.893 43.4355 139.831 42.8502 139.715 42.2749C139.715 42.1752 139.546 42.1982 139.546 42.2749C139.535 42.8523 139.577 43.4295 139.669 43.9996C139.699 44.1146 139.868 44.1452 139.898 44.0226ZM137.583 44.0226C137.578 43.4355 137.516 42.8502 137.4 42.2749C137.4 42.1752 137.231 42.1982 137.231 42.2749C137.22 42.8523 137.262 43.4295 137.354 43.9996C137.392 44.1146 137.56 44.1452 137.583 44.0226ZM146.583 43.3557C146.577 42.7711 146.515 42.1885 146.399 41.6156C146.399 41.516 146.23 41.539 146.23 41.6156C146.22 42.1931 146.261 42.7703 146.353 43.3404C146.391 43.4553 146.56 43.486 146.583 43.3557ZM144.835 39.477C144.829 38.8924 144.768 38.3097 144.651 37.7369C144.651 37.6372 144.482 37.6602 144.482 37.7369C144.472 38.3118 144.513 38.8864 144.605 39.454C144.643 39.5766 144.812 39.6073 144.835 39.477ZM142.206 37.7599C142.189 38.3346 142.227 38.9096 142.321 39.477C142.321 39.5766 142.528 39.6073 142.551 39.477C142.544 38.8928 142.485 38.3105 142.374 37.7369C142.373 37.7258 142.369 37.7151 142.364 37.7055C142.358 37.6958 142.351 37.6874 142.342 37.6806C142.333 37.6739 142.323 37.6689 142.312 37.6661C142.301 37.6632 142.29 37.6626 142.279 37.6641C142.268 37.6656 142.257 37.6693 142.247 37.6749C142.238 37.6805 142.229 37.688 142.222 37.6969C142.216 37.7058 142.211 37.7159 142.208 37.7267C142.205 37.7375 142.204 37.7488 142.206 37.7599ZM137.262 39.9829C137.254 39.3962 137.195 38.8114 137.085 38.2351C137.085 38.1355 136.917 38.1662 136.917 38.2351C136.9 38.8124 136.938 39.39 137.032 39.9599C137.07 40.0825 137.239 40.1055 137.262 39.9829ZM139.822 35.5292C139.815 34.9451 139.756 34.3627 139.646 33.7892C139.646 33.7668 139.637 33.7453 139.621 33.7295C139.605 33.7137 139.584 33.7048 139.561 33.7048C139.539 33.7048 139.517 33.7137 139.502 33.7295C139.486 33.7453 139.477 33.7668 139.477 33.7892C139.464 34.3638 139.502 34.9385 139.592 35.5062C139.63 35.6289 139.799 35.6595 139.822 35.5292ZM134.586 35.5292C134.569 34.9442 134.5 34.3619 134.379 33.7892C134.379 33.6895 134.211 33.7125 134.211 33.7892C134.201 34.3637 134.24 34.938 134.326 35.5062C134.379 35.6289 134.556 35.6595 134.586 35.5292ZM109.543 55.1912C109.532 55.7687 109.573 56.3459 109.666 56.916C109.704 57.0156 109.873 57.0463 109.896 56.916C109.89 56.3314 109.828 55.7488 109.712 55.1759C109.696 55.0763 109.543 55.0992 109.543 55.1912ZM114.303 54.8156C114.293 55.393 114.334 55.9703 114.426 56.5404C114.464 56.64 114.633 56.6707 114.656 56.5404C114.639 55.9528 114.569 55.368 114.449 54.7926C114.439 54.7826 114.426 54.7752 114.413 54.7708C114.399 54.7665 114.385 54.7654 114.37 54.7676C114.356 54.7698 114.343 54.7753 114.331 54.7837C114.32 54.792 114.31 54.8029 114.303 54.8156ZM117.278 54.6853C117.267 55.2627 117.308 55.8399 117.4 56.41C117.439 56.5097 117.607 56.5327 117.63 56.41C117.624 55.823 117.563 55.2378 117.446 54.6623C117.431 54.5627 117.278 54.5933 117.278 54.6853ZM114.127 50.3696C114.127 50.27 113.958 50.3006 113.958 50.3696C113.948 50.9471 113.989 51.5243 114.081 52.0944C114.081 52.194 114.288 52.217 114.311 52.0944C114.304 51.515 114.242 50.9375 114.127 50.3696ZM112.088 52.1174C112.085 51.5305 112.026 50.9453 111.912 50.3696C111.912 50.27 111.743 50.3006 111.743 50.3696C111.73 50.9468 111.768 51.524 111.858 52.0944C111.896 52.1864 112.065 52.24 112.088 52.1174ZM120.106 51.7418C120.115 51.7652 120.131 51.7855 120.151 51.7998C120.172 51.8141 120.196 51.8217 120.221 51.8217C120.246 51.8217 120.271 51.8141 120.291 51.7998C120.312 51.7855 120.327 51.7652 120.336 51.7418C120.33 51.1572 120.269 50.5745 120.152 50.0017C120.152 49.902 119.984 49.925 119.984 50.0017C119.972 50.5842 120.013 51.1666 120.106 51.7418ZM126.898 51.7418C126.891 51.1577 126.832 50.5753 126.721 50.0017C126.721 49.9793 126.713 49.9579 126.697 49.9421C126.681 49.9263 126.66 49.9174 126.637 49.9174C126.615 49.9174 126.593 49.9263 126.578 49.9421C126.562 49.9579 126.553 49.9793 126.553 50.0017C126.536 50.5764 126.575 51.1514 126.668 51.7188C126.714 51.8414 126.875 51.8721 126.898 51.7418ZM126.829 54.1794C126.812 54.7567 126.85 55.3342 126.944 55.9041C126.944 56.0038 127.151 56.0268 127.174 55.9041C127.167 55.3175 127.108 54.7326 126.997 54.1564C126.974 54.0567 126.829 54.0874 126.829 54.1794ZM123.211 54.5857C123.198 55.1628 123.236 55.7401 123.326 56.3104C123.326 56.41 123.533 56.433 123.556 56.3104C123.549 55.7237 123.49 55.1388 123.379 54.5627C123.364 54.486 123.211 54.486 123.211 54.5857ZM133.176 54.1794C133.163 54.7566 133.201 55.3338 133.291 55.9041C133.291 56.0038 133.498 56.0268 133.521 55.9041C133.514 55.3175 133.455 54.7326 133.344 54.1564C133.321 54.0567 133.176 54.0874 133.176 54.1794ZM133.206 51.7418C133.199 51.1577 133.14 50.5753 133.03 50.0017C133.03 49.902 132.862 49.925 132.862 50.0017C132.849 50.5763 132.887 51.151 132.977 51.7188C133.015 51.8414 133.184 51.8721 133.206 51.7418ZM137.308 49.6107C137.294 50.1879 137.333 50.7652 137.423 51.3355C137.461 51.4351 137.629 51.4658 137.66 51.3355C137.65 50.7486 137.588 50.1638 137.476 49.5878C137.446 49.4958 137.308 49.5188 137.308 49.6107ZM140.228 49.7947C140.219 50.3693 140.257 50.9436 140.343 51.5118C140.381 51.6114 140.55 51.6421 140.573 51.5118C140.57 50.9275 140.511 50.3448 140.397 49.7717C140.381 49.6721 140.228 49.6951 140.228 49.7947ZM137.829 53.9954C137.818 54.5703 137.859 55.145 137.951 55.7125C137.951 55.8121 138.158 55.8428 138.181 55.7125C138.172 55.1282 138.11 54.5459 137.997 53.9724C137.982 53.8728 137.829 53.8958 137.829 53.9954ZM142.62 53.8421C142.609 54.4195 142.65 54.9967 142.742 55.5668C142.781 55.6665 142.949 55.6895 142.972 55.5668C142.967 54.9797 142.905 54.3945 142.788 53.8191C142.811 53.7195 142.62 53.7195 142.62 53.8421ZM145.065 53.7195C145.052 54.2941 145.091 54.8687 145.18 55.4365C145.18 55.5362 145.387 55.5668 145.41 55.4365C145.407 54.8522 145.348 54.2696 145.234 53.6965C145.218 53.6198 145.065 53.6428 145.065 53.7195ZM145.111 51.2742C145.104 50.6875 145.045 50.1026 144.935 49.5264C144.929 49.5074 144.917 49.4908 144.902 49.4789C144.886 49.4671 144.866 49.4607 144.847 49.4607C144.827 49.4607 144.807 49.4671 144.792 49.4789C144.776 49.4908 144.764 49.5074 144.758 49.5264C144.748 50.1038 144.789 50.681 144.881 51.2512C144.935 51.3661 145.111 51.4198 145.111 51.2742ZM146.56 139.619C150.193 136.599 150.393 131.524 150.477 127.086C149.71 126.94 145.257 128.987 144.927 128.995C146.141 127.57 146.967 125.857 147.326 124.02C147.771 122.617 149.143 114.768 147.94 115.741C144.728 117.734 141.892 119.65 138.741 121.873C138.741 121.145 138.289 114.116 137.208 111.816C136.495 111.318 135.722 110.911 134.908 110.605C134.993 110.475 137.032 108.704 136.725 108.773C136.264 106.379 135.673 104.012 134.954 101.682C129.726 106.167 127.48 114.277 126.714 121.176C126.461 120.409 124.92 114.768 123.602 113.418C120.957 117.719 120.068 123.483 120.597 128.519C118.956 127.753 106.883 128.918 110.049 130.236C113.077 132.912 116.181 135.303 118.228 138.669C117.278 138.669 113.69 138.6 110.785 138.623C109.606 138.549 108.423 138.549 107.243 138.623C111.033 138.919 114.837 138.986 118.634 138.822C116.657 135.25 112.709 132.298 109.681 129.677C113.218 128.584 116.944 128.245 120.62 128.68C120.727 128.849 120.62 129.991 120.965 129.853C120.232 124.31 121.166 118.674 123.648 113.664C124.866 115.603 126.821 121.866 127.166 124.871C127.572 124.181 126.867 122.571 126.783 121.582C128.009 114.614 129.167 108.267 134.326 102.326C135.238 101.437 135.092 102.763 135.675 104.557C136.045 105.933 136.345 107.328 136.572 108.735C136.656 108.735 135.475 109.793 134.87 110.344C134.103 111.034 137.277 111.663 137.208 112.276C137.893 115.463 138.359 118.692 138.603 121.942C137.185 123.077 134.947 124.679 134.333 126.082C138.166 121.85 143.471 118.846 148.177 115.726C148.338 120.463 147.411 126.365 144.544 129.14C138.634 132.207 150.63 126.956 150.239 127.216H150.285C150.331 131.816 149.419 137.687 146.184 139.611C146.077 139.68 137.43 139.742 140.473 139.895C142.581 139.841 149.419 139.78 149.473 139.565C148.729 139.312 147.48 139.627 146.56 139.619Z" fill="black"/>
<path d="M132.179 139.182C134.993 128.251 138.864 126.235 143.892 121.253C137.537 126.197 133.084 132.544 132.179 139.182ZM132.08 110.958C131.75 115.235 130.24 119.39 130.393 123.813C130.294 127.899 131.413 131.777 131.436 135.602C131.804 131.609 130.347 127.5 130.577 123.437C130.355 119.306 132.21 114.737 132.08 110.958ZM123.441 121.835C123.993 124.71 126.821 135.434 128.04 137.933C128.485 138.584 127.603 136.292 127.442 135.633C126.055 131.425 124.223 123.644 123.441 121.835ZM115.17 130.62C117.99 132.973 122.314 135.825 124.437 139.121C122.421 135.526 118.473 132.958 115.17 130.62ZM75.0943 132.053C73.1856 129.968 73.7605 129.317 72.2734 131.57C72.2044 131.394 66.532 128.596 67.6741 129.892C73.5919 135.395 69.3605 130.896 67.9808 129.892C73.8679 131.762 71.1696 132.85 73.4386 130.313C73.8985 130.505 74.9027 132.774 75.1787 132.061C75.3856 131.708 75.5849 131.294 75.8302 131.417C76.0679 131.969 76.5968 131.777 77.187 131.808C77.9536 131.701 79.2567 132.053 79.663 131.716C78.4819 131.756 77.2997 131.694 76.1292 131.532C75.6846 130.091 75.4546 131.724 75.0943 132.053ZM32.1062 133.732C33.233 131.34 38.5759 122.885 39.2198 121.145C36.6595 124.625 32.9418 130.75 32.1062 133.732ZM28.5954 127.04C26.9703 123 26.5947 117.841 25.1536 114.154C26.2958 118.317 26.7557 123.269 28.5954 127.04ZM25.4602 131.141C22.8156 128.742 19.9411 126.304 17.1815 123.966C19.7526 126.567 22.5203 128.966 25.4602 131.141ZM33.8846 77.1453C33.8846 77.0379 13.7167 76.762 10.2442 76.509C10.1752 76.509 10.1139 76.578 10.1062 76.647C10.0372 79.215 10.2979 97.2289 10.3745 97.2289C14.2533 97.2902 29.8372 96.9299 33.7083 96.6386C33.8386 96.6463 33.8463 97.6811 33.8846 77.1453ZM33.5473 96.4087C29.7146 96.4623 14.4679 96.654 10.6352 97.0602C10.3515 90.9278 10.1752 77.2143 10.3745 76.7697C10.4742 76.8386 33.1411 77.4519 33.601 77.3599C33.578 83.7069 33.532 90.0616 33.5473 96.4087ZM37.4491 81.1697C37.442 80.5855 37.383 80.0032 37.2728 79.4296C37.2728 79.4072 37.2639 79.3858 37.2481 79.37C37.2323 79.3542 37.2108 79.3453 37.1884 79.3453C37.1661 79.3453 37.1446 79.3542 37.1288 79.37C37.113 79.3858 37.1041 79.4072 37.1041 79.4296C37.0871 80.0069 37.1256 80.5844 37.2191 81.1543C37.2574 81.2693 37.4261 81.3153 37.4491 81.1697ZM12.6818 101.92C12.6687 102.497 12.7071 103.075 12.7968 103.645C12.7968 103.745 13.0038 103.768 13.0345 103.645C13.0251 103.058 12.9636 102.473 12.8505 101.897C12.8351 101.798 12.6818 101.821 12.6818 101.92ZM16.6296 101.92C16.6126 102.497 16.6511 103.075 16.7446 103.645C16.7829 103.745 16.9515 103.768 16.9745 103.645C16.9678 103.058 16.9088 102.473 16.7982 101.897C16.7829 101.798 16.6296 101.821 16.6296 101.92ZM17.6031 101.805C17.5886 102.38 17.6297 102.955 17.7257 103.522C17.7257 103.622 17.9327 103.653 17.9557 103.522C17.9498 102.938 17.8882 102.355 17.7717 101.782C17.7564 101.683 17.6031 101.706 17.6031 101.805ZM45.5438 93.3808C45.5384 92.7937 45.4768 92.2084 45.3599 91.6331C45.3599 91.5334 45.1912 91.5641 45.1912 91.6331C45.1808 92.2105 45.2219 92.7877 45.3139 93.3578C45.3522 93.4804 45.5208 93.5034 45.5438 93.3808ZM47.2532 90.4526C47.2473 89.868 47.1857 89.2854 47.0693 88.7125C47.0693 88.6129 46.9006 88.6359 46.9006 88.7125C46.8899 89.2874 46.931 89.8621 47.0233 90.4296C47.0616 90.5522 47.2302 90.5829 47.2532 90.4526ZM39.1125 81.1007C40.293 81.3153 40.3543 79.9355 39.5494 79.3606C39.0358 79.008 38.5146 79.8359 38.4532 80.1271C38.4167 80.3431 38.4649 80.5648 38.5877 80.7461C38.7105 80.9274 38.8984 81.0544 39.1125 81.1007ZM38.7062 79.9968C39.1585 79.0003 39.902 79.9968 39.8177 80.3954C39.7976 80.475 39.7614 80.5496 39.7112 80.6145C39.661 80.6795 39.598 80.7334 39.5261 80.773C39.4542 80.8125 39.3749 80.8368 39.2932 80.8444C39.2115 80.852 39.1291 80.8427 39.0512 80.817C38.9739 80.7867 38.9036 80.7413 38.8442 80.6834C38.7849 80.6254 38.7377 80.5562 38.7056 80.4797C38.6734 80.4033 38.6569 80.3212 38.657 80.2382C38.6571 80.1553 38.6739 80.0732 38.7062 79.9968ZM46.9926 93.3501C47.1044 93.3687 47.2188 93.365 47.3291 93.3392C47.4395 93.3133 47.5436 93.2659 47.6355 93.1997C47.7275 93.1334 47.8054 93.0496 47.8647 92.953C47.9241 92.8565 47.9638 92.7492 47.9815 92.6372C48.0275 92.231 46.9543 90.5216 46.341 92.3383C46.3129 92.4477 46.3077 92.5618 46.3257 92.6733C46.3438 92.7849 46.3847 92.8915 46.4458 92.9865C46.507 93.0815 46.5872 93.1629 46.6813 93.2254C46.7753 93.288 46.8813 93.3305 46.9926 93.3501ZM46.5863 92.2386C46.9543 91.3188 47.7898 92.2386 47.6978 92.6372C47.6799 92.718 47.6449 92.7941 47.5953 92.8603C47.5456 92.9266 47.4824 92.9815 47.4099 93.0214C47.3374 93.0612 47.2572 93.0852 47.1746 93.0917C47.0921 93.0982 47.0091 93.087 46.9313 93.0588C46.7822 92.9902 46.6658 92.866 46.6071 92.7127C46.5484 92.5595 46.5519 92.3893 46.617 92.2386H46.5863ZM14.1919 102.487C14.1639 102.597 14.1589 102.712 14.1774 102.824C14.1959 102.936 14.2375 103.043 14.2994 103.138C14.3614 103.233 14.4424 103.314 14.5374 103.377C14.6324 103.439 14.7392 103.481 14.8512 103.499C14.9625 103.518 15.0764 103.514 15.1863 103.488C15.2962 103.462 15.3998 103.415 15.4911 103.348C15.5824 103.282 15.6596 103.198 15.7182 103.102C15.7768 103.005 15.8156 102.898 15.8324 102.786C15.886 102.372 14.8665 100.908 14.1919 102.487ZM15.5641 102.779C15.545 102.859 15.5094 102.934 15.4595 103C15.4096 103.065 15.3465 103.12 15.2743 103.159C15.202 103.199 15.1223 103.223 15.0402 103.23C14.9581 103.237 14.8754 103.227 14.7975 103.2C14.719 103.172 14.6471 103.127 14.5863 103.07C14.5255 103.012 14.4771 102.943 14.4441 102.866C14.4111 102.79 14.3941 102.707 14.3943 102.623C14.3944 102.54 14.4116 102.457 14.4449 102.38C14.8665 101.529 15.6407 102.365 15.5641 102.779Z" fill="black"/>
<path d="M30.2437 80.5488C27.4151 80.5105 16.0778 80.1732 13.2876 80.4108V80.4645C16.0702 80.7788 27.4151 80.7558 30.2437 80.7941C30.2762 80.7941 30.3074 80.7812 30.3304 80.7582C30.3534 80.7352 30.3663 80.704 30.3663 80.6715C30.3663 80.6389 30.3534 80.6077 30.3304 80.5847C30.3074 80.5617 30.2762 80.5488 30.2437 80.5488ZM30.5196 84.0903C27.6911 84.052 16.3461 83.7147 13.5636 83.96V84.006C16.3385 84.3203 27.6911 84.2973 30.5196 84.3356C30.5522 84.3356 30.5834 84.3227 30.6064 84.2997C30.6294 84.2767 30.6423 84.2455 30.6423 84.2129C30.6423 84.1804 30.6294 84.1492 30.6064 84.1262C30.5834 84.1032 30.5522 84.0903 30.5196 84.0903ZM30.7496 88.1147C27.9287 88.0763 16.5838 87.7391 13.7935 87.9844V88.0303C16.5761 88.3523 27.9287 88.3216 30.7496 88.36C30.7821 88.36 30.8133 88.347 30.8363 88.324C30.8593 88.301 30.8723 88.2698 30.8723 88.2373C30.8723 88.2048 30.8593 88.1736 30.8363 88.1506C30.8133 88.1276 30.7821 88.1147 30.7496 88.1147ZM30.7496 92.1467C27.9287 92.1467 16.5838 91.7711 13.7935 92.0164V92.0624C16.5684 92.3767 27.9287 92.3537 30.7496 92.392C30.7821 92.392 30.8133 92.3791 30.8363 92.3561C30.8593 92.3331 30.8723 92.3019 30.8723 92.2694C30.8723 92.2368 30.8593 92.2057 30.8363 92.1826C30.8133 92.1596 30.7821 92.1467 30.7496 92.1467ZM71.783 47.3879C71.7719 47.3833 71.7596 47.3826 71.748 47.3859C71.7364 47.3892 71.7263 47.3962 71.7192 47.4059C71.7122 47.4157 71.7086 47.4275 71.709 47.4395C71.7095 47.4515 71.7139 47.463 71.7217 47.4722C72.079 47.8512 72.4717 48.1952 72.8945 48.4994C72.9558 48.4994 73.0325 48.4994 72.9865 48.4074C72.6193 48.0294 72.2163 47.6879 71.783 47.3879ZM72.8869 42.4973C72.8869 42.4973 72.9635 42.4973 72.9405 42.4436C72.6335 42.0867 72.2804 41.7722 71.8903 41.5084C71.8367 41.5084 71.783 41.5084 71.8214 41.5927C72.1363 41.9387 72.4944 42.2427 72.8869 42.4973ZM76.1217 42.9879C76.3749 42.9472 76.6174 42.856 76.8346 42.7196C76.8806 42.7196 76.8346 42.6123 76.8346 42.6199C76.565 42.6435 76.3036 42.7245 76.068 42.8576C76.0144 42.9035 76.068 42.9879 76.1217 42.9879ZM72.197 43.2255C72.1261 43.5137 72.1079 43.8124 72.1433 44.107C72.1433 44.1607 72.2353 44.1837 72.266 44.107C72.3248 43.811 72.3248 43.5062 72.266 43.2102C72.2545 43.2039 72.2413 43.2021 72.2286 43.2049C72.2159 43.2077 72.2047 43.215 72.197 43.2255ZM76.5663 43.8157C76.4943 44.0662 76.4943 44.3318 76.5663 44.5823C76.5713 44.5887 76.5777 44.5938 76.585 44.5974C76.5923 44.6009 76.6003 44.6028 76.6085 44.6028C76.6166 44.6028 76.6246 44.6009 76.6319 44.5974C76.6392 44.5938 76.6456 44.5887 76.6506 44.5823C76.7226 44.3318 76.7226 44.0662 76.6506 43.8157C76.6385 43.8064 76.6237 43.8014 76.6085 43.8014C76.5932 43.8014 76.5784 43.8064 76.5663 43.8157ZM74.5349 44.3753C74.5349 44.6513 74.8952 46.399 74.2973 46.1691C74.1977 46.1691 74.144 46.307 74.2513 46.3377C74.3586 46.3684 74.8186 46.422 74.8799 46.1307C74.8428 45.5347 74.7452 44.944 74.5886 44.3677C74.5886 44.3677 74.5349 44.337 74.5349 44.3753ZM46.6325 23.1955C47.1078 25.7865 48.8019 22.8046 49.0778 21.7084C49.8444 23.6018 52.2053 23.4332 52.5656 21.5858C53.1942 22.1224 55.2792 22.268 54.8653 20.8576C55.6318 20.7502 55.8388 19.6617 55.4555 18.9029H55.9154C55.7355 18.3799 55.401 17.9239 54.956 17.5954C54.5111 17.2668 53.9769 17.0812 53.4242 17.0631C52.5882 16.9446 51.7377 17.1354 51.0325 17.5997C50.9751 17.4268 50.8746 17.2713 50.7405 17.1479C50.6064 17.0245 50.4431 16.9373 50.266 16.8945C50.2701 16.8153 50.2701 16.736 50.266 16.6569C50.22 15.7753 50.1893 12.7628 52.0367 11.7739C52.489 11.59 52.3587 11.544 51.9217 11.728C50.1816 12.4945 49.9977 15.0165 50.1203 16.7565C49.8008 15.5284 49.283 14.3607 48.5872 13.2994C48.2959 12.9084 47.5754 12.2569 47.5294 12.3642C47.4834 12.4715 48.2193 12.9698 48.4799 13.353C49.1209 14.4673 49.5912 15.6714 49.875 16.9252C49.6558 16.9983 49.4548 17.1175 49.2855 17.2749C49.1163 17.4322 48.9827 17.624 48.8938 17.8374C47.4297 17.3008 44.7391 18.2283 44.7085 20.459L47.1154 19.7844C45.7587 20.6429 44.0646 23.6861 46.6325 23.1955ZM48.8785 21.8694C48.5796 22.7739 47.2611 25.2499 46.7015 23.1725C47.9127 22.7433 48.7252 21.5321 49.3691 20.3823C49.3614 20.4206 48.9168 21.7698 48.8785 21.8694ZM51.1782 20.2213C51.3507 20.4785 51.543 20.722 51.7531 20.9496C51.1705 21.8388 50.0283 21.5781 49.3078 21.0492C49.3998 20.7962 49.4917 20.5356 49.5761 20.2827C49.6824 20.3935 49.8111 20.4805 49.9535 20.5381C50.0959 20.5956 50.2489 20.6224 50.4024 20.6166C50.5559 20.6108 50.7064 20.5726 50.8441 20.5045C50.9817 20.4363 51.1034 20.3398 51.2012 20.2213H51.1782ZM49.6451 20.1677C49.7115 19.9362 49.7627 19.7006 49.7984 19.4624C49.9311 19.5962 50.1084 19.6763 50.2964 19.6876C50.4845 19.6989 50.6701 19.6406 50.8179 19.5238C50.9122 19.716 51.0171 19.9028 51.1322 20.0834C51.039 20.2393 50.8963 20.3595 50.7267 20.4248C50.5572 20.4901 50.3707 20.4968 50.197 20.4436C50.0011 20.3663 49.8115 20.274 49.6297 20.1677H49.6451ZM50.4576 22.8506C50.1588 22.7454 49.887 22.5754 49.6617 22.3527C49.4364 22.1301 49.2632 21.8603 49.1545 21.5628C49.1928 21.4708 49.2388 21.3328 49.3231 21.1182C49.4795 21.3119 49.6784 21.467 49.9043 21.5717C50.1302 21.6763 50.3771 21.7276 50.626 21.7217C50.8749 21.7158 51.1191 21.6528 51.3398 21.5375C51.5604 21.4222 51.7517 21.2578 51.8987 21.0569C52.0591 21.2101 52.2307 21.3511 52.4123 21.4785C52.3862 21.704 52.3124 21.9213 52.1959 22.1161C52.0794 22.311 51.9228 22.4788 51.7365 22.6085C51.5503 22.7383 51.3386 22.8269 51.1154 22.8687C50.8923 22.9104 50.6628 22.9042 50.4423 22.8506H50.4576ZM52.6806 21.4248C51.5078 20.9189 50.6186 18.9029 50.6109 18.8952H50.6569C51.1414 19.4955 51.7496 19.9843 52.4402 20.3282C53.1307 20.6722 53.8873 20.8632 54.6583 20.8882C55.1182 22.3753 53.0102 21.5705 52.6653 21.4248H52.6806ZM55.1489 18.8952C56.4367 21.3558 52.8492 21.1412 50.7412 18.8952H55.1489ZM49.9593 17.0785C50.4576 17.0172 50.7259 17.3238 50.8639 17.7147C50.5116 18.0202 50.2737 18.4365 50.1893 18.8952H50.5189L50.7106 19.3398C50.4729 19.6464 50.0973 19.5544 49.7984 19.3858C49.8444 19.2555 49.8827 19.1175 49.9287 18.9795L50.1893 18.9105C49.9597 18.4462 49.5666 18.0831 49.0855 17.891C49.2924 17.5154 49.4611 17.1398 49.9593 17.0785ZM49.7294 19.0332C49.1545 20.5663 47.9587 23.1036 46.0806 23.0729C44.3942 22.7816 46.7322 20.045 47.3684 19.7001L49.7294 19.0332ZM112.15 54.8694C111.954 54.8283 111.751 54.8485 111.568 54.9273C111.385 55.0061 111.231 55.1397 111.127 55.3096C111.023 55.4796 110.974 55.6776 110.986 55.8766C110.999 56.0755 111.073 56.2656 111.198 56.4208C111.324 56.576 111.494 56.6886 111.685 56.7433C111.877 56.798 112.081 56.792 112.269 56.7261C112.457 56.6603 112.621 56.5379 112.736 56.3756C112.852 56.2134 112.915 56.0193 112.916 55.8199C112.936 55.5932 112.867 55.3676 112.724 55.1904C112.581 55.0133 112.375 54.8982 112.15 54.8694ZM112.15 56.5098C112.007 56.5317 111.862 56.5095 111.732 56.4462C111.603 56.3828 111.496 56.2814 111.426 56.1555C111.356 56.0296 111.326 55.8853 111.341 55.742C111.355 55.5987 111.413 55.4632 111.507 55.3538C111.601 55.2445 111.726 55.1664 111.865 55.1302C112.004 55.094 112.152 55.1014 112.287 55.1513C112.422 55.2012 112.538 55.2913 112.621 55.4095C112.703 55.5276 112.747 55.6682 112.747 55.8123C112.76 55.9839 112.704 56.1536 112.592 56.2843C112.48 56.415 112.321 56.4961 112.15 56.5098ZM120.451 54.4861C120.256 54.445 120.053 54.4652 119.87 54.544C119.687 54.6229 119.533 54.7564 119.429 54.9264C119.324 55.0963 119.275 55.2944 119.288 55.4933C119.301 55.6922 119.375 55.8823 119.5 56.0375C119.625 56.1927 119.795 56.3053 119.987 56.36C120.179 56.4147 120.383 56.4087 120.571 56.3429C120.759 56.277 120.922 56.1546 121.038 55.9924C121.154 55.8301 121.217 55.636 121.218 55.4366C121.237 55.2099 121.169 54.9843 121.026 54.8072C120.883 54.63 120.677 54.515 120.451 54.4861ZM120.451 56.1265C120.309 56.1485 120.163 56.1263 120.034 56.0629C119.904 55.9996 119.798 55.8981 119.728 55.7722C119.658 55.6463 119.628 55.502 119.642 55.3587C119.657 55.2154 119.715 55.0799 119.809 54.9706C119.902 54.8612 120.027 54.7832 120.167 54.7469C120.306 54.7107 120.453 54.7181 120.588 54.768C120.723 54.8179 120.84 54.908 120.922 55.0262C121.005 55.1444 121.049 55.2849 121.049 55.429C121.058 55.5993 120.999 55.7662 120.886 55.8937C120.772 56.0213 120.614 56.0994 120.444 56.1112L120.451 56.1265ZM130.018 53.9955C129.823 53.9544 129.62 53.9746 129.437 54.0535C129.254 54.1323 129.099 54.2658 128.995 54.4358C128.891 54.6057 128.842 54.8038 128.855 55.0027C128.868 55.2016 128.942 55.3917 129.067 55.5469C129.192 55.7021 129.362 55.8147 129.554 55.8694C129.745 55.9241 129.949 55.9181 130.137 55.8523C130.326 55.7865 130.489 55.664 130.605 55.5018C130.72 55.3395 130.783 55.1454 130.784 54.946C130.804 54.7193 130.735 54.4937 130.592 54.3166C130.449 54.1394 130.244 54.0244 130.018 53.9955ZM130.018 55.6359C129.875 55.6579 129.73 55.6357 129.6 55.5723C129.471 55.509 129.364 55.4075 129.294 55.2816C129.224 55.1558 129.194 55.0114 129.209 54.8681C129.223 54.7248 129.281 54.5893 129.375 54.48C129.469 54.3706 129.594 54.2926 129.733 54.2564C129.873 54.2201 130.02 54.2275 130.155 54.2774C130.29 54.3273 130.407 54.4174 130.489 54.5356C130.571 54.6538 130.616 54.7943 130.616 54.9384C130.622 55.024 130.611 55.11 130.584 55.1914C130.557 55.2729 130.514 55.3482 130.458 55.413C130.402 55.4778 130.333 55.5309 130.256 55.5692C130.179 55.6074 130.096 55.6301 130.01 55.6359H130.018ZM122.935 50.2164C122.74 50.1753 122.537 50.1955 122.354 50.2744C122.171 50.3532 122.016 50.4867 121.912 50.6567C121.808 50.8266 121.759 51.0247 121.772 51.2236C121.785 51.4225 121.859 51.6126 121.984 51.7678C122.109 51.923 122.279 52.0357 122.471 52.0903C122.662 52.145 122.866 52.139 123.055 52.0732C123.243 52.0074 123.406 51.8849 123.522 51.7227C123.638 51.5604 123.7 51.3663 123.701 51.167C123.721 50.9402 123.652 50.7146 123.509 50.5375C123.367 50.3603 123.161 50.2453 122.935 50.2164ZM122.935 51.8492C122.765 51.8355 122.607 51.7555 122.495 51.6265C122.383 51.4974 122.326 51.3297 122.337 51.1593C122.323 51.0728 122.328 50.9842 122.352 50.8998C122.375 50.8154 122.417 50.7372 122.474 50.6705C122.531 50.6038 122.601 50.5502 122.681 50.5134C122.761 50.4767 122.847 50.4577 122.935 50.4577C123.023 50.4577 123.109 50.4767 123.189 50.5134C123.268 50.5502 123.339 50.6038 123.396 50.6705C123.453 50.7372 123.494 50.8154 123.518 50.8998C123.542 50.9842 123.547 51.0728 123.533 51.1593C123.543 51.3309 123.486 51.4998 123.372 51.629C123.259 51.7582 123.099 51.8374 122.927 51.8492H122.935ZM122.881 47.4415C123.076 47.4827 123.279 47.4624 123.462 47.3836C123.646 47.3048 123.8 47.1712 123.904 47.0013C124.008 46.8313 124.057 46.6333 124.044 46.4344C124.032 46.2354 123.958 46.0453 123.832 45.8901C123.707 45.735 123.537 45.6223 123.345 45.5676C123.154 45.513 122.95 45.519 122.762 45.5848C122.573 45.6506 122.41 45.773 122.294 45.9353C122.179 46.0975 122.116 46.2917 122.115 46.491C122.095 46.7178 122.164 46.9433 122.307 47.1205C122.45 47.2976 122.655 47.4127 122.881 47.4415ZM122.881 45.7934C123.051 45.8072 123.209 45.8871 123.321 46.0162C123.433 46.1452 123.49 46.3129 123.479 46.4833C123.493 46.5699 123.488 46.6584 123.464 46.7428C123.441 46.8272 123.399 46.9055 123.342 46.9722C123.285 47.0389 123.215 47.0925 123.135 47.1292C123.055 47.1659 122.969 47.185 122.881 47.185C122.794 47.185 122.707 47.1659 122.627 47.1292C122.548 47.0925 122.477 47.0389 122.42 46.9722C122.363 46.9055 122.322 46.8272 122.298 46.7428C122.274 46.6584 122.269 46.5699 122.283 46.4833C122.273 46.3129 122.329 46.1452 122.441 46.0162C122.553 45.8871 122.711 45.8072 122.881 45.7934ZM117.009 50.3314C116.787 50.3716 116.585 50.4888 116.44 50.6625C116.295 50.8363 116.215 51.0555 116.215 51.2819C116.215 51.5084 116.295 51.7276 116.44 51.9013C116.585 52.0751 116.787 52.1923 117.009 52.2325C117.232 52.1923 117.434 52.0751 117.579 51.9013C117.724 51.7276 117.804 51.5084 117.804 51.2819C117.804 51.0555 117.724 50.8363 117.579 50.6625C117.434 50.4888 117.232 50.3716 117.009 50.3314ZM117.009 51.9718C116.838 51.9581 116.679 51.8771 116.567 51.7464C116.455 51.6157 116.399 51.4459 116.412 51.2743C116.398 51.1877 116.403 51.0992 116.426 51.0148C116.45 50.9304 116.492 50.8522 116.549 50.7854C116.605 50.7187 116.676 50.6652 116.756 50.6284C116.835 50.5917 116.922 50.5727 117.009 50.5727C117.097 50.5727 117.184 50.5917 117.263 50.6284C117.343 50.6652 117.414 50.7187 117.47 50.7854C117.527 50.8522 117.569 50.9304 117.593 51.0148C117.616 51.0992 117.621 51.1877 117.607 51.2743C117.614 51.3599 117.603 51.4459 117.576 51.5273C117.549 51.6088 117.506 51.6841 117.45 51.7489C117.393 51.8137 117.325 51.8668 117.248 51.9051C117.171 51.9433 117.087 51.966 117.002 51.9718H117.009ZM109.007 50.5384C108.813 50.4989 108.612 50.5202 108.431 50.5993C108.25 50.6785 108.098 50.8117 107.996 50.9807C107.893 51.1496 107.846 51.3461 107.859 51.5432C107.873 51.7403 107.947 51.9284 108.072 52.0817C108.196 52.235 108.365 52.346 108.555 52.3995C108.746 52.4531 108.948 52.4465 109.134 52.3808C109.32 52.3151 109.482 52.1933 109.596 52.0323C109.711 51.8713 109.772 51.6788 109.773 51.4812C109.793 51.2553 109.724 51.0307 109.581 50.8548C109.438 50.6788 109.232 50.5654 109.007 50.5384ZM109.007 52.1711C108.835 52.1574 108.676 52.0764 108.564 51.9457C108.452 51.815 108.396 51.6453 108.409 51.4736C108.426 51.3591 108.476 51.252 108.553 51.1651C108.63 51.0782 108.73 51.0151 108.841 50.9832C108.953 50.9514 109.071 50.9523 109.182 50.9856C109.293 51.019 109.392 51.0835 109.467 51.1715C109.543 51.2594 109.591 51.3672 109.607 51.482C109.623 51.5967 109.606 51.7137 109.557 51.8189C109.509 51.9241 109.431 52.0133 109.334 52.0757C109.236 52.1381 109.123 52.1713 109.007 52.1711ZM129.964 51.8109C130.157 51.8503 130.358 51.8291 130.539 51.7503C130.72 51.6714 130.872 51.5386 130.974 51.3702C131.077 51.2017 131.125 51.0057 131.112 50.8088C131.099 50.612 131.025 50.424 130.902 50.2705C130.778 50.117 130.61 50.0054 130.42 49.951C130.23 49.8966 130.029 49.902 129.842 49.9665C129.656 50.0311 129.494 50.1515 129.379 50.3115C129.263 50.4714 129.2 50.6631 129.198 50.8603C129.178 51.0871 129.247 51.3127 129.39 51.4898C129.533 51.667 129.738 51.782 129.964 51.8109ZM129.964 50.1628C130.136 50.1765 130.295 50.2575 130.407 50.3882C130.519 50.5189 130.575 50.6887 130.562 50.8603C130.576 50.9469 130.571 51.0354 130.547 51.1198C130.524 51.2042 130.482 51.2825 130.425 51.3492C130.368 51.4159 130.298 51.4695 130.218 51.5062C130.138 51.5429 130.052 51.562 129.964 51.562C129.877 51.562 129.79 51.5429 129.71 51.5062C129.631 51.4695 129.56 51.4159 129.503 51.3492C129.446 51.2825 129.405 51.2042 129.381 51.1198C129.357 51.0354 129.352 50.9469 129.366 50.8603C129.353 50.6899 129.408 50.5212 129.519 50.3907C129.629 50.2603 129.786 50.1784 129.956 50.1628H129.964ZM136.066 50.8297C136.039 50.6776 135.97 50.5363 135.865 50.4228C135.76 50.3092 135.625 50.2281 135.476 50.1892C135.327 50.1503 135.169 50.1551 135.022 50.2032C134.876 50.2513 134.746 50.3405 134.648 50.4603C134.551 50.5801 134.49 50.7254 134.473 50.8789C134.456 51.0323 134.483 51.1874 134.552 51.3257C134.621 51.464 134.728 51.5797 134.86 51.6589C134.993 51.7381 135.145 51.7776 135.299 51.7725C135.524 51.7437 135.728 51.6298 135.871 51.4543C136.014 51.2788 136.083 51.0552 136.066 50.8297ZM134.663 50.8297C134.681 50.7152 134.731 50.6081 134.807 50.5212C134.884 50.4343 134.984 50.3712 135.095 50.3394C135.207 50.3075 135.325 50.3084 135.436 50.3417C135.547 50.3751 135.646 50.4396 135.721 50.5276C135.797 50.6155 135.845 50.7233 135.861 50.8381C135.877 50.9528 135.86 51.0698 135.812 51.175C135.763 51.2802 135.686 51.3694 135.588 51.4318C135.49 51.4942 135.377 51.5274 135.261 51.5272C135.175 51.5205 135.092 51.4968 135.015 51.4577C134.939 51.4185 134.871 51.3646 134.815 51.299C134.76 51.2335 134.718 51.1576 134.692 51.0757C134.665 50.9939 134.656 50.9076 134.663 50.822V50.8297ZM142.712 49.6799C142.517 49.6387 142.314 49.659 142.131 49.7378C141.948 49.8166 141.793 49.9501 141.689 50.1201C141.585 50.2901 141.536 50.4881 141.549 50.687C141.562 50.886 141.636 51.0761 141.761 51.2312C141.886 51.3864 142.056 51.4991 142.248 51.5537C142.439 51.6084 142.643 51.6024 142.832 51.5366C143.02 51.4708 143.183 51.3483 143.299 51.1861C143.415 51.0238 143.477 50.8297 143.478 50.6304C143.498 50.4036 143.429 50.1781 143.286 50.0009C143.144 49.8237 142.938 49.7087 142.712 49.6799ZM142.712 51.3203C142.54 51.3065 142.38 51.2257 142.266 51.0953C142.153 50.9648 142.096 50.7951 142.106 50.6227C142.097 50.538 142.105 50.4522 142.131 50.3709C142.157 50.2897 142.2 50.2148 142.256 50.1512C142.313 50.0877 142.383 50.0368 142.461 50.0019C142.538 49.9671 142.623 49.9491 142.708 49.9491C142.793 49.9491 142.878 49.9671 142.955 50.0019C143.033 50.0368 143.103 50.0877 143.16 50.1512C143.216 50.2148 143.259 50.2897 143.285 50.3709C143.311 50.4522 143.319 50.538 143.31 50.6227C143.316 50.7083 143.305 50.7943 143.278 50.8758C143.251 50.9572 143.208 51.0325 143.152 51.0974C143.096 51.1622 143.027 51.2152 142.95 51.2535C142.874 51.2917 142.79 51.3144 142.704 51.3203H142.712ZM137.492 45.9238C137.296 45.8826 137.093 45.9029 136.91 45.9821C136.726 46.0612 136.572 46.1952 136.468 46.3656C136.364 46.5361 136.315 46.7346 136.329 46.9338C136.342 47.133 136.417 47.3232 136.543 47.4781C136.669 47.633 136.84 47.7451 137.032 47.7989C137.224 47.8528 137.429 47.8456 137.617 47.7786C137.805 47.7115 137.967 47.5878 138.082 47.4245C138.197 47.2612 138.259 47.0663 138.258 46.8666C138.276 46.6411 138.206 46.4175 138.063 46.242C137.921 46.0665 137.716 45.9526 137.492 45.9238ZM137.492 47.5565C137.322 47.5428 137.164 47.4628 137.052 47.3338C136.94 47.2048 136.883 47.037 136.894 46.8666C136.88 46.7801 136.885 46.6915 136.909 46.6071C136.932 46.5228 136.974 46.4445 137.031 46.3778C137.088 46.3111 137.158 46.2575 137.238 46.2208C137.317 46.184 137.404 46.165 137.492 46.165C137.579 46.165 137.666 46.184 137.746 46.2208C137.825 46.2575 137.896 46.3111 137.953 46.3778C138.009 46.4445 138.051 46.5228 138.075 46.6071C138.098 46.6915 138.103 46.7801 138.09 46.8666C138.099 46.954 138.091 47.0425 138.065 47.1266C138.04 47.2108 137.997 47.2888 137.941 47.3562C137.884 47.4235 137.814 47.4787 137.736 47.5184C137.657 47.5581 137.572 47.5815 137.484 47.5872L137.492 47.5565ZM142.674 47.6408C142.869 47.682 143.072 47.6617 143.255 47.5829C143.438 47.5041 143.592 47.3705 143.696 47.2006C143.8 47.0306 143.85 46.8326 143.837 46.6337C143.824 46.4347 143.75 46.2446 143.625 46.0894C143.5 45.9343 143.329 45.8216 143.138 45.7669C142.946 45.7123 142.742 45.7183 142.554 45.7841C142.366 45.8499 142.203 45.9723 142.087 46.1346C141.971 46.2968 141.908 46.491 141.907 46.6903C141.887 46.9171 141.956 47.1426 142.099 47.3198C142.242 47.497 142.448 47.612 142.674 47.6408ZM142.674 45.9927C142.844 46.0065 143.002 46.0865 143.114 46.2155C143.225 46.3445 143.282 46.5122 143.271 46.6826C143.285 46.7692 143.28 46.8577 143.257 46.9421C143.233 47.0265 143.191 47.1048 143.134 47.1715C143.078 47.2382 143.007 47.2918 142.927 47.3285C142.848 47.3652 142.761 47.3843 142.674 47.3843C142.586 47.3843 142.499 47.3652 142.42 47.3285C142.34 47.2918 142.27 47.2382 142.213 47.1715C142.156 47.1048 142.114 47.0265 142.09 46.9421C142.067 46.8577 142.062 46.7692 142.076 46.6826C142.065 46.5135 142.121 46.3468 142.231 46.218C142.341 46.0891 142.497 46.0084 142.666 45.9927H142.674ZM143.149 41.8764C142.955 41.8369 142.754 41.8582 142.573 41.9373C142.392 42.0165 142.24 42.1497 142.138 42.3187C142.035 42.4876 141.988 42.6841 142.001 42.8812C142.015 43.0783 142.089 43.2664 142.214 43.4197C142.338 43.5729 142.507 43.684 142.697 43.7375C142.888 43.7911 143.09 43.7845 143.276 43.7188C143.462 43.653 143.624 43.5313 143.738 43.3703C143.853 43.2093 143.915 43.0168 143.915 42.8192C143.935 42.5933 143.866 42.3687 143.723 42.1928C143.58 42.0168 143.374 41.9034 143.149 41.8764ZM143.149 43.5091C142.977 43.4954 142.818 43.4144 142.706 43.2837C142.594 43.153 142.538 42.9832 142.551 42.8116C142.541 42.7268 142.55 42.641 142.576 42.5598C142.602 42.4786 142.644 42.4037 142.701 42.3401C142.758 42.2765 142.827 42.2256 142.905 42.1908C142.983 42.156 143.067 42.138 143.153 42.138C143.238 42.138 143.322 42.156 143.4 42.1908C143.478 42.2256 143.547 42.2765 143.604 42.3401C143.661 42.4037 143.704 42.4786 143.73 42.5598C143.756 42.641 143.764 42.7268 143.754 42.8116C143.765 42.9852 143.706 43.156 143.591 43.2867C143.477 43.4173 143.315 43.4973 143.141 43.5091H143.149ZM140.451 38.9711C140.424 38.8191 140.354 38.6778 140.25 38.5643C140.145 38.4507 140.01 38.3696 139.861 38.3307C139.711 38.2918 139.554 38.2966 139.407 38.3447C139.26 38.3928 139.131 38.482 139.033 38.6018C138.936 38.7216 138.875 38.8669 138.858 39.0203C138.841 39.1738 138.868 39.3289 138.937 39.4672C139.005 39.6055 139.112 39.7212 139.245 39.8004C139.377 39.8796 139.53 39.9191 139.684 39.914C139.908 39.8852 140.113 39.7712 140.256 39.5958C140.398 39.4203 140.468 39.1966 140.451 38.9711ZM139.048 38.9711C139.065 38.8566 139.115 38.7496 139.192 38.6626C139.269 38.5757 139.369 38.5126 139.48 38.4808C139.592 38.449 139.71 38.4498 139.821 38.4832C139.932 38.5166 140.031 38.5811 140.106 38.669C140.182 38.757 140.23 38.8648 140.246 38.9795C140.262 39.0943 140.245 39.2112 140.196 39.3165C140.148 39.4217 140.07 39.5108 139.973 39.5733C139.875 39.6357 139.762 39.6688 139.646 39.6687C139.56 39.6619 139.477 39.6383 139.4 39.5991C139.324 39.56 139.256 39.5061 139.2 39.4405C139.144 39.375 139.102 39.2991 139.076 39.2172C139.05 39.1353 139.04 39.0491 139.048 38.9635V38.9711ZM137.798 34.5558C137.765 34.4165 137.694 34.2892 137.592 34.1884C137.491 34.0875 137.363 34.0171 137.223 33.9852C137.084 33.9532 136.938 33.961 136.803 34.0076C136.668 34.0542 136.548 34.1378 136.458 34.2488C136.367 34.3599 136.31 34.4941 136.292 34.6361C136.274 34.7781 136.296 34.9223 136.356 35.0524C136.416 35.1825 136.511 35.2932 136.63 35.3721C136.749 35.451 136.889 35.4948 137.032 35.4987C137.256 35.4699 137.461 35.3559 137.603 35.1804C137.746 35.0049 137.816 34.7813 137.798 34.5558ZM136.403 34.5558C136.421 34.4413 136.471 34.3342 136.548 34.2473C136.624 34.1604 136.724 34.0973 136.836 34.0655C136.947 34.0337 137.065 34.0345 137.176 34.0679C137.287 34.1012 137.386 34.1657 137.462 34.2537C137.537 34.3417 137.586 34.4494 137.602 34.5642C137.618 34.679 137.6 34.7959 137.552 34.9011C137.503 35.0064 137.426 35.0955 137.328 35.1579C137.23 35.2204 137.117 35.2535 137.001 35.2534C136.829 35.2397 136.67 35.1586 136.558 35.0279C136.446 34.8972 136.39 34.7275 136.403 34.5558ZM135.744 28.7837C135.943 28.7777 136.135 28.7132 136.298 28.5985C136.46 28.4837 136.585 28.3236 136.657 28.1383C136.729 27.953 136.744 27.7505 136.702 27.5563C136.659 27.3621 136.561 27.1847 136.418 27.0462C136.275 26.9078 136.095 26.8144 135.9 26.7778C135.704 26.7412 135.502 26.7629 135.319 26.8403C135.136 26.9177 134.98 27.0473 134.87 27.213C134.76 27.3787 134.702 27.5731 134.701 27.7719C134.703 27.9067 134.732 28.0399 134.785 28.1638C134.839 28.2876 134.916 28.3998 135.013 28.4937C135.11 28.5877 135.224 28.6616 135.35 28.7114C135.475 28.7612 135.609 28.7857 135.744 28.7837ZM135.744 27.0206C135.896 27.0206 136.044 27.0656 136.17 27.1498C136.296 27.234 136.394 27.3538 136.452 27.4938C136.51 27.6339 136.525 27.788 136.496 27.9367C136.466 28.0854 136.393 28.222 136.286 28.3292C136.179 28.4364 136.042 28.5094 135.894 28.539C135.745 28.5686 135.591 28.5534 135.451 28.4954C135.311 28.4374 135.191 28.3391 135.107 28.2131C135.022 28.087 134.977 27.9388 134.977 27.7872C134.977 27.5865 135.056 27.3938 135.196 27.2505C135.337 27.1072 135.528 27.0246 135.729 27.0206H135.744ZM140.228 28.8374C140.427 28.8313 140.62 28.7669 140.782 28.6521C140.944 28.5373 141.069 28.3773 141.141 28.1919C141.213 28.0066 141.229 27.8042 141.186 27.61C141.144 27.4158 141.045 27.2383 140.902 27.0999C140.76 26.9614 140.579 26.8681 140.384 26.8314C140.189 26.7948 139.987 26.8166 139.804 26.894C139.621 26.9714 139.464 27.101 139.354 27.2667C139.245 27.4323 139.186 27.6267 139.186 27.8255C139.187 27.9607 139.215 28.0944 139.268 28.2187C139.321 28.343 139.398 28.4555 139.495 28.5497C139.592 28.6438 139.707 28.7178 139.833 28.7672C139.959 28.8165 140.093 28.8404 140.228 28.8374ZM140.228 27.0743C140.38 27.0743 140.528 27.1192 140.654 27.2035C140.78 27.2877 140.878 27.4074 140.936 27.5475C140.994 27.6876 141.01 27.8417 140.98 27.9904C140.951 28.1391 140.878 28.2757 140.77 28.3829C140.663 28.4901 140.527 28.5631 140.378 28.5927C140.229 28.6222 140.075 28.6071 139.935 28.549C139.795 28.491 139.675 28.3928 139.591 28.2667C139.507 28.1407 139.462 27.9924 139.462 27.8408C139.462 27.6389 139.541 27.445 139.684 27.3015C139.826 27.158 140.019 27.0763 140.221 27.0743H140.228ZM144.759 28.6074C144.957 28.6014 145.15 28.5369 145.312 28.4222C145.474 28.3074 145.599 28.1473 145.671 27.962C145.743 27.7766 145.759 27.5742 145.716 27.38C145.674 27.1858 145.575 27.0084 145.433 26.8699C145.29 26.7315 145.11 26.6381 144.914 26.6015C144.719 26.5649 144.517 26.5866 144.334 26.664C144.151 26.7414 143.995 26.871 143.885 27.0367C143.775 27.2024 143.716 27.3967 143.716 27.5955C143.718 27.7304 143.747 27.8636 143.8 27.9875C143.854 28.1113 143.931 28.2234 144.028 28.3174C144.125 28.4114 144.239 28.4853 144.364 28.5351C144.49 28.5849 144.624 28.6094 144.759 28.6074ZM144.759 26.8443C144.91 26.8443 145.058 26.8893 145.184 26.9735C145.311 27.0577 145.409 27.1775 145.467 27.3175C145.525 27.4576 145.54 27.6117 145.51 27.7604C145.481 27.9091 145.408 28.0457 145.301 28.1529C145.193 28.2601 145.057 28.3331 144.908 28.3627C144.759 28.3923 144.605 28.3771 144.465 28.3191C144.325 28.2611 144.205 28.1628 144.121 28.0367C144.037 27.9107 143.992 27.7625 143.992 27.6109C143.992 27.4089 144.072 27.2151 144.214 27.0715C144.356 26.928 144.549 26.8463 144.751 26.8443H144.759ZM142.812 34.6555C142.784 34.504 142.713 34.3638 142.608 34.2514C142.502 34.1389 142.367 34.0591 142.218 34.0213C142.068 33.9834 141.911 33.9893 141.765 34.038C141.619 34.0867 141.49 34.1764 141.393 34.2962C141.297 34.4161 141.237 34.5612 141.22 34.7143C141.203 34.8674 141.231 35.0221 141.299 35.16C141.368 35.2978 141.475 35.4132 141.607 35.4922C141.739 35.5713 141.891 35.6108 142.045 35.606C142.27 35.5754 142.475 35.4598 142.617 35.2831C142.76 35.1064 142.829 34.8818 142.812 34.6555ZM141.409 34.6555C141.421 34.5404 141.465 34.4312 141.537 34.3406C141.609 34.2501 141.706 34.1822 141.815 34.1447C141.925 34.1073 142.043 34.102 142.155 34.1295C142.267 34.157 142.369 34.216 142.449 34.2997C142.529 34.3834 142.583 34.4882 142.605 34.6018C142.628 34.7153 142.617 34.8328 142.574 34.9404C142.532 35.048 142.459 35.1411 142.366 35.2088C142.272 35.2765 142.16 35.3159 142.045 35.3224C141.959 35.3204 141.874 35.3013 141.795 35.2662C141.716 35.2312 141.645 35.1808 141.586 35.118C141.527 35.0553 141.481 34.9814 141.45 34.9007C141.42 34.82 141.406 34.734 141.409 34.6478V34.6555ZM145.387 33.5823C145.192 33.5412 144.989 33.5614 144.806 33.6402C144.623 33.719 144.469 33.8526 144.364 34.0225C144.26 34.1925 144.211 34.3905 144.224 34.5895C144.237 34.7884 144.311 34.9785 144.436 35.1337C144.561 35.2889 144.731 35.4015 144.923 35.4562C145.115 35.5109 145.319 35.5049 145.507 35.439C145.695 35.3732 145.858 35.2508 145.974 35.0885C146.09 34.9263 146.153 34.7322 146.154 34.5328C146.173 34.3061 146.105 34.0805 145.962 33.9033C145.819 33.7262 145.613 33.6111 145.387 33.5823ZM145.387 35.2227C145.245 35.243 145.1 35.2194 144.971 35.1549C144.843 35.0904 144.737 34.9882 144.668 34.8619C144.599 34.7357 144.571 34.5914 144.586 34.4485C144.602 34.3056 144.661 34.1708 144.755 34.0622C144.849 33.9537 144.974 33.8765 145.114 33.8411C145.253 33.8057 145.4 33.8137 145.535 33.864C145.669 33.9144 145.785 34.0047 145.867 34.1229C145.949 34.241 145.993 34.3814 145.993 34.5252C145.999 34.6114 145.988 34.698 145.96 34.7799C145.933 34.8618 145.889 34.9375 145.832 35.0024C145.775 35.0673 145.706 35.1202 145.628 35.158C145.55 35.1959 145.466 35.2179 145.379 35.2227H145.387ZM147.143 51.3509C147.338 51.3921 147.541 51.3718 147.724 51.293C147.907 51.2142 148.061 51.0806 148.165 50.9107C148.269 50.7407 148.319 50.5427 148.306 50.3438C148.293 50.1448 148.219 49.9547 148.094 49.7995C147.969 49.6444 147.798 49.5317 147.607 49.477C147.415 49.4224 147.211 49.4284 147.023 49.4942C146.835 49.56 146.672 49.6824 146.556 49.8447C146.44 50.0069 146.377 50.2011 146.376 50.4004C146.356 50.6272 146.425 50.8527 146.568 51.0299C146.711 51.2071 146.917 51.3221 147.143 51.3509ZM147.143 49.7029C147.314 49.7147 147.474 49.7938 147.587 49.923C147.701 50.0523 147.759 50.2211 147.748 50.3927C147.758 50.4775 147.749 50.5633 147.723 50.6445C147.698 50.7258 147.655 50.8006 147.598 50.8642C147.541 50.9278 147.472 50.9787 147.394 51.0135C147.316 51.0483 147.232 51.0663 147.146 51.0663C147.061 51.0663 146.977 51.0483 146.899 51.0135C146.821 50.9787 146.752 50.9278 146.695 50.8642C146.638 50.8006 146.595 50.7258 146.569 50.6445C146.543 50.5633 146.535 50.4775 146.545 50.3927C146.534 50.2236 146.59 50.0569 146.7 49.9281C146.81 49.7993 146.966 49.7185 147.135 49.7029H147.143ZM135.66 53.9572C135.465 53.9161 135.262 53.9363 135.078 54.0151C134.895 54.0939 134.741 54.2275 134.637 54.3974C134.533 54.5674 134.484 54.7654 134.496 54.9644C134.509 55.1633 134.583 55.3534 134.709 55.5086C134.834 55.6638 135.004 55.7764 135.195 55.8311C135.387 55.8858 135.591 55.8798 135.779 55.8139C135.967 55.7481 136.131 55.6257 136.246 55.4634C136.362 55.3012 136.425 55.1071 136.426 54.9077C136.446 54.681 136.377 54.4554 136.234 54.2782C136.091 54.1011 135.885 53.986 135.66 53.9572ZM135.66 55.5976C135.488 55.5839 135.329 55.5028 135.217 55.3722C135.105 55.2415 135.049 55.0717 135.062 54.9001C135.048 54.8135 135.053 54.725 135.077 54.6406C135.1 54.5562 135.142 54.4779 135.199 54.4112C135.256 54.3445 135.326 54.2909 135.406 54.2542C135.485 54.2175 135.572 54.1984 135.66 54.1984C135.747 54.1984 135.834 54.2175 135.913 54.2542C135.993 54.2909 136.064 54.3445 136.121 54.4112C136.177 54.4779 136.219 54.5562 136.243 54.6406C136.266 54.725 136.271 54.8135 136.258 54.9001C136.264 54.9857 136.253 55.0717 136.226 55.1531C136.199 55.2346 136.156 55.3099 136.1 55.3747C136.043 55.4395 135.975 55.4926 135.898 55.5308C135.821 55.5691 135.738 55.5918 135.652 55.5976H135.66ZM140.382 53.8882C140.187 53.8471 139.984 53.8673 139.8 53.9461C139.617 54.025 139.463 54.1585 139.359 54.3285C139.255 54.4984 139.206 54.6964 139.218 54.8954C139.231 55.0943 139.305 55.2844 139.43 55.4396C139.556 55.5948 139.726 55.7074 139.917 55.7621C140.109 55.8168 140.313 55.8108 140.501 55.745C140.689 55.6791 140.853 55.5567 140.968 55.3945C141.084 55.2322 141.147 55.0381 141.148 54.8387C141.168 54.612 141.099 54.3864 140.956 54.2093C140.813 54.0321 140.607 53.917 140.382 53.8882ZM140.382 55.5286C140.239 55.5505 140.094 55.5283 139.964 55.465C139.835 55.4017 139.728 55.3002 139.658 55.1743C139.588 55.0484 139.558 54.9041 139.573 54.7608C139.587 54.6175 139.645 54.482 139.739 54.3727C139.833 54.2633 139.958 54.1853 140.097 54.149C140.236 54.1128 140.384 54.1202 140.519 54.1701C140.654 54.22 140.77 54.3101 140.853 54.4283C140.935 54.5465 140.979 54.687 140.979 54.8311C140.986 54.9167 140.975 55.0027 140.948 55.0841C140.921 55.1656 140.878 55.2409 140.822 55.3057C140.765 55.3705 140.697 55.4236 140.62 55.4618C140.543 55.5001 140.46 55.5228 140.374 55.5286H140.382ZM147.411 53.6429C147.218 53.6035 147.017 53.6246 146.836 53.7035C146.655 53.7824 146.503 53.9151 146.401 54.0836C146.298 54.2521 146.25 54.4481 146.263 54.6449C146.276 54.8417 146.35 55.0297 146.473 55.1833C146.597 55.3368 146.765 55.4484 146.955 55.5028C147.145 55.5572 147.346 55.5518 147.533 55.4872C147.719 55.4227 147.881 55.3023 147.996 55.1423C148.112 54.9823 148.175 54.7907 148.177 54.5934C148.197 54.3667 148.128 54.1411 147.985 53.964C147.842 53.7868 147.637 53.6718 147.411 53.6429ZM147.411 55.2527C147.268 55.2746 147.123 55.2524 146.993 55.189C146.864 55.1257 146.757 55.0243 146.687 54.8984C146.617 54.7725 146.587 54.6282 146.602 54.4848C146.616 54.3415 146.674 54.2061 146.768 54.0967C146.862 53.9873 146.987 53.9093 147.126 53.8731C147.266 53.8369 147.413 53.8442 147.548 53.8941C147.683 53.9441 147.8 54.0342 147.882 54.1523C147.964 54.2705 148.009 54.4111 148.009 54.5551C148.019 54.7263 147.963 54.895 147.851 55.0252C147.74 55.1554 147.582 55.237 147.411 55.2527ZM56.5977 95.0136C56.6935 95.0136 56.7872 94.9851 56.8667 94.9317C56.9463 94.8783 57.0082 94.8024 57.0445 94.7137C57.0808 94.625 57.0899 94.5275 57.0707 94.4336C57.0514 94.3397 57.0047 94.2537 56.9363 94.1865C56.868 94.1193 56.7813 94.0739 56.6871 94.0561C56.5929 94.0384 56.4956 94.049 56.4075 94.0868C56.3194 94.1245 56.2445 94.1876 56.1924 94.268C56.1403 94.3484 56.1132 94.4425 56.1147 94.5384C56.1147 94.6014 56.1273 94.6639 56.1516 94.722C56.176 94.7802 56.2117 94.8329 56.2566 94.8772C56.3016 94.9214 56.3549 94.9562 56.4134 94.9797C56.472 95.0031 56.5346 95.0146 56.5977 95.0136Z" fill="black"/>
<path d="M56.7202 27.6721C56.7202 27.7839 56.7646 27.8911 56.8437 27.9702C56.9228 28.0493 57.03 28.0937 57.1418 28.0937C57.2536 28.0937 57.3609 28.0493 57.4399 27.9702C57.519 27.8911 57.5634 27.7839 57.5634 27.6721C57.5634 27.5603 57.519 27.453 57.4399 27.374C57.3609 27.2949 57.2536 27.2505 57.1418 27.2505C57.03 27.2505 56.9228 27.2949 56.8437 27.374C56.7646 27.453 56.7202 27.5603 56.7202 27.6721Z" fill="black"/>
<path d="M57.9238 27.4805C57.9238 27.5882 57.9666 27.6916 58.0428 27.7678C58.119 27.844 58.2223 27.8868 58.3301 27.8868C58.4378 27.8868 58.5412 27.844 58.6174 27.7678C58.6936 27.6916 58.7364 27.5882 58.7364 27.4805C58.7364 27.3727 58.6936 27.2694 58.6174 27.1932C58.5412 27.117 58.4378 27.0742 58.3301 27.0742C58.2223 27.0742 58.119 27.117 58.0428 27.1932C57.9666 27.2694 57.9238 27.3727 57.9238 27.4805Z" fill="black"/>
<path d="M58.1233 26.3767C58.2412 26.3767 58.3543 26.3299 58.4377 26.2465C58.5211 26.1631 58.5679 26.0501 58.5679 25.9321C58.5679 25.8142 58.5211 25.7011 58.4377 25.6178C58.3543 25.5344 58.2412 25.4875 58.1233 25.4875C58.0649 25.4875 58.0071 25.499 57.9532 25.5214C57.8992 25.5437 57.8502 25.5765 57.8089 25.6178C57.7676 25.6591 57.7349 25.7081 57.7125 25.762C57.6902 25.8159 57.6787 25.8738 57.6787 25.9321C57.6787 25.9905 57.6902 26.0483 57.7125 26.1023C57.7349 26.1562 57.7676 26.2052 57.8089 26.2465C57.8502 26.2878 57.8992 26.3206 57.9532 26.3429C58.0071 26.3652 58.0649 26.3767 58.1233 26.3767ZM71.4153 65.8004C71.3134 65.8004 71.2138 65.8307 71.1292 65.8875C71.0445 65.9443 70.9787 66.025 70.9401 66.1193C70.9015 66.2136 70.8917 66.3172 70.9122 66.417C70.9326 66.5169 70.9823 66.6084 71.0549 66.6799C71.1275 66.7514 71.2197 66.7997 71.3199 66.8186C71.42 66.8376 71.5235 66.8263 71.6172 66.7863C71.7109 66.7462 71.7906 66.6792 71.8461 66.5937C71.9016 66.5083 71.9304 66.4082 71.9289 66.3063C71.9269 66.1715 71.8719 66.0428 71.7758 65.9481C71.6797 65.8535 71.5502 65.8004 71.4153 65.8004ZM71.1317 62.2819C71.1317 62.3778 71.1602 62.4715 71.2136 62.551C71.267 62.6306 71.3429 62.6925 71.4316 62.7288C71.5203 62.7651 71.6178 62.7742 71.7117 62.755C71.8055 62.7357 71.8916 62.6889 71.9588 62.6206C72.026 62.5523 72.0714 62.4655 72.0892 62.3714C72.1069 62.2772 72.0962 62.1799 72.0585 62.0918C72.0208 62.0037 71.9577 61.9288 71.8773 61.8767C71.7969 61.8245 71.7027 61.7975 71.6069 61.799C71.4802 61.801 71.3593 61.8528 71.2704 61.9431C71.1815 62.0335 71.1316 62.1552 71.1317 62.2819ZM71.3463 59.668C71.4361 59.6695 71.5242 59.6443 71.5996 59.5955C71.675 59.5468 71.7341 59.4767 71.7696 59.3942C71.805 59.3117 71.815 59.2205 71.7984 59.1323C71.7819 59.0441 71.7394 58.9628 71.6765 58.8988C71.6135 58.8347 71.533 58.7909 71.4451 58.7728C71.3571 58.7547 71.2658 58.7632 71.1827 58.7972C71.0996 58.8312 71.0285 58.8892 70.9785 58.9637C70.9284 59.0382 70.9017 59.126 70.9017 59.2157C70.9017 59.3344 70.9483 59.4483 71.0314 59.5329C71.1146 59.6175 71.2277 59.666 71.3463 59.668Z" fill="black"/>
</g>
<defs>
<filter id="filter0_d_146_240" x="-3" y="0.0610352" width="161.31" height="161.31" filterUnits="userSpaceOnUse" color-interpolation-filters="sRGB">
<feFlood flood-opacity="0" result="BackgroundImageFix"/>
<feColorMatrix in="SourceAlpha" type="matrix" values="0 0 0 0 0 0 0 0 0 0 0 0 0 0 0 0 0 0 127 0" result="hardAlpha"/>
<feOffset dy="4"/>
<feGaussianBlur stdDeviation="2"/>
<feComposite in2="hardAlpha" operator="out"/>
<feColorMatrix type="matrix" values="0 0 0 0 0 0 0 0 0 0 0 0 0 0 0 0 0 0 0.25 0"/>
<feBlend mode="normal" in2="BackgroundImageFix" result="effect1_dropShadow_146_240"/>
<feBlend mode="normal" in="SourceGraphic" in2="effect1_dropShadow_146_240" result="shape"/>
</filter>
</defs>
</svg>
