<svg width="204" height="220" viewBox="0 0 204 220" fill="none" xmlns="http://www.w3.org/2000/svg">
<path d="M105.381 219.91L103.421 207.3C99.7207 183.48 96.3507 169.89 88.1907 161.73C80.0307 153.57 66.4408 150.2 42.6208 146.5L30.0107 144.54L42.6208 142.58C66.4408 138.88 80.0307 135.51 88.1907 127.35C96.3507 119.19 99.7207 105.6 103.421 81.78L105.381 69.17L107.341 81.78C111.041 105.6 114.411 119.19 122.571 127.35C130.731 135.51 144.321 138.88 168.141 142.58L180.751 144.54L168.141 146.5C144.321 150.2 130.731 153.57 122.571 161.73C114.411 169.89 111.041 183.48 107.341 207.3L105.381 219.91ZM54.9207 144.54C72.5607 147.78 83.5807 151.51 91.0007 158.93C98.4207 166.35 102.141 177.36 105.391 195.01C108.631 177.37 112.361 166.35 119.781 158.93C127.191 151.52 138.211 147.79 155.861 144.54C138.221 141.3 127.201 137.57 119.781 130.15C112.371 122.74 108.641 111.72 105.391 94.07C102.151 111.71 98.4207 122.73 91.0007 130.15C83.5807 137.57 72.5707 141.29 54.9207 144.54Z" fill="#472A24"/>
<path d="M47.6008 95.01L45.6406 82.4001C41.6306 56.6001 38.9008 53.87 13.1008 49.86L0.490723 47.9001L13.1008 45.94C38.9008 41.93 41.6306 39.2001 45.6406 13.4001L47.6008 0.790039L49.5608 13.4001C53.5708 39.2001 56.3008 41.93 82.1008 45.94L94.7107 47.9001L82.1008 49.86C56.3008 53.87 53.5708 56.6001 49.5608 82.4001L47.6008 95.01ZM24.4707 47.9001C39.3307 51.2301 44.2808 56.1701 47.6008 71.0301C50.9308 56.1601 55.8707 51.2201 70.7307 47.9001C55.8707 44.5701 50.9208 39.6301 47.6008 24.7701C44.2708 39.64 39.3307 44.5801 24.4707 47.9001Z" fill="#472A24"/>
<path d="M166.271 90.77L164.311 78.16C161.531 60.27 159.861 58.59 141.971 55.81L129.361 53.85L141.971 51.89C159.861 49.11 161.541 47.44 164.311 29.55L166.271 16.94L168.231 29.55C171.011 47.44 172.681 49.12 190.581 51.89L203.191 53.85L190.581 55.81C172.681 58.59 171.011 60.26 168.231 78.16L166.271 90.77ZM152.541 53.85C156.551 54.94 159.421 56.33 161.611 58.51C163.791 60.69 165.191 63.56 166.281 67.58C167.371 63.57 168.761 60.7 170.941 58.51C173.121 56.33 175.991 54.93 180.011 53.85C176.001 52.76 173.131 51.37 170.941 49.19C168.761 47.01 167.361 44.14 166.281 40.12C165.191 44.13 163.801 47 161.611 49.19C159.431 51.37 156.561 52.77 152.541 53.85Z" fill="#472A24"/>
</svg>
