<svg width="749" height="304" viewBox="0 0 749 304" fill="none" xmlns="http://www.w3.org/2000/svg">
<path d="M499.603 134.364C484.9 120.603 465.532 112.919 445.394 112.855C425.256 112.792 405.84 120.354 391.051 134.022L445.143 192.554L499.603 134.364Z" fill="white"/>
<path d="M266.181 2L266.911 1.31569L266.181 0.538683L265.452 1.31569L266.181 2ZM0.270813 283.886C-0.107123 284.289 -0.0870333 284.922 0.315686 285.299C0.718405 285.677 1.35125 285.657 1.72919 285.255L0.270813 283.886ZM265.452 2.68431L530.634 285.255L532.092 283.886L266.911 1.31569L265.452 2.68431ZM1.72919 285.255L266.911 2.68431L265.452 1.31569L0.270813 283.886L1.72919 285.255Z" fill="white"/>
<path d="M554.057 78.8012L554.784 78.1153L554.06 77.3467L553.332 78.112L554.057 78.8012ZM445.143 191.865C444.762 192.265 444.778 192.898 445.178 193.278C445.578 193.659 446.211 193.643 446.592 193.243L445.143 191.865ZM553.329 79.487L747.272 285.256L748.728 283.884L554.784 78.1153L553.329 79.487ZM446.592 193.243L554.781 79.4903L553.332 78.112L445.143 191.865L446.592 193.243Z" fill="white"/>
</svg>
