<svg xmlns="http://www.w3.org/2000/svg" xml:space="preserve" width="740.5545" height="200" viewBox="0 0 740.55451 200"><path d="M242.13 373.03v59.257h101.01v-15.828h-81.317v-27.937h81.988v-15.493zm39.895-82.994v49.996h-57.573v15.493H359.97v-15.493h-58.248v-49.996ZM484.054 397.103h21.385v-16.329h-21.385v-49.5H464.36v108.761h19.694zm-95.45-103.2v48.656h19.697v-33.167h79.456v-15.489zm54.205 59.936c-11.276 4.374-27.104 18.006-33.498 31.814-4.548-15.15-20.206-30.638-34.346-36.022l-11.781 15.481c21.716 7.916 35.856 27.948 35.856 50.671v15.836h20.203v-14.815c0-23.231 17.338-41.922 34.847-47.65zM613.357 331.274v48.324h-27.61v16.156h27.61v44.28h19.7v-108.76Zm-79.12-37.198v47.307h19.862v-31.66h82.154v-15.647zm-15.66 54.04-9.761 15.658c25.59 4.883 51.01 21.713 55.893 48.478h-48.655v16.333h69.867c-1.017-43.098-28.118-69.02-67.343-80.47M755.619 364.105v33.167h-25.59v15.824h25.59v26.938h19.7v-75.93zm-78.951-72.897v39.9h78.95v9.766h-79.794v15.658h99.496v-39.9h-78.793v-9.596h83.34v-15.828zm53.03 74.246c-11.45 4.378-26.94 15.828-33.337 29.625-4.547-15.316-20.876-28.781-35.013-33.498l-11.284 14.648c21.548 7.908 35.691 25.247 35.691 47.981v11.107h20.538V425.22c0-23.066 17.003-39.564 34.342-45.121z" style="fill:#000f9f;fill-opacity:1;fill-rule:nonzero;stroke:none;stroke-width:3.76765" transform="matrix(1.33333 0 0 -1.33333 -299.269 586.714)"/></svg>