<svg xmlns="http://www.w3.org/2000/svg" xml:space="preserve" width="658.138" height="176.668" viewBox="0 0 658.138 176.668"><defs><clipPath id="a" clipPathUnits="userSpaceOnUse"><path d="M0 595.28h841.89V0H0Z"/></clipPath></defs><g clip-path="url(#a)" transform="matrix(1.33333 0 0 -1.33333 -232.19 485.19)"><path d="M0 0c-4.576 0-8.3 3.601-8.3 8.038v3.412c0 4.359 3.802 8.038 8.3 8.038h.809c4.493 0 8.289-3.679 8.289-8.038V8.038C9.098 3.601 5.379 0 .809 0Z" style="fill:#1d51a1;fill-opacity:1;fill-rule:nonzero;stroke:none" transform="translate(290.528 323.568)"/><path d="M0 0c-4.415 0-7.988 3.579-7.988 7.982v64.729c-5.524-9.944-16.567-29.722-16.567-29.722-2.759-4.905-6.594-7.202-12.068-7.202-5.43 0-9.265 2.308-12.08 7.241L-65.23 72.711V7.982C-65.23 3.579-68.809 0-73.213 0h-1.432c-4.387 0-7.977 3.579-7.977 7.982v82.165c0 6.935 5.162 11.584 12.809 11.584 4.995 0 9.025-2.364 11.372-6.645 0 0 17.448-31.138 21.818-38.959 5.039 8.964 21.829 38.937 21.829 38.937 2.352 4.292 6.394 6.667 11.394 6.667 7.659 0 12.798-4.649 12.798-11.584V7.982C9.398 3.579 5.819 0 1.416 0Z" style="fill:#1d51a1;fill-opacity:1;fill-rule:nonzero;stroke:none" transform="translate(256.765 241.325)"/><path d="M0 0c-4.482 0-8.272 3.656-8.272 7.982v60.281c0 4.303 3.79 7.96 8.272 7.96h.858c4.482 0 8.267-3.657 8.267-7.96V7.982C9.125 3.656 5.34 0 .858 0Z" style="fill:#1d51a1;fill-opacity:1;fill-rule:nonzero;stroke:none" transform="translate(290.501 241.325)"/><path d="M0 0c-5.63 0-8.378-2.118-8.378-6.5v-4.381c0-4.392.753-8.016 9.922-8.016H13.59c3.222 0 6.634 2.251 6.634 6.444V0Zm1.544-34.929c-17.107 0-27.308 9.399-27.308 25.107v1.583c0 21.115 16.221 24.26 25.887 24.26h20.078c-.156 8.149-2.062 10.541-12.285 10.541H-9.175l-3.646.016c-4.771 0-8.255 3.144-8.255 7.481v.724c0 3.78 2.268 7.849 8.618 7.849H7.916c19.71 0 29.71-9.398 29.71-27.905v-26.968c0-13.557-10.479-22.688-26.076-22.688z" style="fill:#1d51a1;fill-opacity:1;fill-rule:nonzero;stroke:none" transform="translate(391.396 275.585)"/><path d="M0 0c5.646 0 8.395 3.646 8.395 8.038v1.505c0 5.273-2.715 9.354-11.868 9.354h-6.884c-6.254 0-9.844-4.081-9.844-9.42V0Zm-4.014 34.917c18.942 0 29.789-9.387 29.789-25.106V8.228c0-21.094-16.215-24.249-25.887-24.249H-20.18c.146-8.161 2.063-10.557 12.286-10.557h20.669l2.777-.012c4.794 0 8.256-3.127 8.256-7.48v-.713c0-3.78-2.258-7.861-8.608-7.861H-7.894c-19.721 0-29.722 9.399-29.722 27.916V8.473c0 14.755 11.227 26.444 28.485 26.444z" style="fill:#1d51a1;fill-opacity:1;fill-rule:nonzero;stroke:none" transform="translate(477.273 283.3)"/><path d="M0 0c-4.471 0-8.261 3.656-8.261 7.982v43.836c0 16.6 8.719 25.018 27.576 25.018h9.806c8.952 0 9.414-6.232 9.414-7.481v-.969c0-1.26-.462-7.587-9.414-7.587H18.384c-6.41 0-9.264-3.305-9.264-10.72V7.982C9.12 3.656 5.324 0 .853 0Z" style="fill:#1d51a1;fill-opacity:1;fill-rule:nonzero;stroke:none" transform="translate(323.946 241.325)"/><path d="M0 0c-62.354 0-72.304-29.678-72.304-66.273 0-25.291 4.772-47.287 28.345-58.435v86.479c0 5.619 2.57 11.305 10.981 11.305 5.865 0 8.417.234 12.789-5.451l42.514-55.554v51.038c0 7.57 3.116 9.967 9.142 9.967h3.991c4.866 0 8.528-3.451 8.528-9.967v-87.817c23.575 11.16 28.335 33.144 28.335 58.435C72.321-29.678 62.398 0 0 0" style="fill:#1d51a1;fill-opacity:1;fill-rule:nonzero;stroke:none" transform="translate(595.426 363.893)"/><path d="M0 0v-71.095c6.873-1.137 14.644-1.75 23.507-1.75 11.315 0 20.882.981 28.998 2.809z" style="fill:#1d51a1;fill-opacity:1;fill-rule:nonzero;stroke:none" transform="translate(571.919 304.236)"/></g></svg>