<?xml version="1.0" standalone="no"?>
<!DOCTYPE svg PUBLIC "-//W3C//DTD SVG 1.1//EN" "http://www.w3.org/Graphics/SVG/1.1/DTD/svg11.dtd" >
<svg xmlns="http://www.w3.org/2000/svg" xmlns:xlink="http://www.w3.org/1999/xlink" version="1.1">
<metadata>
Created by FontForge 20190801 at Sat Jan 19 23:22:43 2019
 By Unknown
Copyright (c) 2018 by Adrien Midzic. All rights reserved.
</metadata>
<defs>
<font id="Orelo-SemiWideDemiBold" horiz-adv-x="0" >
  <font-face 
    font-family="Orelo SemiWide DemiBold"
    font-weight="600"
    font-stretch="semi-expanded"
    units-per-em="1000"
    panose-1="0 0 7 5 0 0 0 0 0 0"
    ascent="800"
    descent="-200"
    x-height="467"
    cap-height="700"
    bbox="-527 -260 1214 899"
    underline-thickness="7"
    underline-position="-100"
    unicode-range="U+0020-FB02"
  />
<missing-glyph horiz-adv-x="500" 
d="M410 800v-1000h-317v1000h317zM333 733h-165v-33h65v-37h-66v-33h166v33h-66v37h66v33zM267 604h-100v-104h166v34h-66v70zM233 570v-36h-33v36h33zM333 473h-166v-33h66v-37h-66v-33h100v70h66v33zM333 413h-33v-66h-133v-34h166v100zM333 291h-100v-56h34v23h33v-47
h-100v80h-33v-113h166v113zM333 118h-166v-113h166v113zM300 85v-47h-100v47h100zM333 -18h-166v-33h70l-70 -47v-33h166v33h-102l70 47h32v33z" />
    <glyph glyph-name="fi" unicode="fi" horiz-adv-x="707" 
d="M225 467h3l273 7v-67l-273 57h-3v-464h-105v464h-112v3h112v50q0 96 52 144t171 48h315v-83l-315 80q-33 0 -56.5 -12t-35 -27.5t-18 -41.5t-7.5 -42.5t-1 -43.5v-72zM557 423q60 11 105 52v-475h-105v423z" />
    <glyph glyph-name="fl" unicode="fl" horiz-adv-x="712" 
d="M343 709h316v-702h-105v646l-211 53q-33 0 -56.5 -12t-35 -27.5t-18 -41.5t-7.5 -42.5t-1 -43.5v-72h3l244 7v-67l-244 57h-3v-464h-105v464h-112v3h112v50q0 96 52 144t171 48z" />
    <glyph glyph-name="f_f.liga" unicode="ff" horiz-adv-x="926" 
d="M726 709q63 0 108 -17.5t63.5 -43.5t17 -57t-25.5 -58h-3q-29 173 -159 173q-33 0 -57 -12t-35.5 -27t-18 -41.5t-7.5 -43t-1 -43.5v-72l276 7v-67l-276 57v-464h-105v517v8q-28 181 -159 181q-33 0 -57 -12t-35.5 -27t-18 -41.5t-7.5 -43t-1 -43.5v-72h3l197 7v-67
l-197 57h-3v-464h-105v464h-112v3h112v50q0 96 52 144t171 48q77 0 120.5 -31t51.5 -78q37 109 211 109z" />
    <glyph glyph-name="f_f_i.liga" unicode="ffi" horiz-adv-x="1090" 
d="M726 709h323v-83l-323 80q-33 0 -56.5 -12t-35 -27.5t-18 -41.5t-7.5 -42.5t-1 -43.5v-539h-105v517v8q-28 181 -159 181q-33 0 -57 -12t-35.5 -27t-18 -41.5t-7.5 -43t-1 -43.5v-72h3l197 7v-67l-197 57h-3v-464h-105v464h-112v3h112v50q0 96 52 144t171 48
q77 0 120.5 -31t51.5 -78q37 109 211 109zM940 0v423q61 11 106 52v-475h-106zM609 464v3l275 7v-67z" />
    <glyph glyph-name="f_f_l.liga" unicode="ffl" horiz-adv-x="1093" 
d="M725 709h316v-702h-106v646l-210 53q-33 0 -56.5 -12t-35 -27.5t-18 -41.5t-7.5 -42.5t-1 -43.5v-539h-105v517v13q-29 176 -158 176q-33 0 -57 -12t-35.5 -27t-18 -41.5t-7.5 -43t-1 -43.5v-72h3l197 7v-67l-197 57h-3v-464h-105v464h-112v3h112v50q0 96 52 144t171 48
q76 0 119.5 -30t52.5 -77q37 107 210 107zM610 464v3l244 7v-67z" />
    <glyph glyph-name="f_j.liga" unicode="fj" horiz-adv-x="713" 
d="M501 407l-273 57h-3v-464h-105v464h-112v3h112v50q0 96 52 144t171 48h315v-83l-315 80q-33 0 -56.5 -12t-35 -27.5t-18 -41.5t-7.5 -42.5t-1 -43.5v-72h3l273 7v-67zM567 424q52 8 105 51v-518q-1 -79 -41 -124t-123 -45q-134 0 -174 150h6q40 -82 127 -82
q48 0 73.5 29.5t26.5 83.5v455z" />
    <glyph glyph-name=".notdef" horiz-adv-x="500" 
d="M410 800v-1000h-317v1000h317zM333 733h-165v-33h65v-37h-66v-33h166v33h-66v37h66v33zM267 604h-100v-104h166v34h-66v70zM233 570v-36h-33v36h33zM333 473h-166v-33h66v-37h-66v-33h100v70h66v33zM333 413h-33v-66h-133v-34h166v100zM333 291h-100v-56h34v23h33v-47
h-100v80h-33v-113h166v113zM333 118h-166v-113h166v113zM300 85v-47h-100v47h100zM333 -18h-166v-33h70l-70 -47v-33h166v33h-102l70 47h32v33z" />
    <glyph glyph-name=".null" 
 />
    <glyph glyph-name="nonmarkingreturn" horiz-adv-x="333" 
 />
    <glyph glyph-name="space" unicode=" " horiz-adv-x="246" 
 />
    <glyph glyph-name="exclam" unicode="!" horiz-adv-x="232" 
d="M107 175q-6 251 -59 525h122q-53 -274 -59 -525h-4zM109 -5q-27 0 -45.5 18.5t-18.5 45.5t18.5 46t45.5 19q26 0 45 -19t19 -46t-19 -45.5t-45 -18.5z" />
    <glyph glyph-name="quotedbl" unicode="&#x22;" horiz-adv-x="379" 
d="M109 719q31 0 48.5 -26.5t17.5 -64.5q0 -55 -26 -101.5t-80 -63.5l-2 2q41 18 60.5 62t17.5 85q-12 -20 -40 -20q-27 0 -43.5 19t-16.5 44q0 28 18 46t46 18zM268 719q31 0 48.5 -26.5t17.5 -64.5q0 -55 -26 -101.5t-80 -63.5l-2 2q41 18 60.5 62t17.5 85
q-12 -20 -40 -20q-27 0 -43.5 19t-16.5 44q0 28 18 46t46 18z" />
    <glyph glyph-name="numbersign" unicode="#" horiz-adv-x="739" 
d="M545 360l-22 -48h174l-12 -71h-195l-115 -251h-12l115 251h-305l-115 -251h-12l115 251h-128l13 71h148l22 48h-174l13 71h193l128 279h12l-128 -279h306l128 279h12l-128 -279h129l-13 -71h-149zM206 312h305l22 48h-305z" />
    <glyph glyph-name="dollar" unicode="$" horiz-adv-x="635" 
d="M338 413q128 -35 170 -56q98 -49 103 -150v-12q0 -54 -25 -95t-65.5 -64t-87 -34.5t-95.5 -11.5h-22v-105h-5v106q-158 6 -237 80t-14 174h3q15 -85 82 -162.5t166 -87.5v301q-52 14 -82.5 24t-71 28.5t-62.5 39t-38 52.5t-16 72q0 53 23 92t62.5 61.5t85.5 33t99 10.5
v91h5v-91q61 -1 113 -16t86 -40t52.5 -57t16.5 -68.5t-25 -70.5h-3q-4 40 -21 81.5t-45.5 79.5t-74 62t-99.5 25v-286zM106 571q0 -26 11.5 -47.5t27 -35.5t46 -27.5t54.5 -21t66 -19.5v285q-94 1 -149.5 -36t-55.5 -98zM337 -6q97 -1 152.5 35.5t55.5 96.5q0 39 -12.5 65.5
t-48.5 45.5t-60 27t-88 25q-12 3 -18 5q-1 0 -2 1v-300q7 -1 21 -1z" />
    <glyph glyph-name="percent" unicode="%" horiz-adv-x="729" 
d="M199 -10l330 720h12l-330 -720h-12zM191 339q-66 0 -113.5 52.5t-47.5 131.5q0 80 47 132.5t114 52.5t114 -52.5t47 -132.5q0 -79 -47.5 -131.5t-113.5 -52.5zM191 341q50 0 75.5 53.5t25.5 128.5t-25.5 129t-75.5 54t-75.5 -54t-25.5 -129t25.5 -128.5t75.5 -53.5z
M535 -4q-66 0 -113 52.5t-47 131.5q0 80 47 132.5t113 52.5q67 0 114 -52.5t47 -132.5q0 -79 -47.5 -131.5t-113.5 -52.5zM535 -2q51 0 76.5 53.5t25.5 128.5t-26 129t-76 54t-75.5 -54t-25.5 -129t25.5 -128.5t75.5 -53.5z" />
    <glyph glyph-name="ampersand" unicode="&#x26;" horiz-adv-x="794" 
d="M784 0h-135q-13 12 -36.5 32.5t-32.5 29.5q-34 -33 -99 -52t-146 -19q-137 0 -221 44t-84 132q0 70 64.5 118.5t169.5 67.5q-65 65 -87 105t-22 87q0 73 60 118.5t171 45.5q105 0 159.5 -45t54.5 -118q0 -66 -59.5 -110t-173.5 -63q49 -48 263 -237q42 77 30.5 151
t-63.5 130l128 1q-15 -177 -91 -286q68 -58 150 -132zM386 705q-66 0 -101.5 -36t-35.5 -99q0 -45 25 -87.5t88 -104.5q73 22 113 67.5t40 100.5q0 67 -29 113t-100 46zM374 3q135 0 201 64q-230 207 -305 280q-63 -21 -98 -66.5t-35 -107.5q0 -86 68 -128t169 -42z" />
    <glyph glyph-name="quotesingle" unicode="'" horiz-adv-x="220" 
d="M109 705q31 0 48.5 -26.5t17.5 -64.5q0 -55 -26 -102t-80 -64l-2 2q41 18 60.5 62.5t17.5 85.5q-12 -21 -40 -21q-27 0 -43.5 19t-16.5 44q0 28 18 46.5t46 18.5z" />
    <glyph glyph-name="parenleft" unicode="(" horiz-adv-x="306" 
d="M131 310q0 -120 45.5 -233t129.5 -187h-5q-151 110 -211 209t-60 211q0 114 60.5 215t210.5 205h5q-84 -80 -129.5 -193t-45.5 -227z" />
    <glyph glyph-name="parenright" unicode=")" horiz-adv-x="306" 
d="M5 730q150 -104 210.5 -205t60.5 -215q0 -112 -60 -211t-211 -209h-5q84 74 129.5 187t45.5 233q0 114 -45.5 227t-129.5 193h5z" />
    <glyph glyph-name="asterisk" unicode="*" horiz-adv-x="506" 
d="M476 546q-16 -2 -54.5 -6.5t-52.5 -6t-38.5 -5.5t-41 -8.5t-32.5 -10.5q40 -38 178 -121l-73 -54q-69 126 -109 171q-41 -46 -107 -171l-75 54q7 4 24.5 14.5t23.5 14.5t20.5 12.5t20 12.5t17.5 11.5t17.5 11.5t14.5 10.5t15 11t13 10.5t13 12q-16 6 -32.5 10.5
t-41.5 8.5t-38.5 5.5t-52.5 6t-55 6.5l37 79q121 -83 183 -110q-3 53 -45 185h97q-42 -132 -46 -185q63 27 184 110z" />
    <glyph glyph-name="plus" unicode="+" horiz-adv-x="629" 
d="M584 256v-10h-264v-208h-10v208h-265v10h265v208h10v-208h264z" />
    <glyph glyph-name="comma" unicode="," horiz-adv-x="174" 
d="M-16 -144l-2 2q70 63 65 215h75q2 -47 -9.5 -87t-44 -76t-84.5 -54z" />
    <glyph glyph-name="hyphen" unicode="-" horiz-adv-x="414" 
d="M53 318h309v-73h-309v73z" />
    <glyph glyph-name="period" unicode="." horiz-adv-x="217" 
d="M109 -5q-27 0 -45.5 18.5t-18.5 45.5t18.5 46t45.5 19q26 0 45 -19t19 -46t-19 -45.5t-45 -18.5z" />
    <glyph glyph-name="slash" unicode="/" horiz-adv-x="357" 
d="M8 -10l330 720h12l-330 -720h-12z" />
    <glyph glyph-name="zero" unicode="0" horiz-adv-x="686" 
d="M342 -9q-128 0 -220 102t-92 256q0 156 91.5 258t220.5 102q130 0 222 -102t92 -258q0 -154 -92 -256t-222 -102zM342 -5q66 0 112.5 53t66 130.5t19.5 170.5q0 92 -19.5 170t-66 132t-112.5 54t-112 -54t-65.5 -132t-19.5 -170q0 -93 19.5 -170.5t65.5 -130.5t112 -53z
" />
    <glyph glyph-name="one" unicode="1" horiz-adv-x="500" 
d="M325 700h4q-3 -77 -20 -136t-52.5 -104.5t-96 -66.5t-144.5 -14v4q135 9 216.5 101.5t92.5 215.5zM329 0v700h107v-700h-107z" />
    <glyph glyph-name="two" unicode="2" horiz-adv-x="607" 
d="M17 4q212 2 334 26.5t226 78.5v-109h-565v4q228 148 332.5 262t104.5 239q0 89 -43.5 144.5t-122.5 55.5q-54 0 -95.5 -27t-63.5 -68t-32.5 -85t-7.5 -84h-3q-38 42 -42 90t21.5 87t84.5 65t138 26q117 0 199.5 -52.5t82.5 -151.5q0 -39 -14 -77t-35 -69.5t-58 -66
t-71 -60t-85.5 -59t-90.5 -56t-98 -57t-96 -56.5z" />
    <glyph glyph-name="three" unicode="3" horiz-adv-x="607" 
d="M247 367q148 -7 239 -53.5t91 -143.5q0 -80 -68.5 -129.5t-188.5 -49.5q-117 0 -195.5 67t-94.5 186h4q29 -90 98 -132t161 -43q83 0 130 31.5t47 91.5q0 79 -77 122t-208 50v4q273 9 273 179q0 64 -41 111t-125 47q-41 0 -76 -16.5t-57.5 -43.5t-38 -60.5t-21 -67.5
t-3.5 -65h-3q-37 42 -40.5 88.5t23 83.5t83.5 61t133 24q70 0 127.5 -14t99 -52t41.5 -96q0 -57 -46 -97t-113.5 -59t-153.5 -24z" />
    <glyph glyph-name="four" unicode="4" horiz-adv-x="688" 
d="M681 219v-17l-137 1v-203h-108v204l-430 4v3l429 489h109v-483zM122 212l314 4v479q-108 -147 -314 -483z" />
    <glyph glyph-name="five" unicode="5" horiz-adv-x="682" 
d="M361 489q120 0 195 -66.5t75 -180.5q0 -109 -80.5 -179.5t-209.5 -71.5q-108 0 -183.5 55.5t-115.5 147.5h3q91 -137 265 -137q103 0 158.5 54.5t55.5 143.5q0 99 -53 157.5t-142 58.5q-79 0 -131.5 -46.5t-60.5 -110.5h-5h-73l115 386l420 8v-5q-175 -8 -416 -6
l-37 -341q21 57 78 95t142 38z" />
    <glyph glyph-name="six" unicode="6" horiz-adv-x="647" 
d="M375 438q107 0 174.5 -59t67.5 -160t-79 -164.5t-205 -63.5q-130 0 -215 84.5t-85 225.5q0 159 105.5 272t299.5 142q53 10 106 11v-4q-56 -1 -103 -12q-85 -16 -144.5 -54t-91 -94.5t-45 -119.5t-13.5 -142q0 -24 2 -62q4 91 66.5 145.5t159.5 54.5zM333 -5
q84 0 130.5 58t46.5 154t-46 152t-124 56q-82 0 -137.5 -57t-49.5 -155q26 -208 180 -208z" />
    <glyph glyph-name="seven" unicode="7" horiz-adv-x="552" 
d="M535 700h4q-87 -107 -135.5 -171.5t-108.5 -159t-93 -184.5t-45 -185h-121q10 44 30.5 92t40 86t62.5 96.5t66 88.5t84.5 99.5t83.5 93.5t95 104q23 25 34 37l-514 -6v16z" />
    <glyph glyph-name="eight" unicode="8" horiz-adv-x="664" 
d="M338 366q53 -5 103.5 -19t95 -37.5t71 -60t26.5 -80.5q0 -86 -86 -132t-216 -46t-215.5 46t-86.5 132q0 44 26.5 80.5t71 60t95 37.5t103.5 19q-67 7 -123 27t-97 60.5t-41 93.5q0 79 75.5 120.5t191.5 41.5t191.5 -41.5t75.5 -120.5q0 -53 -41 -93.5t-97 -60.5t-123 -27
zM167 547q0 -70 42 -118t123 -58q81 10 123 58t42 118q0 61 -43 109.5t-122 48.5t-122 -48.5t-43 -109.5zM332 -5q91 0 140 53.5t49 123.5q0 76 -49 126t-140 63q-91 -13 -140 -63t-49 -126q0 -70 49 -123.5t140 -53.5z" />
    <glyph glyph-name="nine" unicode="9" horiz-adv-x="641" 
d="M309 709q130 0 214.5 -84.5t84.5 -225.5q0 -159 -105 -272t-299 -142q-55 -10 -107 -11v4q56 1 104 12q85 16 144 54t90.5 94.5t45 119.5t13.5 142q0 22 -2 62q-4 -92 -66 -146t-159 -54q-108 0 -175.5 59t-67.5 160t79 164.5t206 63.5zM302 285q82 0 137 57t49 155
q-26 208 -179 208q-85 0 -131 -58t-46 -154t46 -152t124 -56z" />
    <glyph glyph-name="colon" unicode=":" horiz-adv-x="217" 
d="M109 299q-27 0 -45.5 18.5t-18.5 45.5t18.5 46t45.5 19q26 0 45 -19t19 -46t-19 -45.5t-45 -18.5zM109 -5q-27 0 -45.5 18.5t-18.5 45.5t18.5 46t45.5 19q26 0 45 -19t19 -46t-19 -45.5t-45 -18.5z" />
    <glyph glyph-name="semicolon" unicode=";" horiz-adv-x="254" 
d="M145 299q-27 0 -45.5 18.5t-18.5 45.5t18.5 46t45.5 19t45.5 -19t18.5 -46t-18.5 -45.5t-45.5 -18.5zM49 -144l-2 2q70 63 65 215h75q2 -47 -9.5 -87t-44 -76t-84.5 -54z" />
    <glyph glyph-name="less" unicode="&#x3c;" horiz-adv-x="332" 
d="M288 491l-236 -236l236 -236l-3 -4l-240 240l240 240z" />
    <glyph glyph-name="equal" unicode="=" horiz-adv-x="529" 
d="M484 277v-10h-439v10h439zM484 229v-10h-439v10h439z" />
    <glyph glyph-name="greater" unicode="&#x3e;" horiz-adv-x="348" 
d="M56 495l240 -240l-240 -240l-3 4l236 236l-236 236z" />
    <glyph glyph-name="question" unicode="?" horiz-adv-x="536" 
d="M266 709q122 0 183.5 -45.5t61.5 -130.5q0 -31 -9 -55.5t-35 -50t-44 -39.5t-64 -47q-41 -29 -63 -46t-45 -38t-32 -38t-8 -34h-5q-14 35 -15 65.5t6.5 53t28.5 46t42 40.5t57 42q35 26 55 44.5t38 48t18 60.5q0 56 -38.5 88t-119.5 32q-46 0 -81 -15t-54.5 -40.5
t-31 -57.5t-10 -66t7.5 -67h-3q-33 22 -49.5 50t-16 55.5t16.5 54t44.5 46.5t71.5 32t93 12zM221 124q26 0 44.5 -19t18.5 -46t-18.5 -45.5t-44.5 -18.5q-27 0 -46 18.5t-19 45.5t19 46t46 19z" />
    <glyph glyph-name="at" unicode="@" horiz-adv-x="883" 
d="M461 552q166 0 279 -84.5t113 -217.5q0 -73 -42 -129t-105 -79q-53 -18 -95.5 5t-43.5 86l2 259q53 8 88 43l-2 -302q0 -90 52 -90q39 15 52 65t13 142q0 134 -83 215.5t-235 81.5q-146 0 -240 -83.5t-94 -213.5q0 -152 101.5 -244.5t276.5 -98.5v-5q-208 6 -338 100.5
t-130 247.5q0 133 124 217.5t307 84.5zM399 438q82 0 124.5 -56.5t42.5 -145.5q0 -84 -43 -143t-124 -59q-83 0 -139 56.5t-57 145.5q1 90 55.5 146t140.5 56zM424 46q58 0 98 52.5t40 137.5q0 90 -38.5 139.5t-98.5 49.5q-55 0 -92 -51.5t-37 -137.5q0 -87 37 -138.5
t91 -51.5z" />
    <glyph glyph-name="A" unicode="A" horiz-adv-x="747" 
d="M379 710l351 -710h-116l-124 260l-333 -1q-76 -174 -49 -259h-91zM159 265l329 1l-161 330q-133 -252 -168 -331z" />
    <glyph glyph-name="B" unicode="B" horiz-adv-x="696" 
d="M371 357q86 -3 151.5 -18t112 -55t46.5 -101q0 -183 -305 -183h-331v700h309q140 0 216.5 -43t76.5 -129q0 -77 -78.5 -120t-197.5 -51zM335 696h-183v-337h170q100 0 160.5 44.5t60.5 128.5q0 85 -52 124.5t-156 39.5zM351 4q105 0 162 46.5t57 132.5q0 172 -238 172
h-180v-351h199z" />
    <glyph glyph-name="C" unicode="C" horiz-adv-x="707" 
d="M678 232h5q-78 -240 -307 -240q-156 0 -251 103t-95 261q0 153 98.5 253t260.5 100q66 0 121.5 -18t89 -48t51 -66t11.5 -74.5t-33 -71.5h-4q-4 51 -19 97t-42 87t-72.5 65.5t-102.5 24.5q-79 0 -137.5 -46.5t-86 -117t-27.5 -152.5q0 -136 74 -223t204 -88
q81 0 149.5 38.5t112.5 115.5z" />
    <glyph glyph-name="D" unicode="D" horiz-adv-x="744" 
d="M295 700q184 0 301.5 -95t117.5 -256q0 -159 -117.5 -254t-301.5 -95h-250v700h250zM295 4q142 0 222.5 92t80.5 253q0 162 -80.5 254.5t-222.5 92.5h-143v-692h143z" />
    <glyph glyph-name="E" unicode="E" horiz-adv-x="629" 
d="M152 4q168 2 277.5 36.5t171.5 114.5v-155h-556v700l545 2v-137q-58 77 -168 104t-270 27v-328q253 6 382 45v-92q-125 38 -382 44v-361z" />
    <glyph glyph-name="F" unicode="F" horiz-adv-x="606" 
d="M45 0v700l545 2v-137q-58 77 -168 104t-270 27v-328q253 6 382 45v-92q-125 38 -382 44v-365h-107z" />
    <glyph glyph-name="G" unicode="G" horiz-adv-x="737" 
d="M705 367h2q-3 -169 -89 -271.5t-231 -103.5q-163 0 -260 103t-97 261q0 154 100 253.5t266 99.5q66 0 121 -16t89.5 -43t52.5 -60.5t14 -70t-29 -69.5h-4q-3 42 -18 84t-43 82t-75.5 64.5t-106.5 24.5q-122 0 -190.5 -91.5t-68.5 -220.5q0 -138 76 -228t214 -91
q126 6 198 82t76 206q-91 -5 -192.5 -25.5t-144.5 -55.5v88q224 -2 340 -2z" />
    <glyph glyph-name="H" unicode="H" horiz-adv-x="720" 
d="M568 700h108v-700h-108v364h-416v-364h-107v700h107v-331h416v331z" />
    <glyph glyph-name="I" unicode="I" horiz-adv-x="197" 
d="M45 0v700h107v-700h-107z" />
    <glyph glyph-name="J" unicode="J" horiz-adv-x="568" 
d="M415 700h108v-465q0 -115 -68 -179.5t-183 -64.5q-102 0 -171 58.5t-89 160.5h5q28 -61 88.5 -96t139.5 -35q83 0 126.5 46.5t43.5 124.5v450z" />
    <glyph glyph-name="K" unicode="K" horiz-adv-x="686" 
d="M155 369q375 -150 521 -369h-136q-126 234 -388 365v-365h-107v700h107v-328l346 328h163z" />
    <glyph glyph-name="L" unicode="L" horiz-adv-x="611" 
d="M152 4q167 2 274 36t168 115v-155h-549v700h107v-696z" />
    <glyph glyph-name="M" unicode="M" horiz-adv-x="849" 
d="M805 700v-700h-108v694l-299 -558l-347 559q0 -317 15.5 -451t69.5 -244h-91v700h122l283 -446l-15 -34l259 480h111z" />
    <glyph glyph-name="N" unicode="N" horiz-adv-x="690" 
d="M639 700h7v-700h-7l-588 694q0 -317 15.5 -450.5t69.5 -243.5h-91v700h134l460 -542v542z" />
    <glyph glyph-name="O" unicode="O" horiz-adv-x="801" 
d="M401 709q154 0 262 -100.5t108 -259.5q0 -158 -108 -258t-262 -100t-262.5 100.5t-108.5 257.5q0 159 108.5 259.5t262.5 100.5zM401 -5q114 0 184 100.5t70 253.5q0 155 -70 255.5t-184 100.5q-115 0 -185 -100.5t-70 -255.5q0 -154 70 -254t185 -100z" />
    <glyph glyph-name="P" unicode="P" horiz-adv-x="672" 
d="M371 700q124 0 203.5 -49t79.5 -146t-79.5 -146t-203.5 -49h-219v-310h-107v700h326zM325 314q103 0 161 52t58 139q0 88 -50.5 139.5t-143.5 51.5h-198v-382h173z" />
    <glyph glyph-name="Q" unicode="Q" horiz-adv-x="801" 
d="M452 -6q184 -7 252 -69t20 -151h-3q-43 95 -119.5 156.5t-190.5 60.5h-10q-154 0 -262.5 100.5t-108.5 257.5q0 159 108.5 259.5t262.5 100.5t262 -100.5t108 -259.5q0 -144 -91 -241t-228 -114zM146 349q0 -154 70 -254t185 -100q114 0 184 100.5t70 253.5
q0 155 -70 255.5t-184 100.5q-115 0 -185 -100.5t-70 -255.5z" />
    <glyph glyph-name="R" unicode="R" horiz-adv-x="704" 
d="M633 187q17 -140 42 -187h-118q-17 39 -38 187q-12 90 -45.5 131t-116.5 41l-205 1v-360h-107v700h310q295 0 295 -170q0 -77 -71.5 -118t-187.5 -49q123 -5 176.5 -45.5t65.5 -130.5zM152 364h170q103 0 160.5 42t57.5 124t-50 124t-143 42h-195v-332z" />
    <glyph glyph-name="S" unicode="S" horiz-adv-x="664" 
d="M356 412q44 -12 66 -18.5t58 -19t54.5 -22.5t42 -27t34.5 -35t19.5 -43t8.5 -55q0 -53 -25.5 -93.5t-68 -63t-92 -34t-102.5 -11.5q-114 0 -198.5 35t-110 92t22.5 130h4q7 -42 28.5 -85t56 -81.5t86.5 -62.5t111 -24q102 -1 159.5 35t57.5 95q0 31 -11.5 54.5t-27 38.5
t-51 29.5t-62.5 22.5t-83 23q-58 17 -89.5 27t-74 30t-64 40t-37.5 52t-16 72q0 68 43.5 114t103.5 64t131 18q65 0 120 -15t91 -40.5t55 -57.5t16 -68t-29 -70h-4q-4 40 -21 81t-46 79.5t-76.5 62.5t-105.5 24q-93 1 -150 -36t-57 -97q0 -17 4 -32t15.5 -28t20 -22
t30 -19.5t33 -16t41 -15t42 -13.5t47.5 -14z" />
    <glyph glyph-name="T" unicode="T" horiz-adv-x="731" 
d="M713 700v-135q-55 63 -124.5 96.5t-169.5 34.5v-696h-107v696q-103 -1 -171.5 -33.5t-122.5 -97.5v135h695z" />
    <glyph glyph-name="U" unicode="U" horiz-adv-x="657" 
d="M615 244q2 -121 -58.5 -187t-202.5 -66q-166 1 -239 68t-73 198v443h107v-458q0 -246 205 -247q260 0 255 247v458h6v-456z" />
    <glyph glyph-name="V" unicode="V" horiz-adv-x="708" 
d="M692 700l-330 -710l-347 710h116l281 -592q122 257 153 346q53 150 30 246h97z" />
    <glyph glyph-name="W" unicode="W" horiz-adv-x="1164" 
d="M1152 700l-303 -709l-263 581l-262 -581l-312 709h116l255 -565l253 565h6l257 -572l247 572h6z" />
    <glyph glyph-name="X" unicode="X" horiz-adv-x="666" 
d="M654 -3h-125l-234 325l-272 -329h-9l277 334l-268 373h125l210 -292l243 292h8l-247 -298z" />
    <glyph glyph-name="Y" unicode="Y" horiz-adv-x="703" 
d="M691 700l-274 -379v-321h-108v296l-297 404h127l273 -374l271 374h8z" />
    <glyph glyph-name="Z" unicode="Z" horiz-adv-x="667" 
d="M161 4q201 3 299 32.5t173 119.5v-156h-595l454 696q-182 -1 -280.5 -30.5t-165.5 -98.5v134l569 -1z" />
    <glyph glyph-name="bracketleft" unicode="[" horiz-adv-x="274" 
d="M274 726h-128v-837h128v-4h-229v845h229v-4z" />
    <glyph glyph-name="backslash" unicode="\" horiz-adv-x="357" 
d="M350 -10h-12l-330 720h12z" />
    <glyph glyph-name="bracketright" unicode="]" horiz-adv-x="245" 
d="M229 730v-845h-229v4h128v837h-128v4h229z" />
    <glyph glyph-name="asciicircum" unicode="^" horiz-adv-x="595" 
d="M551 350l-5 -5l-247 348l-249 -346l-5 5l250 347l-1 1l5 5l5 -5l-1 -1z" />
    <glyph glyph-name="underscore" unicode="_" horiz-adv-x="599" 
d="M540 -6v-73h-481v73h481z" />
    <glyph glyph-name="grave" unicode="`" horiz-adv-x="261" 
d="M149 629q22 -71 68 -129h-7q-85 46 -165 129h104z" />
    <glyph glyph-name="a" unicode="a" horiz-adv-x="610" 
d="M519 120q-1 -64 16.5 -91t76.5 -29v-2q-100 -18 -147 4t-51 103q-10 -50 -56 -82t-125 -32q-201 0 -203 134q1 120 214 139q26 2 83 7.5t87 8.5v66q0 130 -140 130q-44 0 -79.5 -16.5t-57 -44t-33.5 -55.5t-17 -56h-3q-19 23 -22.5 47.5t10 47.5t39 41t68.5 29t96 11
q120 0 182 -41.5t62 -121.5v-197zM269 2q58 0 101.5 36t43.5 95v144q-40 -5 -134 -13q-141 -14 -141 -137q0 -54 31 -89.5t99 -35.5z" />
    <glyph glyph-name="b" unicode="b" horiz-adv-x="615" 
d="M349 481q103 0 169.5 -68t66.5 -177q0 -108 -68 -176.5t-168 -68.5q-85 0 -135.5 54t-63.5 138v-183h-105v662q58 9 105 52v-422q13 86 63 137.5t136 51.5zM318 7q66 0 110.5 62t44.5 167q0 104 -45 166.5t-111 62.5q-72 0 -119 -60t-47 -169q0 -103 48 -166t119 -63z
" />
    <glyph glyph-name="c" unicode="c" horiz-adv-x="562" 
d="M536 172h6q-31 -83 -96.5 -132t-159.5 -49q-114 0 -185 69.5t-71 174.5q0 106 75 175.5t205 69.5q127 0 179.5 -58.5t2.5 -117.5h-3q-4 28 -15 55t-30.5 55t-54 45t-78.5 17q-85 -1 -131.5 -59.5t-46.5 -143.5q0 -92 52 -146.5t148 -55.5q137 0 203 101z" />
    <glyph glyph-name="d" unicode="d" horiz-adv-x="618" 
d="M468 662q58 9 105 52v-714h-105v183q-13 -84 -63.5 -138t-134.5 -54q-100 0 -168 68.5t-69 176.5q1 109 67 177t170 68q85 0 135 -52t63 -137v370zM300 7q71 0 119.5 63.5t48.5 165.5q0 108 -47.5 168.5t-119.5 60.5q-66 0 -111 -62.5t-45 -166.5q0 -105 44.5 -167
t110.5 -62z" />
    <glyph glyph-name="e" unicode="e" horiz-adv-x="560" 
d="M532 172h6q-30 -79 -94.5 -130t-158.5 -51q-113 0 -184 70t-71 174t73.5 174.5t197.5 70.5q109 0 170 -61t62 -147h-1l1 -2h-400q1 -92 53.5 -145t146.5 -54q67 0 120 27t79 74zM297 474q-77 0 -120 -56.5t-44 -142.5h311q-2 86 -39 142.5t-108 56.5z" />
    <glyph glyph-name="f" unicode="f" horiz-adv-x="544" 
d="M337 709q63 0 108 -17.5t63.5 -43.5t17 -57t-25.5 -58h-3q-4 30 -13 56t-26 54.5t-48 45.5t-72 17q-33 0 -57 -12t-35.5 -27t-17.5 -41.5t-7 -43t-1 -43.5v-72h3l272 7v-67l-272 57h-3v-464h-106v464h-112v3h112v50q0 96 52 144t171 48z" />
    <glyph glyph-name="g" unicode="g" horiz-adv-x="608" 
d="M337 99q246 -25 246 -155q0 -38 -24.5 -67.5t-64.5 -45.5t-82.5 -23.5t-86.5 -7.5q-42 0 -82.5 5t-82 16t-66.5 33.5t-25 53.5q0 80 164 94l2 -2q-35 -7 -52.5 -30.5t-17.5 -58.5q0 -46 46 -77t114 -31q76 0 121.5 28t45.5 75q0 92 -170 108q-172 16 -213 28
q-67 19 -73 66q-1 5 -1 12q0 72 112 87q-74 40 -74 114q0 76 73.5 117.5t170.5 41.5h5l1 1q68 1 128.5 53t79.5 120h3q35 -77 -23 -122.5t-164 -52.5q89 -7 152 -47.5t63 -110.5q0 -52 -38 -87t-91 -49.5t-116 -14.5q-101 0 -167 36q-66 -16 -66 -51q0 -22 45.5 -31.5
t207.5 -24.5zM317 477q-73 0 -104.5 -46.5t-31.5 -109.5q0 -62 31.5 -105t104.5 -43q74 0 105 43t31 105q0 64 -31.5 110t-104.5 46z" />
    <glyph glyph-name="h" unicode="h" horiz-adv-x="581" 
d="M364 481q172 0 174 -178v-303h-106v328q0 136 -110 136q-65 0 -115 -52t-57 -148v-264h-105v667q61 9 105 52v-421q15 85 69 134t145 49z" />
    <glyph glyph-name="i" unicode="i" horiz-adv-x="224" 
d="M112 546q-29 0 -48 17.5t-19 43.5q0 25 19 42.5t48 17.5t48 -17.5t19 -42.5q0 -26 -19 -43.5t-48 -17.5zM59 0v423q61 11 106 52v-475h-106z" />
    <glyph glyph-name="j" unicode="j" horiz-adv-x="206" 
d="M102 546q-29 0 -48.5 17.5t-19.5 43.5q0 25 19.5 42.5t48.5 17.5t48 -17.5t19 -42.5q0 -26 -19 -43.5t-48 -17.5zM53 -31v455q53 8 106 51v-518q-2 -169 -165 -169q-133 0 -173 150h5q42 -82 127 -82q48 0 74 29.5t26 83.5z" />
    <glyph glyph-name="k" unicode="k" horiz-adv-x="560" 
d="M153 266q268 -125 398 -266h-136q-103 161 -265 262v-262h-105v654q60 11 105 52v-435l227 196h154z" />
    <glyph glyph-name="l" unicode="l" horiz-adv-x="195" 
d="M45 0v667q61 9 105 52v-719h-105z" />
    <glyph glyph-name="m" unicode="m" horiz-adv-x="911" 
d="M696 481q88 0 129 -43t42 -130v-308h-112v353q0 111 -102 111q-65 0 -105 -59t-40 -169v-236h-112v353q0 111 -102 111q-59 0 -98.5 -50.5t-45.5 -145.5v-268h-105v423q60 11 105 52v-167q27 173 187 173q88 0 129 -43t42 -130v-6q23 179 188 179z" />
    <glyph glyph-name="n" unicode="n" horiz-adv-x="581" 
d="M364 481q172 0 174 -178v-303h-106v328q0 136 -110 136q-65 0 -115 -52t-57 -148v-264h-105v423q60 11 105 52v-177q15 85 69 134t145 49z" />
    <glyph glyph-name="o" unicode="o" horiz-adv-x="614" 
d="M307 -9q-118 0 -197.5 68t-79.5 176q0 109 79.5 177t197.5 68t197.5 -68t79.5 -177q0 -108 -79.5 -176t-197.5 -68zM307 -5q75 0 118.5 61.5t43.5 178.5q0 118 -43.5 179.5t-118.5 61.5t-118 -61.5t-43 -179.5q0 -117 43 -178.5t118 -61.5z" />
    <glyph glyph-name="p" unicode="p" horiz-adv-x="615" 
d="M349 481q103 0 169.5 -68t66.5 -177q0 -108 -68 -176.5t-168 -68.5q-85 0 -135.5 54t-63.5 138v-383h-105v623q60 11 105 52v-183q13 86 63 137.5t136 51.5zM318 7q66 0 110.5 62t44.5 167q0 104 -45 166.5t-111 62.5q-72 0 -119 -60t-47 -169q0 -103 48 -166t119 -63z
" />
    <glyph glyph-name="q" unicode="q" horiz-adv-x="620" 
d="M467 475q45 -41 106 -52v-623h-106v377q-14 -81 -64 -133.5t-133 -52.5q-100 0 -168 68.5t-69 176.5q1 109 67 177t170 68q84 0 134 -49.5t63 -132.5v176zM300 7q66 0 113 55.5t54 146.5v56q-7 95 -53 147.5t-113 52.5q-66 0 -111 -62.5t-45 -166.5q0 -105 44.5 -167
t110.5 -62z" />
    <glyph glyph-name="r" unicode="r" horiz-adv-x="467" 
d="M314 480q65 0 100 -33.5t33.5 -80t-33.5 -85.5h-3q-1 31 -7 60.5t-18 58.5t-35.5 47t-55.5 18q-36 0 -64.5 -21.5t-44.5 -58.5t-25 -77.5t-11 -85.5v-222h-105v423q60 11 105 52v-221q6 61 21.5 108.5t52 82.5t90.5 35z" />
    <glyph glyph-name="s" unicode="s" horiz-adv-x="520" 
d="M280 291q43 -11 68.5 -18.5t55.5 -20.5t45.5 -28t26.5 -37.5t11 -51.5q0 -70 -63.5 -107.5t-155.5 -37.5q-134 0 -201.5 53.5t-12.5 122.5h3q3 -27 18 -55.5t40 -55.5t65 -44t87 -17q83 -1 126.5 22t43.5 62q0 19 -10.5 33t-34.5 24.5t-44.5 17t-59.5 16.5q-18 5 -27 7
q-40 10 -68 18t-59 22t-49.5 30t-30.5 40t-12 54q0 65 62.5 102.5t148.5 37.5q52 0 95 -10.5t69.5 -27.5t40.5 -38.5t11.5 -45.5t-21.5 -46h-3q-4 61 -50.5 113t-135.5 51q-84 1 -125.5 -24.5t-41.5 -62.5q0 -17 10.5 -30t37.5 -24.5t47.5 -18t66.5 -18.5q17 -5 26 -7z" />
    <glyph glyph-name="t" unicode="t" horiz-adv-x="514" 
d="M485 155h5q-27 -76 -71 -120t-124 -44q-89 0 -128.5 41.5t-39.5 122.5l1 296l-125 -15v3q80 12 130 75t53 126h3q25 -19 33 -47.5t-2 -51.5q-13 -61 -146 -92l157 18l235 32v-67l-234 32v-296q0 -62 24.5 -86t78.5 -24q104 2 150 97z" />
    <glyph glyph-name="u" unicode="u" horiz-adv-x="579" 
d="M429 420q61 11 106 52v-472h-106v182q-13 -88 -66.5 -139.5t-139.5 -51.5q-91 0 -135.5 38.5t-44.5 125.5v265q59 10 106 52v-355q0 -59 28.5 -84.5t84.5 -25.5q67 0 117 61t50 170v182z" />
    <glyph glyph-name="v" unicode="v" horiz-adv-x="518" 
d="M499 467h6l-239 -478l-253 478h116l187 -364z" />
    <glyph glyph-name="w" unicode="w" horiz-adv-x="891" 
d="M876 467l-241 -477l-187 363l-177 -363l-256 477h116l190 -361l176 361h6l183 -363l183 363h7z" />
    <glyph glyph-name="x" unicode="x" horiz-adv-x="530" 
d="M518 0h-122l-167 204l-208 -204h-9l213 209l-211 258h122l157 -192l196 192h9l-201 -197z" />
    <glyph glyph-name="y" unicode="y" horiz-adv-x="500" 
d="M486 467h7l-235 -478l-75 -189h-96l168 194l-247 473h114l187 -360z" />
    <glyph glyph-name="z" unicode="z" horiz-adv-x="487" 
d="M142 3l330 14v-17h-454l327 464l-316 -10v17l433 -4z" />
    <glyph glyph-name="braceleft" unicode="{" horiz-adv-x="332" 
d="M265 726q-44 -1 -62.5 -25.5t-18.5 -74.5l17 -249q0 -25 -15 -47t-42 -22q27 -1 42 -23t15 -47l-17 -249q0 -50 18.5 -74.5t62.5 -25.5h67v-4h-126q-122 0 -122 127l16 226q0 56 -49 68h-21v4h22q48 11 48 67l-16 226q0 127 122 127h126v-4h-67z" />
    <glyph glyph-name="bar" unicode="|" horiz-adv-x="102" 
d="M45 -100v800h13v-800h-13z" />
    <glyph glyph-name="braceright" unicode="}" horiz-adv-x="355" 
d="M325 310v-4h-21q-49 -12 -49 -68l16 -226q0 -127 -122 -127h-126v4h67q44 1 62.5 25.5t18.5 74.5l-16 249q0 25 15 47t42 23q-27 0 -42 22t-15 47l16 249q0 50 -18.5 74.5t-62.5 25.5h-67v4h126q122 0 122 -127l-16 -226q0 -56 48 -67h22z" />
    <glyph glyph-name="asciitilde" unicode="~" horiz-adv-x="351" 
d="M233 601q57 0 73 -93h-7q-18 42 -59 42q-22 0 -59 -25t-63 -25q-56 0 -73 93h6q18 -42 60 -42q23 0 59.5 25t62.5 25z" />
    <glyph glyph-name="exclamdown" unicode="&#xa1;" horiz-adv-x="218" 
d="M109 365q-27 0 -45.5 19t-18.5 46q0 26 18.5 45t45.5 19q26 0 45 -19t19 -45q0 -27 -19 -46t-45 -19zM107 311h4q6 -245 59 -511h-122q53 276 59 511z" />
    <glyph glyph-name="cent" unicode="&#xa2;" horiz-adv-x="562" 
d="M542 172q-31 -82 -96 -131t-158 -50v-106h-5v106q-112 1 -182.5 70.5t-70.5 173.5q0 100 67.5 168.5t185.5 75.5v130h5v-130q7 1 22 1q127 0 179.5 -58.5t2.5 -117.5h-3q-4 28 -15 55t-30.5 55t-54 45t-78.5 17q-85 -1 -131.5 -59.5t-46.5 -143.5q0 -92 52 -146.5
t148 -55.5q137 0 203 101h6z" />
    <glyph glyph-name="sterling" unicode="&#xa3;" horiz-adv-x="678" 
d="M162 4q226 3 335 35.5t152 114.5v-154h-573q102 59 102 171q0 15 -2.5 32t-5 28t-10 31.5t-10 27t-13 31t-12.5 28.5h-101v5h98q-38 89 -38 154q0 32 13.5 64t43.5 64t90 52.5t141 20.5q86 0 149.5 -26.5t92 -66t27.5 -86.5t-35 -88h-4q-3 49 -15.5 92.5t-38 83.5
t-71 63.5t-105.5 23.5q-94 0 -137.5 -48.5t-43.5 -116.5q0 -72 51 -186h325v-5h-323q17 -40 24.5 -59t15.5 -53t8 -63q0 -112 -130 -170z" />
    <glyph glyph-name="currency" unicode="&#xa4;" horiz-adv-x="448" 
d="M369 290q0 -56 -54 -86l88 -89l-5 -5l-90 91q-30 -14 -69 -14q-53 0 -88 24l-101 -100l-5 5l100 100q-37 28 -37 74q0 44 38 74l-100 101l5 5l101 -102q35 24 87 24q39 0 69 -14l91 91l5 -5l-90 -89q55 -30 55 -85zM239 387q-39 0 -56 -50l42 -42l60 60q-19 32 -46 32z
M301 290q0 31 -13 59l-59 -59l60 -60q12 25 12 60zM176 290q0 -19 5 -39l39 39l-39 39q-5 -20 -5 -39zM239 192q28 0 46 32l-61 61l-41 -41q17 -52 56 -52z" />
    <glyph glyph-name="yen" unicode="&#xa5;" horiz-adv-x="703" 
d="M417 321v-3h256v-5h-256v-98h256v-5h-256v-210h-108v210h-249v5h249v81l-13 17h-236v5h233l-281 382h127l273 -374l271 374h8z" />
    <glyph glyph-name="brokenbar" unicode="&#xa6;" horiz-adv-x="102" 
d="M45 360v340h13v-340h-13zM45 -100v340h13v-340h-13z" />
    <glyph glyph-name="dieresis" unicode="&#xa8;" horiz-adv-x="336" 
d="M95 500q-22 0 -36 13t-14 33q0 19 14 31.5t36 12.5t37 -12.5t15 -31.5t-15 -32.5t-37 -13.5zM240 500q-22 0 -36.5 13t-14.5 33q0 19 14.5 31.5t36.5 12.5t36.5 -12.5t14.5 -31.5q0 -20 -14.5 -33t-36.5 -13z" />
    <glyph glyph-name="copyright" unicode="&#xa9;" horiz-adv-x="956" 
d="M473 552q196 0 324.5 -92t128.5 -231t-128.5 -231.5t-324.5 -92.5q-193 0 -318 92.5t-125 231.5t125 231t318 92zM473 -90q156 0 251 90t95 229t-94.5 228.5t-251.5 89.5q-152 0 -244 -89.5t-92 -228.5t92.5 -229t243.5 -90zM529 71q138 0 204 101h5q-30 -83 -95.5 -132
t-159.5 -49q-114 0 -185 69.5t-71 174.5q0 106 74.5 175.5t204.5 69.5q127 0 180 -58.5t3 -117.5h-3q-4 28 -15 55.5t-31 55t-54 44.5t-78 17q-85 -1 -131.5 -59.5t-46.5 -143.5q0 -92 52 -146.5t147 -55.5z" />
    <glyph glyph-name="guillemotleft" unicode="&#xab;" horiz-adv-x="514" 
d="M490 470l-181 -220l181 -220h-5l-266 220l266 220h5zM318 465l-181 -220l181 -220h-5l-266 220l266 220h5z" />
    <glyph glyph-name="uni00AD" unicode="&#xad;" horiz-adv-x="414" 
d="M53 318h309v-73h-309v73z" />
    <glyph glyph-name="registered" unicode="&#xae;" horiz-adv-x="956" 
d="M473 552q196 0 324.5 -92t128.5 -231t-128.5 -231.5t-324.5 -92.5q-193 0 -318 92.5t-125 231.5t125 231t318 92zM473 -90q156 0 251 90t95 229t-94.5 228.5t-251.5 89.5q-152 0 -244 -89.5t-92 -228.5t92.5 -229t243.5 -90zM497 237q82 -2 118.5 -28t43.5 -82
q10 -81 26 -116h-78q-11 24 -24 116q-7 56 -28 81.5t-72 25.5l-138 1v-224h-72v435h209q89 0 138.5 -26.5t49.5 -79.5q0 -48 -48.5 -73.5t-124.5 -29.5zM345 237h116q64 0 100 26.5t36 76.5q0 51 -31.5 77t-89.5 26h-131v-206z" />
    <glyph glyph-name="macron" unicode="&#xaf;" horiz-adv-x="384" 
d="M45 542h295v-38h-295v38z" />
    <glyph glyph-name="degree" unicode="&#xb0;" horiz-adv-x="321" 
d="M161 505q-59 0 -95 29.5t-36 73.5q0 43 36 72.5t95 29.5q58 0 94 -29.5t36 -72.5q0 -44 -35.5 -73.5t-94.5 -29.5zM161 510q27 0 44.5 29t17.5 69q0 39 -17.5 68t-44.5 29q-28 0 -45.5 -29t-17.5 -68q0 -41 17.5 -69.5t45.5 -28.5z" />
    <glyph glyph-name="acute" unicode="&#xb4;" horiz-adv-x="261" 
d="M112 629h105q-80 -83 -165 -129h-7q47 59 67 129z" />
    <glyph glyph-name="paragraph" unicode="&#xb6;" horiz-adv-x="867" 
d="M717 719q44 -43 105 -52v-667h-105v719zM627 700v-700h-107v310h-219q-124 0 -203.5 49t-79.5 146t79.5 146t203.5 49h326zM347 314h173v382h-198q-93 0 -143.5 -51.5t-50.5 -139.5q0 -87 58 -139t161 -52z" />
    <glyph glyph-name="periodcentered" unicode="&#xb7;" horiz-adv-x="217" 
d="M109 187q-27 0 -45.5 18.5t-18.5 45.5t18.5 46t45.5 19q26 0 45 -19t19 -46t-19 -45.5t-45 -18.5z" />
    <glyph glyph-name="cedilla" unicode="&#xb8;" horiz-adv-x="265" 
d="M106 4l4 -3l-27 -68q137 0 137 -61q0 -72 -175 -72v5q122 0 122 61q0 51 -106 51z" />
    <glyph glyph-name="guillemotright" unicode="&#xbb;" horiz-adv-x="514" 
d="M52 465l266 -220l-266 -220h-5l181 220l-181 220h5zM224 460l266 -220l-266 -220h-5l181 220l-181 220h5z" />
    <glyph glyph-name="questiondown" unicode="&#xbf;" horiz-adv-x="542" 
d="M327 374q-27 0 -46 18.5t-19 45.5t19 46t46 19q26 0 44.5 -19t18.5 -46t-18.5 -45.5t-44.5 -18.5zM462 23q75 -44 63 -106q-12 -56 -87 -90q-59 -27 -137 -27q-243 0 -243 159q0 15 2 28t8 26t10.5 22t16.5 21.5t18 18.5t23 19.5t23.5 18.5t28 20t28.5 20q81 57 113 88
t29 67h5q14 -38 15.5 -68.5t-4.5 -52.5t-26.5 -45t-40.5 -39t-56 -41q-68 -52 -88 -77q-30 -38 -30 -80q-1 -46 37 -73.5t118 -27.5q107 -1 150.5 68.5t19.5 150.5h4z" />
    <glyph glyph-name="Agrave" unicode="&#xc0;" horiz-adv-x="747" 
d="M441 755q-85 46 -165 129h104q22 -71 68 -129h-7zM379 710l351 -710h-116l-124 260l-333 -1q-76 -174 -49 -259h-91zM159 265l329 1l-161 330q-133 -252 -168 -331z" />
    <glyph glyph-name="Aacute" unicode="&#xc1;" horiz-adv-x="747" 
d="M492 884q-80 -83 -165 -129h-7q47 59 67 129h105zM379 710l351 -710h-116l-124 260l-333 -1q-76 -174 -49 -259h-91zM159 265l329 1l-161 330q-133 -252 -168 -331z" />
    <glyph glyph-name="Acircumflex" unicode="&#xc2;" horiz-adv-x="747" 
d="M379 829l-132 -74h-7l139 129l141 -129h-8zM379 710l351 -710h-116l-124 260l-333 -1q-76 -174 -49 -259h-91zM159 265l329 1l-161 330q-133 -252 -168 -331z" />
    <glyph glyph-name="Atilde" unicode="&#xc3;" horiz-adv-x="747" 
d="M322 755q-56 0 -73 93h6q18 -42 60 -42q23 0 59.5 25t62.5 25q57 0 73 -93h-7q-18 42 -59 42q-22 0 -59 -25t-63 -25zM379 710l351 -710h-116l-124 260l-333 -1q-76 -174 -49 -259h-91zM159 265l329 1l-161 330q-133 -252 -168 -331z" />
    <glyph glyph-name="Adieresis" unicode="&#xc4;" horiz-adv-x="747" 
d="M307 755q-22 0 -36 13t-14 33q0 19 14 31.5t36 12.5t37 -12.5t15 -31.5t-15 -32.5t-37 -13.5zM452 755q-22 0 -36.5 13t-14.5 33q0 19 14.5 31.5t36.5 12.5t36.5 -12.5t14.5 -31.5q0 -20 -14.5 -33t-36.5 -13zM379 710l351 -710h-116l-124 260l-333 -1q-76 -174 -49 -259
h-91zM159 265l329 1l-161 330q-133 -252 -168 -331z" />
    <glyph glyph-name="Aring" unicode="&#xc5;" horiz-adv-x="747" 
d="M380 754q-44 0 -70 15.5t-26 40.5t26 40.5t70 15.5q43 0 69.5 -15.5t26.5 -40.5t-26.5 -40.5t-69.5 -15.5zM380 859q-20 0 -31.5 -13.5t-11.5 -35.5t11.5 -35.5t31.5 -13.5t31.5 13.5t11.5 35.5t-11.5 35.5t-31.5 13.5zM379 710l351 -710h-116l-124 260l-333 -1
q-76 -174 -49 -259h-91zM159 265l329 1l-161 330q-133 -252 -168 -331z" />
    <glyph glyph-name="AE" unicode="&#xc6;" horiz-adv-x="1137" 
d="M660 4q168 2 277.5 36.5t171.5 114.5v-155h-556v284h-320l-71 -91q-82 -106 -70 -193h-92l550 700l548 2v-137q-58 77 -168 104t-270 27v-328q253 6 382 45v-92q-125 38 -382 44v-361zM237 289h316v407z" />
    <glyph glyph-name="Ccedilla" unicode="&#xc7;" horiz-adv-x="707" 
d="M376 -8h-6l-23 -59q137 0 137 -61q0 -72 -175 -72v5q122 0 122 61q0 51 -106 51l39 75q-151 4 -242.5 107t-91.5 257q0 153 98.5 253t260.5 100q66 0 121.5 -18t89 -48t51 -66t11.5 -74.5t-33 -71.5h-4q-4 51 -19 97t-42 87t-72.5 65.5t-102.5 24.5q-79 0 -137.5 -46.5
t-86 -117t-27.5 -152.5q0 -136 74 -223t204 -88q81 0 149.5 38.5t112.5 115.5h5q-78 -240 -307 -240z" />
    <glyph glyph-name="Egrave" unicode="&#xc8;" horiz-adv-x="629" 
d="M379 755q-85 46 -165 129h104q22 -71 68 -129h-7zM152 4q168 2 277.5 36.5t171.5 114.5v-155h-556v700l545 2v-137q-58 77 -168 104t-270 27v-328q253 6 382 45v-92q-125 38 -382 44v-361z" />
    <glyph glyph-name="Eacute" unicode="&#xc9;" horiz-adv-x="629" 
d="M430 884q-80 -83 -165 -129h-7q47 59 67 129h105zM152 4q168 2 277.5 36.5t171.5 114.5v-155h-556v700l545 2v-137q-58 77 -168 104t-270 27v-328q253 6 382 45v-92q-125 38 -382 44v-361z" />
    <glyph glyph-name="Ecircumflex" unicode="&#xca;" horiz-adv-x="629" 
d="M317 829l-132 -74h-7l139 129l141 -129h-8zM152 4q168 2 277.5 36.5t171.5 114.5v-155h-556v700l545 2v-137q-58 77 -168 104t-270 27v-328q253 6 382 45v-92q-125 38 -382 44v-361z" />
    <glyph glyph-name="Edieresis" unicode="&#xcb;" horiz-adv-x="629" 
d="M245 755q-22 0 -36 13t-14 33q0 19 14 31.5t36 12.5t37 -12.5t15 -31.5t-15 -32.5t-37 -13.5zM390 755q-22 0 -36.5 13t-14.5 33q0 19 14.5 31.5t36.5 12.5t36.5 -12.5t14.5 -31.5q0 -20 -14.5 -33t-36.5 -13zM152 4q168 2 277.5 36.5t171.5 114.5v-155h-556v700l545 2
v-137q-58 77 -168 104t-270 27v-328q253 6 382 45v-92q-125 38 -382 44v-361z" />
    <glyph glyph-name="Igrave" unicode="&#xcc;" horiz-adv-x="197" 
d="M99 884q22 -71 68 -129h-7q-85 46 -165 129h104zM45 0v700h107v-700h-107z" />
    <glyph glyph-name="Iacute" unicode="&#xcd;" horiz-adv-x="197" 
d="M106 884h105q-80 -83 -165 -129h-7q47 59 67 129zM45 0v700h107v-700h-107z" />
    <glyph glyph-name="Icircumflex" unicode="&#xce;" horiz-adv-x="197" 
d="M98 884l141 -129h-8l-133 74l-132 -74h-7zM45 0v700h107v-700h-107z" />
    <glyph glyph-name="Idieresis" unicode="&#xcf;" horiz-adv-x="197" 
d="M25 755q-22 0 -36 13t-14 33q0 19 14 31.5t36 12.5t37 -12.5t15 -31.5t-15 -32.5t-37 -13.5zM170 755q-22 0 -36.5 13t-14.5 33q0 19 14.5 31.5t36.5 12.5t36.5 -12.5t14.5 -31.5q0 -20 -14.5 -33t-36.5 -13zM45 0v700h107v-700h-107z" />
    <glyph glyph-name="Eth" unicode="&#xd0;" horiz-adv-x="744" 
d="M295 700q184 0 301.5 -95t117.5 -256q0 -159 -117.5 -254t-301.5 -95h-250v348h-72v5h72v347h250zM295 4q142 0 222.5 92t80.5 253q0 162 -80.5 254.5t-222.5 92.5h-143v-343h216v-5h-216v-344h143z" />
    <glyph glyph-name="Ntilde" unicode="&#xd1;" horiz-adv-x="690" 
d="M310 755q-56 0 -73 93h6q18 -42 60 -42q23 0 60 25t62 25q30 0 47.5 -22.5t25.5 -70.5h-7q-18 42 -59 42q-22 0 -59 -25t-63 -25zM639 700h7v-700h-7l-588 694q0 -317 15.5 -450.5t69.5 -243.5h-91v700h134l460 -542v542z" />
    <glyph glyph-name="Ograve" unicode="&#xd2;" horiz-adv-x="801" 
d="M404 882q22 -71 68 -129h-7q-85 46 -165 129h104zM401 709q154 0 262 -100.5t108 -259.5q0 -158 -108 -258t-262 -100t-262.5 100.5t-108.5 257.5q0 159 108.5 259.5t262.5 100.5zM401 -5q114 0 184 100.5t70 253.5q0 155 -70 255.5t-184 100.5q-115 0 -185 -100.5
t-70 -255.5q0 -154 70 -254t185 -100z" />
    <glyph glyph-name="Oacute" unicode="&#xd3;" horiz-adv-x="801" 
d="M411 882h105q-80 -83 -165 -129h-7q47 59 67 129zM401 709q154 0 262 -100.5t108 -259.5q0 -158 -108 -258t-262 -100t-262.5 100.5t-108.5 257.5q0 159 108.5 259.5t262.5 100.5zM401 -5q114 0 184 100.5t70 253.5q0 155 -70 255.5t-184 100.5q-115 0 -185 -100.5
t-70 -255.5q0 -154 70 -254t185 -100z" />
    <glyph glyph-name="Ocircumflex" unicode="&#xd4;" horiz-adv-x="801" 
d="M403 827l-132 -74h-7l139 129l141 -129h-8zM401 709q154 0 262 -100.5t108 -259.5q0 -158 -108 -258t-262 -100t-262.5 100.5t-108.5 257.5q0 159 108.5 259.5t262.5 100.5zM401 -5q114 0 184 100.5t70 253.5q0 155 -70 255.5t-184 100.5q-115 0 -185 -100.5t-70 -255.5
q0 -154 70 -254t185 -100z" />
    <glyph glyph-name="Otilde" unicode="&#xd5;" horiz-adv-x="801" 
d="M461 854q57 0 73 -93h-7q-18 42 -59 42q-22 0 -59 -25t-63 -25q-56 0 -73 93h6q18 -42 60 -42q23 0 60 25t62 25zM401 709q154 0 262 -100.5t108 -259.5q0 -158 -108 -258t-262 -100t-262.5 100.5t-108.5 257.5q0 159 108.5 259.5t262.5 100.5zM401 -5q114 0 184 100.5
t70 253.5q0 155 -70 255.5t-184 100.5q-115 0 -185 -100.5t-70 -255.5q0 -154 70 -254t185 -100z" />
    <glyph glyph-name="Odieresis" unicode="&#xd6;" horiz-adv-x="801" 
d="M330 753q-22 0 -36 13t-14 33q0 19 14 31.5t36 12.5t37 -12.5t15 -31.5t-15 -32.5t-37 -13.5zM475 753q-22 0 -36.5 13t-14.5 33q0 19 14.5 31.5t36.5 12.5t36.5 -12.5t14.5 -31.5q0 -20 -14.5 -33t-36.5 -13zM401 709q154 0 262 -100.5t108 -259.5q0 -158 -108 -258
t-262 -100t-262.5 100.5t-108.5 257.5q0 159 108.5 259.5t262.5 100.5zM401 -5q114 0 184 100.5t70 253.5q0 155 -70 255.5t-184 100.5q-115 0 -185 -100.5t-70 -255.5q0 -154 70 -254t185 -100z" />
    <glyph glyph-name="multiply" unicode="&#xd7;" horiz-adv-x="448" 
d="M404 424l-175 -174l174 -175l-5 -5l-174 175l-174 -174l-5 5l175 174l-174 175l5 5l174 -175l174 174z" />
    <glyph glyph-name="Oslash" unicode="&#xd8;" horiz-adv-x="801" 
d="M660 612q111 -103 111 -263q0 -158 -108 -258t-262 -100q-147 0 -252 91l-91 -94h-7l94 97q-115 103 -115 264q0 159 108.5 259.5t262.5 100.5q150 0 255 -94l92 96h7zM146 349q0 -125 46 -214l416 431q-70 139 -207 139q-115 0 -185 -100.5t-70 -255.5zM401 -5
q114 0 184 100.5t70 253.5q0 121 -44 212l-416 -431q72 -135 206 -135z" />
    <glyph glyph-name="Ugrave" unicode="&#xd9;" horiz-adv-x="657" 
d="M403 755q-85 46 -165 129h104q22 -71 68 -129h-7zM615 244q2 -121 -58.5 -187t-202.5 -66q-166 1 -239 68t-73 198v443h107v-458q0 -246 205 -247q260 0 255 247v458h6v-456z" />
    <glyph glyph-name="Uacute" unicode="&#xda;" horiz-adv-x="657" 
d="M454 884q-80 -83 -165 -129h-7q47 59 67 129h105zM615 244q2 -121 -58.5 -187t-202.5 -66q-166 1 -239 68t-73 198v443h107v-458q0 -246 205 -247q260 0 255 247v458h6v-456z" />
    <glyph glyph-name="Ucircumflex" unicode="&#xdb;" horiz-adv-x="657" 
d="M341 829l-132 -74h-7l139 129l141 -129h-8zM615 244q2 -121 -58.5 -187t-202.5 -66q-166 1 -239 68t-73 198v443h107v-458q0 -246 205 -247q260 0 255 247v458h6v-456z" />
    <glyph glyph-name="Udieresis" unicode="&#xdc;" horiz-adv-x="657" 
d="M269 755q-22 0 -36 13t-14 33q0 19 14 31.5t36 12.5t37 -12.5t15 -31.5t-15 -32.5t-37 -13.5zM414 755q-22 0 -36.5 13t-14.5 33q0 19 14.5 31.5t36.5 12.5t36.5 -12.5t14.5 -31.5q0 -20 -14.5 -33t-36.5 -13zM615 244q2 -121 -58.5 -187t-202.5 -66q-166 1 -239 68
t-73 198v443h107v-458q0 -246 205 -247q260 0 255 247v458h6v-456z" />
    <glyph glyph-name="Yacute" unicode="&#xdd;" horiz-adv-x="703" 
d="M469 884q-80 -83 -165 -129h-7q47 59 67 129h105zM691 700l-274 -379v-321h-108v296l-297 404h127l273 -374l271 374h8z" />
    <glyph glyph-name="Thorn" unicode="&#xde;" horiz-adv-x="689" 
d="M371 553q124 0 203.5 -49t79.5 -146t-79.5 -146t-203.5 -49h-219v-163h-107v700h107v-147h219zM325 167q103 0 161 52t58 139q0 88 -50.5 139.5t-143.5 51.5h-198v-382h173z" />
    <glyph glyph-name="germandbls" unicode="&#xdf;" horiz-adv-x="556" 
d="M303 409q108 -9 170 -60t62 -146q0 -106 -74 -159t-198 -53v3q76 0 121.5 57t45.5 152q0 93 -45 148.5t-122 55.5v3q69 0 110 41t41 97q0 158 -132 158q-67 0 -99.5 -46t-32.5 -119v-541h-105v488q0 106 60.5 163.5t169.5 57.5t171.5 -38.5t62.5 -111.5q0 -62 -56 -102
t-150 -48z" />
    <glyph glyph-name="agrave" unicode="&#xe0;" horiz-adv-x="610" 
d="M353 520q-85 46 -165 129h104q22 -71 68 -129h-7zM519 120q-1 -64 16.5 -91t76.5 -29v-2q-100 -18 -147 4t-51 103q-10 -50 -56 -82t-125 -32q-201 0 -203 134q1 120 214 139q26 2 83 7.5t87 8.5v66q0 130 -140 130q-44 0 -79.5 -16.5t-57 -44t-33.5 -55.5t-17 -56h-3
q-19 23 -22.5 47.5t10 47.5t39 41t68.5 29t96 11q120 0 182 -41.5t62 -121.5v-197zM269 2q58 0 101.5 36t43.5 95v144q-40 -5 -134 -13q-141 -14 -141 -137q0 -54 31 -89.5t99 -35.5z" />
    <glyph glyph-name="aacute" unicode="&#xe1;" horiz-adv-x="610" 
d="M404 649q-80 -83 -165 -129h-7q47 59 67 129h105zM519 120q-1 -64 16.5 -91t76.5 -29v-2q-100 -18 -147 4t-51 103q-10 -50 -56 -82t-125 -32q-201 0 -203 134q1 120 214 139q26 2 83 7.5t87 8.5v66q0 130 -140 130q-44 0 -79.5 -16.5t-57 -44t-33.5 -55.5t-17 -56h-3
q-19 23 -22.5 47.5t10 47.5t39 41t68.5 29t96 11q120 0 182 -41.5t62 -121.5v-197zM269 2q58 0 101.5 36t43.5 95v144q-40 -5 -134 -13q-141 -14 -141 -137q0 -54 31 -89.5t99 -35.5z" />
    <glyph glyph-name="acircumflex" unicode="&#xe2;" horiz-adv-x="610" 
d="M291 594l-132 -74h-7l139 129l141 -129h-8zM519 120q-1 -64 16.5 -91t76.5 -29v-2q-100 -18 -147 4t-51 103q-10 -50 -56 -82t-125 -32q-201 0 -203 134q1 120 214 139q26 2 83 7.5t87 8.5v66q0 130 -140 130q-44 0 -79.5 -16.5t-57 -44t-33.5 -55.5t-17 -56h-3
q-19 23 -22.5 47.5t10 47.5t39 41t68.5 29t96 11q120 0 182 -41.5t62 -121.5v-197zM269 2q58 0 101.5 36t43.5 95v144q-40 -5 -134 -13q-141 -14 -141 -137q0 -54 31 -89.5t99 -35.5z" />
    <glyph glyph-name="atilde" unicode="&#xe3;" horiz-adv-x="610" 
d="M234 520q-56 0 -73 93h6q18 -42 60 -42q23 0 60 25t62 25q57 0 73 -93h-7q-18 42 -59 42q-22 0 -59 -25t-63 -25zM519 120q-1 -64 16.5 -91t76.5 -29v-2q-100 -18 -147 4t-51 103q-10 -50 -56 -82t-125 -32q-201 0 -203 134q1 120 214 139q26 2 83 7.5t87 8.5v66
q0 130 -140 130q-44 0 -79.5 -16.5t-57 -44t-33.5 -55.5t-17 -56h-3q-19 23 -22.5 47.5t10 47.5t39 41t68.5 29t96 11q120 0 182 -41.5t62 -121.5v-197zM269 2q58 0 101.5 36t43.5 95v144q-40 -5 -134 -13q-141 -14 -141 -137q0 -54 31 -89.5t99 -35.5z" />
    <glyph glyph-name="adieresis" unicode="&#xe4;" horiz-adv-x="610" 
d="M219 520q-22 0 -36 13t-14 33q0 19 14 31.5t36 12.5t37 -12.5t15 -31.5t-15 -32.5t-37 -13.5zM364 520q-22 0 -36.5 13t-14.5 33q0 19 14.5 31.5t36.5 12.5t36.5 -12.5t14.5 -31.5q0 -20 -14.5 -33t-36.5 -13zM519 120q-1 -64 16.5 -91t76.5 -29v-2q-100 -18 -147 4
t-51 103q-10 -50 -56 -82t-125 -32q-201 0 -203 134q1 120 214 139q26 2 83 7.5t87 8.5v66q0 130 -140 130q-44 0 -79.5 -16.5t-57 -44t-33.5 -55.5t-17 -56h-3q-19 23 -22.5 47.5t10 47.5t39 41t68.5 29t96 11q120 0 182 -41.5t62 -121.5v-197zM269 2q58 0 101.5 36
t43.5 95v144q-40 -5 -134 -13q-141 -14 -141 -137q0 -54 31 -89.5t99 -35.5z" />
    <glyph glyph-name="aring" unicode="&#xe5;" horiz-adv-x="610" 
d="M292 519q-44 0 -70 15.5t-26 40.5t26 40.5t70 15.5q43 0 69.5 -15.5t26.5 -40.5t-26.5 -40.5t-69.5 -15.5zM292 624q-20 0 -31.5 -13.5t-11.5 -35.5t11.5 -35.5t31.5 -13.5t31.5 13.5t11.5 35.5t-11.5 35.5t-31.5 13.5zM519 120q-1 -64 16.5 -91t76.5 -29v-2
q-100 -18 -147 4t-51 103q-10 -50 -56 -82t-125 -32q-201 0 -203 134q1 120 214 139q26 2 83 7.5t87 8.5v66q0 130 -140 130q-44 0 -79.5 -16.5t-57 -44t-33.5 -55.5t-17 -56h-3q-19 23 -22.5 47.5t10 47.5t39 41t68.5 29t96 11q120 0 182 -41.5t62 -121.5v-197zM269 2
q58 0 101.5 36t43.5 95v144q-40 -5 -134 -13q-141 -14 -141 -137q0 -54 31 -89.5t99 -35.5z" />
    <glyph glyph-name="ae" unicode="&#xe6;" horiz-adv-x="899" 
d="M872 172h5q-28 -79 -86.5 -130t-143.5 -51q-86 0 -146.5 50t-78.5 131q-2 -85 -48.5 -133t-137.5 -48q-204 0 -206 134q1 120 214 139q26 2 83 7.5t87 8.5v66q0 130 -140 130q-44 0 -79.5 -16.5t-57 -44t-33.5 -55.5t-17 -56h-3q-19 23 -22.5 47.5t10 47.5t39 41t68.5 29
t96 11q154 0 195 -84q69 84 192 84q99 0 154 -61t57 -147h-1l1 -2h-364q1 -92 48.5 -145t132.5 -54q61 0 109 27t73 74zM658 474q-69 0 -108.5 -56.5t-40.5 -142.5h282q-1 85 -34.5 142t-98.5 57zM269 2q62 0 103.5 42.5t41.5 131.5v101q-40 -5 -134 -13q-141 -14 -141 -137
q0 -54 31 -89.5t99 -35.5z" />
    <glyph glyph-name="ccedilla" unicode="&#xe7;" horiz-adv-x="562" 
d="M286 -9h-5l-23 -58q137 0 137 -61q0 -72 -175 -72v5q122 0 122 61q0 51 -106 51l38 74q-109 4 -176.5 73t-67.5 171q0 106 75 175.5t205 69.5q127 0 179.5 -58.5t2.5 -117.5h-3q-4 28 -15 55t-30.5 55t-54 45t-78.5 17q-85 -1 -131.5 -59.5t-46.5 -143.5q0 -92 52 -146.5
t148 -55.5q137 0 203 101h6q-31 -83 -96.5 -132t-159.5 -49z" />
    <glyph glyph-name="egrave" unicode="&#xe8;" horiz-adv-x="560" 
d="M354 520q-85 46 -165 129h104q22 -71 68 -129h-7zM532 172h6q-30 -79 -94.5 -130t-158.5 -51q-113 0 -184 70t-71 174t73.5 174.5t197.5 70.5q109 0 170 -61t62 -147h-1l1 -2h-400q1 -92 53.5 -145t146.5 -54q67 0 120 27t79 74zM297 474q-77 0 -120 -56.5t-44 -142.5
h311q-2 86 -39 142.5t-108 56.5z" />
    <glyph glyph-name="eacute" unicode="&#xe9;" horiz-adv-x="560" 
d="M405 649q-80 -83 -165 -129h-7q47 59 67 129h105zM532 172h6q-30 -79 -94.5 -130t-158.5 -51q-113 0 -184 70t-71 174t73.5 174.5t197.5 70.5q109 0 170 -61t62 -147h-1l1 -2h-400q1 -92 53.5 -145t146.5 -54q67 0 120 27t79 74zM297 474q-77 0 -120 -56.5t-44 -142.5
h311q-2 86 -39 142.5t-108 56.5z" />
    <glyph glyph-name="ecircumflex" unicode="&#xea;" horiz-adv-x="560" 
d="M293 594l-132 -74h-7l139 129l141 -129h-8zM532 172h6q-30 -79 -94.5 -130t-158.5 -51q-113 0 -184 70t-71 174t73.5 174.5t197.5 70.5q109 0 170 -61t62 -147h-1l1 -2h-400q1 -92 53.5 -145t146.5 -54q67 0 120 27t79 74zM297 474q-77 0 -120 -56.5t-44 -142.5h311
q-2 86 -39 142.5t-108 56.5z" />
    <glyph glyph-name="edieresis" unicode="&#xeb;" horiz-adv-x="560" 
d="M220 520q-22 0 -36 13t-14 33q0 19 14 31.5t36 12.5t37 -12.5t15 -31.5t-15 -32.5t-37 -13.5zM365 520q-22 0 -36.5 13t-14.5 33q0 19 14.5 31.5t36.5 12.5t36.5 -12.5t14.5 -31.5q0 -20 -14.5 -33t-36.5 -13zM532 172h6q-30 -79 -94.5 -130t-158.5 -51q-113 0 -184 70
t-71 174t73.5 174.5t197.5 70.5q109 0 170 -61t62 -147h-1l1 -2h-400q1 -92 53.5 -145t146.5 -54q67 0 120 27t79 74zM297 474q-77 0 -120 -56.5t-44 -142.5h311q-2 86 -39 142.5t-108 56.5z" />
    <glyph glyph-name="igrave" unicode="&#xec;" horiz-adv-x="234" 
d="M106 696q22 -71 68 -129h-7q-85 46 -165 129h104zM64 0v423q61 10 106 52v-475h-106z" />
    <glyph glyph-name="iacute" unicode="&#xed;" horiz-adv-x="234" 
d="M121 696h105q-80 -83 -165 -129h-7q47 59 67 129zM64 0v423q61 10 106 52v-475h-106z" />
    <glyph glyph-name="icircumflex" unicode="&#xee;" horiz-adv-x="234" 
d="M113 696l141 -129h-8l-133 74l-132 -74h-7zM64 0v423q61 10 106 52v-475h-106z" />
    <glyph glyph-name="idieresis" unicode="&#xef;" horiz-adv-x="234" 
d="M41 567q-22 0 -36 13t-14 33q0 19 14 31.5t36 12.5t37 -12.5t15 -31.5t-15 -32.5t-37 -13.5zM186 567q-22 0 -36.5 13t-14.5 33q0 19 14.5 31.5t36.5 12.5t36.5 -12.5t14.5 -31.5q0 -20 -14.5 -33t-36.5 -13zM64 0v423q61 10 106 52v-475h-106z" />
    <glyph glyph-name="eth" unicode="&#xf0;" horiz-adv-x="598" 
d="M364 613q98 -72 151 -163.5t53 -190.5q0 -124 -77.5 -196t-198.5 -72q-113 0 -187 61.5t-75 172.5q1 104 69 169.5t171 65.5q150 0 192 -117q-27 148 -125 252l-122 -77l-3 5l121 77q-54 57 -129 99h10q78 -35 145 -83l133 84l3 -4zM302 -4q85 1 127 69t42 172
q0 40 -4 71q-13 66 -56.5 102.5t-106.5 36.5q-68 0 -116.5 -59.5t-48.5 -162.5t48 -166t115 -63z" />
    <glyph glyph-name="ntilde" unicode="&#xf1;" horiz-adv-x="581" 
d="M243 520q-56 0 -73 93h6q18 -42 60 -42q22 0 59 25t63 25q30 0 47.5 -22.5t25.5 -70.5h-7q-18 42 -59 42q-23 0 -60 -25t-62 -25zM364 481q172 0 174 -178v-303h-106v328q0 136 -110 136q-65 0 -115 -52t-57 -148v-264h-105v423q60 11 105 52v-177q15 85 69 134t145 49z
" />
    <glyph glyph-name="ograve" unicode="&#xf2;" horiz-adv-x="614" 
d="M307 649q22 -71 68 -129h-7q-85 46 -165 129h104zM307 -9q-118 0 -197.5 68t-79.5 176q0 109 79.5 177t197.5 68t197.5 -68t79.5 -177q0 -108 -79.5 -176t-197.5 -68zM307 -5q75 0 118.5 61.5t43.5 178.5q0 118 -43.5 179.5t-118.5 61.5t-118 -61.5t-43 -179.5
q0 -117 43 -178.5t118 -61.5z" />
    <glyph glyph-name="oacute" unicode="&#xf3;" horiz-adv-x="614" 
d="M314 649h105q-80 -83 -165 -129h-7q47 59 67 129zM307 -9q-118 0 -197.5 68t-79.5 176q0 109 79.5 177t197.5 68t197.5 -68t79.5 -177q0 -108 -79.5 -176t-197.5 -68zM307 -5q75 0 118.5 61.5t43.5 178.5q0 118 -43.5 179.5t-118.5 61.5t-118 -61.5t-43 -179.5
q0 -117 43 -178.5t118 -61.5z" />
    <glyph glyph-name="ocircumflex" unicode="&#xf4;" horiz-adv-x="614" 
d="M306 594l-132 -74h-7l139 129l141 -129h-8zM307 480q118 0 197.5 -68t79.5 -177q0 -108 -79.5 -176t-197.5 -68t-197.5 68t-79.5 176q0 109 79.5 177t197.5 68zM307 -5q75 0 118.5 61.5t43.5 178.5q0 118 -43.5 179.5t-118.5 61.5t-118 -61.5t-43 -179.5
q0 -117 43 -178.5t118 -61.5z" />
    <glyph glyph-name="otilde" unicode="&#xf5;" horiz-adv-x="614" 
d="M364 621q30 0 47.5 -22.5t25.5 -70.5h-7q-18 42 -59 42q-23 0 -60 -25t-62 -25q-56 0 -73 93h6q18 -42 60 -42q22 0 59 25t63 25zM307 -9q-118 0 -197.5 68t-79.5 176q0 109 79.5 177t197.5 68t197.5 -68t79.5 -177q0 -108 -79.5 -176t-197.5 -68zM307 -5
q75 0 118.5 61.5t43.5 178.5q0 118 -43.5 179.5t-118.5 61.5t-118 -61.5t-43 -179.5q0 -117 43 -178.5t118 -61.5z" />
    <glyph glyph-name="odieresis" unicode="&#xf6;" horiz-adv-x="614" 
d="M234 520q-22 0 -36 13t-14 33q0 19 14 31.5t36 12.5t37 -12.5t15 -31.5t-15 -32.5t-37 -13.5zM379 520q-22 0 -36.5 13t-14.5 33q0 19 14.5 31.5t36.5 12.5t36.5 -12.5t14.5 -31.5q0 -20 -14.5 -33t-36.5 -13zM307 -9q-118 0 -197.5 68t-79.5 176q0 109 79.5 177
t197.5 68t197.5 -68t79.5 -177q0 -108 -79.5 -176t-197.5 -68zM307 -5q75 0 118.5 61.5t43.5 178.5q0 118 -43.5 179.5t-118.5 61.5t-118 -61.5t-43 -179.5q0 -117 43 -178.5t118 -61.5z" />
    <glyph glyph-name="oslash" unicode="&#xf8;" horiz-adv-x="614" 
d="M504 412q80 -69 80 -177t-79.5 -176t-197.5 -68q-115 0 -192 63l-69 -63h-9l73 67q-80 69 -80 177q0 109 79.5 177t197.5 68q116 0 192 -64l69 64h10zM146 235q0 -76 18 -127l284 262q-39 106 -141 106q-75 0 -118 -61.5t-43 -179.5zM307 -5q75 0 118.5 61.5t43.5 178.5
q0 75 -18 128l-285 -261q39 -107 141 -107z" />
    <glyph glyph-name="ugrave" unicode="&#xf9;" horiz-adv-x="579" 
d="M353 520q-85 46 -165 129h104q22 -71 68 -129h-7zM429 420q61 11 106 52v-472h-106v182q-13 -88 -66.5 -139.5t-139.5 -51.5q-91 0 -135.5 38.5t-44.5 125.5v265q59 10 106 52v-355q0 -59 28.5 -84.5t84.5 -25.5q67 0 117 61t50 170v182z" />
    <glyph glyph-name="uacute" unicode="&#xfa;" horiz-adv-x="579" 
d="M404 649q-80 -83 -165 -129h-7q47 59 67 129h105zM429 420q61 11 106 52v-472h-106v182q-13 -88 -66.5 -139.5t-139.5 -51.5q-91 0 -135.5 38.5t-44.5 125.5v265q59 10 106 52v-355q0 -59 28.5 -84.5t84.5 -25.5q67 0 117 61t50 170v182z" />
    <glyph glyph-name="ucircumflex" unicode="&#xfb;" horiz-adv-x="579" 
d="M291 594l-132 -74h-7l139 129l141 -129h-8zM429 420q61 11 106 52v-472h-106v182q-13 -88 -66.5 -139.5t-139.5 -51.5q-91 0 -135.5 38.5t-44.5 125.5v265q59 10 106 52v-355q0 -59 28.5 -84.5t84.5 -25.5q67 0 117 61t50 170v182z" />
    <glyph glyph-name="udieresis" unicode="&#xfc;" horiz-adv-x="579" 
d="M218 520q-22 0 -36 13t-14 33q0 19 14 31.5t36 12.5t37 -12.5t15 -31.5t-15 -32.5t-37 -13.5zM363 520q-22 0 -36.5 13t-14.5 33q0 19 14.5 31.5t36.5 12.5t36.5 -12.5t14.5 -31.5q0 -20 -14.5 -33t-36.5 -13zM429 420q61 11 106 52v-472h-106v182q-13 -88 -66.5 -139.5
t-139.5 -51.5q-91 0 -135.5 38.5t-44.5 125.5v265q59 10 106 52v-355q0 -59 28.5 -84.5t84.5 -25.5q67 0 117 61t50 170v182z" />
    <glyph glyph-name="yacute" unicode="&#xfd;" horiz-adv-x="500" 
d="M374 649q-80 -83 -165 -129h-7q47 59 67 129h105zM486 467h7l-235 -478l-75 -189h-96l168 194l-247 473h114l187 -360z" />
    <glyph glyph-name="thorn" unicode="&#xfe;" horiz-adv-x="615" 
d="M349 481q103 0 169.5 -68t66.5 -177q0 -108 -68 -176.5t-168 -68.5q-85 0 -135.5 54t-63.5 138v-383h-105v867q61 9 105 52v-427q13 86 63 137.5t136 51.5zM318 7q66 0 110.5 62t44.5 167q0 104 -45 166.5t-111 62.5q-72 0 -119 -60t-47 -169q0 -103 48 -166t119 -63z
" />
    <glyph glyph-name="ydieresis" unicode="&#xff;" horiz-adv-x="500" 
d="M189 520q-22 0 -36 13t-14 33q0 19 14 31.5t36 12.5t37 -12.5t15 -31.5t-15 -32.5t-37 -13.5zM334 520q-22 0 -36.5 13t-14.5 33q0 19 14.5 31.5t36.5 12.5t36.5 -12.5t14.5 -31.5q0 -20 -14.5 -33t-36.5 -13zM486 467h7l-235 -478l-75 -189h-96l168 194l-247 473h114
l187 -360z" />
    <glyph glyph-name="Amacron" unicode="&#x100;" horiz-adv-x="747" 
d="M527 797v-38h-295v38h295zM379 710l351 -710h-116l-124 260l-333 -1q-76 -174 -49 -259h-91zM159 265l329 1l-161 330q-133 -252 -168 -331z" />
    <glyph glyph-name="amacron" unicode="&#x101;" horiz-adv-x="610" 
d="M439 562v-38h-295v38h295zM519 120q-1 -64 16.5 -91t76.5 -29v-2q-100 -18 -147 4t-51 103q-10 -50 -56 -82t-125 -32q-201 0 -203 134q1 120 214 139q26 2 83 7.5t87 8.5v66q0 130 -140 130q-44 0 -79.5 -16.5t-57 -44t-33.5 -55.5t-17 -56h-3q-19 23 -22.5 47.5
t10 47.5t39 41t68.5 29t96 11q120 0 182 -41.5t62 -121.5v-197zM269 2q58 0 101.5 36t43.5 95v144q-40 -5 -134 -13q-141 -14 -141 -137q0 -54 31 -89.5t99 -35.5z" />
    <glyph glyph-name="Abreve" unicode="&#x102;" horiz-adv-x="747" 
d="M380 755q-54 0 -92.5 31t-52.5 83h6q15 -29 52 -46t87 -17t86.5 17t51.5 46h7q-15 -53 -53 -83.5t-92 -30.5zM379 710l351 -710h-116l-124 260l-333 -1q-76 -174 -49 -259h-91zM159 265l329 1l-161 330q-133 -252 -168 -331z" />
    <glyph glyph-name="abreve" unicode="&#x103;" horiz-adv-x="610" 
d="M292 520q-54 0 -92.5 31t-52.5 83h6q15 -29 52 -46t87 -17t86.5 17t51.5 46h7q-15 -53 -53 -83.5t-92 -30.5zM519 120q-1 -64 16.5 -91t76.5 -29v-2q-100 -18 -147 4t-51 103q-10 -50 -56 -82t-125 -32q-201 0 -203 134q1 120 214 139q26 2 83 7.5t87 8.5v66
q0 130 -140 130q-44 0 -79.5 -16.5t-57 -44t-33.5 -55.5t-17 -56h-3q-19 23 -22.5 47.5t10 47.5t39 41t68.5 29t96 11q120 0 182 -41.5t62 -121.5v-197zM269 2q58 0 101.5 36t43.5 95v144q-40 -5 -134 -13q-141 -14 -141 -137q0 -54 31 -89.5t99 -35.5z" />
    <glyph glyph-name="Aogonek" unicode="&#x104;" horiz-adv-x="747" 
d="M379 710l351 -710h-116l-124 260l-333 -1q-76 -174 -49 -259h-91zM159 265l329 1l-161 330q-133 -252 -168 -331zM466 -103q0 -30 17 -41t54 -11v-53q-124 0 -124 82q0 60 105 125h8q-60 -55 -60 -102z" />
    <glyph glyph-name="aogonek" unicode="&#x105;" horiz-adv-x="610" 
d="M552 -103q0 -30 17 -41t54 -11v-53q-124 0 -124 82q0 59 100 122q-93 -16 -137 7.5t-48 101.5q-10 -50 -56 -82t-125 -32q-201 0 -203 134q1 120 214 139q26 2 83 7.5t87 8.5v66q0 130 -140 130q-44 0 -79.5 -16.5t-57 -44t-33.5 -55.5t-17 -56h-3q-19 23 -22.5 47.5
t10 47.5t39 41t68.5 29t96 11q120 0 182 -41.5t62 -121.5v-197q-1 -64 16.5 -91t76.5 -29v-2h-1q-59 -56 -59 -101zM269 2q58 0 101.5 36t43.5 95v144q-40 -5 -134 -13q-141 -14 -141 -137q0 -54 31 -89.5t99 -35.5z" />
    <glyph glyph-name="Cacute" unicode="&#x106;" horiz-adv-x="707" 
d="M470 884q-80 -83 -165 -129h-7q47 59 67 129h105zM678 232h5q-78 -240 -307 -240q-156 0 -251 103t-95 261q0 153 98.5 253t260.5 100q66 0 121.5 -18t89 -48t51 -66t11.5 -74.5t-33 -71.5h-4q-4 51 -19 97t-42 87t-72.5 65.5t-102.5 24.5q-79 0 -137.5 -46.5t-86 -117
t-27.5 -152.5q0 -136 74 -223t204 -88q81 0 149.5 38.5t112.5 115.5z" />
    <glyph glyph-name="cacute" unicode="&#x107;" horiz-adv-x="562" 
d="M398 649q-80 -83 -165 -129h-7q47 59 67 129h105zM536 172h6q-31 -83 -96.5 -132t-159.5 -49q-114 0 -185 69.5t-71 174.5q0 106 75 175.5t205 69.5q127 0 179.5 -58.5t2.5 -117.5h-3q-4 28 -15 55t-30.5 55t-54 45t-78.5 17q-85 -1 -131.5 -59.5t-46.5 -143.5
q0 -92 52 -146.5t148 -55.5q137 0 203 101z" />
    <glyph glyph-name="Cdotaccent" unicode="&#x10a;" horiz-adv-x="707" 
d="M359 756q-22 0 -36 13t-14 33q0 19 14 31.5t36 12.5t36 -12.5t14 -31.5q0 -20 -14 -33t-36 -13zM678 232h5q-78 -240 -307 -240q-156 0 -251 103t-95 261q0 153 98.5 253t260.5 100q66 0 121.5 -18t89 -48t51 -66t11.5 -74.5t-33 -71.5h-4q-4 51 -19 97t-42 87
t-72.5 65.5t-102.5 24.5q-79 0 -137.5 -46.5t-86 -117t-27.5 -152.5q0 -136 74 -223t204 -88q81 0 149.5 38.5t112.5 115.5z" />
    <glyph glyph-name="cdotaccent" unicode="&#x10b;" horiz-adv-x="562" 
d="M287 521q-22 0 -36 13t-14 33q0 19 14 31.5t36 12.5t36 -12.5t14 -31.5q0 -20 -14 -33t-36 -13zM536 172h6q-31 -83 -96.5 -132t-159.5 -49q-114 0 -185 69.5t-71 174.5q0 106 75 175.5t205 69.5q127 0 179.5 -58.5t2.5 -117.5h-3q-4 28 -15 55t-30.5 55t-54 45t-78.5 17
q-85 -1 -131.5 -59.5t-46.5 -143.5q0 -92 52 -146.5t148 -55.5q137 0 203 101z" />
    <glyph glyph-name="Ccaron" unicode="&#x10c;" horiz-adv-x="707" 
d="M505 884l-140 -129l-140 129h7l133 -75l132 75h8zM678 232h5q-78 -240 -307 -240q-156 0 -251 103t-95 261q0 153 98.5 253t260.5 100q66 0 121.5 -18t89 -48t51 -66t11.5 -74.5t-33 -71.5h-4q-4 51 -19 97t-42 87t-72.5 65.5t-102.5 24.5q-79 0 -137.5 -46.5t-86 -117
t-27.5 -152.5q0 -136 74 -223t204 -88q81 0 149.5 38.5t112.5 115.5z" />
    <glyph glyph-name="ccaron" unicode="&#x10d;" horiz-adv-x="562" 
d="M433 649l-140 -129l-140 129h7l133 -75l132 75h8zM536 172h6q-31 -83 -96.5 -132t-159.5 -49q-114 0 -185 69.5t-71 174.5q0 106 75 175.5t205 69.5q127 0 179.5 -58.5t2.5 -117.5h-3q-4 28 -15 55t-30.5 55t-54 45t-78.5 17q-85 -1 -131.5 -59.5t-46.5 -143.5
q0 -92 52 -146.5t148 -55.5q137 0 203 101z" />
    <glyph glyph-name="Dcaron" unicode="&#x10e;" horiz-adv-x="744" 
d="M495 884l-140 -129l-140 129h7l133 -75l132 75h8zM295 700q184 0 301.5 -95t117.5 -256q0 -159 -117.5 -254t-301.5 -95h-250v700h250zM295 4q142 0 222.5 92t80.5 253q0 162 -80.5 254.5t-222.5 92.5h-143v-692h143z" />
    <glyph glyph-name="dcaron" unicode="&#x10f;" horiz-adv-x="738" 
d="M468 292v370q58 9 105 52v-714h-105v183q-13 -84 -63.5 -138t-134.5 -54q-100 0 -168 68.5t-69 176.5q1 109 67 177t170 68q85 0 135 -52t63 -137zM662 700q31 0 48.5 -26.5t17.5 -64.5q0 -55 -26 -101.5t-80 -63.5l-2 2q41 18 60.5 62t17.5 85q-12 -20 -40 -20
q-27 0 -43.5 19t-16.5 44q0 28 18 46t46 18zM300 7q71 0 119.5 63.5t48.5 165.5q0 108 -47.5 168.5t-119.5 60.5q-66 0 -111 -62.5t-45 -166.5q0 -105 44.5 -167t110.5 -62z" />
    <glyph glyph-name="Dcroat" unicode="&#x110;" horiz-adv-x="744" 
d="M295 700q184 0 301.5 -95t117.5 -256q0 -159 -117.5 -254t-301.5 -95h-250v348h-72v5h72v347h250zM295 4q142 0 222.5 92t80.5 253q0 162 -80.5 254.5t-222.5 92.5h-143v-343h216v-5h-216v-344h143z" />
    <glyph glyph-name="dcroat" unicode="&#x111;" horiz-adv-x="618" 
d="M636 587v-5h-63v-582h-105v183q-13 -84 -63.5 -138t-134.5 -54q-100 0 -168 68.5t-69 176.5q1 109 67 177t170 68q85 0 135 -52t63 -137v290h-187v5h187v75q58 9 105 52v-127h63zM300 7q71 0 119.5 63.5t48.5 165.5q0 108 -47.5 168.5t-119.5 60.5q-66 0 -111 -62.5
t-45 -166.5q0 -105 44.5 -167t110.5 -62z" />
    <glyph glyph-name="Emacron" unicode="&#x112;" horiz-adv-x="629" 
d="M465 797v-38h-295v38h295zM152 4q168 2 277.5 36.5t171.5 114.5v-155h-556v700l545 2v-137q-58 77 -168 104t-270 27v-328q253 6 382 45v-92q-125 38 -382 44v-361z" />
    <glyph glyph-name="emacron" unicode="&#x113;" horiz-adv-x="560" 
d="M441 562v-38h-295v38h295zM532 172h6q-30 -79 -94.5 -130t-158.5 -51q-113 0 -184 70t-71 174t73.5 174.5t197.5 70.5q109 0 170 -61t62 -147h-1l1 -2h-400q1 -92 53.5 -145t146.5 -54q67 0 120 27t79 74zM297 474q-77 0 -120 -56.5t-44 -142.5h311q-2 86 -39 142.5
t-108 56.5z" />
    <glyph glyph-name="Edotaccent" unicode="&#x116;" horiz-adv-x="629" 
d="M319 756q-22 0 -36 13t-14 33q0 19 14 31.5t36 12.5t36 -12.5t14 -31.5q0 -20 -14 -33t-36 -13zM152 4q168 2 277.5 36.5t171.5 114.5v-155h-556v700l545 2v-137q-58 77 -168 104t-270 27v-328q253 6 382 45v-92q-125 38 -382 44v-361z" />
    <glyph glyph-name="edotaccent" unicode="&#x117;" horiz-adv-x="560" 
d="M294 521q-22 0 -36 13t-14 33q0 19 14 31.5t36 12.5t36 -12.5t14 -31.5q0 -20 -14 -33t-36 -13zM532 172h6q-30 -79 -94.5 -130t-158.5 -51q-113 0 -184 70t-71 174t73.5 174.5t197.5 70.5q109 0 170 -61t62 -147h-1l1 -2h-400q1 -92 53.5 -145t146.5 -54q67 0 120 27
t79 74zM297 474q-77 0 -120 -56.5t-44 -142.5h311q-2 86 -39 142.5t-108 56.5z" />
    <glyph glyph-name="Eogonek" unicode="&#x118;" horiz-adv-x="629" 
d="M540 -102q0 -30 17 -41t54 -11v-53q-124 0 -124 82q0 60 105 125h-547v700l545 2v-137q-58 77 -168 104t-270 27v-328q253 6 382 45v-92q-125 38 -382 44v-361q168 2 277.5 36.5t171.5 114.5v-155h-1q-60 -56 -60 -102z" />
    <glyph glyph-name="eogonek" unicode="&#x119;" horiz-adv-x="560" 
d="M538 172q-43 -110 -136 -155q-42 -47 -42 -84q0 -30 17 -41t54 -11v-53q-124 0 -124 82q0 46 58 92q-38 -11 -80 -11q-113 0 -184 70t-71 174t73.5 174.5t197.5 70.5q109 0 170 -61t62 -147h-1l1 -2h-400q1 -92 53.5 -145t146.5 -54q67 0 120 27t79 74h6zM297 474
q-77 0 -120 -56.5t-44 -142.5h311q-2 86 -39 142.5t-108 56.5z" />
    <glyph glyph-name="Ecaron" unicode="&#x11a;" horiz-adv-x="629" 
d="M465 884l-140 -129l-140 129h7l133 -75l132 75h8zM152 4q168 2 277.5 36.5t171.5 114.5v-155h-556v700l545 2v-137q-58 77 -168 104t-270 27v-328q253 6 382 45v-92q-125 38 -382 44v-361z" />
    <glyph glyph-name="ecaron" unicode="&#x11b;" horiz-adv-x="560" 
d="M440 649l-140 -129l-140 129h7l133 -75l132 75h8zM532 172h6q-30 -79 -94.5 -130t-158.5 -51q-113 0 -184 70t-71 174t73.5 174.5t197.5 70.5q109 0 170 -61t62 -147h-1l1 -2h-400q1 -92 53.5 -145t146.5 -54q67 0 120 27t79 74zM297 474q-77 0 -120 -56.5t-44 -142.5
h311q-2 86 -39 142.5t-108 56.5z" />
    <glyph glyph-name="Gbreve" unicode="&#x11e;" horiz-adv-x="737" 
d="M363 755q-54 0 -92.5 31t-52.5 83h6q15 -29 52 -46t87 -17t86.5 17t51.5 46h7q-15 -53 -53 -83.5t-92 -30.5zM705 367h2q-3 -169 -89 -271.5t-231 -103.5q-163 0 -260 103t-97 261q0 154 100 253.5t266 99.5q66 0 121 -16t89.5 -43t52.5 -60.5t14 -70t-29 -69.5h-4
q-3 42 -18 84t-43 82t-75.5 64.5t-106.5 24.5q-122 0 -190.5 -91.5t-68.5 -220.5q0 -138 76 -228t214 -91q126 6 198 82t76 206q-91 -5 -192.5 -25.5t-144.5 -55.5v88q224 -2 340 -2z" />
    <glyph glyph-name="gbreve" unicode="&#x11f;" horiz-adv-x="596" 
d="M311 520q-54 0 -92.5 31t-52.5 83h6q15 -29 52 -46t87 -17t86.5 17t51.5 46h7q-15 -53 -53 -83.5t-92 -30.5zM337 99q246 -25 246 -155q0 -38 -24.5 -67.5t-64.5 -45.5t-82.5 -23.5t-86.5 -7.5q-42 0 -82.5 5t-82 16t-66.5 33.5t-25 53.5q0 80 164 94l2 -2
q-35 -7 -52.5 -30.5t-17.5 -58.5q0 -46 46 -77t114 -31q76 0 121.5 28t45.5 75q0 92 -170 108q-172 16 -213 28q-67 19 -73 66q-1 5 -1 12q0 72 112 87q-74 40 -74 114q0 76 73.5 117.5t170.5 41.5t171 -41.5t74 -117.5q0 -52 -38 -87t-91 -49.5t-116 -14.5q-101 0 -167 36
q-66 -16 -66 -51q0 -22 45.5 -31.5t207.5 -24.5zM317 477q-73 0 -104.5 -46.5t-31.5 -109.5q0 -62 31.5 -105t104.5 -43q74 0 105 43t31 105q0 64 -31.5 110t-104.5 46z" />
    <glyph glyph-name="Gdotaccent" unicode="&#x120;" horiz-adv-x="737" 
d="M364 756q-22 0 -36 13t-14 33q0 19 14 31.5t36 12.5t36 -12.5t14 -31.5q0 -20 -14 -33t-36 -13zM705 367h2q-3 -169 -89 -271.5t-231 -103.5q-163 0 -260 103t-97 261q0 154 100 253.5t266 99.5q66 0 121 -16t89.5 -43t52.5 -60.5t14 -70t-29 -69.5h-4q-3 42 -18 84
t-43 82t-75.5 64.5t-106.5 24.5q-122 0 -190.5 -91.5t-68.5 -220.5q0 -138 76 -228t214 -91q126 6 198 82t76 206q-91 -5 -192.5 -25.5t-144.5 -55.5v88q224 -2 340 -2z" />
    <glyph glyph-name="gdotaccent" unicode="&#x121;" horiz-adv-x="596" 
d="M311 521q-22 0 -36 13t-14 33q0 19 14 31.5t36 12.5t36 -12.5t14 -31.5q0 -20 -14 -33t-36 -13zM337 99q246 -25 246 -155q0 -38 -24.5 -67.5t-64.5 -45.5t-82.5 -23.5t-86.5 -7.5q-42 0 -82.5 5t-82 16t-66.5 33.5t-25 53.5q0 80 164 94l2 -2q-35 -7 -52.5 -30.5
t-17.5 -58.5q0 -46 46 -77t114 -31q76 0 121.5 28t45.5 75q0 92 -170 108q-172 16 -213 28q-67 19 -73 66q-1 5 -1 12q0 72 112 87q-74 40 -74 114q0 76 73.5 117.5t170.5 41.5t171 -41.5t74 -117.5q0 -52 -38 -87t-91 -49.5t-116 -14.5q-101 0 -167 36q-66 -16 -66 -51
q0 -22 45.5 -31.5t207.5 -24.5zM317 477q-73 0 -104.5 -46.5t-31.5 -109.5q0 -62 31.5 -105t104.5 -43q74 0 105 43t31 105q0 64 -31.5 110t-104.5 46z" />
    <glyph glyph-name="uni0122" unicode="&#x122;" horiz-adv-x="737" 
d="M705 367h2q-3 -169 -89 -271.5t-231 -103.5q-163 0 -260 103t-97 261q0 154 100 253.5t266 99.5q66 0 121 -16t89.5 -43t52.5 -60.5t14 -70t-29 -69.5h-4q-3 42 -18 84t-43 82t-75.5 64.5t-106.5 24.5q-122 0 -190.5 -91.5t-68.5 -220.5q0 -138 76 -228t214 -91
q126 6 198 82t76 206q-91 -5 -192.5 -25.5t-144.5 -55.5v88q224 -2 340 -2zM351 -45h72q8 -161 -137 -206l-2 2q75 64 67 204z" />
    <glyph glyph-name="uni0123" unicode="&#x123;" horiz-adv-x="596" 
d="M441 742q-54 -59 -82 -222h-71q21 168 150 224zM337 99q246 -25 246 -155q0 -38 -24.5 -67.5t-64.5 -45.5t-82.5 -23.5t-86.5 -7.5q-42 0 -82.5 5t-82 16t-66.5 33.5t-25 53.5q0 80 164 94l2 -2q-35 -7 -52.5 -30.5t-17.5 -58.5q0 -46 46 -77t114 -31q76 0 121.5 28
t45.5 75q0 92 -170 108q-172 16 -213 28q-67 19 -73 66q-1 5 -1 12q0 72 112 87q-74 40 -74 114q0 76 73.5 117.5t170.5 41.5t171 -41.5t74 -117.5q0 -52 -38 -87t-91 -49.5t-116 -14.5q-101 0 -167 36q-66 -16 -66 -51q0 -22 45.5 -31.5t207.5 -24.5zM317 477
q-73 0 -104.5 -46.5t-31.5 -109.5q0 -62 31.5 -105t104.5 -43q74 0 105 43t31 105q0 64 -31.5 110t-104.5 46z" />
    <glyph glyph-name="Hbar" unicode="&#x126;" horiz-adv-x="720" 
d="M732 539v-5h-56v-534h-108v364h-416v-364h-107v534h-57v5h57v161h107v-161h416v161h108v-161h56zM568 369v165h-416v-165h416z" />
    <glyph glyph-name="hbar" unicode="&#x127;" horiz-adv-x="581" 
d="M364 481q172 0 174 -178v-303h-106v328q0 136 -110 136q-65 0 -115 -52t-57 -148v-264h-105v582h-46v5h46v80q61 9 105 52v-132h204v-5h-204v-284q15 85 69 134t145 49z" />
    <glyph glyph-name="Imacron" unicode="&#x12a;" horiz-adv-x="197" 
d="M-49 797h295v-38h-295v38zM45 0v700h107v-700h-107z" />
    <glyph glyph-name="imacron" unicode="&#x12b;" horiz-adv-x="195" 
d="M-50 572h295v-38h-295v38zM45 0v423q60 11 105 52v-475h-105z" />
    <glyph glyph-name="Iogonek" unicode="&#x12e;" horiz-adv-x="197" 
d="M92 -102q0 -30 17 -41t54 -11v-53q-124 0 -124 82q0 60 105 125h-99v700h107v-700q-60 -56 -60 -102z" />
    <glyph glyph-name="iogonek" unicode="&#x12f;" horiz-adv-x="224" 
d="M112 546q-29 0 -48 17.5t-19 43.5q0 25 19 42.5t48 17.5t48 -17.5t19 -42.5q0 -26 -19 -43.5t-48 -17.5zM105 -102q0 -30 17 -41t54 -11v-53q-124 0 -124 82q0 60 105 125h-98v423q61 11 106 52v-475q-60 -56 -60 -102z" />
    <glyph glyph-name="Idotaccent" unicode="&#x130;" horiz-adv-x="197" 
d="M99 756q-22 0 -36 13t-14 33q0 19 14 31.5t36 12.5t36 -12.5t14 -31.5q0 -20 -14 -33t-36 -13zM45 0v700h107v-700h-107z" />
    <glyph glyph-name="dotlessi" unicode="&#x131;" horiz-adv-x="195" 
d="M45 0v423q60 11 105 52v-475h-105z" />
    <glyph glyph-name="uni0136" unicode="&#x136;" horiz-adv-x="686" 
d="M155 369q375 -150 521 -369h-136q-126 234 -388 365v-365h-107v700h107v-328l346 328h163zM304 -54h72q8 -161 -137 -206l-2 2q75 64 67 204z" />
    <glyph glyph-name="uni0137" unicode="&#x137;" horiz-adv-x="560" 
d="M153 266q268 -125 398 -266h-136q-103 161 -265 262v-262h-105v654q60 11 105 52v-435l227 196h154zM243 -54h72q8 -161 -137 -206l-2 2q75 64 67 204z" />
    <glyph glyph-name="Lacute" unicode="&#x139;" horiz-adv-x="611" 
d="M229 884q-80 -83 -165 -129h-7q47 59 67 129h105zM152 4q167 2 274 36t168 115v-155h-549v700h107v-696z" />
    <glyph glyph-name="lacute" unicode="&#x13a;" horiz-adv-x="195" 
d="M105 899h105q-80 -83 -165 -129h-7q47 59 67 129zM45 0v667q61 9 105 52v-719h-105z" />
    <glyph glyph-name="uni013B" unicode="&#x13b;" horiz-adv-x="611" 
d="M152 4q167 2 274 36t168 115v-155h-549v700h107v-696zM286 -54h72q8 -161 -137 -206l-2 2q75 64 67 204z" />
    <glyph glyph-name="uni013C" unicode="&#x13c;" horiz-adv-x="195" 
d="M45 0v667q61 9 105 52v-719h-105zM0 -250l-2 2q75 64 67 204h72q8 -161 -137 -206z" />
    <glyph glyph-name="Lcaron" unicode="&#x13d;" horiz-adv-x="611" 
d="M152 4q167 2 274 36t168 115v-155h-549v700h107v-696zM366 573q-27 0 -43.5 19t-16.5 44q0 28 18 46t46 18q31 0 48.5 -26.5t17.5 -64.5q0 -55 -26 -101.5t-80 -63.5l-2 2q41 18 60.5 61.5t17.5 84.5q-12 -19 -40 -19z" />
    <glyph glyph-name="lcaron" unicode="&#x13e;" horiz-adv-x="315" 
d="M45 0v667q61 9 105 52v-719h-105zM239 700q31 0 48.5 -26.5t17.5 -64.5q0 -55 -26 -101.5t-80 -63.5l-2 2q41 18 60.5 62t17.5 85q-12 -20 -40 -20q-27 0 -43.5 19t-16.5 44q0 28 18 46t46 18z" />
    <glyph glyph-name="Ldot" unicode="&#x13f;" horiz-adv-x="611" 
d="M152 4q167 2 274 36t168 115v-155h-549v700h107v-696zM367 322q-27 0 -45.5 19t-18.5 46q0 26 18.5 45t45.5 19t45.5 -19t18.5 -45q0 -27 -18.5 -46t-45.5 -19z" />
    <glyph glyph-name="ldot" unicode="&#x140;" horiz-adv-x="347" 
d="M45 0v667q61 9 105 52v-719h-105zM239 262q-27 0 -45.5 19t-18.5 46q0 26 18.5 45t45.5 19q26 0 45 -19t19 -45q0 -27 -19 -46t-45 -19z" />
    <glyph glyph-name="Lslash" unicode="&#x141;" horiz-adv-x="611" 
d="M152 4q167 2 274 36t168 115v-155h-549v337l-76 -32l-2 5l78 33v357h107v-311l115 49l2 -5l-117 -50v-379z" />
    <glyph glyph-name="lslash" unicode="&#x142;" horiz-adv-x="195" 
d="M210 441l-60 -33v-408h-105v351l-54 -30l-2 5l56 31v310q61 9 105 52v-305l58 32z" />
    <glyph glyph-name="Nacute" unicode="&#x143;" horiz-adv-x="690" 
d="M480 884q-80 -83 -165 -129h-7q47 59 67 129h105zM639 700h7v-700h-7l-588 694q0 -317 15.5 -450.5t69.5 -243.5h-91v700h134l460 -542v542z" />
    <glyph glyph-name="nacute" unicode="&#x144;" horiz-adv-x="581" 
d="M413 649q-80 -83 -165 -129h-7q47 59 67 129h105zM364 481q172 0 174 -178v-303h-106v328q0 136 -110 136q-65 0 -115 -52t-57 -148v-264h-105v423q60 11 105 52v-177q15 85 69 134t145 49z" />
    <glyph glyph-name="uni0145" unicode="&#x145;" horiz-adv-x="690" 
d="M639 700h7v-700h-7l-588 694q0 -317 15.5 -450.5t69.5 -243.5h-91v700h134l460 -542v542zM320 -43h72q8 -161 -137 -206l-2 2q75 64 67 204z" />
    <glyph glyph-name="uni0146" unicode="&#x146;" horiz-adv-x="581" 
d="M364 481q172 0 174 -178v-303h-106v328q0 136 -110 136q-65 0 -115 -52t-57 -148v-264h-105v423q60 11 105 52v-177q15 85 69 134t145 49zM271 -54h72q8 -161 -137 -206l-2 2q75 64 67 204z" />
    <glyph glyph-name="Ncaron" unicode="&#x147;" horiz-adv-x="690" 
d="M515 884l-140 -129l-140 129h7l133 -75l132 75h8zM639 700h7v-700h-7l-588 694q0 -317 15.5 -450.5t69.5 -243.5h-91v700h134l460 -542v542z" />
    <glyph glyph-name="ncaron" unicode="&#x148;" horiz-adv-x="581" 
d="M448 649l-140 -129l-140 129h7l133 -75l132 75h8zM364 481q172 0 174 -178v-303h-106v328q0 136 -110 136q-65 0 -115 -52t-57 -148v-264h-105v423q60 11 105 52v-177q15 85 69 134t145 49z" />
    <glyph glyph-name="Eng" unicode="&#x14a;" horiz-adv-x="690" 
d="M639 700h7v-700q-3 -99 -47 -151.5t-110 -52.5q-52 0 -93.5 38t-73.5 131l2 5q58 -119 170 -119q66 0 105 43.5t40 102.5v3l-588 694q0 -317 15.5 -450.5t69.5 -243.5h-91v700h134l460 -538v538z" />
    <glyph glyph-name="eng" unicode="&#x14b;" horiz-adv-x="581" 
d="M364 481q172 0 174 -178v-346q-1 -79 -41 -124t-123 -45q-134 0 -174 150h5q42 -82 128 -82q47 0 73 29.5t26 83.5v359q0 136 -110 136q-65 0 -115 -52t-57 -148v-264h-105v423q60 11 105 52v-177q15 85 69 134t145 49z" />
    <glyph glyph-name="Omacron" unicode="&#x14c;" horiz-adv-x="801" 
d="M256 795h295v-38h-295v38zM401 709q154 0 262 -100.5t108 -259.5q0 -158 -108 -258t-262 -100t-262.5 100.5t-108.5 257.5q0 159 108.5 259.5t262.5 100.5zM401 -5q114 0 184 100.5t70 253.5q0 155 -70 255.5t-184 100.5q-115 0 -185 -100.5t-70 -255.5q0 -154 70 -254
t185 -100z" />
    <glyph glyph-name="omacron" unicode="&#x14d;" horiz-adv-x="614" 
d="M159 562h295v-38h-295v38zM307 -9q-118 0 -197.5 68t-79.5 176q0 109 79.5 177t197.5 68t197.5 -68t79.5 -177q0 -108 -79.5 -176t-197.5 -68zM307 -5q75 0 118.5 61.5t43.5 178.5q0 118 -43.5 179.5t-118.5 61.5t-118 -61.5t-43 -179.5q0 -117 43 -178.5t118 -61.5z" />
    <glyph glyph-name="Ohungarumlaut" unicode="&#x150;" horiz-adv-x="801" 
d="M360 882h105q-80 -83 -165 -129h-7q47 59 67 129zM514 882h104q-80 -83 -164 -129h-8q46 58 68 129zM401 709q154 0 262 -100.5t108 -259.5q0 -158 -108 -258t-262 -100t-262.5 100.5t-108.5 257.5q0 159 108.5 259.5t262.5 100.5zM401 -5q114 0 184 100.5t70 253.5
q0 155 -70 255.5t-184 100.5q-115 0 -185 -100.5t-70 -255.5q0 -154 70 -254t185 -100z" />
    <glyph glyph-name="ohungarumlaut" unicode="&#x151;" horiz-adv-x="614" 
d="M263 649h105q-80 -83 -165 -129h-7q47 59 67 129zM417 649h104q-80 -83 -164 -129h-8q46 58 68 129zM307 -9q-118 0 -197.5 68t-79.5 176q0 109 79.5 177t197.5 68t197.5 -68t79.5 -177q0 -108 -79.5 -176t-197.5 -68zM307 -5q75 0 118.5 61.5t43.5 178.5
q0 118 -43.5 179.5t-118.5 61.5t-118 -61.5t-43 -179.5q0 -117 43 -178.5t118 -61.5z" />
    <glyph glyph-name="OE" unicode="&#x152;" horiz-adv-x="1235" 
d="M758 4q168 2 277.5 36.5t171.5 114.5v-155h-556v282q-17 -137 -100.5 -214t-218.5 -77q-149 0 -252 100t-103 258q0 160 103 260t252 100q134 0 218 -79t101 -215v285l545 2v-137q-58 77 -168 104t-270 27v-328q253 6 382 45v-92q-125 38 -382 44v-361zM354 -1
q131 0 213 95t82 255q0 157 -82.5 254.5t-212.5 97.5q-118 0 -190 -99t-72 -253q0 -153 72 -251.5t190 -98.5z" />
    <glyph glyph-name="oe" unicode="&#x153;" horiz-adv-x="942" 
d="M915 172h5q-28 -79 -86.5 -130t-143.5 -51q-126 0 -192 101q-32 -48 -84 -74.5t-115 -26.5q-115 0 -192 68t-77 176q0 109 77 177t192 68q63 0 115.5 -27t84.5 -76q68 103 206 103q99 0 154 -61t57 -147h-1l1 -2h-364q1 -92 48.5 -145t132.5 -54q61 0 109 27t73 74z
M299 -5q73 0 116 61.5t43 178.5q0 118 -43 179.5t-116 61.5t-116 -61.5t-43 -179.5q0 -117 43 -178.5t116 -61.5zM701 474q-69 0 -108.5 -56.5t-40.5 -142.5h282q-1 85 -34.5 142t-98.5 57z" />
    <glyph glyph-name="Racute" unicode="&#x154;" horiz-adv-x="704" 
d="M454 884q-80 -83 -165 -129h-7q47 59 67 129h105zM633 187q17 -140 42 -187h-118q-17 39 -38 187q-12 90 -45.5 131t-116.5 41l-205 1v-360h-107v700h310q295 0 295 -170q0 -77 -71.5 -118t-187.5 -49q123 -5 176.5 -45.5t65.5 -130.5zM152 364h170q103 0 160.5 42
t57.5 124t-50 124t-143 42h-195v-332z" />
    <glyph glyph-name="racute" unicode="&#x155;" horiz-adv-x="467" 
d="M354 649q-80 -83 -165 -129h-7q47 59 67 129h105zM314 480q65 0 100 -33.5t33.5 -80t-33.5 -85.5h-3q-1 31 -7 60.5t-18 58.5t-35.5 47t-55.5 18q-36 0 -64.5 -21.5t-44.5 -58.5t-25 -77.5t-11 -85.5v-222h-105v423q60 11 105 52v-221q6 61 21.5 108.5t52 82.5t90.5 35z
" />
    <glyph glyph-name="uni0156" unicode="&#x156;" horiz-adv-x="704" 
d="M633 187q17 -140 42 -187h-118q-17 39 -38 187q-12 90 -45.5 131t-116.5 41l-205 1v-360h-107v700h310q295 0 295 -170q0 -77 -71.5 -118t-187.5 -49q123 -5 176.5 -45.5t65.5 -130.5zM152 364h170q103 0 160.5 42t57.5 124t-50 124t-143 42h-195v-332zM312 -54h72
q8 -161 -137 -206l-2 2q75 64 67 204z" />
    <glyph glyph-name="uni0157" unicode="&#x157;" horiz-adv-x="467" 
d="M314 480q65 0 100 -33.5t33.5 -80t-33.5 -85.5h-3q-1 31 -7 60.5t-18 58.5t-35.5 47t-55.5 18q-36 0 -64.5 -21.5t-44.5 -58.5t-25 -77.5t-11 -85.5v-222h-105v423q60 11 105 52v-221q6 61 21.5 108.5t52 82.5t90.5 35zM78 -54h72q8 -161 -137 -206l-2 2q75 64 67 204z
" />
    <glyph glyph-name="Rcaron" unicode="&#x158;" horiz-adv-x="704" 
d="M489 884l-140 -129l-140 129h7l133 -75l132 75h8zM633 187q17 -140 42 -187h-118q-17 39 -38 187q-12 90 -45.5 131t-116.5 41l-205 1v-360h-107v700h310q295 0 295 -170q0 -77 -71.5 -118t-187.5 -49q123 -5 176.5 -45.5t65.5 -130.5zM152 364h170q103 0 160.5 42
t57.5 124t-50 124t-143 42h-195v-332z" />
    <glyph glyph-name="rcaron" unicode="&#x159;" horiz-adv-x="467" 
d="M389 649l-140 -129l-140 129h7l133 -75l132 75h8zM314 480q65 0 100 -33.5t33.5 -80t-33.5 -85.5h-3q-1 31 -7 60.5t-18 58.5t-35.5 47t-55.5 18q-36 0 -64.5 -21.5t-44.5 -58.5t-25 -77.5t-11 -85.5v-222h-105v423q60 11 105 52v-221q6 61 21.5 108.5t52 82.5t90.5 35z
" />
    <glyph glyph-name="Sacute" unicode="&#x15a;" horiz-adv-x="664" 
d="M452 884q-80 -83 -165 -129h-7q47 59 67 129h105zM356 412q44 -12 66 -18.5t58 -19t54.5 -22.5t42 -27t34.5 -35t19.5 -43t8.5 -55q0 -53 -25.5 -93.5t-68 -63t-92 -34t-102.5 -11.5q-114 0 -198.5 35t-110 92t22.5 130h4q7 -42 28.5 -85t56 -81.5t86.5 -62.5t111 -24
q102 -1 159.5 35t57.5 95q0 31 -11.5 54.5t-27 38.5t-51 29.5t-62.5 22.5t-83 23q-58 17 -89.5 27t-74 30t-64 40t-37.5 52t-16 72q0 68 43.5 114t103.5 64t131 18q65 0 120 -15t91 -40.5t55 -57.5t16 -68t-29 -70h-4q-4 40 -21 81t-46 79.5t-76.5 62.5t-105.5 24
q-93 1 -150 -36t-57 -97q0 -17 4 -32t15.5 -28t20 -22t30 -19.5t33 -16t41 -15t42 -13.5t47.5 -14z" />
    <glyph glyph-name="sacute" unicode="&#x15b;" horiz-adv-x="520" 
d="M371 649q-80 -83 -165 -129h-7q47 59 67 129h105zM280 291q43 -11 68.5 -18.5t55.5 -20.5t45.5 -28t26.5 -37.5t11 -51.5q0 -70 -63.5 -107.5t-155.5 -37.5q-134 0 -201.5 53.5t-12.5 122.5h3q3 -27 18 -55.5t40 -55.5t65 -44t87 -17q83 -1 126.5 22t43.5 62
q0 19 -10.5 33t-34.5 24.5t-44.5 17t-59.5 16.5q-18 5 -27 7q-40 10 -68 18t-59 22t-49.5 30t-30.5 40t-12 54q0 65 62.5 102.5t148.5 37.5q52 0 95 -10.5t69.5 -27.5t40.5 -38.5t11.5 -45.5t-21.5 -46h-3q-4 61 -50.5 113t-135.5 51q-84 1 -125.5 -24.5t-41.5 -62.5
q0 -17 10.5 -30t37.5 -24.5t47.5 -18t66.5 -18.5q17 -5 26 -7z" />
    <glyph glyph-name="Scedilla" unicode="&#x15e;" horiz-adv-x="664" 
d="M351 -10h-17l-23 -58q137 0 137 -61q0 -72 -175 -72v5q122 0 122 61q0 51 -106 51l38 74q-108 4 -186 39.5t-100 91.5t24 126h4q14 -87 84.5 -165.5t176.5 -86.5l4 8l4 -3l-2 -6h15q102 -1 159.5 35t57.5 95q0 31 -11.5 54.5t-27 38.5t-51 29.5t-62.5 22.5t-83 23
q-58 17 -89.5 27t-74 30t-64 40t-37.5 52t-16 72q0 68 43.5 114t103.5 64t131 18q65 0 120 -15t91 -40.5t55 -57.5t16 -68t-29 -70h-4q-4 40 -21 81t-46 79.5t-76.5 62.5t-105.5 24q-93 1 -150 -36t-57 -97q0 -17 4 -32t15.5 -28t20 -22t30 -19.5t33 -16t41 -15t42 -13.5
t47.5 -14q44 -12 66 -18.5t58 -19t54.5 -22.5t42 -27t34.5 -35t19.5 -43t8.5 -55q0 -53 -25.5 -93.5t-68 -63t-92 -34t-102.5 -11.5z" />
    <glyph glyph-name="scedilla" unicode="&#x15f;" horiz-adv-x="520" 
d="M268 -10h-11l-26 -65q137 0 137 -61q0 -72 -175 -72v5q122 0 122 61q0 51 -106 51l42 81q-127 4 -189 57t-8 119h3q7 -58 59.5 -112.5t136.5 -59.5l1 2l2 -2h11q83 -1 126.5 22t43.5 62q0 19 -10.5 33t-34.5 24.5t-44.5 17t-59.5 16.5q-18 5 -27 7q-40 10 -68 18t-59 22
t-49.5 30t-30.5 40t-12 54q0 65 62.5 102.5t148.5 37.5q52 0 95 -10.5t69.5 -27.5t40.5 -38.5t11.5 -45.5t-21.5 -46h-3q-4 61 -50.5 113t-135.5 51q-84 1 -125.5 -24.5t-41.5 -62.5q0 -17 10.5 -30t37.5 -24.5t47.5 -18t66.5 -18.5q17 -5 26 -7q43 -11 68.5 -18.5
t55.5 -20.5t45.5 -28t26.5 -37.5t11 -51.5q0 -70 -63.5 -107.5t-155.5 -37.5z" />
    <glyph glyph-name="Scaron" unicode="&#x160;" horiz-adv-x="664" 
d="M486 884l-140 -129l-140 129h7l133 -75l132 75h8zM356 412q44 -12 66 -18.5t58 -19t54.5 -22.5t42 -27t34.5 -35t19.5 -43t8.5 -55q0 -53 -25.5 -93.5t-68 -63t-92 -34t-102.5 -11.5q-114 0 -198.5 35t-110 92t22.5 130h4q7 -42 28.5 -85t56 -81.5t86.5 -62.5t111 -24
q102 -1 159.5 35t57.5 95q0 31 -11.5 54.5t-27 38.5t-51 29.5t-62.5 22.5t-83 23q-58 17 -89.5 27t-74 30t-64 40t-37.5 52t-16 72q0 68 43.5 114t103.5 64t131 18q65 0 120 -15t91 -40.5t55 -57.5t16 -68t-29 -70h-4q-4 40 -21 81t-46 79.5t-76.5 62.5t-105.5 24
q-93 1 -150 -36t-57 -97q0 -17 4 -32t15.5 -28t20 -22t30 -19.5t33 -16t41 -15t42 -13.5t47.5 -14z" />
    <glyph glyph-name="scaron" unicode="&#x161;" horiz-adv-x="520" 
d="M406 649l-140 -129l-140 129h7l133 -75l132 75h8zM280 291q43 -11 68.5 -18.5t55.5 -20.5t45.5 -28t26.5 -37.5t11 -51.5q0 -70 -63.5 -107.5t-155.5 -37.5q-134 0 -201.5 53.5t-12.5 122.5h3q3 -27 18 -55.5t40 -55.5t65 -44t87 -17q83 -1 126.5 22t43.5 62
q0 19 -10.5 33t-34.5 24.5t-44.5 17t-59.5 16.5q-18 5 -27 7q-40 10 -68 18t-59 22t-49.5 30t-30.5 40t-12 54q0 65 62.5 102.5t148.5 37.5q52 0 95 -10.5t69.5 -27.5t40.5 -38.5t11.5 -45.5t-21.5 -46h-3q-4 61 -50.5 113t-135.5 51q-84 1 -125.5 -24.5t-41.5 -62.5
q0 -17 10.5 -30t37.5 -24.5t47.5 -18t66.5 -18.5q17 -5 26 -7z" />
    <glyph glyph-name="uni0162" unicode="&#x162;" horiz-adv-x="731" 
d="M713 700v-135q-55 63 -124.5 96.5t-169.5 34.5v-696h-57l-27 -67q137 0 137 -61q0 -72 -175 -72v5q122 0 122 61q0 51 -106 51l43 83h-44v696q-103 -1 -171.5 -33.5t-122.5 -97.5v135h695z" />
    <glyph glyph-name="uni0163" unicode="&#x163;" horiz-adv-x="514" 
d="M295 -9q-28 0 -48 4l-24 -62q137 0 137 -61q0 -72 -175 -72v5q122 0 122 61q0 51 -106 51l41 79q-115 21 -115 159l1 296l-125 -15v3q80 12 130 75t53 126h3q25 -19 33 -47.5t-2 -51.5q-13 -61 -146 -92l157 18l235 32v-67l-234 32v-296q0 -62 24.5 -86t78.5 -24
q104 2 150 97h5q-27 -76 -71 -120t-124 -44z" />
    <glyph glyph-name="Tcaron" unicode="&#x164;" horiz-adv-x="731" 
d="M513 884l-140 -129l-140 129h7l133 -75l132 75h8zM713 700v-135q-55 63 -124.5 96.5t-169.5 34.5v-696h-107v696q-103 -1 -171.5 -33.5t-122.5 -97.5v135h695z" />
    <glyph glyph-name="tcaron" unicode="&#x165;" horiz-adv-x="524" 
d="M337 59q106 0 151 97h5q-27 -77 -70.5 -121t-124.5 -44q-90 0 -129.5 41.5t-39.5 123.5l1 296l-127 -15v3q81 13 131.5 75t53.5 125h3q25 -20 33 -48t-3 -51q-14 -62 -146 -91l158 17l147 24v-57l-146 30v-295q0 -62 24.5 -86t78.5 -24zM428 494q-27 0 -43.5 19t-16.5 44
q0 28 18 46t46 18q31 0 48.5 -26.5t17.5 -64.5q0 -55 -26 -101.5t-80 -63.5l-2 2q42 18 61 61.5t17 85.5q-12 -20 -40 -20z" />
    <glyph glyph-name="Tbar" unicode="&#x166;" horiz-adv-x="731" 
d="M713 700v-135q-55 63 -124.5 96.5t-169.5 34.5v-342h143v-5h-143v-349h-107v349h-145v5h145v342q-103 -1 -171.5 -33.5t-122.5 -97.5v135h695z" />
    <glyph glyph-name="tbar" unicode="&#x167;" horiz-adv-x="514" 
d="M485 155h5q-27 -76 -71 -120t-124 -44q-89 0 -128.5 41.5t-39.5 122.5l1 172h-115v5h115v119l-125 -15v3q80 12 130 75t53 126h3q25 -19 33 -47.5t-2 -51.5q-13 -61 -146 -92l157 18l235 32v-67l-234 32v-132h225v-5h-225v-159q0 -62 24.5 -86t78.5 -24q104 2 150 97z
" />
    <glyph glyph-name="Umacron" unicode="&#x16a;" horiz-adv-x="657" 
d="M489 797v-38h-295v38h295zM615 244q2 -121 -58.5 -187t-202.5 -66q-166 1 -239 68t-73 198v443h107v-458q0 -246 205 -247q260 0 255 247v458h6v-456z" />
    <glyph glyph-name="umacron" unicode="&#x16b;" horiz-adv-x="579" 
d="M439 562v-38h-295v38h295zM429 420q61 11 106 52v-472h-106v182q-13 -88 -66.5 -139.5t-139.5 -51.5q-91 0 -135.5 38.5t-44.5 125.5v265q59 10 106 52v-355q0 -59 28.5 -84.5t84.5 -25.5q67 0 117 61t50 170v182z" />
    <glyph glyph-name="Uring" unicode="&#x16e;" horiz-adv-x="657" 
d="M342 754q-44 0 -70 15.5t-26 40.5t26 40.5t70 15.5q43 0 69.5 -15.5t26.5 -40.5t-26.5 -40.5t-69.5 -15.5zM342 859q-20 0 -31.5 -13.5t-11.5 -35.5t11.5 -35.5t31.5 -13.5t31.5 13.5t11.5 35.5t-11.5 35.5t-31.5 13.5zM615 244q2 -121 -58.5 -187t-202.5 -66
q-166 1 -239 68t-73 198v443h107v-458q0 -246 205 -247q260 0 255 247v458h6v-456z" />
    <glyph glyph-name="uring" unicode="&#x16f;" horiz-adv-x="579" 
d="M292 519q-44 0 -70 15.5t-26 40.5t26 40.5t70 15.5q43 0 69.5 -15.5t26.5 -40.5t-26.5 -40.5t-69.5 -15.5zM292 624q-20 0 -31.5 -13.5t-11.5 -35.5t11.5 -35.5t31.5 -13.5t31.5 13.5t11.5 35.5t-11.5 35.5t-31.5 13.5zM429 420q61 11 106 52v-472h-106v182
q-13 -88 -66.5 -139.5t-139.5 -51.5q-91 0 -135.5 38.5t-44.5 125.5v265q59 10 106 52v-355q0 -59 28.5 -84.5t84.5 -25.5q67 0 117 61t50 170v182z" />
    <glyph glyph-name="Uhungarumlaut" unicode="&#x170;" horiz-adv-x="657" 
d="M403 884q-80 -83 -165 -129h-7q47 59 67 129h105zM392 755h-8q46 58 68 129h104q-80 -83 -164 -129zM615 244q2 -121 -58.5 -187t-202.5 -66q-166 1 -239 68t-73 198v443h107v-458q0 -246 205 -247q260 0 255 247v458h6v-456z" />
    <glyph glyph-name="uhungarumlaut" unicode="&#x171;" horiz-adv-x="579" 
d="M353 649q-80 -83 -165 -129h-7q47 59 67 129h105zM342 520h-8q46 58 68 129h104q-80 -83 -164 -129zM429 420q61 11 106 52v-472h-106v182q-13 -88 -66.5 -139.5t-139.5 -51.5q-91 0 -135.5 38.5t-44.5 125.5v265q59 10 106 52v-355q0 -59 28.5 -84.5t84.5 -25.5
q67 0 117 61t50 170v182z" />
    <glyph glyph-name="Uogonek" unicode="&#x172;" horiz-adv-x="657" 
d="M399 -7q-57 -54 -57 -99q0 -30 17 -41t54 -11v-53q-124 0 -124 82q0 59 99 121q-11 -1 -34 -1q-166 1 -239 68t-73 198v443h107v-458q0 -246 205 -247q260 0 255 247v458h6v-456q5 -232 -216 -251z" />
    <glyph glyph-name="uogonek" unicode="&#x173;" horiz-adv-x="579" 
d="M474 -102q0 -30 17 -41t54 -11v-53q-124 0 -124 82q0 60 105 125h-97v182q-13 -88 -66.5 -139.5t-139.5 -51.5q-91 0 -135.5 38.5t-44.5 125.5v265q59 10 106 52v-355q0 -59 28.5 -84.5t84.5 -25.5q67 0 117 61t50 170v182q61 11 106 52v-472h-1q-60 -56 -60 -102z" />
    <glyph glyph-name="Wcircumflex" unicode="&#x174;" horiz-adv-x="1164" 
d="M604 829l-132 -74h-7l139 129l141 -129h-8zM1152 700l-303 -709l-263 581l-262 -581l-312 709h116l255 -565l253 565h6l257 -572l247 572h6z" />
    <glyph glyph-name="wcircumflex" unicode="&#x175;" horiz-adv-x="891" 
d="M483 594l-132 -74h-7l139 129l141 -129h-8zM876 467l-241 -477l-187 363l-177 -363l-256 477h116l190 -361l176 361h6l183 -363l183 363h7z" />
    <glyph glyph-name="Ycircumflex" unicode="&#x176;" horiz-adv-x="703" 
d="M356 829l-132 -74h-7l139 129l141 -129h-8zM691 700l-274 -379v-321h-108v296l-297 404h127l273 -374l271 374h8z" />
    <glyph glyph-name="ycircumflex" unicode="&#x177;" horiz-adv-x="500" 
d="M261 594l-132 -74h-7l139 129l141 -129h-8zM486 467h7l-235 -478l-75 -189h-96l168 194l-247 473h114l187 -360z" />
    <glyph glyph-name="Ydieresis" unicode="&#x178;" horiz-adv-x="703" 
d="M284 755q-22 0 -36 13t-14 33q0 19 14 31.5t36 12.5t37 -12.5t15 -31.5t-15 -32.5t-37 -13.5zM429 755q-22 0 -36.5 13t-14.5 33q0 19 14.5 31.5t36.5 12.5t36.5 -12.5t14.5 -31.5q0 -20 -14.5 -33t-36.5 -13zM691 700l-274 -379v-321h-108v296l-297 404h127l273 -374
l271 374h8z" />
    <glyph glyph-name="Zacute" unicode="&#x179;" horiz-adv-x="667" 
d="M445 884q-80 -83 -165 -129h-7q47 59 67 129h105zM161 4q201 3 299 32.5t173 119.5v-156h-595l454 696q-182 -1 -280.5 -30.5t-165.5 -98.5v134l569 -1z" />
    <glyph glyph-name="zacute" unicode="&#x17a;" horiz-adv-x="487" 
d="M357 649q-80 -83 -165 -129h-7q47 59 67 129h105zM142 3l330 14v-17h-454l327 464l-316 -10v17l433 -4z" />
    <glyph glyph-name="Zdotaccent" unicode="&#x17b;" horiz-adv-x="667" 
d="M333 756q-22 0 -36 13t-14 33q0 19 14 31.5t36 12.5t36 -12.5t14 -31.5q0 -20 -14 -33t-36 -13zM161 4q201 3 299 32.5t173 119.5v-156h-595l454 696q-182 -1 -280.5 -30.5t-165.5 -98.5v134l569 -1z" />
    <glyph glyph-name="zdotaccent" unicode="&#x17c;" horiz-adv-x="487" 
d="M246 521q-22 0 -36 13t-14 33q0 19 14 31.5t36 12.5t36 -12.5t14 -31.5q0 -20 -14 -33t-36 -13zM142 3l330 14v-17h-454l327 464l-316 -10v17l433 -4z" />
    <glyph glyph-name="Zcaron" unicode="&#x17d;" horiz-adv-x="667" 
d="M479 884l-140 -129l-140 129h7l133 -75l132 75h8zM161 4q201 3 299 32.5t173 119.5v-156h-595l454 696q-182 -1 -280.5 -30.5t-165.5 -98.5v134l569 -1z" />
    <glyph glyph-name="zcaron" unicode="&#x17e;" horiz-adv-x="487" 
d="M392 649l-140 -129l-140 129h7l133 -75l132 75h8zM142 3l330 14v-17h-454l327 464l-316 -10v17l433 -4z" />
    <glyph glyph-name="uni0218" unicode="&#x218;" horiz-adv-x="664" 
d="M356 412q44 -12 66 -18.5t58 -19t54.5 -22.5t42 -27t34.5 -35t19.5 -43t8.5 -55q0 -53 -25.5 -93.5t-68 -63t-92 -34t-102.5 -11.5q-114 0 -198.5 35t-110 92t22.5 130h4q7 -42 28.5 -85t56 -81.5t86.5 -62.5t111 -24q102 -1 159.5 35t57.5 95q0 31 -11.5 54.5t-27 38.5
t-51 29.5t-62.5 22.5t-83 23q-58 17 -89.5 27t-74 30t-64 40t-37.5 52t-16 72q0 68 43.5 114t103.5 64t131 18q65 0 120 -15t91 -40.5t55 -57.5t16 -68t-29 -70h-4q-4 40 -21 81t-46 79.5t-76.5 62.5t-105.5 24q-93 1 -150 -36t-57 -97q0 -17 4 -32t15.5 -28t20 -22
t30 -19.5t33 -16t41 -15t42 -13.5t47.5 -14zM309 -44h72q8 -161 -137 -206l-2 2q75 64 67 204z" />
    <glyph glyph-name="uni0219" unicode="&#x219;" horiz-adv-x="520" 
d="M280 291q43 -11 68.5 -18.5t55.5 -20.5t45.5 -28t26.5 -37.5t11 -51.5q0 -70 -63.5 -107.5t-155.5 -37.5q-134 0 -201.5 53.5t-12.5 122.5h3q3 -27 18 -55.5t40 -55.5t65 -44t87 -17q83 -1 126.5 22t43.5 62q0 19 -10.5 33t-34.5 24.5t-44.5 17t-59.5 16.5q-18 5 -27 7
q-40 10 -68 18t-59 22t-49.5 30t-30.5 40t-12 54q0 65 62.5 102.5t148.5 37.5q52 0 95 -10.5t69.5 -27.5t40.5 -38.5t11.5 -45.5t-21.5 -46h-3q-4 61 -50.5 113t-135.5 51q-84 1 -125.5 -24.5t-41.5 -62.5q0 -17 10.5 -30t37.5 -24.5t47.5 -18t66.5 -18.5q17 -5 26 -7z
M229 -51h72q8 -161 -137 -206l-2 2q75 64 67 204z" />
    <glyph glyph-name="uni021A" unicode="&#x21a;" horiz-adv-x="731" 
d="M713 700v-135q-55 63 -124.5 96.5t-169.5 34.5v-696h-107v696q-103 -1 -171.5 -33.5t-122.5 -97.5v135h695zM333 -43h72q8 -161 -137 -206l-2 2q75 64 67 204z" />
    <glyph glyph-name="uni021B" unicode="&#x21b;" horiz-adv-x="514" 
d="M485 155h5q-27 -76 -71 -120t-124 -44q-89 0 -128.5 41.5t-39.5 122.5l1 296l-125 -15v3q80 12 130 75t53 126h3q25 -19 33 -47.5t-2 -51.5q-13 -61 -146 -92l157 18l235 32v-67l-234 32v-296q0 -62 24.5 -86t78.5 -24q104 2 150 97zM222 -43h72q8 -161 -137 -206l-2 2
q75 64 67 204z" />
    <glyph glyph-name="uni0237" unicode="&#x237;" horiz-adv-x="203" 
d="M53 424q53 8 106 51v-518q-2 -169 -165 -169q-133 0 -173 150h5q42 -82 127 -82q48 0 74 29.5t26 83.5v455z" />
    <glyph glyph-name="circumflex" unicode="&#x2c6;" horiz-adv-x="369" 
d="M325 500h-8l-133 74l-132 -74h-7l139 129z" />
    <glyph glyph-name="caron" unicode="&#x2c7;" horiz-adv-x="369" 
d="M317 629h8l-140 -129l-140 129h7l133 -75z" />
    <glyph glyph-name="breve" unicode="&#x2d8;" horiz-adv-x="379" 
d="M328 614h7q-15 -53 -53 -83.5t-92 -30.5t-92.5 31t-52.5 83h6q15 -29 52 -46t87 -17t86.5 17t51.5 46z" />
    <glyph glyph-name="dotaccent" unicode="&#x2d9;" horiz-adv-x="190" 
d="M95 500q-22 0 -36 13t-14 33q0 19 14 31.5t36 12.5t36 -12.5t14 -31.5q0 -20 -14 -33t-36 -13z" />
    <glyph glyph-name="ring" unicode="&#x2da;" horiz-adv-x="282" 
d="M141 499q-44 0 -70 15.5t-26 40.5t26 40.5t70 15.5q43 0 69.5 -15.5t26.5 -40.5t-26.5 -40.5t-69.5 -15.5zM141 506q20 0 31.5 13.5t11.5 35.5t-11.5 35.5t-31.5 13.5t-31.5 -13.5t-11.5 -35.5t11.5 -35.5t31.5 -13.5z" />
    <glyph glyph-name="ogonek" unicode="&#x2db;" horiz-adv-x="213" 
d="M98 -95q0 -30 17 -41t54 -11v-53q-124 0 -124 82q0 60 105 125h8q-60 -56 -60 -102z" />
    <glyph glyph-name="tilde" unicode="&#x2dc;" horiz-adv-x="351" 
d="M233 601q57 0 73 -93h-7q-18 42 -59 42q-22 0 -59 -25t-63 -25q-56 0 -73 93h6q18 -42 60 -42q23 0 59.5 25t62.5 25z" />
    <glyph glyph-name="hungarumlaut" unicode="&#x2dd;" horiz-adv-x="415" 
d="M112 629h105q-80 -83 -165 -129h-7q47 59 67 129zM266 629h104q-80 -83 -164 -129h-8q46 58 68 129z" />
    <glyph glyph-name="gravecomb" unicode="&#x300;" 
d="M-112 629q22 -71 68 -129h-7q-85 46 -165 129h104z" />
    <glyph glyph-name="acutecomb" unicode="&#x301;" 
d="M-149 629h105q-80 -83 -165 -129h-7q47 59 67 129z" />
    <glyph glyph-name="uni0302" unicode="&#x302;" 
d="M-44 500h-8l-133 74l-132 -74h-7l139 129z" />
    <glyph glyph-name="tildecomb" unicode="&#x303;" 
d="M-118 601q30 0 47.5 -22.5t25.5 -70.5h-7q-18 42 -59 42q-23 0 -59.5 -25t-62.5 -25q-56 0 -73 93h6q18 -42 60 -42q22 0 59 25t63 25z" />
    <glyph glyph-name="uni0304" unicode="&#x304;" 
d="M-339 542h295v-38h-295v38z" />
    <glyph glyph-name="uni0306" unicode="&#x306;" 
d="M-51 614h7q-15 -53 -53 -83.5t-92 -30.5t-92.5 31t-52.5 83h6q15 -29 52 -46t87 -17t86.5 17t51.5 46z" />
    <glyph glyph-name="uni0307" unicode="&#x307;" 
d="M-95 500q-22 0 -36 13t-14 33q0 19 14 31.5t36 12.5t36 -12.5t14 -31.5q0 -20 -14 -33t-36 -13z" />
    <glyph glyph-name="uni0308" unicode="&#x308;" 
d="M-241 500q-22 0 -36 13t-14 33q0 19 14 31.5t36 12.5t37 -12.5t15 -31.5t-15 -32.5t-37 -13.5zM-96 500q-22 0 -36.5 13t-14.5 33q0 19 14.5 31.5t36.5 12.5t36.5 -12.5t14.5 -31.5q0 -20 -14.5 -33t-36.5 -13z" />
    <glyph glyph-name="uni030A" unicode="&#x30a;" 
d="M-141 499q-44 0 -70 15.5t-26 40.5t26 40.5t70 15.5q43 0 69.5 -15.5t26.5 -40.5t-26.5 -40.5t-69.5 -15.5zM-141 506q20 0 31.5 13.5t11.5 35.5t-11.5 35.5t-31.5 13.5t-31.5 -13.5t-11.5 -35.5t11.5 -35.5t31.5 -13.5z" />
    <glyph glyph-name="uni030B" unicode="&#x30b;" 
d="M-303 629h105q-80 -83 -165 -129h-7q47 59 67 129zM-149 629h104q-80 -83 -164 -129h-8q46 58 68 129z" />
    <glyph glyph-name="uni030C" unicode="&#x30c;" 
d="M-52 629h8l-140 -129l-140 129h7l133 -75z" />
    <glyph glyph-name="uni0312" unicode="&#x312;" 
d="M-48 724l3 -2q-54 -59 -82 -222h-71q21 168 150 224z" />
    <glyph glyph-name="uni0326" unicode="&#x326;" 
d="M-182 -230l-2 2q75 64 67 204h72q8 -161 -137 -206z" />
    <glyph glyph-name="uni0327" unicode="&#x327;" 
d="M-159 4l4 -3l-27 -68q137 0 137 -61q0 -72 -175 -72v5q122 0 122 61q0 51 -106 51z" />
    <glyph glyph-name="uni0328" unicode="&#x328;" 
d="M-115 -95q0 -30 17 -41t54 -11v-53q-124 0 -124 82q0 60 105 125h8q-60 -56 -60 -102z" />
    <glyph glyph-name="uni0335" unicode="&#x335;" 
d="M-399 587h355v-5h-355v5z" />
    <glyph glyph-name="uni0337" unicode="&#x337;" 
d="M-265 310l219 120l2 -5l-219 -120z" />
    <glyph glyph-name="Wgrave" unicode="&#x1e80;" horiz-adv-x="1164" 
d="M666 755q-85 46 -165 129h104q22 -71 68 -129h-7zM1152 700l-303 -709l-263 581l-262 -581l-312 709h116l255 -565l253 565h6l257 -572l247 572h6z" />
    <glyph glyph-name="wgrave" unicode="&#x1e81;" horiz-adv-x="891" 
d="M545 520q-85 46 -165 129h104q22 -71 68 -129h-7zM876 467l-241 -477l-187 363l-177 -363l-256 477h116l190 -361l176 361h6l183 -363l183 363h7z" />
    <glyph glyph-name="Wacute" unicode="&#x1e82;" horiz-adv-x="1164" 
d="M717 884q-80 -83 -165 -129h-7q47 59 67 129h105zM1152 700l-303 -709l-263 581l-262 -581l-312 709h116l255 -565l253 565h6l257 -572l247 572h6z" />
    <glyph glyph-name="wacute" unicode="&#x1e83;" horiz-adv-x="891" 
d="M596 649q-80 -83 -165 -129h-7q47 59 67 129h105zM876 467l-241 -477l-187 363l-177 -363l-256 477h116l190 -361l176 361h6l183 -363l183 363h7z" />
    <glyph glyph-name="Wdieresis" unicode="&#x1e84;" horiz-adv-x="1164" 
d="M531 755q-22 0 -36 13t-14 33q0 19 14 31.5t36 12.5t37 -12.5t15 -31.5t-15 -32.5t-37 -13.5zM676 755q-22 0 -36.5 13t-14.5 33q0 19 14.5 31.5t36.5 12.5t36.5 -12.5t14.5 -31.5q0 -20 -14.5 -33t-36.5 -13zM1152 700l-303 -709l-263 581l-262 -581l-312 709h116
l255 -565l253 565h6l257 -572l247 572h6z" />
    <glyph glyph-name="wdieresis" unicode="&#x1e85;" horiz-adv-x="891" 
d="M411 520q-22 0 -36 13t-14 33q0 19 14 31.5t36 12.5t37 -12.5t15 -31.5t-15 -32.5t-37 -13.5zM556 520q-22 0 -36.5 13t-14.5 33q0 19 14.5 31.5t36.5 12.5t36.5 -12.5t14.5 -31.5q0 -20 -14.5 -33t-36.5 -13zM876 467l-241 -477l-187 363l-177 -363l-256 477h116
l190 -361l176 361h6l183 -363l183 363h7z" />
    <glyph glyph-name="Ygrave" unicode="&#x1ef2;" horiz-adv-x="703" 
d="M418 755q-85 46 -165 129h104q22 -71 68 -129h-7zM691 700l-274 -379v-321h-108v296l-297 404h127l273 -374l271 374h8z" />
    <glyph glyph-name="ygrave" unicode="&#x1ef3;" horiz-adv-x="500" 
d="M323 520q-85 46 -165 129h104q22 -71 68 -129h-7zM486 467h7l-235 -478l-75 -189h-96l168 194l-247 473h114l187 -360z" />
    <glyph glyph-name="endash" unicode="&#x2013;" horiz-adv-x="511" 
d="M344 314v-65h-177v65h177z" />
    <glyph glyph-name="emdash" unicode="&#x2014;" horiz-adv-x="811" 
d="M759 318v-73h-706v73h706z" />
    <glyph glyph-name="quoteleft" unicode="&#x2018;" horiz-adv-x="220" 
d="M115 590q27 0 43.5 -19t16.5 -44q0 -28 -18 -46t-46 -18q-31 0 -48.5 26.5t-17.5 64.5q0 55 26 101.5t80 63.5l2 -2q-41 -18 -60.5 -61.5t-17.5 -84.5q12 19 40 19z" />
    <glyph glyph-name="quoteright" unicode="&#x2019;" horiz-adv-x="220" 
d="M109 719q31 0 48.5 -26.5t17.5 -64.5q0 -55 -26 -101.5t-80 -63.5l-2 2q41 18 60.5 62t17.5 85q-12 -20 -40 -20q-27 0 -43.5 19t-16.5 44q0 28 18 46t46 18z" />
    <glyph glyph-name="quotesinglbase" unicode="&#x201a;" horiz-adv-x="220" 
d="M109 112q31 0 48.5 -26.5t17.5 -64.5q0 -55 -26 -101.5t-80 -63.5l-2 2q41 18 60.5 62t17.5 85q-12 -20 -40 -20q-27 0 -43.5 19t-16.5 44q0 28 18 46t46 18z" />
    <glyph glyph-name="quotedblleft" unicode="&#x201c;" horiz-adv-x="379" 
d="M115 590q27 0 43.5 -19t16.5 -44q0 -28 -18 -46t-46 -18q-31 0 -48.5 26.5t-17.5 64.5q0 55 26 101.5t80 63.5l2 -2q-41 -18 -60.5 -61.5t-17.5 -84.5q12 19 40 19zM274 590q27 0 43.5 -19t16.5 -44q0 -28 -18 -46t-46 -18q-31 0 -48.5 26.5t-17.5 64.5q0 55 26 101.5
t80 63.5l2 -2q-42 -18 -61 -61.5t-17 -85.5q12 20 40 20z" />
    <glyph glyph-name="quotedblright" unicode="&#x201d;" horiz-adv-x="379" 
d="M109 719q31 0 48.5 -26.5t17.5 -64.5q0 -55 -26 -101.5t-80 -63.5l-2 2q41 18 60.5 62t17.5 85q-12 -20 -40 -20q-27 0 -43.5 19t-16.5 44q0 28 18 46t46 18zM268 719q31 0 48.5 -26.5t17.5 -64.5q0 -55 -26 -101.5t-80 -63.5l-2 2q41 18 60.5 62t17.5 85
q-12 -20 -40 -20q-27 0 -43.5 19t-16.5 44q0 28 18 46t46 18z" />
    <glyph glyph-name="quotedblbase" unicode="&#x201e;" horiz-adv-x="379" 
d="M109 112q31 0 48.5 -26t17.5 -64q0 -55 -26 -102t-80 -64l-2 2q41 18 60.5 62.5t17.5 85.5q-12 -21 -40 -21q-27 0 -43.5 19t-16.5 44q0 28 18 46t46 18zM268 112q31 0 48.5 -26t17.5 -64q0 -55 -26 -102t-80 -64l-2 2q41 18 60.5 62.5t17.5 85.5q-12 -21 -40 -21
q-27 0 -43.5 19t-16.5 44q0 28 18 46t46 18z" />
    <glyph glyph-name="dagger" unicode="&#x2020;" horiz-adv-x="489" 
d="M445 467v-13h-194v-554h-13v553h-193v13h193v234h13v-233h194z" />
    <glyph glyph-name="daggerdbl" unicode="&#x2021;" horiz-adv-x="489" 
d="M445 454h-194v-87h194v-13h-194v-454h-13v453h-193v13h193v87h-193v13h193v234h13v-233h194v-13z" />
    <glyph glyph-name="bullet" unicode="&#x2022;" horiz-adv-x="393" 
d="M197 139q-58 0 -98 40t-40 99q0 58 40 98.5t98 40.5q57 0 97 -40.5t40 -98.5t-40 -98.5t-97 -40.5z" />
    <glyph glyph-name="ellipsis" unicode="&#x2026;" horiz-adv-x="708" 
d="M109 -5q-27 0 -45.5 18.5t-18.5 45.5t18.5 46t45.5 19q26 0 45 -19t19 -46t-19 -45.5t-45 -18.5zM354 -5q-27 0 -45.5 18.5t-18.5 45.5t18.5 46t45.5 19t45.5 -19t18.5 -46t-18.5 -45.5t-45.5 -18.5zM600 -5q-27 0 -45.5 18.5t-18.5 45.5t18.5 46t45.5 19q26 0 45 -19
t19 -46t-19 -45.5t-45 -18.5z" />
    <glyph glyph-name="perthousand" unicode="&#x2030;" horiz-adv-x="1103" 
d="M199 -10l330 720h12l-330 -720h-12zM191 339q-66 0 -113.5 52.5t-47.5 131.5q0 80 47 132.5t114 52.5t114 -52.5t47 -132.5q0 -79 -47.5 -131.5t-113.5 -52.5zM191 341q50 0 75.5 53.5t25.5 128.5t-25.5 129t-75.5 54t-75.5 -54t-25.5 -129t25.5 -128.5t75.5 -53.5z
M535 -4q-66 0 -113 52.5t-47 131.5q0 80 47 132.5t113 52.5q67 0 114 -52.5t47 -132.5q0 -79 -47.5 -131.5t-113.5 -52.5zM909 -4q-66 0 -113 52.5t-47 131.5q0 80 47 132.5t113 52.5q67 0 114 -52.5t47 -132.5q0 -79 -47.5 -131.5t-113.5 -52.5zM535 -2q51 0 76.5 53.5
t25.5 128.5t-26 129t-76 54t-75.5 -54t-25.5 -129t25.5 -128.5t75.5 -53.5zM909 -2q50 0 76 53.5t26 128.5t-26 129t-76 54t-75.5 -54t-25.5 -129t25.5 -128.5t75.5 -53.5z" />
    <glyph glyph-name="guilsinglleft" unicode="&#x2039;" horiz-adv-x="341" 
d="M318 465l-181 -220l181 -220h-5l-266 220l266 220h5z" />
    <glyph glyph-name="guilsinglright" unicode="&#x203a;" horiz-adv-x="351" 
d="M28 465l266 -220l-266 -220h-5l181 220l-181 220h5z" />
    <glyph glyph-name="Euro" unicode="&#x20ac;" horiz-adv-x="784" 
d="M753 160h7q-36 -81 -106 -125t-166 -44q-134 0 -230 84t-113 221h-108v5h108q-3 24 -3 48q0 26 3 50h-88v5h88q18 138 113.5 221.5t229.5 83.5q169 0 252 -134h-8q-38 60 -96 93t-128 33q-103 0 -170.5 -82t-79.5 -215h447v-5h-448q-2 -32 -2 -50q0 -16 2 -48h428v-5
h-428q12 -133 80 -215t171 -82q82 0 146 42t99 119z" />
    <glyph glyph-name="trademark" unicode="&#x2122;" horiz-adv-x="966" 
d="M437 700v-76q-64 73 -166 74v-393h-60v393q-107 -1 -166 -74v76h392zM921 700v-395h-61v391l-168 -315l-196 316q0 -180 8.5 -255t39.5 -137h-52v395h69l160 -252l-9 -21l147 273h62z" />
    <glyph glyph-name="minus" unicode="&#x2212;" horiz-adv-x="529" 
d="M484 256v-10h-439v10h439z" />
    <glyph glyph-name="notequal" unicode="&#x2260;" horiz-adv-x="530" 
d="M484 376h-179l-17 -38h196v-10h-201l-155 -338h-12l155 338h-226v10h231l17 38h-248v10h253l148 324h12l-148 -324h174v-10z" />
    <glyph glyph-name="greaterequal" unicode="&#xe701;" horiz-adv-x="689" 
d="M405 495l240 -240l-240 -240l-3 4l234 234q-378 0 -591 -8v20q213 -8 591 -8l-234 234z" />
    <glyph glyph-name="lessequal" unicode="&#xe702;" horiz-adv-x="689" 
d="M645 265v-20q-213 8 -591 8l234 -234l-3 -4l-240 240l240 240l3 -4l-234 -234q378 0 591 8z" />
    <glyph glyph-name="plusminus" unicode="&#xe703;" horiz-adv-x="1259" 
d="M974 495l240 -240l-240 -240l-3 4l234 234q-333 0 -560 -7v-1q-10 0 -15 1q-6 -1 -16 -1v1q-227 7 -560 7l234 -234l-3 -4l-240 240l240 240l3 -4l-234 -234q333 0 560 7v1q10 0 16 -1q5 1 15 1v-1q227 -7 560 -7l-234 234z" />
    <glyph glyph-name="R.ss01" horiz-adv-x="700" 
d="M546 0l-378 340h-3v-340h-108v700h348q106 0 177.5 -45t71.5 -135q0 -59 -44.5 -101.5t-104 -60.5t-122.5 -18h-87l397 -340h-147zM165 696v-352h216q81 0 122.5 47t41.5 129q0 81 -43 128.5t-116 47.5h-221z" />
    <glyph glyph-name="Racute.ss01" horiz-adv-x="700" 
d="M457 884q-80 -83 -165 -129h-7q47 59 67 129h105zM546 0l-378 340h-3v-340h-108v700h348q106 0 177.5 -45t71.5 -135q0 -59 -44.5 -101.5t-104 -60.5t-122.5 -18h-87l397 -340h-147zM165 696v-352h216q81 0 122.5 47t41.5 129q0 81 -43 128.5t-116 47.5h-221z" />
    <glyph glyph-name="Rcaron.ss01" horiz-adv-x="700" 
d="M492 884l-140 -129l-140 129h7l133 -75l132 75h8zM546 0l-378 340h-3v-340h-108v700h348q106 0 177.5 -45t71.5 -135q0 -59 -44.5 -101.5t-104 -60.5t-122.5 -18h-87l397 -340h-147zM165 696v-352h216q81 0 122.5 47t41.5 129q0 81 -43 128.5t-116 47.5h-221z" />
    <glyph glyph-name="uni0156.ss01" horiz-adv-x="700" 
d="M296 340l397 -340h-147l-378 340h-3v-340h-108v700h348q106 0 177.5 -45t71.5 -135q0 -59 -44.5 -101.5t-104 -60.5t-122.5 -18h-87zM165 696v-352h216q81 0 122.5 47t41.5 129q0 81 -43 128.5t-116 47.5h-221zM315 -54h72q8 -161 -137 -206l-2 2q75 64 67 204z" />
    <glyph glyph-name="i.loclTRK" horiz-adv-x="195" 
d="M98 546q-29 0 -48 17.5t-19 43.5q0 25 19 42.5t48 17.5t48 -17.5t19 -42.5q0 -26 -19 -43.5t-48 -17.5zM45 0v423q60 11 105 52v-475h-105z" />
    <glyph glyph-name="t.001" horiz-adv-x="517" 
d="M488 156h5q-27 -77 -70.5 -121t-124.5 -44q-90 0 -129.5 41.5t-39.5 123.5l1 296l-127 -15v3q81 13 131.5 75t53.5 125h3q25 -20 33 -48t-3 -51q-14 -62 -146 -91l158 17l147 24v-57l-146 30v-295q0 -62 24.5 -86t78.5 -24q106 0 151 97z" />
    <glyph glyph-name="w.001" horiz-adv-x="877" 
d="M864 467l-238 -478l-185 364l-176 -364l-252 478h116l186 -361l175 361h6l180 -362l181 362h7z" />
    <glyph glyph-name="l.002" horiz-adv-x="195" 
d="M45 0v667q61 9 105 52v-719h-105z" />
    <glyph glyph-name="j.calt" horiz-adv-x="200" 
d="M97 546q-29 0 -48 17.5t-19 43.5q0 25 19 42.5t48 17.5t48 -17.5t19 -42.5q0 -26 -19 -43.5t-48 -17.5zM-30 -204v2q47 4 62.5 34.5t15.5 82.5v510q48 8 105 50v-531q0 -72 -41.5 -110t-141.5 -38z" />
    <glyph glyph-name="uni0237.calt" horiz-adv-x="200" 
d="M-30 -204v2q47 4 62.5 34.5t15.5 82.5v510q48 8 105 50v-531q0 -72 -41.5 -110t-141.5 -38z" />
    <glyph glyph-name="f_f_j.liga" horiz-adv-x="1100" 
d="M727 706q-33 0 -56.5 -12t-35 -27.5t-18 -41.5t-7.5 -42.5t-1 -43.5v-539h-105v517v8h-1q-28 181 -159 181q-33 0 -57 -12t-35.5 -27t-18 -41.5t-7.5 -43t-1 -43.5v-72h3l197 7v-67l-197 57h-3v-464h-105v464h-112v3h112v50q0 96 52 144t171 48q78 0 121.5 -31.5
t50.5 -79.5q37 111 212 111h323v-83zM957 424q52 8 105 51v-518q0 -79 -40.5 -124t-123.5 -45q-134 0 -174 150h6q40 -82 127 -82q48 0 73.5 29.5t26.5 83.5v455zM885 474v-67l-275 57v3z" />
    <glyph glyph-name="hyphen.case" horiz-adv-x="414" 
d="M53 338h309v-73h-309v73z" />
    <glyph glyph-name="endash.case" horiz-adv-x="511" 
d="M344 334v-65h-177v65h177z" />
    <glyph glyph-name="emdash.case" horiz-adv-x="811" 
d="M759 338v-73h-706v73h706z" />
    <glyph glyph-name="uni0326.002" 
d="M-182 -230l-2 2q75 64 67 204h72q8 -161 -137 -206z" />
    <glyph glyph-name="uni0335.case" 
d="M-469 353h395v-5h-395v5z" />
    <glyph glyph-name="uni0337.case" 
d="M-527 310l300 128l2 -5l-300 -128z" />
    <glyph glyph-name="dotaccent.ij" horiz-adv-x="240" 
d="M120 536q-29 0 -48 17.5t-19 43.5q0 25 19 42.5t48 17.5t48 -17.5t19 -42.5q0 -26 -19 -43.5t-48 -17.5z" />
    <glyph glyph-name="questiondowncomp" horiz-adv-x="599" 
d="M468 23q76 -44 63 -106q-11 -56 -86 -90q-59 -27 -138 -27q-243 0 -243 159q0 15 2 28t8.5 26t10.5 22t16.5 21.5t17.5 18.5t23 19.5l24 18t28.5 20.5t28.5 20q81 57 112.5 88t28.5 67h5q14 -38 15.5 -68.5t-4.5 -52.5t-26 -45t-40 -39t-56 -41q-33 -25 -44.5 -34.5
t-34.5 -32t-31.5 -44t-8.5 -46.5q0 -46 37.5 -73.5t117.5 -27.5q45 0 80 13t55 35.5t32.5 51t11 59t-8.5 60.5h4z" />
    <glyph glyph-name="Hbarre" horiz-adv-x="763" 
d="M10 534v5h743v-5h-743z" />
    <glyph glyph-name="caront" horiz-adv-x="218" 
d="M108 621q31 0 48.5 -26.5t17.5 -64.5q0 -55 -26 -101.5t-80 -63.5l-2 2q41 18 60.5 61.5t17.5 84.5q-12 -19 -40 -19q-27 0 -43.5 19t-16.5 44q0 28 18 46t46 18z" />
    </font>
</defs>
</svg>
