<svg width="233" height="233" viewBox="0 0 233 233" fill="none" xmlns="http://www.w3.org/2000/svg">
<path d="M191.715 218.438H133.821L120.397 212.721L104.128 218.438H41.2847C33.7354 218.438 26.9269 215.323 22.0718 210.305L24.6355 188.14L14.5625 133.475V41.2847C14.5625 26.5038 26.5038 14.5625 41.2847 14.5625H120.254L171.216 30.2294L216.682 31.7213C217.816 34.6893 218.438 37.9131 218.438 41.2847V44.9958L207.494 69.9295L218.438 80.4919V191.715C218.438 206.496 206.496 218.438 191.715 218.438Z" fill="#321B41"/>
<path d="M191.715 14.5625H120.141C98.2969 35.8966 83.4431 56.8666 70.4097 75.2881C53.0075 99.9716 39.61 118.903 14.5625 133.392V191.715C14.5625 198.924 17.475 205.477 22.135 210.355C80.7491 186.691 105.724 151.523 129.898 117.301C150.868 87.5934 170.745 59.4878 216.617 31.7462C212.758 21.6981 203.147 14.5625 191.715 14.5625ZM104.049 218.437H133.902C149.921 150.576 181.158 109.146 218.438 80.5304V44.8523C168.634 77.4723 123.854 127.64 104.049 218.437ZM58.1771 40.0469C58.1771 42.0575 56.5472 43.6875 54.5365 43.6875C52.5258 43.6875 50.8959 42.0575 50.8959 40.0469C50.8959 38.0362 52.5258 36.4062 54.5365 36.4062C56.5472 36.4062 58.1771 38.0362 58.1771 40.0469ZM189.24 141.984C189.24 143.995 187.61 145.625 185.599 145.625C183.588 145.625 181.958 143.995 181.958 141.984C181.958 139.974 183.588 138.344 185.599 138.344C187.61 138.344 189.24 139.974 189.24 141.984ZM163.755 189.312C165.766 189.312 167.396 187.683 167.396 185.672C167.396 183.661 165.766 182.031 163.755 182.031C161.745 182.031 160.115 183.661 160.115 185.672C160.115 187.683 161.745 189.312 163.755 189.312ZM203.802 178.391C203.802 180.401 202.172 182.031 200.161 182.031C198.151 182.031 196.521 180.401 196.521 178.391C196.521 176.38 198.151 174.75 200.161 174.75C202.172 174.75 203.802 176.38 203.802 178.391ZM32.6927 80.0938C34.7034 80.0938 36.3334 78.4638 36.3334 76.4531C36.3334 74.4425 34.7034 72.8125 32.6927 72.8125C30.6821 72.8125 29.0521 74.4425 29.0521 76.4531C29.0521 78.4638 30.6821 80.0938 32.6927 80.0938Z" fill="#0074BA"/>
<path d="M115.481 64.0022L112.787 62.6915C112.423 62.5459 112.132 62.2547 111.986 61.8906L110.675 59.1965C110.02 57.8859 108.2 57.8859 107.617 59.1965L106.452 61.6722C106.307 62.0362 106.015 62.3275 105.651 62.4731L102.812 63.8565C101.574 64.5118 101.574 66.3322 102.812 66.9147L105.433 68.1525C105.797 68.2981 106.088 68.5893 106.234 68.9534L107.617 71.7931C108.273 73.0309 110.02 73.0309 110.675 71.7931L111.986 69.099C112.132 68.735 112.423 68.4437 112.787 68.2981L115.481 66.9875C116.792 66.405 116.792 64.5847 115.481 64.0022ZM78.5647 139.654L74.4872 137.688C73.9775 137.47 73.5406 137.033 73.3222 136.523L71.429 132.519C70.4825 130.626 67.7156 130.626 66.8418 132.519L65.0943 136.305C64.8759 136.815 64.439 137.252 63.9293 137.47L59.6334 139.582C57.7403 140.528 57.7403 143.222 59.6334 144.169L63.4925 145.989C64.0022 146.208 64.439 146.644 64.6575 147.154L66.769 151.377C67.7156 153.27 70.4097 153.27 71.3562 151.377L73.3222 147.3C73.5406 146.79 73.9775 146.353 74.4872 146.135L78.5647 144.169C80.5306 143.295 80.5306 140.528 78.5647 139.654ZM156.474 128.223L159.169 129.533C160.479 130.116 160.479 131.936 159.169 132.519L156.474 133.829C156.11 133.975 155.819 134.266 155.674 134.63L154.363 137.324C153.708 138.562 151.96 138.562 151.305 137.324L149.921 134.485C149.776 134.121 149.484 133.829 149.12 133.684L146.499 132.446C145.261 131.863 145.261 130.043 146.499 129.388L149.339 128.004C149.703 127.859 149.994 127.567 150.14 127.203L151.305 124.728C151.887 123.417 153.708 123.417 154.363 124.728L155.674 127.422C155.819 127.786 156.11 128.077 156.474 128.223Z" fill="#FCD53F"/>
<path d="M163.756 48.129L166.45 49.4397C167.76 50.0222 167.76 51.8425 166.45 52.425L163.756 53.7356C163.392 53.8812 163.1 54.1725 162.955 54.5365L161.644 57.2306C160.989 58.4684 159.241 58.4684 158.586 57.2306L157.203 54.3909C157.057 54.0268 156.766 53.7356 156.402 53.59L153.78 52.3522C152.543 51.7697 152.543 49.9493 153.78 49.294L156.62 47.9106C156.984 47.765 157.275 47.4737 157.421 47.1097L158.586 44.634C159.169 43.3234 160.989 43.3234 161.644 44.634L162.955 47.3281C163.1 47.6922 163.392 47.9834 163.756 48.129ZM105.506 120.942L108.2 122.252C109.51 122.835 109.51 124.655 108.2 125.237L105.506 126.548C105.142 126.694 104.85 126.985 104.705 127.349L103.394 130.043C102.739 131.281 100.991 131.281 100.336 130.043L98.9526 127.203C98.807 126.839 98.5157 126.548 98.1517 126.402L95.5304 125.165C94.2926 124.582 94.2926 122.762 95.5304 122.107L98.3701 120.723C98.7342 120.577 99.0254 120.286 99.171 119.922L100.336 117.447C100.919 116.136 102.739 116.136 103.394 117.447L104.705 120.141C104.85 120.505 105.142 120.796 105.506 120.942Z" fill="#26EAFC"/>
<path d="M134.63 87.375C136.641 87.375 138.271 85.745 138.271 83.7344C138.271 81.7237 136.641 80.0938 134.63 80.0938C132.62 80.0938 130.99 81.7237 130.99 83.7344C130.99 85.745 132.62 87.375 134.63 87.375ZM76.3802 101.938C78.3909 101.938 80.0209 100.308 80.0209 98.2969C80.0209 96.2862 78.3909 94.6562 76.3802 94.6562C74.3696 94.6562 72.7396 96.2862 72.7396 98.2969C72.7396 100.308 74.3696 101.938 76.3802 101.938ZM138.271 171.109C138.271 173.12 136.641 174.75 134.63 174.75C132.62 174.75 130.99 173.12 130.99 171.109C130.99 169.099 132.62 167.469 134.63 167.469C136.641 167.469 138.271 169.099 138.271 171.109Z" fill="#26EAFC"/>
<path fill-rule="evenodd" clip-rule="evenodd" d="M160.115 25.4844C160.115 27.495 158.485 29.125 156.474 29.125C154.463 29.125 152.833 27.495 152.833 25.4844C152.833 23.4737 154.463 21.8438 156.474 21.8438C158.485 21.8438 160.115 23.4737 160.115 25.4844ZM192.88 87.375C194.891 87.375 196.521 85.745 196.521 83.7344C196.521 81.7237 194.891 80.0938 192.88 80.0938C190.87 80.0938 189.24 81.7237 189.24 83.7344C189.24 85.745 190.87 87.375 192.88 87.375ZM39.974 174.75C37.9633 174.75 36.3334 173.12 36.3334 171.109C36.3334 169.099 37.9633 167.469 39.974 167.469C41.9847 167.469 43.6146 169.099 43.6146 171.109C43.6146 173.12 41.9847 174.75 39.974 174.75Z" fill="#F4F4F4"/>
</svg>
