<svg width="790" height="553" fill="none" xmlns="http://www.w3.org/2000/svg"><path d="M538.975 456.035c-3.686 46.871-44.671 81.878-91.542 78.192-46.87-3.686-81.878-44.671-78.192-91.541 3.686-46.871 44.671-81.879 91.542-78.193 46.87 3.687 81.878 44.671 78.192 91.542Z" fill="url(#a)"/><path d="M520.661 453.506c.373 33.367-25.993 55.888-58.891 50.302-32.898-5.585-59.87-37.162-60.244-70.529-.374-33.367 25.992-55.888 58.89-50.303 32.898 5.586 59.871 37.163 60.245 70.53Z" fill="url(#b)"/><path d="M515.875 475.766c6.859 37.863-17.028 58.267-53.354 45.573-36.325-12.694-71.333-53.679-78.192-91.542-6.859-37.863 17.028-58.267 53.354-45.573 36.325 12.694 71.333 53.679 78.192 91.542Z" fill="url(#c)"/><path d="M515.703 475.797c3.423 18.895-.832 33.389-10.424 41.581-9.592 8.193-24.573 10.131-42.7 3.796-18.127-6.334-35.936-19.732-50.071-36.281-14.135-16.548-24.585-36.233-28.007-55.127-3.423-18.895.832-33.389 10.424-41.582 9.592-8.192 24.572-10.13 42.7-3.795 18.127 6.334 35.936 19.732 50.071 36.281 14.135 16.548 24.584 36.233 28.007 55.127Z" stroke="url(#d)" stroke-opacity=".2" stroke-width=".349"/><mask id="g" fill="#fff"><path fill-rule="evenodd" clip-rule="evenodd" d="M500.532 485.119c.272-4.037-.08-8.543-1.121-13.46-6.04-28.527-33.012-60.104-60.244-70.529-4.694-1.798-9.09-2.849-13.119-3.212-2.076-27.076 16.811-40.51 44.888-30.245 30.479 11.142 60.247 45.992 66.487 77.838 5.749 29.337-10.472 45.891-36.891 39.608Z"/></mask><path fill-rule="evenodd" clip-rule="evenodd" d="M500.532 485.119c.272-4.037-.08-8.543-1.121-13.46-6.04-28.527-33.012-60.104-60.244-70.529-4.694-1.798-9.09-2.849-13.119-3.212-2.076-27.076 16.811-40.51 44.888-30.245 30.479 11.142 60.247 45.992 66.487 77.838 5.749 29.337-10.472 45.891-36.891 39.608Z" fill="url(#e)"/><path d="m499.411 471.659-.341.072.341-.072Zm1.121 13.46-.348-.024-.019.295.287.068.08-.339Zm-61.365-83.989.125-.326-.125.326Zm-13.119-3.212-.348.027.023.294.294.026.031-.347Zm44.888-30.245.12-.328-.12.328Zm66.487 77.838.343-.067-.343.067Zm-38.353 26.22c1.036 4.891 1.383 9.365 1.114 13.364l.697.047c.273-4.073-.082-8.612-1.128-13.556l-.683.145Zm-60.028-70.276c13.548 5.187 27.054 15.646 37.929 28.378 10.875 12.731 19.094 27.706 22.099 41.898l.683-.145c-3.036-14.334-11.322-29.411-22.252-42.206-10.929-12.796-24.525-23.338-38.209-28.576l-.25.651Zm-13.025-3.19c3.992.36 8.356 1.403 13.025 3.19l.25-.651c-4.719-1.807-9.146-2.867-13.213-3.234l-.062.695Zm.379-.374c-1.032-13.456 3.148-23.442 10.986-28.81 7.846-5.374 19.458-6.19 33.434-1.081l.24-.655c-14.1-5.155-25.971-4.386-34.068 1.16-8.106 5.551-12.332 15.82-11.288 29.44l.696-.054ZM470.816 368c15.17 5.546 30.185 17.002 42.188 31.054 12.003 14.053 20.971 30.674 24.077 46.524l.685-.134c-3.135-15.996-12.171-32.724-24.231-46.843-12.061-14.119-27.169-25.659-42.479-31.256l-.24.655Zm66.265 77.578c2.862 14.604.24 25.945-6.294 32.855-6.528 6.902-17.044 9.469-30.174 6.346l-.161.679c13.289 3.161 24.092.592 30.842-6.546 6.744-7.131 9.359-18.735 6.472-33.468l-.685.134Z" fill="url(#f)" fill-opacity=".3" mask="url(#g)"/><ellipse cx="453.072" cy="405.025" rx="103.971" ry="101.27" transform="rotate(-130.503 453.072 405.025)" fill="url(#h)" fill-opacity=".6" style="mix-blend-mode:lighten"/><path d="M330 312.176c59.978-51.232 150.274-43.976 201.68 16.207 51.406 60.182 44.457 150.502-15.521 201.734-59.979 51.232-150.274 43.976-201.681-16.207-51.406-60.182-44.457-150.502 15.522-201.734Z" fill="url(#i)" fill-opacity=".8" style="mix-blend-mode:lighten"/><path d="M499.41 471.658c6.04 28.527-11.139 43.201-38.371 32.776-27.231-10.426-54.203-42.003-60.244-70.53-6.04-28.526 11.139-43.2 38.371-32.775 27.232 10.426 54.204 42.003 60.244 70.529Z" fill="url(#j)"/><path d="M399.608 616.065c-46.724 6.69-83.327-5.541-104.779-30.654-21.451-25.113-27.809-63.178-13.897-108.282 13.913-45.105 45.455-88.67 85.217-122.634 39.763-33.964 87.723-58.308 134.448-64.998 46.724-6.69 83.327 5.541 104.778 30.654 21.451 25.114 27.81 63.179 13.898 108.282-13.913 45.105-45.455 88.67-85.218 122.634-39.762 33.964-87.722 58.308-134.447 64.998Z" stroke="url(#k)" stroke-width=".581"/><path d="M394.302 610.047c-46.778 6.698-83.47-5.542-104.987-30.733-21.518-25.191-27.872-63.345-13.943-108.501 13.928-45.157 45.5-88.756 85.288-122.742 39.788-33.986 87.788-58.354 134.566-65.052 46.778-6.698 83.471 5.543 104.988 30.733 21.517 25.191 27.871 63.346 13.943 108.502-13.929 45.156-45.501 88.756-85.289 122.742-39.788 33.986-87.787 58.354-134.566 65.051Z" stroke="url(#l)" stroke-width=".116"/><path d="M389.485 638.352c-54.711 6.765-98.016-8.588-123.84-38.821-25.825-30.234-34.219-75.406-18.984-128.387 15.236-52.984 51.213-103.71 97.077-142.886 45.863-39.175 101.591-66.78 156.304-73.546 54.711-6.765 98.016 8.588 123.841 38.821 25.824 30.234 34.219 75.406 18.984 128.387-15.236 52.983-51.214 103.71-97.077 142.886-45.864 39.175-101.591 66.78-156.305 73.546Z" stroke="url(#m)" stroke-width=".581"/><path d="M389.485 638.352c-54.711 6.765-98.016-8.588-123.84-38.821-25.825-30.234-34.219-75.406-18.984-128.387 15.236-52.984 51.213-103.71 97.077-142.886 45.863-39.175 101.591-66.78 156.304-73.546 54.711-6.765 98.016 8.588 123.841 38.821 25.824 30.234 34.219 75.406 18.984 128.387-15.236 52.983-51.214 103.71-97.077 142.886-45.864 39.175-101.591 66.78-156.305 73.546Z" stroke="url(#n)" stroke-opacity=".2" stroke-width=".581"/><path d="M384.638 632.661c-56.842 4.266-102.959-14.357-131.593-47.88-28.634-33.522-39.819-81.983-26.719-137.46 13.101-55.481 48.009-107.453 93.868-146.625 45.859-39.171 102.65-65.525 159.496-69.792 56.843-4.266 102.959 14.358 131.593 47.88 28.634 33.522 39.82 81.983 26.719 137.46-13.101 55.481-48.008 107.453-93.867 146.625-45.859 39.171-102.65 65.525-159.497 69.792Z" stroke="url(#o)" stroke-width=".581"/><path fill="#00F0FF" fill-opacity=".5" d="m370.838 411.054.173-2.2 2.2.173-.173 2.2z"/><path fill="#00F0FF" d="m370.928 321.954.071-.907.908.071-.072.907zm179.568-16.796-.094 1.191 1.192.094.093-1.191zm-146.755-7.091.108-1.372 1.372.108-.108 1.372zm3.952 20.073.064-.813.813.063-.064.814zm3.474 130.431.173-2.2 2.2.173-.173 2.2z"/><path fill="#0500FF" fill-opacity=".5" d="m347.094 487.828.173-2.2 2.2.173-.173 2.2z"/><path fill="#3DFFFB" d="m329.261 419.972.121-1.538 1.538.12-.12 1.539z"/><path fill="#0500FF" fill-opacity=".5" d="m510.313 518.48.225-2.862 2.862.225-.225 2.862z"/><path fill="#06F" fill-opacity=".5" d="m639.53 465.358.24-3.056 3.056.24-.24 3.056zm25.283-64.403.485-6.172 6.172.485-.485 6.172zm-70.262-88.999-.226 2.872 2.872.226.226-2.872zm72.366.73.24-3.056 3.056.24-.24 3.056zm10.945 208.73.24-3.056 3.056.24-.24 3.056z"/><path fill="#0500FF" fill-opacity=".5" d="m604.164 501.269.168-2.138 2.139.168-.169 2.138zm8.816 26.799.313-3.98 3.98.313-.313 3.98z"/><path fill="#06F" fill-opacity=".5" d="m540.742 400.175-2.515-.75.75-2.514 2.515.75z"/><path fill="#00D1FF" d="m490.538 365.268-2.047-.161.161-2.047 2.047.161z"/><path fill="#001AFF" fill-opacity=".5" d="m404.292 410.291 2.363.704.705-2.363-2.364-.704z"/><path fill="#06F" fill-opacity=".5" d="m417.887 349.861-2.515-.75.75-2.514 2.515.75zm176.645 28.295-2.515-.75.75-2.514 2.515.75z"/><path fill="#0500FF" fill-opacity=".5" d="m498.761 307.988-1.891-.149.149-1.89 1.89.148zm65.687 128.229-1.76-.524.525-1.76 1.76.525zm24.008-2.569-3.274-.976.976-3.274 3.274.976z"/><path fill="#00FFF0" fill-opacity=".6" d="m389.548 413.452.115-1.465 1.466.115-.116 1.465z"/><path fill="#00FFF0" d="m376.612 510.456.13-1.65 1.65.129-.13 1.65zm-55.51-115.952-.143 1.823 1.823.144.143-1.824zm36.588-25.915.153-1.94 1.94.153-.153 1.94z"/><path fill="#00FFF0" fill-opacity=".5" d="m500.08 444.809.153-1.94 1.94.153-.153 1.94zm-50.635 23.266.084-1.064 1.063.084-.083 1.064z"/><path fill="#0500FF" fill-opacity=".5" d="m414.463 533.902-.997-1.671 1.671-.997.997 1.671z"/><path fill="#00D1FF" fill-opacity=".6" d="m394.546 489.291.107-1.355 1.354.107-.106 1.355z"/><path fill="#6100FF" fill-opacity=".5" d="m407.889 500.176.287-3.652 3.652.287-.287 3.652z"/><g opacity=".5"><path fill="#00FFF0" fill-opacity=".6" d="m316.103 361.331.115-1.465 1.466.115-.116 1.465z"/><path fill="#00FFF0" d="m303.169 458.335.13-1.65 1.65.129-.13 1.65zm-55.51-115.95-.143 1.823 1.823.144.143-1.824zm36.587-25.917.153-1.94 1.94.153-.153 1.94z"/><path fill="#00FFF0" fill-opacity=".5" d="m426.637 392.688.153-1.94 1.94.153-.153 1.94zm-50.636 23.266.084-1.064 1.063.084-.083 1.064z"/><path fill="#0500FF" fill-opacity=".5" d="m341.021 481.781-.997-1.671 1.671-.997.997 1.671z"/><path fill="#00D1FF" fill-opacity=".6" d="m321.103 437.17.107-1.355 1.354.107-.106 1.355z"/><path fill="#6100FF" fill-opacity=".5" d="m334.446 448.057.287-3.652 3.652.287-.287 3.652z"/></g><path d="m495.421 512.56-2.604-13.554 12.981 4.691 2.604 13.555-12.981-4.692Z" fill="url(#p)"/><path d="m505.796 503.699-12.981-4.692-10.494 24.742 23.475-20.05Z" fill="url(#q)"/><path d="m505.797 503.701 2.62 13.551-26.095 6.499 23.475-20.05Z" fill="url(#r)"/><path d="m399.65 396.743-1.644-8.553 8.191 2.96 1.644 8.553-8.191-2.96Z" fill="url(#s)"/><path d="m406.199 391.149-8.192-2.961-6.623 15.615 14.815-12.654Z" fill="url(#t)" fill-opacity=".6"/><path d="m406.198 391.149 1.653 8.552-16.468 4.101 14.815-12.653Z" fill="url(#u)"/><path d="m344.243 328.727-2.809-14.121 13.572 4.805 2.81 14.122-13.573-4.806Z" fill="url(#v)"/><path d="m355.006 319.414-13.573-4.806-10.779 25.88 24.352-21.074Z" fill="url(#w)" fill-opacity=".6"/><path d="m355.005 319.414 2.826 14.117-27.177 6.957 24.351-21.074Z" fill="url(#x)"/><path d="m413.887 471.326-.827 6.485 4.822 5.502 5.879-.609-2.501-7.344-7.373-4.034Z" fill="url(#y)" fill-opacity=".7"/><path d="m397.222 495.563 17.746-4.78 8.017-1.101-25.763 5.881Z" fill="url(#z)" fill-opacity=".8"/><path d="m397.222 495.564 8.573-15.291 1.213-8.926-9.786 24.217Z" fill="url(#A)"/><path d="m407.006 471.349-1.21 8.93 7.263-2.467.828-6.487-6.881.024Z" fill="url(#B)" fill-opacity=".6"/><path d="m414.967 490.781-9.17-10.505 7.264-2.467 4.821 5.502-2.915 7.47Z" fill="url(#C)" fill-opacity=".6"/><path d="m414.967 490.784 8.018-1.103.776-6.978-5.879.609-2.915 7.472Z" fill="url(#D)" fill-opacity=".8"/><path d="m397.222 495.563 21.665-17.715 4.098 11.834-25.763 5.881Z" fill="url(#E)"/><path d="m397.222 495.562 21.663-17.715-11.877-6.501-9.786 24.216Z" fill="url(#F)"/><path d="m422.985 489.682-4.098-11.835 2.373-2.489 2.5 7.348-.775 6.976Z" fill="url(#G)" fill-opacity=".6"/><path d="m407.005 471.35 11.88 6.498 2.376-2.489-7.377-4.033-6.879.024Z" fill="url(#H)" fill-opacity=".6"/><path d="m397.025 280.415 13.23 23.775-20.783-4.005 7.553-19.77Z" fill="url(#I)"/><path d="m397.026 280.415 13.23 23.775 38.612-37.055-51.842 13.28Z" fill="url(#J)"/><path d="m365.039 283.998 24.443 16.185 7.544-19.768-31.987 3.583Z" fill="url(#K)"/><path d="m390.35 329.483-.868-29.301L365.04 284l-13.517 7.849 3.953 27.256 21.079 17.727 13.795-7.349Z" fill="url(#L)" fill-opacity=".5"/><path d="m379.094 321.531 23.339 7.093 7.823-24.434-13.23-23.775-24.888-6.231-6.274 23.572 13.23 23.775Z" fill="url(#M)" fill-opacity=".5"/><path d="m365.864 297.755 13.23 23.775-23.621-2.425 10.391-21.35Z" fill="url(#N)"/><path d="m365.864 297.756 13.23 23.775 69.774-54.398-83.004 30.623Z" fill="url(#O)" fill-opacity=".9"/><path d="m376.556 336.832 2.539-15.301-23.622-2.426 21.083 17.727Z" fill="url(#P)" fill-opacity=".5"/><path d="m351.523 291.847 14.341 5.908-10.39 21.352-3.951-27.26Z" fill="url(#Q)" fill-opacity=".5"/><path d="m376.556 336.834 2.538-15.302 23.339 7.093-25.877 8.209Z" fill="url(#R)"/><path d="m351.523 291.847 14.342 5.908 6.274-23.572-20.616 17.664Z" fill="url(#S)"/><path d="m351.523 291.847 14.342 5.908 6.274-23.572-20.616 17.664Z" fill="url(#T)" fill-opacity=".6"/><path d="m448.87 267.134-69.775 54.398 23.339 7.093 46.436-61.491Z" fill="url(#U)" fill-opacity=".9"/><path d="m448.869 267.133-83.006 30.62 6.274-23.572 76.732-7.048Z" fill="url(#V)" fill-opacity=".9"/><defs><linearGradient id="a" x1="490.984" y1="373.064" x2="430.434" y2="469.582" gradientUnits="userSpaceOnUse"><stop stop-color="#fff"/><stop offset=".166" stop-color="#71FFF6"/><stop offset=".552" stop-color="#4F75FF"/><stop offset="1" stop-color="#5E64FF" stop-opacity="0"/></linearGradient><linearGradient id="d" x1="446.565" y1="387.422" x2="423.018" y2="490.664" gradientUnits="userSpaceOnUse"><stop stop-color="#fff"/><stop offset="1" stop-color="#fff" stop-opacity="0"/></linearGradient><linearGradient id="e" x1="488.704" y1="383.982" x2="480.414" y2="456.374" gradientUnits="userSpaceOnUse"><stop stop-color="#fff"/><stop offset=".502" stop-color="#4FFFF4" stop-opacity=".1"/><stop offset="1" stop-color="#5ECFFF" stop-opacity=".6"/></linearGradient><linearGradient id="f" x1="481.795" y1="352.42" x2="494.05" y2="515.022" gradientUnits="userSpaceOnUse"><stop stop-color="#fff"/><stop offset="1" stop-color="#fff" stop-opacity="0"/></linearGradient><linearGradient id="k" x1="325.517" y1="306.926" x2="460.946" y2="465.475" gradientUnits="userSpaceOnUse"><stop stop-color="#8FBCFF" stop-opacity=".6"/><stop offset="1" stop-color="#8FBCFF" stop-opacity="0"/></linearGradient><linearGradient id="l" x1="353.31" y1="339.466" x2="528.906" y2="545.04" gradientUnits="userSpaceOnUse"><stop stop-color="#8FBCFF" stop-opacity=".6"/><stop offset="1" stop-color="#8FBCFF" stop-opacity="0"/></linearGradient><linearGradient id="m" x1="288.85" y1="264.001" x2="474.487" y2="481.329" gradientUnits="userSpaceOnUse"><stop stop-color="#fff" stop-opacity=".6"/><stop offset=".344" stop-color="#8FBCFF" stop-opacity=".6"/><stop offset="1" stop-color="#8FBCFF" stop-opacity="0"/></linearGradient><linearGradient id="n" x1="458.467" y1="266.016" x2="476.049" y2="342.166" gradientUnits="userSpaceOnUse"><stop stop-color="#FF48D7"/><stop offset=".234" stop-color="#fff" stop-opacity=".766"/><stop offset="1" stop-color="#FF48D7" stop-opacity="0"/></linearGradient><linearGradient id="o" x1="310.258" y1="289.063" x2="444.655" y2="446.405" gradientUnits="userSpaceOnUse"><stop stop-color="#8FBCFF" stop-opacity=".6"/><stop offset="1" stop-color="#8FBCFF" stop-opacity="0"/></linearGradient><linearGradient id="p" x1="492.151" y1="507.464" x2="509.067" y2="508.794" gradientUnits="userSpaceOnUse"><stop stop-color="#6083FF"/><stop offset="1" stop-color="#0C1E5E" stop-opacity="0"/></linearGradient><linearGradient id="q" x1="496.154" y1="497.241" x2="482.25" y2="523.665" gradientUnits="userSpaceOnUse"><stop offset=".171" stop-color="#3D3BA9"/><stop offset=".538" stop-color="#FF7BE2" stop-opacity=".8"/><stop offset=".792" stop-color="#fff"/></linearGradient><linearGradient id="r" x1="482.414" y1="523.859" x2="507.317" y2="515.731" gradientUnits="userSpaceOnUse"><stop stop-color="#3DDCFF"/><stop offset=".427" stop-color="#9D50FF" stop-opacity="0"/><stop offset=".977" stop-color="#3DDCFF"/></linearGradient><linearGradient id="s" x1="397.587" y1="393.527" x2="408.261" y2="394.366" gradientUnits="userSpaceOnUse"><stop stop-color="#6083FF"/><stop offset="1" stop-color="#0C1E5E" stop-opacity="0"/></linearGradient><linearGradient id="t" x1="400.114" y1="387.074" x2="391.34" y2="403.75" gradientUnits="userSpaceOnUse"><stop offset=".171" stop-color="#3D3BA9"/><stop offset=".538" stop-color="#FF7BE2" stop-opacity=".8"/><stop offset=".792" stop-color="#fff"/></linearGradient><linearGradient id="u" x1="391.441" y1="403.87" x2="407.157" y2="398.741" gradientUnits="userSpaceOnUse"><stop stop-color="#3DDCFF"/><stop offset=".427" stop-color="#9D50FF" stop-opacity=".5"/><stop offset=".977" stop-color="#3DDCFF"/></linearGradient><linearGradient id="v" x1="340.797" y1="323.433" x2="358.452" y2="324.706" gradientUnits="userSpaceOnUse"><stop stop-color="#6083FF"/><stop offset="1" stop-color="#0C1E5E" stop-opacity="0"/></linearGradient><linearGradient id="w" x1="344.903" y1="312.743" x2="330.58" y2="340.402" gradientUnits="userSpaceOnUse"><stop offset=".171" stop-color="#3D3BA9"/><stop offset=".538" stop-color="#FF7BE2" stop-opacity=".8"/><stop offset=".792" stop-color="#fff"/></linearGradient><linearGradient id="x" x1="330.751" y1="340.6" x2="356.673" y2="331.952" gradientUnits="userSpaceOnUse"><stop stop-color="#3DDCFF"/><stop offset=".427" stop-color="#9D50FF" stop-opacity=".5"/><stop offset=".977" stop-color="#3DDCFF"/></linearGradient><linearGradient id="y" x1="410.774" y1="475.709" x2="422.208" y2="476.404" gradientUnits="userSpaceOnUse"><stop stop-color="#6587FF"/><stop offset="1" stop-color="#D8E0FF" stop-opacity=".9"/></linearGradient><linearGradient id="z" x1="413.342" y1="481.794" x2="421.876" y2="496.888" gradientUnits="userSpaceOnUse"><stop offset=".135" stop-color="#fff"/><stop offset=".281" stop-color="#89F8FF" stop-opacity=".935"/><stop offset=".646" stop-color="#71F6FF" stop-opacity=".921"/><stop offset="1" stop-color="#4A72FF" stop-opacity=".9"/></linearGradient><linearGradient id="A" x1="397.288" y1="478.391" x2="405.035" y2="491.414" gradientUnits="userSpaceOnUse"><stop offset=".171" stop-color="#3D3BA9"/><stop offset=".538" stop-color="#FF7BE2" stop-opacity=".8"/><stop offset=".792" stop-color="#fff"/></linearGradient><linearGradient id="B" x1="410.161" y1="468.655" x2="414.088" y2="477.575" gradientUnits="userSpaceOnUse"><stop offset=".135" stop-color="#fff"/><stop offset=".281" stop-color="#89F8FF" stop-opacity=".935"/><stop offset=".646" stop-color="#71F6FF" stop-opacity=".921"/><stop offset="1" stop-color="#4A72FF" stop-opacity=".9"/></linearGradient><linearGradient id="C" x1="408.654" y1="477.836" x2="405.315" y2="487.379" gradientUnits="userSpaceOnUse"><stop offset=".135" stop-color="#fff"/><stop offset=".281" stop-color="#89F8FF" stop-opacity=".935"/><stop offset=".646" stop-color="#71F6FF" stop-opacity=".921"/><stop offset="1" stop-color="#4A72FF" stop-opacity=".9"/></linearGradient><linearGradient id="D" x1="422.555" y1="482.878" x2="426.086" y2="489.67" gradientUnits="userSpaceOnUse"><stop offset=".135" stop-color="#fff"/><stop offset=".281" stop-color="#89F8FF" stop-opacity=".935"/><stop offset=".646" stop-color="#71F6FF" stop-opacity=".921"/><stop offset="1" stop-color="#4A72FF" stop-opacity=".9"/></linearGradient><linearGradient id="E" x1="405.306" y1="504.857" x2="409.677" y2="481.096" gradientUnits="userSpaceOnUse"><stop stop-color="#3DDCFF"/><stop offset=".427" stop-color="#9D50FF" stop-opacity="0"/><stop offset=".977" stop-color="#3DDCFF"/></linearGradient><linearGradient id="F" x1="415.922" y1="468.651" x2="414.217" y2="502.476" gradientUnits="userSpaceOnUse"><stop offset=".171" stop-color="#3D3BA9"/><stop offset=".538" stop-color="#FF7BE2" stop-opacity=".8"/><stop offset=".792" stop-color="#fff"/></linearGradient><linearGradient id="G" x1="422.156" y1="475.054" x2="424.45" y2="489.224" gradientUnits="userSpaceOnUse"><stop offset=".135" stop-color="#fff"/><stop offset=".281" stop-color="#89F8FF" stop-opacity=".935"/><stop offset=".646" stop-color="#71F6FF" stop-opacity=".921"/><stop offset="1" stop-color="#4A72FF" stop-opacity=".9"/></linearGradient><linearGradient id="H" x1="411.115" y1="476.162" x2="418.556" y2="469.807" gradientUnits="userSpaceOnUse"><stop stop-color="#3E5ABE"/><stop offset="1" stop-color="#3E5ABE" stop-opacity="0"/></linearGradient><linearGradient id="I" x1="378.096" y1="322.085" x2="358.72" y2="294.51" gradientUnits="userSpaceOnUse"><stop stop-color="#fff"/><stop offset=".227" stop-color="#47FFDE" stop-opacity=".8"/><stop offset="1" stop-color="#6D61FF" stop-opacity=".5"/></linearGradient><linearGradient id="J" x1="378.097" y1="322.087" x2="358.72" y2="294.512" gradientUnits="userSpaceOnUse"><stop stop-color="#fff"/><stop offset=".227" stop-color="#47FFDE" stop-opacity=".8"/><stop offset="1" stop-color="#6D61FF" stop-opacity=".5"/></linearGradient><linearGradient id="K" x1="370.774" y1="274.943" x2="380.431" y2="294.518" gradientUnits="userSpaceOnUse"><stop stop-color="#fff"/><stop offset=".227" stop-color="#47FFDE" stop-opacity=".8"/><stop offset="1" stop-color="#6D61FF" stop-opacity=".5"/></linearGradient><linearGradient id="L" x1="397.657" y1="295.633" x2="347.302" y2="323.654" gradientUnits="userSpaceOnUse"><stop stop-color="#6D61FF"/><stop offset="1" stop-color="#47FFDE"/></linearGradient><linearGradient id="N" x1="378.096" y1="322.085" x2="358.719" y2="294.51" gradientUnits="userSpaceOnUse"><stop stop-color="#fff"/><stop offset=".227" stop-color="#47FFDE" stop-opacity=".8"/><stop offset="1" stop-color="#6D61FF" stop-opacity=".5"/></linearGradient><linearGradient id="O" x1="370.679" y1="320.713" x2="410.69" y2="341.329" gradientUnits="userSpaceOnUse"><stop offset=".073" stop-color="#4B86FA" stop-opacity=".8"/><stop offset=".792" stop-color="#FCA6EF" stop-opacity=".8"/><stop offset="1" stop-color="#fff"/></linearGradient><linearGradient id="P" x1="378.737" y1="320.889" x2="353.963" y2="319.789" gradientUnits="userSpaceOnUse"><stop stop-color="#7BFFE7" stop-opacity=".8"/><stop offset="1" stop-color="#322994" stop-opacity=".5"/></linearGradient><linearGradient id="Q" x1="366.221" y1="298.397" x2="349.781" y2="295.551" gradientUnits="userSpaceOnUse"><stop stop-color="#7BFFE7" stop-opacity=".9"/><stop offset="1" stop-color="#322994" stop-opacity=".5"/></linearGradient><linearGradient id="R" x1="401.069" y1="329.384" x2="371.279" y2="318.456" gradientUnits="userSpaceOnUse"><stop stop-color="#fff"/><stop offset=".587" stop-color="#47FFDE" stop-opacity=".9"/><stop offset="1" stop-color="#6D61FF" stop-opacity=".5"/></linearGradient><linearGradient id="S" x1="352.459" y1="291.902" x2="367.512" y2="300.593" gradientUnits="userSpaceOnUse"><stop stop-color="#0A3892"/><stop offset=".536" stop-color="#29B2ED" stop-opacity=".8"/><stop offset=".968" stop-color="#fff"/></linearGradient><linearGradient id="T" x1="362.55" y1="300.621" x2="361.637" y2="284.853" gradientUnits="userSpaceOnUse"><stop stop-color="#FF439D"/><stop offset="1" stop-color="#FF43D6" stop-opacity="0"/></linearGradient><linearGradient id="U" x1="439.721" y1="292.059" x2="421.152" y2="274.224" gradientUnits="userSpaceOnUse"><stop offset=".073" stop-color="#4B86FA" stop-opacity=".8"/><stop offset=".792" stop-color="#FCA6EF" stop-opacity=".8"/><stop offset="1" stop-color="#fff"/></linearGradient><linearGradient id="V" x1="298.59" y1="286.089" x2="333.438" y2="212.511" gradientUnits="userSpaceOnUse"><stop offset=".073" stop-color="#4B86FA" stop-opacity=".8"/><stop offset=".792" stop-color="#FCA6EF" stop-opacity=".8"/><stop offset="1" stop-color="#fff"/></linearGradient><radialGradient id="b" cx="0" cy="0" r="1" gradientUnits="userSpaceOnUse" gradientTransform="matrix(15.79373 -74.16999 88.52416 18.8503 455.092 467.562)"><stop offset=".406" stop-color="#3330B1" stop-opacity=".1"/><stop offset=".679" stop-color="#58FFFF" stop-opacity=".5"/><stop offset="1" stop-color="#fff"/></radialGradient><radialGradient id="c" cx="0" cy="0" r="1" gradientUnits="userSpaceOnUse" gradientTransform="matrix(-53.01117 80.6343 -138.11658 -90.80157 449.519 393.707)"><stop stop-color="#fff"/><stop offset=".298" stop-color="#5EF5FF"/><stop offset=".538" stop-color="#3432BD"/><stop offset=".914" stop-color="#171940"/></radialGradient><radialGradient id="h" cx="0" cy="0" r="1" gradientUnits="userSpaceOnUse" gradientTransform="matrix(12.90155 79.46408 -81.6316 13.25346 453.072 412.202)"><stop offset=".073" stop-color="#fff"/><stop offset=".508" stop-color="#C173FF" stop-opacity=".9"/><stop offset="1" stop-color="#0E26FF" stop-opacity="0"/></radialGradient><radialGradient id="i" cx="0" cy="0" r="1" gradientUnits="userSpaceOnUse" gradientTransform="matrix(73.6669 -86.31202 86.75622 74.04602 430.777 414.572)"><stop offset=".073" stop-color="#8785FF"/><stop offset="1" stop-color="#3E0EFF" stop-opacity="0"/></radialGradient><radialGradient id="j" cx="0" cy="0" r="1" gradientUnits="userSpaceOnUse" gradientTransform="matrix(55.5777 -81.43997 143.29094 97.78713 404.49 505.598)"><stop stop-color="#3330B1"/><stop offset="1" stop-color="#0A0926"/></radialGradient><radialGradient id="M" cx="0" cy="0" r="1" gradientUnits="userSpaceOnUse" gradientTransform="matrix(-22.42929 -40.30575 23.0715 -12.8388 388.06 300.973)"><stop stop-color="#6D61FF"/><stop offset="1" stop-color="#47FFDE"/></radialGradient></defs></svg>