<svg width="473" height="342" fill="none" xmlns="http://www.w3.org/2000/svg"><path d="M472.182 176.592c0 36.369-26.283 69.362-68.924 93.282-42.631 23.914-101.548 38.715-166.642 38.715-65.095 0-124.011-14.801-166.642-38.715-42.642-23.92-68.924-56.913-68.924-93.282S27.332 107.23 69.974 83.31c42.631-23.914 101.547-38.715 166.642-38.715 65.094 0 124.011 14.801 166.642 38.715 42.641 23.92 68.924 56.913 68.924 93.282Z" stroke="url(#a)" stroke-width=".657"/><path d="M393.867 219.228c0 21.923-15.47 41.855-40.666 56.331-25.184 14.469-60.004 23.432-98.489 23.432-38.485 0-73.305-8.963-98.489-23.432-25.196-14.476-40.666-34.408-40.666-56.331 0-21.924 15.47-41.856 40.666-56.332 25.184-14.468 60.004-23.432 98.489-23.432 38.485 0 73.305 8.964 98.489 23.432 25.196 14.476 40.666 34.408 40.666 56.332Z" fill="url(#b)" stroke="url(#c)" stroke-width=".876"/><ellipse cx="260.471" cy="249.431" rx="71.785" ry="40.268" fill="url(#d)" fill-opacity=".6"/><g filter="url(#e)"><path fill-rule="evenodd" clip-rule="evenodd" d="M260.47 289.699c50.271 0 91.023-21.884 91.023-48.88 0-26.996-40.752-48.881-91.023-48.881-50.27 0-91.023 21.885-91.023 48.881s40.753 48.88 91.023 48.88Zm0 0c39.646 0 71.785-18.029 71.785-40.268 0-22.24-32.139-40.268-71.785-40.268-39.645 0-71.785 18.028-71.785 40.268 0 22.239 32.14 40.268 71.785 40.268Z" fill="url(#f)" fill-opacity=".6" shape-rendering="crispEdges"/></g><g filter="url(#g)"><path fill-rule="evenodd" clip-rule="evenodd" d="M260.472 294.057c71.806 0 130.016-32.654 130.016-72.934 0-40.279-58.21-72.933-130.016-72.933-71.807 0-130.017 32.654-130.017 72.933 0 40.28 58.21 72.934 130.017 72.934Zm-.001-4.358c50.271 0 91.023-21.885 91.023-48.881s-40.752-48.88-91.023-48.88c-50.27 0-91.023 21.884-91.023 48.88 0 26.996 40.753 48.881 91.023 48.881Z" fill="url(#h)" shape-rendering="crispEdges"/></g><path fill-rule="evenodd" clip-rule="evenodd" d="M260.68 287.731c32.406-.063 58.64-14.819 58.64-33.011 0-18.232-26.348-33.012-58.849-33.012-32.502 0-58.85 14.78-58.85 33.012 0 18.193 26.237 32.949 58.644 33.011-25.589-.062-46.299-11.718-46.299-26.087 0-14.408 20.821-26.087 46.505-26.087s46.506 11.679 46.506 26.087c0 14.369-20.709 26.024-46.297 26.087Z" fill="url(#i)"/><path d="M358.628 236.605c0 15.104-10.917 28.834-28.69 38.804-17.764 9.965-42.324 16.137-69.467 16.137s-51.702-6.172-69.467-16.137c-17.773-9.97-28.69-23.7-28.69-38.804 0-15.104 10.917-28.835 28.69-38.804 17.765-9.965 42.324-16.137 69.467-16.137s51.703 6.172 69.467 16.137c17.773 9.969 28.69 23.7 28.69 38.804Z" stroke="url(#j)" stroke-width=".547"/><path fill="#00FFF0" d="m147.482 235.221.69.69-.69.692-.69-.691zm10.392 19.491 1.398 1.398-1.398 1.398-1.398-1.398zm36.173 1.398-.65-.65-.65.65.65.65zm-15.182 17.416.69.69-.69.692-.69-.691zm-52.939-40.624.69.69-.69.692-.69-.691z"/><path fill="#00FFF0" fill-opacity=".5" d="m131.148 199.957.69.69-.69.692-.69-.691zm14.95 19.232.484.484-.484.483-.484-.483zm-8.333-3.416.902.902-.902.901-.902-.901z"/><circle cx="276.1" cy="249.451" r="62.316" fill="url(#k)" fill-opacity=".5"/><circle cx="276.1" cy="249.431" r="92.306" fill="url(#l)" fill-opacity=".6"/><g filter="url(#m)" shape-rendering="crispEdges"><ellipse cx="276.099" cy="278.145" rx="49.12" ry="30.772" fill="url(#n)" fill-opacity=".5"/><path d="M325 278.145c0 8.395-5.432 16.028-14.284 21.574-8.849 5.544-21.087 8.98-34.617 8.98-13.529 0-25.768-3.436-34.617-8.98-8.852-5.546-14.284-13.179-14.284-21.574 0-8.395 5.432-16.028 14.284-21.574 8.849-5.543 21.088-8.979 34.617-8.979 13.53 0 25.768 3.436 34.617 8.979C319.568 262.117 325 269.75 325 278.145Z" stroke="url(#o)" stroke-opacity=".6" stroke-width=".438"/></g><circle cx="276.099" cy="249.452" r="62.316" fill="url(#p)"/><g filter="url(#q)"><ellipse cx="276.1" cy="259.755" rx="60.925" ry="35.642" fill="url(#r)" fill-opacity=".5" shape-rendering="crispEdges"/></g><g filter="url(#s)" shape-rendering="crispEdges"><ellipse cx="276.099" cy="237.627" rx="60.305" ry="34.818" fill="url(#t)" fill-opacity=".5"/><path d="M336.185 237.627c0 9.503-6.673 18.149-17.553 24.43-10.874 6.279-25.911 10.169-42.533 10.169-16.621 0-31.658-3.89-42.532-10.169-10.88-6.281-17.554-14.927-17.554-24.43s6.674-18.149 17.554-24.43c10.874-6.279 25.911-10.169 42.532-10.169 16.622 0 31.659 3.89 42.533 10.169 10.88 6.281 17.553 14.927 17.553 24.43Z" stroke="url(#u)" stroke-opacity=".6" stroke-width=".438"/></g><g filter="url(#v)"><ellipse cx="276.1" cy="209.141" rx="29.126" ry="19.741" fill="url(#w)" fill-opacity=".5" shape-rendering="crispEdges"/></g><circle cx="276.099" cy="249.451" r="46.159" fill="url(#x)"/><g filter="url(#y)"><path d="M322.674 219.647c0 8.253-5.175 15.755-13.605 21.204-8.428 5.448-20.084 8.824-32.971 8.824-12.886 0-24.542-3.376-32.97-8.824-8.43-5.449-13.606-12.951-13.606-21.204s5.176-15.755 13.606-21.204c8.428-5.447 20.084-8.824 32.97-8.824 12.887 0 24.543 3.377 32.971 8.824 8.43 5.449 13.605 12.951 13.605 21.204Z" stroke="url(#z)" stroke-opacity=".6" stroke-width=".438" shape-rendering="crispEdges"/></g><g filter="url(#A)"><path d="M336.185 237.627c0 9.503-6.673 18.149-17.553 24.43-10.874 6.279-25.911 10.169-42.533 10.169-16.621 0-31.658-3.89-42.532-10.169-10.88-6.281-17.554-14.927-17.554-24.43s6.674-18.149 17.554-24.43c10.874-6.279 25.911-10.169 42.532-10.169 16.622 0 31.659 3.89 42.533 10.169 10.88 6.281 17.553 14.927 17.553 24.43Z" stroke="url(#B)" stroke-opacity=".6" stroke-width=".438" shape-rendering="crispEdges"/></g><g filter="url(#C)"><path d="M336.806 259.755c0 9.732-6.745 18.584-17.737 25.014-10.986 6.427-26.177 10.409-42.969 10.409s-31.984-3.982-42.97-10.409c-10.991-6.43-17.736-15.282-17.736-25.014 0-9.733 6.745-18.584 17.736-25.014 10.986-6.427 26.178-10.409 42.97-10.409 16.792 0 31.983 3.982 42.969 10.409 10.992 6.43 17.737 15.281 17.737 25.014Z" stroke="url(#D)" stroke-opacity=".6" stroke-width=".438" shape-rendering="crispEdges"/></g><g filter="url(#E)"><path d="M305.008 209.141c0 5.357-3.204 10.233-8.435 13.778-5.23 3.545-12.468 5.745-20.473 5.745-8.005 0-15.242-2.2-20.472-5.745-5.232-3.545-8.435-8.421-8.435-13.778 0-5.357 3.203-10.232 8.435-13.778 5.23-3.544 12.467-5.744 20.472-5.744s15.243 2.2 20.473 5.744c5.231 3.546 8.435 8.421 8.435 13.778Z" stroke="url(#F)" stroke-opacity=".6" stroke-width=".438" shape-rendering="crispEdges"/></g><circle cx="178.419" cy="209.163" r="35.365" fill="url(#G)" fill-opacity=".6"/><g filter="url(#H)" shape-rendering="crispEdges"><ellipse cx="174.07" cy="218.981" rx="22.222" ry="13.922" fill="url(#I)" fill-opacity=".5"/><path d="M196.074 218.981c0 3.742-2.422 7.162-6.406 9.658-3.982 2.495-9.496 4.045-15.598 4.045s-11.616-1.55-15.597-4.045c-3.984-2.496-6.406-5.916-6.406-9.658 0-3.742 2.422-7.163 6.406-9.659 3.981-2.494 9.495-4.044 15.597-4.044s11.616 1.55 15.598 4.044c3.984 2.496 6.406 5.917 6.406 9.659Z" stroke="url(#J)" stroke-opacity=".6" stroke-width=".438"/></g><circle cx="174.071" cy="205.999" r="28.193" fill="url(#K)"/><g filter="url(#L)" shape-rendering="crispEdges"><ellipse cx="174.07" cy="210.661" rx="27.563" ry="16.125" fill="url(#M)" fill-opacity=".5"/><path d="M201.414 210.661c0 4.342-3.01 8.314-7.964 11.213-4.949 2.895-11.801 4.693-19.38 4.693-7.579 0-14.431-1.798-19.379-4.693-4.954-2.899-7.965-6.871-7.965-11.213 0-4.343 3.011-8.315 7.965-11.213 4.948-2.896 11.8-4.693 19.379-4.693 7.579 0 14.431 1.797 19.38 4.693 4.954 2.898 7.964 6.87 7.964 11.213Z" stroke="url(#N)" stroke-opacity=".6" stroke-width=".438"/></g><circle cx="174.071" cy="205.999" r="20.883" fill="url(#O)"/><circle cx="174.071" cy="205.999" r="20.883" fill="url(#P)"/><g filter="url(#Q)" shape-rendering="crispEdges"><ellipse cx="174.072" cy="200.65" rx="27.283" ry="15.752" fill="url(#R)" fill-opacity=".5"/><path d="M201.135 200.65c0 4.238-2.977 8.117-7.881 10.949-4.898 2.828-11.68 4.584-19.182 4.584-7.503 0-14.284-1.756-19.183-4.584-4.904-2.832-7.881-6.711-7.881-10.949 0-4.239 2.977-8.117 7.881-10.949 4.899-2.828 11.68-4.584 19.183-4.584 7.502 0 14.284 1.756 19.182 4.584 4.904 2.832 7.881 6.71 7.881 10.949Z" stroke="url(#S)" stroke-opacity=".6" stroke-width=".438"/></g><g filter="url(#T)" shape-rendering="crispEdges"><ellipse cx="174.071" cy="192.516" rx="21.171" ry="13.684" fill="url(#U)" fill-opacity=".5"/><path d="M195.022 192.516c0 3.68-2.307 7.041-6.1 9.492-3.791 2.45-9.041 3.973-14.851 3.973-5.81 0-11.06-1.523-14.851-3.973-3.793-2.451-6.101-5.812-6.101-9.492 0-3.68 2.308-7.041 6.101-9.492 3.791-2.451 9.041-3.973 14.851-3.973 5.81 0 11.06 1.522 14.851 3.973 3.793 2.451 6.1 5.812 6.1 9.492Z" stroke="url(#V)" stroke-opacity=".6" stroke-width=".438"/></g><g filter="url(#W)" shape-rendering="crispEdges"><ellipse cx="174.071" cy="187.763" rx="13.177" ry="8.931" fill="url(#X)" fill-opacity=".5"/><path d="M187.029 187.763c0 2.372-1.418 4.545-3.763 6.134-2.344 1.589-5.594 2.578-9.195 2.578s-6.851-.989-9.195-2.578c-2.345-1.589-3.763-3.762-3.763-6.134 0-2.372 1.418-4.545 3.763-6.134 2.344-1.589 5.594-2.578 9.195-2.578s6.851.989 9.195 2.578c2.345 1.589 3.763 3.762 3.763 6.134Z" stroke="url(#Y)" stroke-opacity=".6" stroke-width=".438"/></g><circle cx="174.071" cy="205.999" r="28.193" fill="url(#Z)" fill-opacity=".9"/><path fill="#06F" fill-opacity=".5" d="m102.002 105.692.819.819-.819.819-.819-.82zm12.297 23.065 1.654 1.654-1.654 1.654-1.654-1.654zm42.805 1.654-.77-.77-.769.77.77.77zm-17.966 20.607.819.819-.819.819-.819-.82zm-62.642-48.071.819.819-.82.819-.818-.819z"/><path fill="#0500FF" fill-opacity=".5" d="m82.675 63.964.819.819-.819.819-.819-.82zm17.689 22.756.571.572-.571.572-.571-.572zm-9.86-4.042 1.067 1.066-1.067 1.067-1.066-1.067z"/><path fill="#06F" fill-opacity=".5" d="m37.686 238.036 1.138 1.139-1.138 1.138-1.139-1.138zm17.096 32.069 2.3 2.3-2.3 2.299-2.3-2.3zm59.516 2.3-1.07-1.07-1.07 1.07 1.07 1.07zm-24.979 28.653 1.138 1.138-1.138 1.139-1.139-1.139zM2.22 234.221l1.139 1.138-1.138 1.139-1.139-1.139z"/><path fill="#0500FF" fill-opacity=".5" d="m10.812 180.019 1.139 1.138-1.139 1.139-1.138-1.139zm24.596 31.64.796.795-.796.796-.795-.796zm-13.71-5.62 1.483 1.483-1.483 1.483-1.483-1.483z"/><path fill="#06F" fill-opacity=".5" d="m387.941 149.531 1.157-.748.748 1.157-1.157.748zm29.906-8.553 2.338-1.512 1.512 2.337-2.338 1.513zm12.603-49.394-1.087.703.703 1.088 1.087-.704zm19.498 26.046 1.157-.748.749 1.157-1.157.748zm-71.563 60.897 1.157-.748.748 1.157-1.157.748z"/><path fill="#0500FF" fill-opacity=".5" d="m334.566 161.611 1.157-.748.748 1.157-1.157.748zm30.893-14.907.808-.523.522.808-.808.523zm-7.165 10.465 1.507-.975.975 1.507-1.507.975z"/><path fill="#06F" fill-opacity=".5" d="m311.73 106.17 2.744.469-.468 2.744-2.745-.469zm42.706-27.836-1.277-.218-.217 1.277 1.276.218zm-3.271 32.37 1.358.232-.232 1.358-1.358-.232zm-93.897-3.594 1.358.232-.232 1.358-1.358-.232z"/><path fill="#0500FF" fill-opacity=".5" d="m236.453 65.004 1.358.232-.232 1.358-1.358-.232zm32.833 9.93.948.162-.162.949-.948-.162zm-12.356 2.857 1.77.302-.303 1.77-1.77-.303z"/><defs><linearGradient id="a" x1="149.825" y1="400.657" x2="211.759" y2="101.452" gradientUnits="userSpaceOnUse"><stop stop-color="#fff"/><stop offset=".509" stop-color="#30FFFF"/><stop offset="1" stop-color="#fff" stop-opacity="0"/></linearGradient><linearGradient id="c" x1="183.691" y1="296.298" x2="255.638" y2="177.003" gradientUnits="userSpaceOnUse"><stop stop-color="#fff"/><stop offset=".443" stop-color="#30FFFF"/><stop offset="1" stop-color="#fff" stop-opacity="0"/></linearGradient><linearGradient id="j" x1="210.392" y1="289.664" x2="251.67" y2="179.563" gradientUnits="userSpaceOnUse"><stop stop-color="#fff"/><stop offset=".509" stop-color="#30FFFF"/><stop offset="1" stop-color="#fff" stop-opacity="0"/></linearGradient><linearGradient id="n" x1="325.219" y1="271.485" x2="227.01" y2="278.573" gradientUnits="userSpaceOnUse"><stop stop-color="#4E53BE" stop-opacity=".5"/><stop offset=".885" stop-color="#33CEFF" stop-opacity=".7"/><stop offset="1" stop-color="#fff" stop-opacity=".5"/></linearGradient><linearGradient id="o" x1="284.684" y1="322.279" x2="290.808" y2="254.189" gradientUnits="userSpaceOnUse"><stop stop-color="#fff"/><stop offset="1" stop-color="#fff" stop-opacity="0"/></linearGradient><linearGradient id="r" x1="330.761" y1="257.694" x2="215.226" y2="261.362" gradientUnits="userSpaceOnUse"><stop stop-color="#4E53BE" stop-opacity=".1"/><stop offset="1" stop-color="#33CEFF"/></linearGradient><linearGradient id="t" x1="321.825" y1="234.53" x2="215.869" y2="239.296" gradientUnits="userSpaceOnUse"><stop stop-color="#4E53BE" stop-opacity=".1"/><stop offset=".997" stop-color="#33CEFF"/></linearGradient><linearGradient id="u" x1="286.64" y1="287.563" x2="293.033" y2="210.428" gradientUnits="userSpaceOnUse"><stop stop-color="#fff"/><stop offset="1" stop-color="#fff" stop-opacity="0"/></linearGradient><linearGradient id="w" x1="305.226" y1="204.868" x2="246.948" y2="208.756" gradientUnits="userSpaceOnUse"><stop stop-color="#4E53BE" stop-opacity=".1"/><stop offset="1" stop-color="#33CEFF" stop-opacity=".9"/></linearGradient><linearGradient id="z" x1="281.404" y1="249.894" x2="284.531" y2="195.044" gradientUnits="userSpaceOnUse"><stop stop-color="#fff"/><stop offset="1" stop-color="#fff" stop-opacity="0"/></linearGradient><linearGradient id="B" x1="279.096" y1="273.358" x2="286.236" y2="208.36" gradientUnits="userSpaceOnUse"><stop stop-color="#fff"/><stop offset="1" stop-color="#fff" stop-opacity="0"/></linearGradient><linearGradient id="D" x1="280.539" y1="296.588" x2="281.743" y2="228.189" gradientUnits="userSpaceOnUse"><stop stop-color="#fff"/><stop offset="1" stop-color="#fff" stop-opacity="0"/></linearGradient><linearGradient id="F" x1="281.191" y1="237.454" x2="285.435" y2="193.832" gradientUnits="userSpaceOnUse"><stop stop-color="#fff"/><stop offset="1" stop-color="#fff" stop-opacity="0"/></linearGradient><linearGradient id="I" x1="196.293" y1="215.967" x2="151.862" y2="219.174" gradientUnits="userSpaceOnUse"><stop stop-color="#4E53BE" stop-opacity=".5"/><stop offset=".885" stop-color="#FB33FF" stop-opacity=".5"/><stop offset="1" stop-color="#fff" stop-opacity=".5"/></linearGradient><linearGradient id="J" x1="177.954" y1="238.947" x2="180.725" y2="208.143" gradientUnits="userSpaceOnUse"><stop stop-color="#fff"/><stop offset="1" stop-color="#fff" stop-opacity="0"/></linearGradient><linearGradient id="M" x1="201.633" y1="207.17" x2="146.566" y2="211.426" gradientUnits="userSpaceOnUse"><stop stop-color="#4E53BE" stop-opacity=".5"/><stop offset=".885" stop-color="#FB33FF" stop-opacity=".5"/><stop offset="1" stop-color="#fff" stop-opacity=".5"/></linearGradient><linearGradient id="N" x1="178.888" y1="233.787" x2="181.887" y2="198.071" gradientUnits="userSpaceOnUse"><stop stop-color="#fff"/><stop offset="1" stop-color="#fff" stop-opacity="0"/></linearGradient><linearGradient id="R" x1="201.354" y1="197.24" x2="146.856" y2="201.508" gradientUnits="userSpaceOnUse"><stop stop-color="#4E53BE" stop-opacity=".5"/><stop offset=".885" stop-color="#FB33FF" stop-opacity=".5"/><stop offset="1" stop-color="#fff" stop-opacity=".5"/></linearGradient><linearGradient id="S" x1="178.84" y1="223.242" x2="181.732" y2="188.345" gradientUnits="userSpaceOnUse"><stop stop-color="#fff"/><stop offset="1" stop-color="#fff" stop-opacity="0"/></linearGradient><linearGradient id="U" x1="195.241" y1="189.554" x2="152.9" y2="192.516" gradientUnits="userSpaceOnUse"><stop stop-color="#4E53BE" stop-opacity=".5"/><stop offset=".885" stop-color="#FB33FF" stop-opacity=".5"/><stop offset="1" stop-color="#fff" stop-opacity=".5"/></linearGradient><linearGradient id="V" x1="177.771" y1="212.142" x2="180.579" y2="181.878" gradientUnits="userSpaceOnUse"><stop stop-color="#fff"/><stop offset="1" stop-color="#fff" stop-opacity="0"/></linearGradient><linearGradient id="X" x1="187.248" y1="185.83" x2="160.882" y2="187.589" gradientUnits="userSpaceOnUse"><stop stop-color="#4E53BE" stop-opacity=".5"/><stop offset=".885" stop-color="#FB33FF" stop-opacity=".5"/><stop offset="1" stop-color="#fff" stop-opacity=".5"/></linearGradient><linearGradient id="Y" x1="176.374" y1="200.572" x2="178.294" y2="180.837" gradientUnits="userSpaceOnUse"><stop stop-color="#fff"/><stop offset="1" stop-color="#fff" stop-opacity="0"/></linearGradient><filter id="e" x="168.353" y="188.654" width="188.614" height="104.329" filterUnits="userSpaceOnUse" color-interpolation-filters="sRGB"><feFlood flood-opacity="0" result="BackgroundImageFix"/><feColorMatrix in="SourceAlpha" values="0 0 0 0 0 0 0 0 0 0 0 0 0 0 0 0 0 0 127 0" result="hardAlpha"/><feOffset dx="2.189"/><feGaussianBlur stdDeviation="1.642"/><feComposite in2="hardAlpha" operator="out"/><feColorMatrix values="0 0 0 0 0.119531 0 0 0 0 0.163828 0 0 0 0 0.5625 0 0 0 0.1 0"/><feBlend in2="BackgroundImageFix" result="effect1_dropShadow_1_696"/><feBlend in="SourceGraphic" in2="effect1_dropShadow_1_696" result="shape"/></filter><filter id="g" x="129.36" y="144.687" width="266.602" height="152.434" filterUnits="userSpaceOnUse" color-interpolation-filters="sRGB"><feFlood flood-opacity="0" result="BackgroundImageFix"/><feColorMatrix in="SourceAlpha" values="0 0 0 0 0 0 0 0 0 0 0 0 0 0 0 0 0 0 127 0" result="hardAlpha"/><feOffset dx="2.189" dy="-.219"/><feGaussianBlur stdDeviation="1.642"/><feComposite in2="hardAlpha" operator="out"/><feColorMatrix values="0 0 0 0 0.119531 0 0 0 0 0.163828 0 0 0 0 0.5625 0 0 0 0.1 0"/><feBlend in2="BackgroundImageFix" result="effect1_dropShadow_1_696"/><feBlend in="SourceGraphic" in2="effect1_dropShadow_1_696" result="shape"/></filter><filter id="m" x="224.133" y="244.527" width="104.808" height="68.113" filterUnits="userSpaceOnUse" color-interpolation-filters="sRGB"><feFlood flood-opacity="0" result="BackgroundImageFix"/><feColorMatrix in="SourceAlpha" values="0 0 0 0 0 0 0 0 0 0 0 0 0 0 0 0 0 0 127 0" result="hardAlpha"/><feOffset dx=".438" dy=".438"/><feGaussianBlur stdDeviation="1.642"/><feComposite in2="hardAlpha" operator="out"/><feColorMatrix values="0 0 0 0 0.440043 0 0 0 0 0.20092 0 0 0 0 0.679167 0 0 0 0.2 0"/><feBlend in2="BackgroundImageFix" result="effect1_dropShadow_1_696"/><feBlend in="SourceGraphic" in2="effect1_dropShadow_1_696" result="shape"/></filter><filter id="q" x="212.329" y="221.267" width="128.418" height="77.852" filterUnits="userSpaceOnUse" color-interpolation-filters="sRGB"><feFlood flood-opacity="0" result="BackgroundImageFix"/><feColorMatrix in="SourceAlpha" values="0 0 0 0 0 0 0 0 0 0 0 0 0 0 0 0 0 0 127 0" result="hardAlpha"/><feOffset dx=".438" dy=".438"/><feGaussianBlur stdDeviation="1.642"/><feComposite in2="hardAlpha" operator="out"/><feColorMatrix values="0 0 0 0 0.440043 0 0 0 0 0.20092 0 0 0 0 0.679167 0 0 0 0.2 0"/><feBlend in2="BackgroundImageFix" result="effect1_dropShadow_1_696"/><feBlend in="SourceGraphic" in2="effect1_dropShadow_1_696" result="shape"/></filter><filter id="s" x="212.948" y="199.963" width="127.178" height="76.204" filterUnits="userSpaceOnUse" color-interpolation-filters="sRGB"><feFlood flood-opacity="0" result="BackgroundImageFix"/><feColorMatrix in="SourceAlpha" values="0 0 0 0 0 0 0 0 0 0 0 0 0 0 0 0 0 0 127 0" result="hardAlpha"/><feOffset dx=".438" dy=".438"/><feGaussianBlur stdDeviation="1.642"/><feComposite in2="hardAlpha" operator="out"/><feColorMatrix values="0 0 0 0 0.440043 0 0 0 0 0.20092 0 0 0 0 0.679167 0 0 0 0.2 0"/><feBlend in2="BackgroundImageFix" result="effect1_dropShadow_1_696"/><feBlend in="SourceGraphic" in2="effect1_dropShadow_1_696" result="shape"/></filter><filter id="v" x="244.128" y="186.554" width="64.821" height="46.051" filterUnits="userSpaceOnUse" color-interpolation-filters="sRGB"><feFlood flood-opacity="0" result="BackgroundImageFix"/><feColorMatrix in="SourceAlpha" values="0 0 0 0 0 0 0 0 0 0 0 0 0 0 0 0 0 0 127 0" result="hardAlpha"/><feOffset dx=".438" dy=".438"/><feGaussianBlur stdDeviation="1.642"/><feComposite in2="hardAlpha" operator="out"/><feColorMatrix values="0 0 0 0 0.440043 0 0 0 0 0.20092 0 0 0 0 0.679167 0 0 0 0.2 0"/><feBlend in2="BackgroundImageFix" result="effect1_dropShadow_1_696"/><feBlend in="SourceGraphic" in2="effect1_dropShadow_1_696" result="shape"/></filter><filter id="y" x="226.457" y="186.554" width="100.158" height="67.062" filterUnits="userSpaceOnUse" color-interpolation-filters="sRGB"><feFlood flood-opacity="0" result="BackgroundImageFix"/><feColorMatrix in="SourceAlpha" values="0 0 0 0 0 0 0 0 0 0 0 0 0 0 0 0 0 0 127 0" result="hardAlpha"/><feOffset dx=".438" dy=".438"/><feGaussianBlur stdDeviation="1.642"/><feComposite in2="hardAlpha" operator="out"/><feColorMatrix values="0 0 0 0 0.440043 0 0 0 0 0.20092 0 0 0 0 0.679167 0 0 0 0.2 0"/><feBlend in2="BackgroundImageFix" result="effect1_dropShadow_1_696"/><feBlend in="SourceGraphic" in2="effect1_dropShadow_1_696" result="shape"/></filter><filter id="A" x="212.948" y="199.963" width="127.178" height="76.204" filterUnits="userSpaceOnUse" color-interpolation-filters="sRGB"><feFlood flood-opacity="0" result="BackgroundImageFix"/><feColorMatrix in="SourceAlpha" values="0 0 0 0 0 0 0 0 0 0 0 0 0 0 0 0 0 0 127 0" result="hardAlpha"/><feOffset dx=".438" dy=".438"/><feGaussianBlur stdDeviation="1.642"/><feComposite in2="hardAlpha" operator="out"/><feColorMatrix values="0 0 0 0 0.440043 0 0 0 0 0.20092 0 0 0 0 0.679167 0 0 0 0.2 0"/><feBlend in2="BackgroundImageFix" result="effect1_dropShadow_1_696"/><feBlend in="SourceGraphic" in2="effect1_dropShadow_1_696" result="shape"/></filter><filter id="C" x="212.329" y="221.267" width="128.418" height="77.852" filterUnits="userSpaceOnUse" color-interpolation-filters="sRGB"><feFlood flood-opacity="0" result="BackgroundImageFix"/><feColorMatrix in="SourceAlpha" values="0 0 0 0 0 0 0 0 0 0 0 0 0 0 0 0 0 0 127 0" result="hardAlpha"/><feOffset dx=".438" dy=".438"/><feGaussianBlur stdDeviation="1.642"/><feComposite in2="hardAlpha" operator="out"/><feColorMatrix values="0 0 0 0 0.440043 0 0 0 0 0.20092 0 0 0 0 0.679167 0 0 0 0.2 0"/><feBlend in2="BackgroundImageFix" result="effect1_dropShadow_1_696"/><feBlend in="SourceGraphic" in2="effect1_dropShadow_1_696" result="shape"/></filter><filter id="E" x="244.128" y="186.554" width="64.821" height="46.051" filterUnits="userSpaceOnUse" color-interpolation-filters="sRGB"><feFlood flood-opacity="0" result="BackgroundImageFix"/><feColorMatrix in="SourceAlpha" values="0 0 0 0 0 0 0 0 0 0 0 0 0 0 0 0 0 0 127 0" result="hardAlpha"/><feOffset dx=".438" dy=".438"/><feGaussianBlur stdDeviation="1.642"/><feComposite in2="hardAlpha" operator="out"/><feColorMatrix values="0 0 0 0 0.440043 0 0 0 0 0.20092 0 0 0 0 0.679167 0 0 0 0.2 0"/><feBlend in2="BackgroundImageFix" result="effect1_dropShadow_1_696"/><feBlend in="SourceGraphic" in2="effect1_dropShadow_1_696" result="shape"/></filter><filter id="H" x="149.002" y="202.213" width="51.013" height="34.411" filterUnits="userSpaceOnUse" color-interpolation-filters="sRGB"><feFlood flood-opacity="0" result="BackgroundImageFix"/><feColorMatrix in="SourceAlpha" values="0 0 0 0 0 0 0 0 0 0 0 0 0 0 0 0 0 0 127 0" result="hardAlpha"/><feOffset dx=".438" dy=".438"/><feGaussianBlur stdDeviation="1.642"/><feComposite in2="hardAlpha" operator="out"/><feColorMatrix values="0 0 0 0 0.440043 0 0 0 0 0.20092 0 0 0 0 0.679167 0 0 0 0.2 0"/><feBlend in2="BackgroundImageFix" result="effect1_dropShadow_1_696"/><feBlend in="SourceGraphic" in2="effect1_dropShadow_1_696" result="shape"/></filter><filter id="L" x="143.661" y="191.69" width="61.694" height="38.818" filterUnits="userSpaceOnUse" color-interpolation-filters="sRGB"><feFlood flood-opacity="0" result="BackgroundImageFix"/><feColorMatrix in="SourceAlpha" values="0 0 0 0 0 0 0 0 0 0 0 0 0 0 0 0 0 0 127 0" result="hardAlpha"/><feOffset dx=".438" dy=".438"/><feGaussianBlur stdDeviation="1.642"/><feComposite in2="hardAlpha" operator="out"/><feColorMatrix values="0 0 0 0 0.440043 0 0 0 0 0.20092 0 0 0 0 0.679167 0 0 0 0.2 0"/><feBlend in2="BackgroundImageFix" result="effect1_dropShadow_1_696"/><feBlend in="SourceGraphic" in2="effect1_dropShadow_1_696" result="shape"/></filter><filter id="Q" x="143.943" y="182.052" width="61.133" height="38.072" filterUnits="userSpaceOnUse" color-interpolation-filters="sRGB"><feFlood flood-opacity="0" result="BackgroundImageFix"/><feColorMatrix in="SourceAlpha" values="0 0 0 0 0 0 0 0 0 0 0 0 0 0 0 0 0 0 127 0" result="hardAlpha"/><feOffset dx=".438" dy=".438"/><feGaussianBlur stdDeviation="1.642"/><feComposite in2="hardAlpha" operator="out"/><feColorMatrix values="0 0 0 0 0.440043 0 0 0 0 0.20092 0 0 0 0 0.679167 0 0 0 0.2 0"/><feBlend in2="BackgroundImageFix" result="effect1_dropShadow_1_696"/><feBlend in="SourceGraphic" in2="effect1_dropShadow_1_696" result="shape"/></filter><filter id="T" x="150.054" y="175.986" width="48.909" height="33.936" filterUnits="userSpaceOnUse" color-interpolation-filters="sRGB"><feFlood flood-opacity="0" result="BackgroundImageFix"/><feColorMatrix in="SourceAlpha" values="0 0 0 0 0 0 0 0 0 0 0 0 0 0 0 0 0 0 127 0" result="hardAlpha"/><feOffset dx=".438" dy=".438"/><feGaussianBlur stdDeviation="1.642"/><feComposite in2="hardAlpha" operator="out"/><feColorMatrix values="0 0 0 0 0.440043 0 0 0 0 0.20092 0 0 0 0 0.679167 0 0 0 0.2 0"/><feBlend in2="BackgroundImageFix" result="effect1_dropShadow_1_696"/><feBlend in="SourceGraphic" in2="effect1_dropShadow_1_696" result="shape"/></filter><filter id="W" x="158.048" y="175.986" width="32.922" height="24.43" filterUnits="userSpaceOnUse" color-interpolation-filters="sRGB"><feFlood flood-opacity="0" result="BackgroundImageFix"/><feColorMatrix in="SourceAlpha" values="0 0 0 0 0 0 0 0 0 0 0 0 0 0 0 0 0 0 127 0" result="hardAlpha"/><feOffset dx=".438" dy=".438"/><feGaussianBlur stdDeviation="1.642"/><feComposite in2="hardAlpha" operator="out"/><feColorMatrix values="0 0 0 0 0.440043 0 0 0 0 0.20092 0 0 0 0 0.679167 0 0 0 0.2 0"/><feBlend in2="BackgroundImageFix" result="effect1_dropShadow_1_696"/><feBlend in="SourceGraphic" in2="effect1_dropShadow_1_696" result="shape"/></filter><radialGradient id="b" cx="0" cy="0" r="1" gradientUnits="userSpaceOnUse" gradientTransform="matrix(104.91069 -107.45081 191.49646 186.96951 119.59 293.083)"><stop stop-color="#fff"/><stop offset=".462" stop-color="#3A45AA"/><stop offset="1" stop-color="#3A45AA" stop-opacity="0"/></radialGradient><radialGradient id="d" cx="0" cy="0" r="1" gradientUnits="userSpaceOnUse" gradientTransform="rotate(141.315 111.626 158.514) scale(104.41 186.13)"><stop offset=".392" stop-color="#1B29A4" stop-opacity="0"/><stop offset=".842" stop-color="#2938BB" stop-opacity=".5"/><stop offset="1" stop-color="#172075" stop-opacity=".5"/></radialGradient><radialGradient id="f" cx="0" cy="0" r="1" gradientUnits="userSpaceOnUse" gradientTransform="matrix(-113.7098 90.21903 -159.39008 -200.89127 307.85 195.962)"><stop offset=".392" stop-color="#6675FF" stop-opacity="0"/><stop offset=".842" stop-color="#6675FF" stop-opacity=".5"/><stop offset="1" stop-color="#192059" stop-opacity="0"/></radialGradient><radialGradient id="h" cx="0" cy="0" r="1" gradientUnits="userSpaceOnUse" gradientTransform="matrix(-162.42152 134.61524 -239.97637 -289.54616 328.149 154.194)"><stop offset=".392" stop-color="#6675FF" stop-opacity="0"/><stop offset=".842" stop-color="#6675FF" stop-opacity=".5"/><stop offset="1" stop-color="#DBDEFF" stop-opacity="0"/></radialGradient><radialGradient id="i" cx="0" cy="0" r="1" gradientUnits="userSpaceOnUse" gradientTransform="matrix(-66.81495 53.50015 -95.37397 -119.11007 291.103 224.425)"><stop offset=".392" stop-color="#17217A" stop-opacity="0"/><stop offset=".842" stop-color="#1A2374" stop-opacity=".5"/><stop offset="1" stop-color="#151E6C" stop-opacity=".5"/></radialGradient><radialGradient id="k" cx="0" cy="0" r="1" gradientUnits="userSpaceOnUse" gradientTransform="rotate(-64.076 380.925 -40.785) scale(139.889)"><stop offset=".107" stop-color="#fff" stop-opacity=".5"/><stop offset=".328" stop-color="#8FB5FF" stop-opacity=".5"/><stop offset=".629" stop-color="#220C7A" stop-opacity="0"/></radialGradient><radialGradient id="l" cx="0" cy="0" r="1" gradientUnits="userSpaceOnUse" gradientTransform="rotate(90 13.334 262.766) scale(92.3062)"><stop stop-color="#3E5DFF"/><stop offset="1" stop-color="#3E5DFF" stop-opacity="0"/></radialGradient><radialGradient id="p" cx="0" cy="0" r="1" gradientUnits="userSpaceOnUse" gradientTransform="rotate(-19.664 891.991 -480.728) scale(132.351)"><stop offset=".249" stop-color="#fff"/><stop offset=".483" stop-color="#8FF2FF" stop-opacity=".5"/><stop offset=".627" stop-color="#220C7A" stop-opacity=".1"/></radialGradient><radialGradient id="x" cx="0" cy="0" r="1" gradientUnits="userSpaceOnUse" gradientTransform="rotate(-83.198 332.032 7.665) scale(134.104)"><stop offset=".339" stop-color="#68FFF6" stop-opacity=".1"/><stop offset=".802" stop-color="#FFBFE9"/><stop offset="1" stop-color="#fff"/></radialGradient><radialGradient id="G" cx="0" cy="0" r="1" gradientUnits="userSpaceOnUse" gradientTransform="rotate(90 -15.372 193.791) scale(35.3655)"><stop stop-color="#FF65C1"/><stop offset="1" stop-color="#FF65C1" stop-opacity="0"/></radialGradient><radialGradient id="K" cx="0" cy="0" r="1" gradientUnits="userSpaceOnUse" gradientTransform="rotate(-19.664 696.86 -312.747) scale(59.877)"><stop offset=".249" stop-color="#fff"/><stop offset=".483" stop-color="#FF8FED" stop-opacity=".5"/><stop offset=".627" stop-color="#220C7A" stop-opacity=".5"/></radialGradient><radialGradient id="O" cx="0" cy="0" r="1" gradientUnits="userSpaceOnUse" gradientTransform="rotate(-107.749 173.191 47.465) scale(41.948)"><stop offset=".224" stop-color="#fff"/><stop offset=".466" stop-color="#FFCEF1"/><stop offset=".682" stop-color="#B6B9FF"/><stop offset=".882" stop-color="#fff"/></radialGradient><radialGradient id="P" cx="0" cy="0" r="1" gradientUnits="userSpaceOnUse" gradientTransform="rotate(-100.377 186.748 36.597) scale(57.2826)"><stop stop-color="#fff"/><stop offset="1" stop-color="#fff" stop-opacity="0"/></radialGradient><radialGradient id="Z" cx="0" cy="0" r="1" gradientUnits="userSpaceOnUse" gradientTransform="rotate(-65.136 267.484 -8.52) scale(88.9003)"><stop offset=".249" stop-color="#fff"/><stop offset=".483" stop-color="#FF8FED" stop-opacity=".5"/><stop offset=".627" stop-color="#220C7A" stop-opacity="0"/></radialGradient></defs></svg>