<svg width="56" height="56" fill="none" xmlns="http://www.w3.org/2000/svg"><path d="M22.815 43.556A5.187 5.187 0 0 0 28 38.37v-5.185h-5.185a5.187 5.187 0 0 0-5.185 5.185 5.187 5.187 0 0 0 5.185 5.186Z" fill="#0ACF83"/><path d="M17.63 28a5.187 5.187 0 0 1 5.185-5.185H28v10.37h-5.185A5.187 5.187 0 0 1 17.63 28Z" fill="#A259FF"/><path d="M17.63 17.63a5.187 5.187 0 0 1 5.185-5.185H28v10.37h-5.185a5.187 5.187 0 0 1-5.185-5.185Z" fill="#F24E1E"/><path d="M28 12.444h5.185a5.187 5.187 0 0 1 5.185 5.186 5.187 5.187 0 0 1-5.185 5.185H28v-10.37Z" fill="#FF7262"/><path d="M38.37 28a5.187 5.187 0 0 1-5.185 5.185A5.187 5.187 0 0 1 28 28a5.187 5.187 0 0 1 5.185-5.185A5.187 5.187 0 0 1 38.37 28Z" fill="#1ABCFE"/></svg>