<svg width="510" height="657" fill="none" xmlns="http://www.w3.org/2000/svg"><path fill-rule="evenodd" clip-rule="evenodd" d="M18.305 364.881c18.508 3.44 31.58-3.028 38.322-4.507 1.96-.413 10.63 3.44 24.32 3.44a29.556 29.556 0 0 0 20.641-9.941c.447-.516-.379-1.17-.826-.654a28.721 28.721 0 0 1-19.883 8.256 93.596 93.596 0 0 1-21.397-3.44c-4.713-1.066-3.99.241-15.927 3.44a62.705 62.705 0 0 1-25.043 1.617c-10.596-1.514-12.59-3.887-13.038-2.683a.55.55 0 0 0 .31.688 69.35 69.35 0 0 0 12.521 3.784Zm241.867-46.44c15.17-1.204 27.52-14.586 26.384-22.67a.547.547 0 0 0-.291-.631.547.547 0 0 0-.676.157.54.54 0 0 0-.099.474 15.616 15.616 0 0 1-4.334 8.359 45.697 45.697 0 0 1-17.2 11.903c-4.025 1.616-4.61 1.169-4.472 1.96a.516.516 0 0 0 .688.448Zm-292.813 57.413a.525.525 0 0 0 .327-.671.527.527 0 0 0-.671-.326 60.792 60.792 0 0 1-25.731 0c-3.647-.929-3.853-1.686-4.231-.998a.551.551 0 0 0 .172.722c8.015 5.78 21.396 5.539 30.134 1.273ZM388.105 124.39c1.136.379 0-1.169 5.676-11.283 11.524-20.88 32.233-39.182 53.251-50.912 8.497-4.747 9.22-4.266 8.876-5.126a.589.589 0 0 0-.723-.275c-35.053 13.76-60.372 42.312-67.424 66.908a.534.534 0 0 0-.036.213.525.525 0 0 0 .38.475Zm102.581 27.417c-15.239-11.421-39.388-16.89-58.48-19.23a170.939 170.939 0 0 0-38.459-.756.557.557 0 0 0-.38.185.552.552 0 0 0-.136.399c0 .929.206 0 12.521.482 25.25.894 64.81 6.88 84.177 19.78.723.378 1.342-.482.757-.86ZM371.8 331.788a24.728 24.728 0 0 1-7.087 2.305.517.517 0 0 0-.406-.017.528.528 0 0 0-.208.858.545.545 0 0 0 .167.122 5.444 5.444 0 0 0 4.81.799 5.437 5.437 0 0 0 3.515-3.379.524.524 0 0 0-.791-.688ZM-50.942 483.32c-6.502.585-5.366 3.44 1.135 2.545 6.502-.894 3.028-2.924-1.135-2.545Zm101.893-12.797c-.683.053-1.362.156-2.03.31-3.715 1.032-2.89 2.304.791 2.373 7.156.035 7.569-3.165 1.239-2.683Zm-105.402 87.376c-2.82 0-6.398 1.548-1.72 2.511 1.14.169 2.3.169 3.44 0 4.85-1.169.826-2.58-1.72-2.511Zm100.139-18.473c-5.332.241-3.2 2.271 0 2.58 5.572.585 6.948-2.855 0-2.58Zm100.31 50.465c-6.88.344-1.032 3.096 3.44 2.58 4.472-.516 3.13-2.924-3.44-2.58Zm104.92-26.626c-6.88-.275-4.438 2.718.619 2.684 3.956-.035 5.298-2.374-.619-2.684Zm114.449 40.076c-4.506 0-7.19 1.892-2.133 2.58 1.441.155 2.894.155 4.335 0 5.228-1.032 1.823-2.648-2.202-2.58Zm82.938-86.275c7.5.619 7.672-2.201 0-2.649-8.29-.516-5.538 2.202 0 2.649Zm51.807-16.099c-2.133.344-3.44 1.548-.654 2.339a8.526 8.526 0 0 0 4.163 0c4.128-1.651-.31-2.855-3.509-2.339ZM22.536 148.401a35.915 35.915 0 0 0 33.197-22.376 35.916 35.916 0 0 0 2.648-13.812 35.88 35.88 0 0 0-60.836-24.65 35.88 35.88 0 0 0-10.888 24.65 35.916 35.916 0 0 0 35.88 36.188ZM-1.372 88.236a32.714 32.714 0 0 1 47.816 0 34.09 34.09 0 0 1-.275 47.678 33.306 33.306 0 0 1-23.632 9.84 33.296 33.296 0 0 1-23.633-9.84 34.089 34.089 0 0 1-.276-47.678Zm389.993 38.528-.034-.069v.034l.034.035Zm-88.339 56.485s8.841-6.158 9.563-6.708c3.75-2.89 8.359-5.78 12.04-8.153 9.804-6.295 9.426-6.88 22.532-14.139 3.784-2.132 35.742-19.436 38.528-21.087a.548.548 0 0 0-.126-.966.546.546 0 0 0-.39.003c-12.625 6.502-37.186 16.925-55.452 29.722a225.176 225.176 0 0 0-18.267 13.209 120.007 120.007 0 0 0-9.46 7.843.55.55 0 0 0 1.032.276Zm-46.956 197.903a15.86 15.86 0 0 0 7.19 1.857c1.1 0 1.823-.791 2.064-2.408.241-1.63.241-3.288 0-4.919-1.17-7.774-3.44-5.882-2.924-5.057-2.202.585-9.564 8.841-6.33 10.527Zm6.536-9.323a.312.312 0 0 0 .241 0 43.626 43.626 0 0 1 0 8.566 21.75 21.75 0 0 1-4.816-1.342 30.258 30.258 0 0 1 4.575-7.224Z" fill="#000"/><path fill-rule="evenodd" clip-rule="evenodd" d="m441.907 167.08 8.016-8.015 3.956 10.904c.275.757-2.546-.55 38.906 16.616.654.275.241.275 10.32-3.44 1.376 11.73 1.238 11.524 1.685 12.005 2.753 2.924 24.425 25.938 27.521 28.587 5.882 5.194 18.748-31.476 6.398-50.981-25.043-39.388-56.829-51.187-102.856-54.524-9.082-.619-29.309 2.993-38.287 4.713 20.158-11.456 19.264-10.492 19.195-11.352l-.654-9.116 8.532 1.1c.55 0-2.993 2.408 54.661-36.085.826-.55.619 0 .619-10.836 8.05-1.514 9.048-1.651 9.392-1.789 3.027-1.273 26.797-11.042 29.446-12.969a1.479 1.479 0 0 0 .55-1.96c-9.46-16.65-23.598-17.682-42.174-14.38-34.951 6.158-57.723 28.655-79.911 56.072a62.467 62.467 0 0 0-12.109 30.96c-13.45-22.635-36.498-30.719-60.269-40.351-34.985-14.138-112.935-14.998-145.133 7.568a104.192 104.192 0 0 0-35.226 40.764c-.275.55-.344 1.754 1.273 2.202 5.745 1.582 57.241 0 63.227 0 .826 0 .86-.585 7.878-5.848.481 1.823 1.066 4.54 1.376 6.192a1.307 1.307 0 0 0 1.341 1.032c53.664-2.168 50.396-1.858 50.912-2.408 0 0 5.676-6.433 8.256-8.979.33.959.605 1.935.826 2.924 1.479 6.502.722 7.431 1.926 7.809 10.802 3.44 33.781 10.32 45.202 13.003-33.919 10.802-54.146 22.67-74.958 52.185a146.752 146.752 0 0 0-17.544 37.255 11.669 11.669 0 0 0-7.224 1.651c-1.479.998-.963 3.44-.413 5.126-4.231-.826-6.536 1.135-5.125 5.435 1.135 3.44 4.747 8.222 4.747 10.664-.241-.344-.826-1.307-.963-1.479a17.922 17.922 0 0 0-12.178-3.646c-4.265 0-7.74 4.334-10.561 6.364 2.718-8.532-2.201-13.485-14.448-1.961a5.164 5.164 0 0 0-.653-4.679c-3.44-3.44-11.696 4.197-15.033 6.192 0-1.41 1.066-4.368-2.03-5.916-4.988-2.512-8.531 2.58-11.592 6.88-1.17-4.782-7.224-5.848-11.8-4.025a12.174 12.174 0 0 0-5.872 6.429 12.173 12.173 0 0 0-.079 8.707c-5.125-2.683-11.214-4.438-11.455 1.341-.011 1.473.162 2.94.516 4.369-2.408-1.513-6.123-3.44-8.669-2.167-4.816 2.442-3.44 7.362-.688 11.971-30.1 0-211.457 3.44-227.04 4.3a1.306 1.306 0 0 0-.726 2.085c.183.231.439.394.726.461 150.535-1.858 421.951-3.44 423.361-2.649 24.08 16.718-20.296 61.06-51.05 67.871a329.224 329.224 0 0 0-29.996-18.989c-.86-.447-1.032.998-1.17 1.961a68.907 68.907 0 0 0-.413 3.44 103.193 103.193 0 0 0-30.96-22.153c-22.91-9.701-37.84-1.892-50.74 18.885a171.03 171.03 0 0 0-13.76 29.928A281.76 281.76 0 0 0 131 390.267a50.654 50.654 0 0 1-16.821.55c-12.866-1.616-31.51-6.501-35.33-5.228-7.36 2.476-13.45 8.531-21.086 11.076a95.18 95.18 0 0 1-74.992-5.504c-3.44-1.651-25.319 5.229-30.272 6.261-12.247 2.477-43.448-5.229-61.336-18.576a.547.547 0 0 0-.68.161.553.553 0 0 0 .027.699c18.163 13.76 49.605 21.672 62.298 19.195 3.096-.619 26.832-7.396 29.171-6.226a97.072 97.072 0 0 0 76.471 6.02c7.981-2.649 13.76-8.566 21.122-10.974 2.924-.963 22.223 3.888 34.4 5.436a49.853 49.853 0 0 0 16.547-.379c-1.514 6.571-6.536 29.515-6.88 34.022a1.68 1.68 0 0 0 .344 1.341c.584.551 1.685.585 8.978.723-1.858 11.352-1.686 10.492-2.511 11.524a111.924 111.924 0 0 1-11.731 10.492c-2.58 2.133-5.882 5.813-4.403 8.841.895 1.754 3.131 1.857 5.091 1.685 0 .929 0 2.718.895 2.959 1.513.344 16.374.206 18.92.172l2.649 3.44c-3.819 6.192-29.344 48.469-28.724 55.659.206 2.133 4.368 3.268 6.639 3.887-.447 1.17-.895 2.339-1.307 3.234-.413.894-.344.928-.516 1.204-.172.275-13.141 3.44-19.024 7.705-3.852 2.752-3.44 5.711-1.376 6.88 5.642 3.268 36.671 2.58 38.391.757 2.27-2.408 4.025-12.625 4.609-15.927 2.419.46 4.91.378 7.293-.241a257.617 257.617 0 0 0 31.511-30.375c3.99 2.442 8.221 4.781 12.693 6.88-3.44 3.887-40.282 44.961-40.661 47.953-.516 3.75 10.32 7.912 13.52 5.952.963-.62 3.44-3.44 42.071-47.782a124.91 124.91 0 0 0 22.085 5.298 264.12 264.12 0 0 0 35.879 2.683 7696.619 7696.619 0 0 0 40.385 21.981c-40.936 50.637-38.975 47.988-38.975 48.952 0 1.823 2.718 3.68 4.266 4.644 1.548.963 4.506 2.408 6.123 1.548 2.374-1.308 39.044-46.337 40.867-48.573 19.608 10.32 36.258 19.057 40.661 21.225 1.41.722 2.58-.688 3.44-2.03a34.727 34.727 0 0 0 2.683-5.435 1.345 1.345 0 0 0-.585-1.583l-38.562-21.5 23.633-28.827 115.79 64.294a1.585 1.585 0 0 0 1.72-.31 40.767 40.767 0 0 0 5.229-9.185c.413-1.272-.275-1.72-1.135-2.27-.172 0-68.594-38.597-112.729-63.365l24.458-29.928a40.834 40.834 0 0 0 31.683-13.072c.344 3.991.585 7.155.757 9.357a.551.551 0 0 0 1.066 0c-.206-3.44-.447-6.88-.688-10.526 8.978-10.32 12.59-25.628 12.728-39.354a84.751 84.751 0 0 0 10.664-2.718.515.515 0 1 0 0-1.032 60.269 60.269 0 0 0-9.976.964c14.242-17.441 39.01-48.16 43.206-53.527 10.32 60.269 11.008 105.987 12.315 110.08 0 .723 1.033 1.273 1.033-.447a.846.846 0 0 0 0-.275c-1.686-17.613-2.856-57.964-11.593-111.559 30.513-38.425 29.171-37.359 28.483-38.46-1.376-2.098-6.88-3.921-10.733-4.059-.378 0 .31-.722-8.669 10.32-3.68-.963-9.116-2.064-15.617-3.233-2.821-13.76-5.986-27.28-9.632-41.28 75.989 1.788 71.896 2.098 72.48 1.135l3.75.344a.547.547 0 0 0 .631-.291.55.55 0 0 0-.631-.776l-3.784-.344c.172-4.988-.55-10.01-5.263-11.73 2.924-1.445 7.705-3.44 5.745-7.121-1.961-3.681-6.88.241-8.841 0-.344-2.27 3.44-9.597-3.44-11.317a71.523 71.523 0 0 0-7.534.344c1.273-2.305 3.784-6.399 3.44-8.91-.309-1.617-1.685-2.89-5.435-1.961-.757.207-3.44 1.273-5.332 1.755a9.669 9.669 0 0 0 .963-1.789 12.452 12.452 0 0 0-1.582-9.082c-3.991-5.951-9.804-1.376-14.654.86a10.868 10.868 0 0 0 1.444-5.16c-.172-3.233-3.818-3.99-6.88-3.096a51.628 51.628 0 0 0-7.327 3.44 6.881 6.881 0 0 0-1.169-9.253c-2.099-1.376-7.397 0-9.804.928 3.44-6.123 2.201-11.386-.62-14.207-2.82-2.821-9.322-.344-12.212-.619a20.183 20.183 0 0 0 1.892-3.199 12.108 12.108 0 0 0-1.582-8.944 3.844 3.844 0 0 0-3.44-1.789c-3.44 0-9.322 4.541-10.32 3.44-.998-1.101 0-5.022-3.44-6.88-3.44-1.858-7.465-.619-7.465 5.332-5.882-13.76-11.593-25.25-16.718-34.744 33.574 9.288 31.166 8.841 31.785 8.153ZM134.44 545.48c-3.853.894-32.129 1.066-35.879-1.445-1.307-3.165 17.613-9.288 20.021-10.561.997-.55 1.961-3.956 2.477-5.71a139.702 139.702 0 0 0 18.197 3.44c-.791 2.477-3.233 12.281-4.816 14.276ZM398.701 82.8c22.188-26.695 44.995-48.814 78.879-54.696 16.856-2.924 29.894-2.546 38.803 12.109-4.575 2.476-23.116 10.32-27.932 12.177l-10.045 1.927a1.34 1.34 0 0 0-1.067 1.272v10.148l-52.838 35.983c-9.873-1.135-9.563-1.239-10.01-.826-.448.413-.344 0 .55 10.32-2.339 1.376-13.21 7.671-21.259 12.453-8.703 1.72-6.708 1.514-8.291 1.342.069-14.586 3.853-30.96 13.21-42.21Zm-115.859 38.7a44.314 44.314 0 0 0-2.58-11.215 1.17 1.17 0 0 0-.826-.619c-.791 0-1.41.516-2.064 1.135-2.201 2.099-6.88 7.396-8.325 8.841l-48.504 1.789c-.309-1.548-1.169-5.573-1.685-7.086a1.3 1.3 0 0 0-.788-.83 1.309 1.309 0 0 0-1.139.107c-1.066.551-7.499 5.676-8.462 6.433-8.91.275-52.116 1.41-60.922.344a102.301 102.301 0 0 1 33.643-38.39c30.925-21.57 108.05-21.57 142.863-7.81 24.355 9.633 47.438 17.407 60.819 40.627a90.51 90.51 0 0 0-.55 10.079c-3.268-.24-.998.516-6.502-3.199-30.96-20.881-101.273-42.759-136.843-32.233a.548.548 0 0 0-.378.654c.55 1.96 11.73-6.502 56.828 3.165 25.904 5.504 60.648 17.475 81.632 31.373-15.996-.241-28.002 4.162-49.089 10.664-10.492-2.34-36.946-10.596-47.128-13.829Zm-29.034 68.525c23.048-32.99 45.752-43.585 84.521-55.35 12.006-3.681 25.215-8.669 37.84-8.738a63.807 63.807 0 0 1 12.04.62s.619 0 .516.206a30.49 30.49 0 0 1-2.58 15.618 82.3 82.3 0 0 1-12.315 20.846c-13.382 17.2-19.023 23.667-37.599 35.57-1.961-.413-9.288-2.477-11.146-3.028a1.177 1.177 0 0 0-.995.179 1.166 1.166 0 0 0-.484.888l-.998 14.964c-12.625 5.125-37.255 16.099-47.369 25.112-3.44-8.084-3.818-12.487-5.882-12.487-1.307 0-1.307.206-5.332 16.58-5.194 2.443-26.935 12.556-32.646 13.382-1.754-5.229 6.261-41.418 22.429-64.362Zm129.826-7.5c-3.44-1.651-8.703 1.101-11.834 2.993 1.376-2.442 3.44-6.501.757-7.774a12.659 12.659 0 0 0-9.426 1.307c3.612-4.162 7.293-8.875 11.868-14.861a91.816 91.816 0 0 0 9.907-15.893c.654 7.603 1.927 21.638 3.613 39.767a11.55 11.55 0 0 0-5.023 1.307c1.032-1.651 3.647-5.091.138-6.846ZM123.363 277.16c-2.442-3.44-4.816-8.015-1.066-9.907a4.612 4.612 0 0 1 3.44.412 26.753 26.753 0 0 1 5.47 3.44 1.136 1.136 0 0 0 1.76-.564 1.142 1.142 0 0 0-.006-.708 17.93 17.93 0 0 1-1.17-7.431c0-.344 0-.619.448-.722a6.355 6.355 0 0 1 3.749.378 29.437 29.437 0 0 1 5.883 2.855 1.162 1.162 0 0 0 1.169 0c1.755-1.135-1.926-5.297 0-11.042a8.223 8.223 0 0 1 4.644-5.229c3.887-1.548 9.082-.688 9.116 3.819v.963a1.031 1.031 0 0 0 1.789.722c2.58-2.58 6.192-10.733 10.802-8.462 1.41.722.997 1.926.894 3.44-.103 1.513.447 3.165 1.823 2.993 2.202-.276 15.308-12.866 14.07-4.851a18.625 18.625 0 0 1-1.376 4.335.992.992 0 0 0 .391 1.166 1.002 1.002 0 0 0 1.226-.1c2.855-3.199 11.592-11.455 14.413-8.634.86.86.207 4.506-.206 5.744a6.89 6.89 0 0 1-.895 1.204c-.619.929-.309 1.961.826 1.961 3.818 0 7.809-7.224 12.453-7.224a16.62 16.62 0 0 1 10.905 3.096c.344.344 1.788 3.784 3.164 2.374 2.58-2.546-1.376-7.637-3.44-11.593-.722-1.445-1.926-4.231-.412-4.885a6.19 6.19 0 0 1 3.921.207c.619 1.272 1.72 3.44 2.89 2.408 1.169-1.032.825-2.546-1.651-3.716a15.499 15.499 0 0 1-.792-2.442c0-.482-.275-1.72 0-1.995a9.982 9.982 0 0 1 5.78-1.411c-1.548 4.885-7.5 25.181-3.922 28.793a2.374 2.374 0 0 0 1.72.551c5.091-.241 29.756-11.765 34.4-13.76.963-.448.413-.241 3.922-13.76 3.199 8.393 3.646 10.767 5.263 10.801 1.617.035.791-2.649 19.195-12.487 14.173-7.568 30.134-14.035 30.134-14.035a1.236 1.236 0 0 0 .792-1.032l.722-14.173c10.32 2.786 10.664 2.89 11.249 2.511a120.879 120.879 0 0 0 23.564-18.989c3.44-1.926 8.772-4.196 11.386-2.889 1.755.894-1.823 6.88-3.165 8.531a.757.757 0 0 0 1.032 1.032c1.686-1.238 9.632-6.467 13.141-4.713 3.509 1.755-3.612 6.364-1.445 7.809.654.413 1.479-.172 2.202-.654a9.945 9.945 0 0 1 4.954-1.41c1.995 20.984 4.471 47.231 7.12 75.198a34.4 34.4 0 0 0-15.445 8.497 33.543 33.543 0 0 0-16.168 2.546c-1.789.757-1.376 2.442.413 2.408-.413 0 1.032 0 3.44.619.894-.275-189.407-1.823-244.516-1.995Zm262.576 72.584s1.135.585 2.614 1.445c-6.192 4.128-19.814 11.524-21.087 14.035a1.751 1.751 0 0 0 .55 2.098c.86.963.654.241.516 1.583v5.951a47.327 47.327 0 0 1-1.926 9.081 7.602 7.602 0 0 1-4.713-.378c-8.428-3.681-13.244-9.838-12.35-19.058 4.266.62 6.708 1.342 7.534 1.411.826.069 3.062-1.445.447-2.443-1.582-.584-1.513-19.47.516-18.576a.55.55 0 0 0 .413-.997c3.44-5.229 3.44-5.126 3.44-5.848a1.205 1.205 0 0 0-.688-.791 8.596 8.596 0 0 1-4.506-7.156c-.166-2.229.09-4.47.756-6.604a9.048 9.048 0 0 0 8.325-.344c-.722 1.479-1.513 3.233-.481 4.472a5.228 5.228 0 0 0 6.295.928.511.511 0 0 0 .292-.67.516.516 0 0 0-.671-.293 5.6 5.6 0 0 1-3.818-1.307 47.145 47.145 0 0 1 3.44-6.88c3.681 1.823 3.44 0 3.027 1.858-.997 8.6 8.807 11.352 14.758 5.641a17.347 17.347 0 0 0 2.545-3.44c.987.202 2.01.13 2.959-.206 1.892 1.204 1.651.516 1.548 1.548a2.854 2.854 0 0 0 1.032 2.614 3.43 3.43 0 0 1 0 1.204c-5.091 2.855-4.782 1.17-5.642 3.75-1.823.963-1.754 2.924-2.201 4.678-.207.791-2.409 8.6-3.269 11.421a1.167 1.167 0 0 0 .345 1.238v.035Zm-15.928 19.47a9.904 9.904 0 0 1 3.784 5.711c.482 2.408 0 2.992.482 3.818.168.258.407.461.688.585a25.409 25.409 0 0 1-6.433 4.025 58.228 58.228 0 0 0 1.548-8.291c.138-1.238-.172-3.818-.069-5.882v.034Zm0-3.44c3.853-3.44 19.505-13.106 21.432-15.721 2.442 1.48 6.123 3.75 8.428 5.401-6.88 5.504-15.79 12.591-23.496 19.78-.481-4.747-3.027-6.295-6.226-9.357l-.138-.103Zm-72.962 67.906a273.317 273.317 0 0 0 30.616-3.131 98.387 98.387 0 0 0 16.615 21.638 89.43 89.43 0 0 0 22.911 15.342c-5.057 8.944-13.382 20.95-21.879 26.764l-23.185-12.969c-2.374-8.015-3.234-15.102-5.814-22.842a29.2 29.2 0 0 0-8.6-13.76c-2.993-3.165-10.32-10.32-10.802-10.973-.481-.654-.034.103.138-.069Zm29.825-5.607c-7.362 1.1-27.176 3.44-33.987 2.855a308.884 308.884 0 0 0 1.548-39.526c5.16 4.438 12.143 10.32 18.851 16.237a13.449 13.449 0 0 0-7.087 5.194 3.166 3.166 0 0 0 2.202 4.507c.49.07.989.07 1.479 0a3.452 3.452 0 0 0-.107 1.512c.078.506.267.988.554 1.412a4.72 4.72 0 0 0 2.099 1.789c.375.07.76.07 1.135 0a2.145 2.145 0 0 0 0 1.032c.688 5.641 6.226 2.648 11.524.756 2.614-.894 2.58-.756 4.197.551l-2.408 3.681Zm27.795-65.36a46.589 46.589 0 0 0-11.73-1.445c-1.583 0-1.411.378-1.342 0 .585-4.541 2.89-17.2 5.986-20.64l9.288 3.44c-2.271 2.786-3.268 13.932-2.271 18.782l.069-.137Zm0-20.64c-1.101-.551-5.986-2.924-6.88-3.44-.894-.516-1.273 0-1.995.928l-1.135-.206 9.494-10.526a11.66 11.66 0 0 0 4.059 9.288l-3.543 3.956Zm-10.01-1.17a40.601 40.601 0 0 0-4.473 12.418 73.644 73.644 0 0 0-1.651 10.32c-.009.178.018.355.079.522a1.318 1.318 0 0 0 1.229.854 9.875 9.875 0 0 1 6.88-.86 20.642 20.642 0 0 0 1.444 10.32 436.645 436.645 0 0 1-34.021 31.201l-19.918-16.133c0-4.06 0-7.775-.275-10.768-.31-7.774-.516-7.843-1.479-8.944a73.542 73.542 0 0 0-8.566-7.396c17.097-10.216 40.592-24.286 60.923-21.465l-.172-.069Zm-17.372 80.737c-2.305 0-7.809 2.649-10.733 2.58-.619 0-.791-.757-.826-1.376 2.167-2.615 8.015-3.44 8.015-5.539 0 0-.584-1.685-1.892-1.1a55.203 55.203 0 0 1-8.668 3.44 2.888 2.888 0 0 1-.654-.757c-.275-.516 0-.619 0-.757a32.107 32.107 0 0 1 8.359-4.059 1.34 1.34 0 0 0 .596-1.658 1.342 1.342 0 0 0-1.559-.819c-3.784 1.273-3.922 1.754-6.88 2.614-.929.241-4.197 1.204-4.61.344-.412-.86 1.858-2.58 2.821-3.13a29.283 29.283 0 0 1 12.487-3.75c3.853 0 4.232.241 12.281 5.952l-6.089 9.632a5.286 5.286 0 0 0-2.648-1.617Zm1.41-15.239a18.577 18.577 0 0 0-11.18 0 361.995 361.995 0 0 0 31.682-30.032 23.356 23.356 0 0 0 11.593 9.632 9.971 9.971 0 0 0 4.679.792c-5.126 11.214-20.09 17.475-23.565 23.013l-1.41-.86a1.237 1.237 0 0 0-1.685.379l-1.996 3.164c-3.061-2.476-6.845-5.366-8.118-6.054v-.034Zm61.92-97.146c0 1.17-.929 1.926-.894 3.44a4.195 4.195 0 0 0 1.272 3.062 9.981 9.981 0 0 0 1.617 1.032c.262.091.498.244.688.447a13.754 13.754 0 0 0-.963 3.44h-.275c.585-1.823.24-3.44-.929-3.991a28.075 28.075 0 0 0-14.482-2.408c-.895 0-1.996 2.856-2.305 3.819a13.058 13.058 0 0 0-3.44-1.479c.619-1.652.378-3.028-.654-3.716a20.332 20.332 0 0 0-8.325-2.717l.723-1.858a4.678 4.678 0 0 0 2.098-1.789c.791-1.066 2.167-3.749 2.615-3.44 1.032.31 2.201 2.271 4.85.207a23.612 23.612 0 0 0 2.511-2.787 31.03 31.03 0 0 0 3.234 1.824c2.167.481 3.715-1.548 4.609-1.858.448.55 1.204 1.582 1.411 1.789a4.603 4.603 0 0 0 3.99.722c-.688 3.371 1.032 3.922 2.615 6.295l.034-.034Zm5.745-23.667a135.362 135.362 0 0 0-20.64-6.88c-1.411-.31-11.146-1.411-11.49-1.479l.413-.241a30.54 30.54 0 0 1 17.991-1.307c12.556 3.44 33.368 13.14 40.592 24.08a45.417 45.417 0 0 1 6.089 11.283 87.654 87.654 0 0 1-9.357-9.116 66.154 66.154 0 0 0-23.633-16.306l.035-.034Zm26.694 4.265c0 1.548-.378 3.062-.55 4.576-8.703-9.598-29.481-18.817-40.592-20.916 12.143-9.632 25.697-8.909 33.677-2.442a22.324 22.324 0 0 1 7.431 18.817l.034-.035Zm-102.443-8.909c51.29 0 46.681 0 46.302.344h-1.651a8.947 8.947 0 0 0-4.988 3.027c-1.823 2.821-1.307 2.718-1.135 5.057a10.794 10.794 0 0 0-1.72 2.029 5.78 5.78 0 0 0-.206 6.055c-.31.757-.964 1.513-1.239 2.339a2.341 2.341 0 0 0 .447 2.442c.239.192.492.364.757.516a.764.764 0 0 1 .31.241c-.172.688-.62 1.204-.757 1.892a2.856 2.856 0 0 0 1.135 2.58c.753.56 1.56 1.044 2.408 1.445l-.413 1.101h-2.511c-.688 0-1.685 1.72-1.995 2.339a8.667 8.667 0 0 0 0 9.632 23.775 23.775 0 0 0-1.135 4.713l-11.593 12.659a69.33 69.33 0 0 0-28.793 5.022 194.994 194.994 0 0 0-31.992 16.547 411.205 411.205 0 0 0-13.175-9.598c30.41-8.256 73.857-50.809 51.944-70.382Zm-84.693 50.533c11.283 6.02 48.745 33.093 54.696 39.801.654.791.723 0 .998 7.637.413 11.902.516 39.388-1.273 51.05-.998-.792-53.561-42.106-56.588-44.308-.206-5.297 1.135-48.538 2.167-54.18Zm-119.024 127.28c-.241 0-.413 0-.516-.206-.103-.206 0-1.376.482-2.098 1.926-3.44 6.329-5.745 12.453-11.868a14.676 14.676 0 0 0 3.44-4.61c.447-1.72 1.204-9.013 1.41-11.077h19.986a182.594 182.594 0 0 1-4.3 17.854c-4.884 2.408-27.52 13.209-32.955 12.005Zm27.52 4.404c-2.958 0-21.293.412-24.08 0a5.675 5.675 0 0 1 0-2.03 97.414 97.414 0 0 0 19.849-6.88h10.32c-2.064 2.752-4.025 5.779-5.986 8.91h-.103Zm25.594-35.948a215.647 215.647 0 0 0-18.783 25.387l-8.428.172c4.576-2.133 7.981-3.922 8.428-4.128.372-.239.661-.588.826-.998a153.197 153.197 0 0 0 3.646-18.92c4.335 0 5.883 0 6.296-1.101 1.1-2.408 21.19-40.041 24.424-45.992 1.1 0-1.067-1.858 15.376 19.539 16.375-4.335 31.201-4.575 53.63 4.369l7.637 6.054c-14.448-6.502-30.1-11.73-46.096-10.836a93.619 93.619 0 0 0-19.952 3.234c-10.389 5.572-18.783 14.482-26.901 23.22h-.103Zm11.042 71.448c12.315-13.484 22.945-26.178 31.717-35.053h18.301a21721.928 21721.928 0 0 0-37.359 42.14 133.744 133.744 0 0 1-12.556-7.087h-.103Zm-17.544 60.579a13.487 13.487 0 0 1-9.425-3.44c3.784-6.089 44.479-51.875 80.324-92.399h13.76c-73.272 83.317-83.73 95.254-84.659 95.839Zm45.271-47.575c12.418-14.276 26.866-30.788 42.071-48.16 4.885 0 8.29.206 9.632.412 10.801 19.952 34.159 27.52 56.588 30.479l18.404 10.32a108.189 108.189 0 0 1-32.955 11.799c-29.722 5.814-70.211 2.993-93.74-4.85Zm127.28-5.986-23.014 28.449-24.665-13.76a122.162 122.162 0 0 0 47.679-14.689ZM268.6 521.675c5.951 0 11.49-.413 16.684-.929l26.316 14.999-4.816 5.951-38.184-20.021Zm92.88 42.45a21.09 21.09 0 0 1-2.58 4.678c-2.958-1.479-20.296-10.526-39.594-20.64l4.541-5.504 37.633 21.466Zm-86 32.267a13.282 13.282 0 0 1-6.261-3.681c.207-.31 30.96-38.459 69.626-86.275l7.981 4.437c-49.811 60.235-69.007 83.558-71.346 85.519Zm193.397-29.687a48.767 48.767 0 0 1-3.818 6.88c-10.321-5.023-196.08-110.08-203.648-111.835-3.784-.963-43.998 0-48.401 0l7.981-8.187c4.162 0 43.103 0 46.268.826 10.32 3.027 200.345 112.316 201.584 112.316h.034Zm-113.142-66.599-8.015-4.403c8.531-6.295 16.615-17.991 21.775-27.176a43.947 43.947 0 0 0 9.873 2.546c.482.034 1.479-1.273-23.667 29.033h.034Zm64.225-54.73a40.663 40.663 0 0 1-15.617 17.578c-20.64 12.591-40.145 3.44-58.48-12.728a97.684 97.684 0 0 1-16.478-21.569l10.698-17.028c32.027 18.955 28.724 16.444 36.877 21.156.654.344 1.376.723 3.096 1.72l3.612 2.168c2.477 1.444 1.823 1.788 2.58 1.823 1.342 0 0-2.615-2.098-4.403a33.888 33.888 0 0 0-8.738-4.541 329.93 329.93 0 0 1 20.847-31.339.527.527 0 0 0-.826-.653 327.224 327.224 0 0 0-21.741 31.132c-4.231-2.099-26.075-15.377-30.134-17.854 3.199-5.194 18.885-11.937 23.77-24.424 7.878-1.926 15.962-11.421 20.64-17.991l13.072-11.49a45.316 45.316 0 0 1 15.033 17.716 104.55 104.55 0 0 1 9.357 41.28 62.747 62.747 0 0 1-5.47 29.447Zm71.208-127.59c2.683 0 8.566 1.823 9.529 3.681.241.378-5.47 8.634-73.031 91.194a95.566 95.566 0 0 0-1.789-14.069c36.051-44.583 64.294-79.567 65.326-80.806h-.035Zm-10.32 10.871c-11.386 13.76-31.717 38.459-55.487 67.389a118.694 118.694 0 0 0-7.568-22.05 46.682 46.682 0 0 0-15.514-17.923.999.999 0 0 0-.207-1.341c-2.752-1.823-7.637-4.3-10.32-5.779a.518.518 0 0 0-.757.378l-2.752-1.514 2.236-6.88c.814.568 1.759.92 2.745 1.023a5.856 5.856 0 0 0 2.897-.438c.416-.3.787-.66 1.101-1.066a6.878 6.878 0 0 0 6.501.378 9.903 9.903 0 0 0 3.44-3.715c.757-1.101.895-1.307 2.89-1.273a7.568 7.568 0 0 0 5.504-1.273 9.804 9.804 0 0 0 2.752-6.88 9.214 9.214 0 0 0 5.71-8.978c12.797 1.892 44.101 6.605 56.829 10.045v-.103Zm-51.6-138.013c.722-1.686 2.339-1.204 3.99-.379 1.652.826 1.686 2.34 1.961 4.06 1.514 8.84 11.559-3.922 14.448.447a10.318 10.318 0 0 1 1.273 7.361 31.497 31.497 0 0 1-2.236 3.44.999.999 0 0 0 0 1.273c2.683 2.683 10.114-1.857 12.934.998a9.181 9.181 0 0 1 1.205 9.907c-.998 2.511-3.234 4.713-2.684 5.882.551 1.17 1.204.86 1.995 0 .792-.86 8.807-3.199 10.32-2.27a3.82 3.82 0 0 1 1.411 2.855c.31 3.027-1.307 3.715-2.236 5.057-.929 1.342-.379 2.374.929 2.374 4.334 0 9.597-6.089 13.76-3.956 1.066.55 0 3.818-.895 5.125-.894 1.307-1.651 1.789-1.307 2.787.688 1.995 4.541 0 6.398-.998 3.819-2.03 7.362-4.162 9.77-.55a10.321 10.321 0 0 1 1.273 7.258c-.172.688-1.823 2.614-1.961 3.44-.275 1.479 1.479 1.686 2.924 1.41 2.993-.55 8.669-3.44 8.772-1.651 0 2.511-4.059 8.222-4.059 9.632a1.308 1.308 0 0 0 1.307 1.17c.344 0 8.222-.654 8.703-.516 5.401 1.341-.206 8.187 2.34 10.733 1.651 1.685 4.609 0 7.12-.792.275 0 1.135-.275 1.273 0 .929 1.892-3.818 3.44-5.745 4.507-1.926 1.066-1.857 3.061-.619 3.44a6.307 6.307 0 0 0 1.789 0c3.44 1.135 3.921 5.057 3.818 8.669-4.85-.241-70.898-2.477-71.139-2.477a633.95 633.95 0 0 0-27.21-80.703 22.39 22.39 0 0 1 .378-7.533Zm30.719 113.52a184.318 184.318 0 0 0-21.156 3.646c-1.995.516-3.749 1.101-5.194 1.548a.53.53 0 0 0-.335.224.53.53 0 0 0 .146.73.525.525 0 0 0 .395.078l3.234-.241a114.562 114.562 0 0 0 17.028-2.889 64.382 64.382 0 0 0 6.123-2.064 566.325 566.325 0 0 1 4.059 17.991c-5.676-.963-33.505-5.126-40.764-6.123a2.925 2.925 0 0 0-.688-1.686 23.053 23.053 0 0 0 1.858-4.988 25.129 25.129 0 0 0 4.128 3.44c1.548.654 3.853-.585 2.855-4.162a54.757 54.757 0 0 0-6.88-12.212c.172-2.374.585-4.713.86-7.19a23.868 23.868 0 0 0-13.76-24.08 28.71 28.71 0 0 0-13.003-1.685c-.826-8.291-1.651-16.822-2.511-25.147a34.82 34.82 0 0 0 4.197-.206 104.75 104.75 0 0 0 20.433-4.644.53.53 0 0 0 .335-.224.53.53 0 0 0-.146-.73.525.525 0 0 0-.395-.078 121.15 121.15 0 0 0-24.527 4.575c-5.711-56.829-7.947-72.997-9.082-94.806a43.21 43.21 0 0 0 2.614-10.664 165.33 165.33 0 0 1 13.76 24.424c.241.481.482.412 3.062 1.135 24.011 43.344 41.59 96.629 53.354 146.097v-.069Zm-55.04-148.436a149.727 149.727 0 0 0-14.998-25.181 17.571 17.571 0 0 0-.206-4.059 1.036 1.036 0 0 0-.723-.688c10.079-1.927 36.327-6.605 46.647-5.745 45.476 3.715 76.608 15.79 100.688 54.077 7.672 12.143 4.954 33.505-.791 44.307a12.465 12.465 0 0 1-2.064 2.924c-3.784-3.44-23.013-24.08-26.591-27.726l-1.479-12.488a1.342 1.342 0 0 0-1.755-1.066l-10.32 3.99-37.358-15.308c-4.782-12.865-4.438-12.556-5.298-12.728-.86-.172-.447-.275-9.769 9.22l-35.983-9.529Z" fill="#000"/></svg>