<svg width="113" height="113" fill="none" xmlns="http://www.w3.org/2000/svg"><path d="M62.811 43.147a1.772 1.772 0 0 0-.14.134c-.184.15-.458.274-.559.173a1.03 1.03 0 0 1-.111-.263 12.75 12.75 0 0 0-.459-1.24.07.07 0 0 0-.098-.02.07.07 0 0 0-.02.098c.103.566.291 1.112.56 1.621a.637.637 0 0 0 .945-.43c0-.073-.045-.112-.118-.073Zm1.683.408c.034 1.118-.559 1.593-1.57 1.47a.073.073 0 0 0-.072.059.073.073 0 0 0 .043.081 1.336 1.336 0 0 0 1.74-1.627.073.073 0 0 0-.14.017Zm-1.056-3.685c-.123.034-.163.263-.079.515.084.251.24.425.37.391.128-.034.156-.263.078-.514-.079-.252-.246-.425-.37-.392Zm.575-.928c.04.034.101 0 .068-.056-.56-.755-1.432-.509-1.493.235 0 .045.067.061.084 0 .229-.626.794-.716 1.341-.179Zm-4.478 2.404c-.123.05-.129.286 0 .52.128.235.296.392.42.341.122-.05.122-.28 0-.514-.124-.235-.303-.391-.42-.347Zm-.872-.436s.033 0 .05-.033a.727.727 0 0 1 .861-.638c.302-.056-.598-.413-.89.28-.055.056-.105.34-.021.391Zm-9.355 23.842c0 .428.17.84.47 1.142a1.6 1.6 0 0 0 2.27 0 1.622 1.622 0 0 0 0-2.285 1.6 1.6 0 0 0-2.27 0c-.3.303-.47.714-.47 1.143Zm35.086 6.122c1.481-.559 9.505-1.27 18.172-.458a.064.064 0 0 0 .031-.023.06.06 0 0 0 .012-.036.06.06 0 0 0-.012-.037.064.064 0 0 0-.031-.022c-8.387-.911-16.484-.257-18.228.47a.06.06 0 0 0-.032.059.06.06 0 0 0 .022.04.061.061 0 0 0 .066.007Zm17.495 1.907a.056.056 0 0 0 .031-.023.06.06 0 0 0 .012-.036.06.06 0 0 0-.012-.036.056.056 0 0 0-.031-.023c-8.012-.911-14.912-.559-17.618 0a.056.056 0 0 0 0 .112c2.566-.447 9.64-.777 17.618.006Zm-.207 2.292c-5.116-.598-11.809-.973-16.897-.559a.061.061 0 0 0 0 .118c5.633-.21 11.274-.023 16.88.559a.063.063 0 0 0 .036-.017.067.067 0 0 0 .018-.036.065.065 0 0 0-.008-.038.056.056 0 0 0-.029-.027Zm5.032-1.873c0-.078-.1-.095-.117 0-.531 2.656-2.292 4.775-2.868 2.5a5.604 5.604 0 0 1 0-1.89c.559-3.55 3.354-4.434 2.119-.392-.694 2.36-1.756 2.175-1.018-.509.324-1.118.615-1.157.492-1.24a.06.06 0 0 0-.017-.015.05.05 0 0 0-.061.014c-.25.364-.439.766-.559 1.191-.19.666-.509 2.421.145 2.37.833-.044 1.879-3.259 1.275-4.383-.604-1.124-2.203.341-2.6 2.919-.654 4.255 2.427 4.048 3.209-.565Zm-7.693 20.744c0 .883.71 1.588 1.929 1.677 2.622.18 2.583-1.37 2.745-4.064a45.78 45.78 0 0 0 .084-2.125 25.855 25.855 0 0 0-4.367-.56c-.011.124-.526 3.836-.391 5.072Z" fill="#000"/><path d="M105.596 82.197c-.034-1.465-.056-2.953-1.046-4.032a3.116 3.116 0 0 0 1.678-1.448 8.055 8.055 0 0 0 1.012-2.589c.374-1.755.296-4.646-1.325-5.032-.492-.1-1.616-.23-2.824-.34V8.228l-.179-.313H4.684v70.188h10.59v1.118c-2.952.313-10.188 1.705-11.826 4.16a1.308 1.308 0 0 0-.173.805c-.02.42.082.835.296 1.197.252.274.56.246.895.257.078.408.285 1.386.43 1.823a.716.716 0 0 0 .716.598l2.237.095c.123 2.192.313 4.372.559 6.547.3 2.373.731 4.727 1.291 7.051a.801.801 0 0 0 .688.559c3.606.263 3.629.263 4.026 0 .19-.112 4.674-5.401 4.77-5.787.05-.195.435-7.269.48-7.906v-.033l40.308 1.543c.19 4.532.785 9.038 1.778 13.464.03.212.13.409.285.559.167.142.38.219.598.218l3.31.112a1.29 1.29 0 0 0 1.22-.425c3.913-5.2 4.148-5.346 4.215-5.491.118-.263.654-7.895.66-8.018.134 0 1.828.073 1.962.034a.52.52 0 0 0 .386-.33 13.68 13.68 0 0 0 1.879-2.237c.42-1.929.408-1.823.358-1.996a.56.56 0 0 0-.319-.358 2.058 2.058 0 0 0-.693-.084c2.069-2.236 2.829-3.97 3.08-7h4.54c-1.056 2.147-2.236 5.222-1.626 7.185.263.05 3.852.833 6.816 1.152l.123-1.152a.38.38 0 0 1 .419-.336l2.236.252a.38.38 0 0 1 .336.414l-.095 1.09a46.77 46.77 0 0 0 6.106 0c.374-2.483 1.252-8.14 3.024-9.98.051-.056.246.056.174.162-.185.257-1.745 1.252-3.036 13.525-.397 3.746-1.119 10.797 1.873 12.978.313.229.128.413-.19.206-3.232-2.091-2.684-9.427-2.293-13.296.107-1.09.213-2.001.37-3.092-2.017.146-4.04.146-6.056 0l-.118 1.186a.385.385 0 0 1-.436.346l-2.298-.335a.386.386 0 0 1-.324-.42l.1-1.067a46.012 46.012 0 0 1-6.754-1.197c-.207.839-2.56 10.579-.699 15.214 1.432 3.556 13.129 4.07 18.116 3.741a5.355 5.355 0 0 0 4.378-2.897c2.136 3.226 3.635 1.728 4.96.392a7.42 7.42 0 0 0 .671-1.879c1.235-5.591.274-14.012-3.411-18.574ZM90.209 91.45c-.481.744-2.08 0-2.08 0 .777-.1.632-1.962.632-1.962l1.834.29a2.912 2.912 0 0 1-.409 1.672h.023Zm16.874-17.333a7.951 7.951 0 0 1-1.001 2.522c-.397.604-.972 1.286-1.677 1.392-.37-.34-.806-.6-1.28-.766-.772-1.375-.688-4.417.682-6.62 1.968-3.187 4.16-.66 3.254 3.45l.022.022Zm-31.87-24.876h15.454c4.87 1.633 9.656 2.863 12.016 3.467v3.634H82.599c-1.666-4.886-5.334-6.43-7.414-7.123l.028.022Zm-37.205 36.55-1.442.7c.044-.151 0-.157-.163-1.678a15.525 15.525 0 0 1 3.243-2.46c-.771.744-1.548 1.79-1.627 2.578-.03.286-.034.574-.01.86Zm2.544-3.913c1.118.442 2.272.785 3.45 1.023 4.792.967 16.086.705 16.086.352v-.134c2.136.056 4.86 1.85 6.637 1.85 1.264 0 1.348-1.056.906-2.236a17.712 17.712 0 0 0 5.071-2.052 26.83 26.83 0 0 1 3.998.157c0 .09-.061.184-.095.274-.665 1.8-3.249 4.792-4.92 4.91-.157 0-33.392-1.231-33.409-1.231.224-.962 1.432-2.343 2.276-2.907v-.006ZM20.144 55.57c1.482-2.254 6.055-2.36 9.678-2.36 4.644 0 9.284.255 13.9.76 3.322.476 3.529.56 4.289 4.127l-6.369.14a1.372 1.372 0 0 0-1.286 1.739l.515 1.89a90.836 90.836 0 0 0-10.165-.85c-3.064-.123-7.409-.202-10.411.441a.074.074 0 0 0 .028.146c2.88-.56 7.447-.43 10.372-.297 2.555.112 7.665.403 10.237.778l1.443 5.25c-3.556-.56-7.174 1.073-8.247 4.473-3.131-.218-10.948-1.174-15.835-.213a.05.05 0 0 0-.033.023.05.05 0 0 0-.006.039c0 .129.157-.05 2.03-.162 3.958-.246 10.064.29 13.771.559-.878 3.26.503 6.094 3.355 8.13a212.703 212.703 0 0 0-21.873-.968 67.881 67.881 0 0 1 1.224-13.799c.973-4.764 2.729-8.851 3.383-9.846ZM38.13 24.55c8.566-2.131 19.95-3.803 33.638-5.396 0 11.372-.045 19.206 0 26.972-3.21-6.251-1.896-14.929-8.902-14.537a6.256 6.256 0 0 0-5.915 6.877c.033.414.067.8.117 1.163-.693.995-.408 2.717.699 3.808a11.44 11.44 0 0 1 .084 4.791 15.34 15.34 0 0 0-1.521.638c-6.234 0-11.317 0-18.194-.397.01-6.766.01-16.008-.006-23.92Zm-.363 23.896c-6.15-.385-21.728-1.593-26.196-5.926a4.775 4.775 0 0 1-1.627-4.049c.246-1.928 1.996-3.472 3.607-4.573 2.404 0 12.049 0 14.476-.04 8.828-.217 6.52-2.644 8.84-8.99l.889-.23c-.012 7.93-.017 16.953.01 23.808ZM76.404 40.1c-.084-1.907 2.795-3.02 4.652-3.512 6.452-1.71 15.035-2.337 21.627-2.292v14.481a80 80 0 0 1-15.712-5.373 37.353 37.353 0 0 1-4.97-2.6.089.089 0 0 0-.113.03.09.09 0 0 0 .012.115 30.593 30.593 0 0 0 4.937 2.74 74.126 74.126 0 0 0 15.846 5.379v3.355c-4.792-1.297-26.028-6.805-26.28-12.323Zm26.279-6.1c-6.631-.045-15.23.559-21.706 2.303-2.03.56-4.937 1.711-4.875 3.802.095 3.31 6.866 6.458 13.738 8.829H74.285c-.884-.29-1.678-1.33-2.17-2.13.028-6.112.028-8.986 0-27.678 18.58-1.476 27.845-1.062 30.568-1.118V34ZM74.318 64.192c-5.228-.453-7.979 1.23-12.3 1.806l.927 4.008c-1.05.61-2.147 1.292-3.192 1.952l-14.404.442a1.678 1.678 0 0 1-1.62-1.119c5.965-.162 14.581-.492 15.442-.525a.067.067 0 0 0 .067-.067.067.067 0 0 0-.067-.067c-3.355.089-9.678.246-15.499.458-2.611-9.505-2.488-9.024-2.471-9.08a.119.119 0 0 0-.045-.1l-.56-2.008a1.117 1.117 0 0 1 1.069-1.443l14.537-.313a14.272 14.272 0 0 0-.984-2.986c-.223-.559.218-.497.38-.162.534.991.942 2.045 1.214 3.137l2.136-.05a1.515 1.515 0 0 1 1.481 1.157l1.42 6.123c3.305-.465 6.151-1.61 9.573-1.778 1.045-4.121 1.99-8.5 5.278-11.183.358-.285.598.033.23.313-1.756 1.348-2.534 3.142-3.205 5.032-.749 2.102-1.118 4.138-1.57 5.754a12.58 12.58 0 0 1 2.236.128c.827.146.369.593-.073.56v.01Zm-14.978 8.03c-2.12 1.342-4.221 2.7-6.396 3.914-1.516-1.057-2.796-2.153-4.624-3.584l11.02-.33ZM48.251 58.065a23.759 23.759 0 0 0-.357-1.544h1.677a16.81 16.81 0 0 0-.43 1.527l-.89.017Zm11.955-24.642a6.45 6.45 0 0 0 .156 2.757c.045.157.257-.106 1.225-.201a4.886 4.886 0 0 1 5.144 3.79l-.593.062c-.246-1.884-1.739-3.075-3.036-2.762-1.297.313-2.125 1.963-1.46 3.852a1.074 1.074 0 0 0-.62.24c-.459-1.369-1.834-2.487-3.07-2.169v-.715a4.898 4.898 0 0 1 1.717-1.678.062.062 0 0 0 .034-.067 6.63 6.63 0 0 1 .503-3.108Zm2.521 15.656a8.99 8.99 0 0 0-.486-1.65c2.018.482 3.88-.978 4.736-2.93.218.767.962 2.83 2.756 3.568-.302.75-1.884 6.313-4.272 6.71-2.09.358-4.098-3.226-4.182-7.163l.61-.29h.061a8.79 8.79 0 0 1 .632 1.766.073.073 0 1 0 .145-.016v.005Zm4.697-6.76c-.263-.128.073.817-.8 2.46-1.543 2.936-5.216 3.914-7.43-.559 1.481.224 2.331-1.18 1.906-2.795a.872.872 0 0 1 .632-.263c.205.494.527.93.94 1.27 1.643 1.33 3.64 0 3.488-2.35l.621-.066c.022.119.04.236.05.352 0 .078.135.084.168 0 .336-.76 1.029-.867 1.42-.308.705.99-.084 2.701-.995 2.254v.005Zm-4.272-5.032c2.69-.648 3.976 4.714 1.28 5.362a1.863 1.863 0 0 1-1.615-.43c-1.7-1.359-1.465-4.485.335-4.92v-.012Zm-2.969 6.53a1.51 1.51 0 0 1-1.118.118 13.853 13.853 0 0 1-1.118-4.708c2.186-.67 4.221 3.484 2.236 4.602v-.011Zm-2.516-.85A2.958 2.958 0 0 1 57.108 40c.157 1.152.37 2.097.56 2.98v-.011Zm-1.879 6.151a12.407 12.407 0 0 0-6.15 7.185h-1.8c-.615-2.096-1.37-2.236-4.082-2.628-1.46-.212-3.511-.386-5.658-.52v-4.434c5.59.342 10.07.38 17.69.414v-.017Zm-13.324 18.53.979 3.567a1.901 1.901 0 0 0 1.84 1.41l2.577-.079c4.395 3.422 6.223 5.233 11.965 7.336v3.226c-4.243.201-11.574.285-15.773-.56-14.934-3.17-10.908-16.477-1.588-14.9Zm17.624 15.236v-2.477l1.432-.067c.335 1.22.324 2.125 0 2.768a6.116 6.116 0 0 0-1.432-.224Zm2.941-.056c.149-.419.248-.854.297-1.297 0-.067.184-.039.184.04a2.48 2.48 0 0 1-.307 1.341c-.04.062-.196-.022-.174-.067v-.017Zm1.057.347c.14-.447.19-.889.296-1.297 0-.067.162-.028.168.039.051.47-.057.942-.307 1.342-.023.05-.18-.017-.157-.084Zm1.057.347c.15-.419.248-.855.29-1.297 0-.073.168-.05.163 0 .02.468-.087.933-.308 1.347-.039.078-.179.011-.145-.05Zm7.973-3.092c1.677-1.057 3.271-2.494 4.037-4.367l.123-.073a19.397 19.397 0 0 1-.509 4.619 25.99 25.99 0 0 0-3.651-.18Zm-5.591 2.03a3.485 3.485 0 0 0-.688-.99c2.913-1.426 6.184-3.875 8.102-6.47a.09.09 0 0 0-.14-.106 24.488 24.488 0 0 1-8.23 6.319 5.44 5.44 0 0 0-3.037-1.152 29.366 29.366 0 0 0-3.438.112v-.347a.135.135 0 0 0-.078-.112 29.505 29.505 0 0 1-6.839-3.433c6.257-3.517 12.827-8.6 17.054-8.946 4.356-.252 7.196 2.796 7.118 6.536-.146 6.274-9.735 8.499-9.83 8.588h.006Zm35.158-74.091v9.102c-8.387.107-16.109 0-30.568 1.32 0-3.114 0-6.486-.028-10.422h30.596Zm-30.892-.045v10.517c-11.993 1.09-25.687 3.439-33.637 5.396 0-8.527-.034-15.438-.04-15.913h33.677ZM5.04 8.257h32.755c0 2.919 0 9.07-.04 16.075a141.836 141.836 0 0 0-7.704 2.153c-1.292 5.032-1.158 5.451-1.94 6.497 8.19-.28 5.764-4.093 7.615-7.828l.906-.235c-2.36 6.357-.056 8.432-8.611 8.678-2.421.061-11.876.095-14.174.09.347-.23.704-.448 1.068-.66 4.674.039 6.614 0 6.637 0 .62-1.068.587-2.064 1.146-4.015-4.188 1.834-12.469 4.97-13.033 9.421a5.082 5.082 0 0 0 1.705 4.294c4.563 4.406 20.095 5.592 26.397 5.989v4.44c-2.913-.174-5.977-.27-7.974-.27-3.393 0-8.32.046-9.952 2.5a8.07 8.07 0 0 0-.503.934H5.042V8.257Zm0 69.595v-21.33h14.225c-3.215 6.865-3.914 13.715-3.992 21.33H5.042Zm10.384 1.594c7.477-.06 14.951.277 22.393 1.006.747.495 1.537.921 2.36 1.275a9.814 9.814 0 0 0-3.914 2.963L3.677 83.471c1.303-1.632 6.716-3.455 11.725-4.025h.023ZM5.64 87.833c-.24 0-.386-.079-.503-.436-.118-.358-.33-1.32-.408-1.74l3.019.112c0 .722.05 1.437.09 2.159l-2.198-.095Zm1.834-2.304c-3.606-.14-3.511-.078-3.713-.302a2.304 2.304 0 0 1-.162-1.582l32.665 1.185c.061.509.106 1.018.156 1.521a.234.234 0 0 1-.148.253.232.232 0 0 1-.103.015L7.474 85.53Zm6.844 16.617c-.28.174-.263.135-2.751.068-.895 0-1.527.072-1.678-.498a61.9 61.9 0 0 1-1.118-6.995 132.47 132.47 0 0 1-.766-8.946l4.915.185c0 2.667.23 6.871.263 7.268.18 2.518.496 5.025.945 7.509a.08.08 0 0 0 .009.033c.005.01.013.018.022.025a.07.07 0 0 0 .03.014.094.094 0 0 0 .034 0 .07.07 0 0 0 .03-.014.08.08 0 0 0 .026-.091 49.515 49.515 0 0 1-.38-2.527c.346-.437 1.408-1.678 1.453-1.75l3.534.245c-.062.096-4.39 5.346-4.59 5.469l.022.005Zm-1.119-13.777 2.427.096c-.374 9.001-.235 4.842-.33 7.637 0 .23 0 .257-1.431 1.767-.29-2.125-.587-5.703-.677-9.505l.011.005Zm5.76 8.063-3.557-.168c.05-.156 0 .174.448-7.828l3.584.14s-.459 7.716-.476 7.856Zm-5.77-8.309c0-.134-.034-1.57-.04-2.152l23.003.872a12.45 12.45 0 0 0 1.884-.81c.084.497.302.9.788.916l21.04.805c.03.72.064 1.441.101 2.164l-46.777-1.795Zm53.827 15.869c-.285.38-.598.369-1.08.346l-3.298-.156a.631.631 0 0 1-.425-.179.752.752 0 0 1-.212-.448c-1.119-4.73-1.678-10.897-1.885-15.795l4.865.19c0 4.53.346 10.517 1.269 14.817a.08.08 0 0 0-.001.036.072.072 0 0 0 .014.032.07.07 0 0 0 .028.023c.01.005.022.008.034.008a.083.083 0 0 0 .035-.008.072.072 0 0 0 .028-.023.072.072 0 0 0 .014-.032.08.08 0 0 0-.001-.036c-.118-.76-.23-1.521-.33-2.281a26.326 26.326 0 0 0 1.772-2.03l3.266.168c-.028.045.302-.509-4.093 5.368ZM65.338 90.36l2.757.095-.369 7.638a.475.475 0 0 1-.123.296l-1.549 1.756a95.084 95.084 0 0 1-.716-9.785Zm5.888 8.001-3.299-.078c.045-.134 0 .391.414-7.828l3.478.117s-.582 7.71-.598 7.79h.005Zm2.98-8.13a.401.401 0 0 1-.246.202c-.09.028-8.616-.308-8.627-.308 0-.721-.034-1.442-.04-2.164l6.425.24c.469.02.934-.087 1.348-.307.123 0-.453-.05 1.219.062a.37.37 0 0 1 .33.318 18.49 18.49 0 0 1-.414 1.957h.005Zm2.019-4.322a.354.354 0 0 1 .19.218c.033.112-.29 1.616-.347 1.879a15.218 15.218 0 0 1-1.582 1.94c.14-.551.243-1.112.307-1.677a.56.56 0 0 0-.492-.47l-.984-.039c.74-.589 1.44-1.226 2.097-1.907.766.034.727.023.805.056h.006Zm-2.863 1.499a2.4 2.4 0 0 1-1.638.559l-32.888-1.253c-.643 0-.638-1.118-.56-1.75l33.068 1.286c2.108.095 4.83-3.248 5.502-5.032.559-1.599.654-3.651.693-5.356.367-.234.72-.49 1.056-.766-.016 6.072-.508 8.387-5.239 12.312h.006Zm5.368-9.086c.067-.995.09-2.12.084-3.444 3.712-3.193 4.663-8.264 4.663-12.715a18.028 18.028 0 0 0-.805-5.642h20.067v12.2c-1.448-.14-2.936-.257-3.534-.301 0 0-10.12-.465-13.978.559-3.277.866-3.288 5.759-.666 7.386-.452.608-.84 1.262-1.157 1.951l-4.674.006Zm5.943-2.069c-2.488-1.577-2.471-6.24.593-7.045 2.796-.733 10.064-.772 13-.643l6.894.587c-2.074.744-3.511 5.591-2.343 8.001a9.876 9.876 0 0 0-1.549-.313c-1.32-.179-15.499-1.431-16.6-.587h.005Zm16.243 19.888c-1.448-.095-2.315-1.062-2.354-2.13-.14-1.482.43-5.535.487-5.625.214-.012.428-.012.643 0l.413-5.435c.833-.033 1.728.47 2.673.487l-.414 5.25.559.095.269-3.914c.229 0 .587.09.671.302l-.263 3.674c.766.162.671-.196.559 2.46-.173 3.036-.173 5.038-3.249 4.836h.006Zm6.917-.872a24.482 24.482 0 0 1-.442 5.111c-.66 2.879-1.767 2.762-3.271.234.533-1.583.856-3.23.962-4.898.1-1.118.441-6.653.492-11.06 1.699 3.288 2.287 6.923 2.259 10.613Z" fill="#000"/><path d="m89.085 86.027-.28 2.264a.157.157 0 0 0 .129.168l1.834.246a.1.1 0 0 0 .076-.018.103.103 0 0 0 .041-.066.103.103 0 0 0-.084-.117l-1.677-.325.095-2.141a.068.068 0 0 0-.11-.057.067.067 0 0 0-.024.046Zm-35.343-55.74a2.706 2.706 0 1 0-4.618-1.896 2.712 2.712 0 0 0 4.618 1.896Zm-.1-3.735a2.554 2.554 0 0 1-2.056 4.345 2.556 2.556 0 0 1-2.311-2.528 2.566 2.566 0 0 1 4.367-1.795v-.022Z" fill="#000"/><path d="M51.824 30.287a1.902 1.902 0 0 0 1.2-3.37 1.9 1.9 0 0 0-2.547.121 1.895 1.895 0 0 0 1.347 3.249Zm1.639-2.55-1.639 2.393a1.868 1.868 0 0 1-.794-.195l1.963-2.869c.21.183.372.416.47.677v-.006Zm-1.846-1.118c.29-.037.584 0 .856.106l-1.929 2.796a1.722 1.722 0 0 1-.408-.755l1.481-2.147Zm17.25 3.668a2.706 2.706 0 1 0-4.647-1.896 2.718 2.718 0 0 0 4.647 1.896Zm-1.918-4.473a2.555 2.555 0 1 1 .011 5.11 2.555 2.555 0 0 1-.011-5.11Z" fill="#000"/><path d="M68.29 29.728a1.901 1.901 0 0 0-2.683-2.69c-1.806 1.778.911 4.49 2.684 2.69Zm.297-1.99L66.95 30.13a1.883 1.883 0 0 1-.794-.195l1.98-2.863c.204.182.36.413.452.67v-.005Zm-1.84-1.12a1.69 1.69 0 0 1 .856.107l-1.934 2.796a1.779 1.779 0 0 1-.409-.755l1.488-2.147Zm13.414-.144a2.711 2.711 0 1 0 4.613 1.917 2.74 2.74 0 0 0-4.613-1.917Zm-.632 1.917a2.556 2.556 0 1 1 5.105 0c-.01 3.366-5.093 3.305-5.105 0Z" fill="#000"/><path d="M80.732 27.044a1.9 1.9 0 1 0 2.683 2.693 1.9 1.9 0 0 0-2.683-2.693Zm-.347 1.767 1.487-2.164c.29-.037.584 0 .856.106l-1.935 2.796a1.779 1.779 0 0 1-.408-.738Zm1.677 1.325a1.893 1.893 0 0 1-.794-.196l1.963-2.868c.21.181.37.412.47.67l-1.639 2.394Zm17.06.15a2.706 2.706 0 1 0-3.847 0 2.718 2.718 0 0 0 3.846 0Zm-1.913-4.472a2.549 2.549 0 1 1 .01 5.097 2.549 2.549 0 0 1-.01-5.097Z" fill="#000"/><path d="M98.546 29.728a1.9 1.9 0 1 0-3.255-1.342 1.907 1.907 0 0 0 3.255 1.342Zm.296-1.99-1.633 2.398a1.79 1.79 0 0 1-.794-.196l1.968-2.868c.204.184.362.414.459.67v-.005Zm-1.845-1.12c.29-.035.583.001.855.107l-1.929 2.796a1.728 1.728 0 0 1-.414-.755l1.488-2.147ZM40.25 42.449c.043.413.163.815.353 1.185 1.263 2.483 5.032 2.281 6.474.984 1.443-1.297 1.119-2.84 1.119-3.354v-7.27a3.238 3.238 0 0 0-.353-1.179c-1.118-2.236-3.354-1.85-4.204-1.867a3.356 3.356 0 0 0-3.389 3.008c-.028.419-.028 8.19 0 8.493ZM40.446 34a3.198 3.198 0 0 1 3.204-2.857c1.051 0 3.025-.251 4.06 1.767.162.351.252.732.262 1.118.045.481.04 5.838 0 7.23 0 .928.201 2.236-1.018 3.27-1.582 1.415-6.217 1.281-6.502-2.102-.028-.285-.045-8.034-.006-8.426Zm-13.084-.995c1.169-1.409.845-3.254 1.997-6.301a85.074 85.074 0 0 0-6.045 2.108c-.374 1.677-.766 3.483-1.196 4.221 1.873-.005 3.366.05 5.244-.028Z" fill="#000"/></svg>