<svg width="155" height="154" fill="none" xmlns="http://www.w3.org/2000/svg"><g filter="url(#a)" fill="#000"><path d="M54.75 64.812a.414.414 0 0 0-.122.567.383.383 0 0 0 .56.069.414.414 0 0 0 .091-.506.368.368 0 0 0-.529-.13Zm43.111-44.376c1.467.92 2.923 1.852 4.369 2.798-.351.317-.687.652-1.004 1.004-.467-.314-.935-.62-1.41-.92a.077.077 0 0 0-.103.085.076.076 0 0 0 .026.046l1.364.92a22.193 22.193 0 0 0-1.31 1.648c-.046.069.061.13.107.069.423-.56.876-1.098 1.357-1.61.705.49 1.395.989 2.085 1.487-.51.614-.979 1.262-1.403 1.94l-1.165-1.013c-.069-.053-.161 0-.1.092.383.36.767.72 1.158 1.073a19.282 19.282 0 0 0-1.02 1.902c0 .069.069.13.108.06.307-.629.65-1.24 1.027-1.831.728.682 1.464 1.364 2.207 2.031a21.112 21.112 0 0 0-1.786 3.442c0 .054.069.077.092 0a19.946 19.946 0 0 1 1.802-3.373 97.356 97.356 0 0 0 2.146 1.878 16.993 16.993 0 0 0-2.637 3.994c0 .046.046.092.077.046a24.405 24.405 0 0 1 2.736-3.886l.767.651c.084.07.207-.046.123-.13l-.767-.713c.207-.23 1.533-1.533 2.031-1.909l1.334 1.127c.069.061.169-.038.1-.1-.414-.39-.836-.766-1.265-1.157a24.946 24.946 0 0 1 1.817-1.273l.636.414c.061.039.123-.061.061-.107l-.559-.399c.414-.26.843-.513 1.272-.766.077-.038 0-.138-.061-.1a13.63 13.63 0 0 0-1.403.767 146.634 146.634 0 0 0-2.89-1.993 8.957 8.957 0 0 1 2.645-1.227.08.08 0 0 0-.046-.153 8.142 8.142 0 0 0-2.798 1.25 165.85 165.85 0 0 0-2.79-1.84 4.031 4.031 0 0 1 1.793-.966c.069 0 .054-.138 0-.13a3.715 3.715 0 0 0-1.954.98l-2.147-1.356.192-.192c.061-.053 0-.138-.084-.084a2.96 2.96 0 0 0-.238.2 267.15 267.15 0 0 0-4.469-2.76c-.023-.046-.084.046-.023.084Zm4.201 7.566c.352-.544 1.333-1.81 1.433-1.932.828.613 1.641 1.234 2.445 1.863a15.11 15.11 0 0 0-1.617 2.024 109.44 109.44 0 0 0-2.261-1.955Zm4.522 3.986a85.852 85.852 0 0 0-2.146-1.94 14.856 14.856 0 0 1 1.656-1.992 127.01 127.01 0 0 1 2.506 2.03 17.546 17.546 0 0 0-2.016 1.902Zm3.986-3.289c-.627.38-1.229.8-1.801 1.258a65.253 65.253 0 0 0-2.491-2.078c.418-.401.867-.77 1.341-1.104l2.951 1.924Zm-3.15-2.062c-.462.335-.895.707-1.296 1.112a70.843 70.843 0 0 0-2.476-1.855c.311-.38.646-.738 1.005-1.073l2.767 1.816Zm-2.936-1.931c-.35.341-.68.702-.989 1.08a73.31 73.31 0 0 0-2.108-1.448c.322-.345.652-.675.981-1.012l2.116 1.38Z"/><path d="M99.51 135.587c-1.097-.261-2.73.199-3.703.054a1.873 1.873 0 0 1-1.748-1.533 37.559 37.559 0 0 0-1.257-7.137l-.33.077c-.076-.284.054-2.147-2.3-13.844-.896-4.515-1.64-9.099-4.668-12.756.376-.597.767-1.195 1.096-1.801.162-.276.476-.636.476-.981 0-.56-1.457-3.22-1.909-3.879-.92-1.341-1.242-1.326-2.139-.544l-7.136-7.451a26.251 26.251 0 0 0 1.602-6.485c4.208.153 65.325-.376 67.502-.414 1.188 0 2.599 0 3.618-.767a1.386 1.386 0 0 0 .568-1.203c.092-.874.375-48.216.329-48.83-.076-1.126-.306-2.299-1.472-2.613-3.02-.767-30.608-.414-32.747-.36a28.186 28.186 0 0 1-1.809-.828c-9.351-4.89-10.156-5.228-12.686-6.67-1.58-.904-3.235-2.399-5.075-2.69a2.545 2.545 0 0 0-3.066 1.87c-.398 1.81.276 4.063.728 5.796.184.705.43 1.533.767 2.43-9.199.506-14.304.069-18.934.314a3.519 3.519 0 0 0-.552-1.878c-2.031-3.266-7.12-.69-7.129-.698a5.25 5.25 0 0 0-4.323-1.61 10.732 10.732 0 0 0-5.029 1.764c-2.606 1.947-3.832 5.71-2.383 8.723 0 0-1.488 2.177-1.656 3.472-.36 2.706 1.832 4.96 4.699 3.42-.154.398.168.566.076.842-.046.138-.199.207-.276.33-.375.583 1.143 1.203-.1 2.047a2.3 2.3 0 0 0-.766.605.605.605 0 0 0-.053.629c.145.337.375.222.567.284.605.176 0 1.31.49 1.678.207.153.537.107.683.314.145.207-.046.545-.269.721-.475.383-.628.606-.237 1.05l1.494 1.671c-.222.391-.95.092-1.15.614a.644.644 0 0 0 .162.659c.32.263.728.395 1.142.368v-.368l.95-.544c.767.436-.153 1.84.575 2.184 0 .215-.314.207-.506.315-.368.214-.138.958.66.766a1.402 1.402 0 0 0 1.057-1.487c.552.061.445.904.882 1.295v.115a3.832 3.832 0 0 0-1.832.338c-.988.279-1.96.611-2.913.996-5.128 2.07-5.259 3.066-9.199 7.62a27.184 27.184 0 0 0-2.3 3.066c-.045.076-.122 0 1.725 1.594a8.858 8.858 0 0 0-1.464 1.878c-8.148-.145-39.423-.29-40.39-.268-1.678 0-2.552.475-2.728 2.238-.169 1.64-.383 20.023-.245 24.361.069 2.193.207 4.393.245 6.585.038 2.192-.184 5.366 1.104 6.615.996.943 2.76.721 4.001.767 3.979 0 7.919 0 11.89-.199a15.653 15.653 0 0 0-.982 3.894 21.777 21.777 0 0 0-.207 11.207c-2.744-1.104-8.14-2.99-8.524-2.377a22.539 22.539 0 0 0 5.857 9.552 19.606 19.606 0 0 0-10.732 1.326c4.247 2.598 10.847 6.937 15.99 4.645-6.332 1.686-10.93-2.016-15.79-4.599a19.715 19.715 0 0 1 10.9-1.165 9.57 9.57 0 0 1 1.257.628c.046 0 .107-.084-.077-.207-3.833-2.054-5.68-6.408-7.22-10.187 4.69.766 9.497 2.637 12.946 5.641-.996-1.464-4.492-3.165-4.384-3.211-.966-4.799-.353-7.712.06-10.617.392 1.801 2.208 1.081 2.208 1.081a10.07 10.07 0 0 1 3.756-3.657l1.058.882a35.72 35.72 0 0 1 4.37 10.893 13.95 13.95 0 0 0-1.28 2.498c-.085.391.115.184.153.108 1.38-2.89 3.978-6.386 5.833-7.459a29.609 29.609 0 0 0 5.62 2.683c-.721 3.128-2.745 8.976-2.745 8.976s.207.154 4.975-.666a11.915 11.915 0 0 1-7.666 5.94c-.115 0-.115.184 0 .177a53.568 53.568 0 0 1 7.911.582c.07 0 .092-.115 0-.122a38.098 38.098 0 0 0-7.228-.637c2.935-.958 6.446-2.882 7.274-6.048-1.318-.498-3.327.261-4.983.476a30.518 30.518 0 0 0 2.622-8.617c1.181.378 2.404.609 3.641.69a9.518 9.518 0 0 0 6.409-1.533 15.65 15.65 0 0 0 4.584-4.714c.866.268 2.154 1.134 3.227.698a4.52 4.52 0 0 0 2.031-2.476c.29-.648.328-1.38.107-2.055 1.426-1.717 2.208-5.803 2.469-6.983a9.804 9.804 0 0 1 5.274-6.447c.896-.23.39.345.39.345a9.549 9.549 0 0 0-5.526 7.505l4.821 4.116c-.444.698-.966 1.227-.536 2.169a7.392 7.392 0 0 0 2.629 2.745c.307.207.605.467.981.36.376-.107 1.449-1.326 1.595-1.479a11.474 11.474 0 0 0 1.878 1.609c.398.322 1.042.675 1.203 1.112.091.404.155.814.192 1.226.889 4.408 4.063 9.965 6.73 13.676-.697.421-.981.636-.981.636l6.899 10.785c6.623-.935 9.336-4.024 9.559-4.883.069-.345-.422-1.196-1.158-1.349Zm49.434-58.917c-.092 1.004-.33 1.372-1.449 1.694-1.686.483-66.79.713-69.932.66.284-1.963.506-3.542.651-5.412.698.513 1.327 1.15 1.986 1.709a.099.099 0 0 0 .112.023.1.1 0 0 0 .034-.023c.344-.314.674-.636 1.004-.966a18.465 18.465 0 0 0 4.699 2.537 5.368 5.368 0 0 0 4.17-.176 14.902 14.902 0 0 0 6.975-7.282c7.014-.146 14.036-.138 21.042-.56a.112.112 0 0 0 .089-.033.114.114 0 0 0 .034-.09c-.131-3.41-.1-6.99-.376-10.402 10.425-.337 20.781-.697 31.206-.912 0 4.308-.046 17.14-.245 19.233ZM73.968 51.113a.447.447 0 0 0-.49.414c0 .284-.047.56-.085.958-.454.52-.872 1.07-1.25 1.648a17.18 17.18 0 0 0-1.088 2.921c-.161-.43-.92-2.721-.943-2.752a24.166 24.166 0 0 0-2.974-2.606.482.482 0 0 0 .122-.192c.44-.9.59-1.915.43-2.905-.154-.66-.583-1.487.13-1.962a.307.307 0 0 1 .222-.07c.445.062.276.928.276 1.22 0 1.755-.053 2.177.23 2.498a.453.453 0 0 0 .813-.237c.16-.72-.3-1.472-.169-2.2.108-.598.606-1.219.3-1.748a2.38 2.38 0 0 1-.23-.337c-.23-.544.597-1.066.46-1.633-.093-.406-.637-.62-.63-1.035.03-.176.099-.343.2-.49.221-.406.276-.881.153-1.327a1.908 1.908 0 0 1-.13-.613c0-.207.191-.421.398-.375a.89.89 0 0 1 .269.16.575.575 0 0 0 .812-.367 2.055 2.055 0 0 0-.1-.675 1.265 1.265 0 0 1 2.461-.56c.108.36.054.767.269 1.074.214.306.475.368.705.567.419.543.609 1.228.529 1.909 0 .674.26 1.487.912 1.663.345-.399 0-1.004 0-1.533.068-.585.34-1.128.766-1.533.115-.138.253-.3.46-.26a.454.454 0 0 1 .3.252c.068.27.068.551 0 .82-.108 1.288.996 2.177.896 3.465a4.813 4.813 0 0 1-.398 1.648c-1.15 2.23-1.534 3.12-2.193 3.703a2 2 0 0 1-1.433.49Zm1.21 2.607c-.551 1.096-.911 2.3-1.532 3.372-.391-.973-1.342-2.905-1.35-2.913.246-.268 1.09-1.303 1.442-1.732a1.15 1.15 0 0 1 1.142.66c.057.222.158.43.299.613Zm-5.189.659c-.6.964-1.137 1.965-1.61 2.997-.697-.767-3.066-3.833-3.832-4.76.268.053.39-.184.498-.345a1.533 1.533 0 0 1 1.733-.598h.107c.682.72 2.621 2.269 3.104 2.706Zm7.804-1.365a1.089 1.089 0 0 0 1.533-.766 2.73 2.73 0 0 1 .39-1.242c.913-1.12 3.696.437 2.96-3.38a1.004 1.004 0 0 1 .352-1.143c.767-.812 1.533-1.985 1.096-3.066a2.716 2.716 0 0 1-.298-.705c-.062-.567.536-1.05.452-1.61a2.3 2.3 0 0 1-1.127-1.15c-.176-.613.192-1.241.345-1.862.153-.621-.13-1.534-.767-1.457a.597.597 0 0 1-.958.475c-.552-.413-.122-.958 0-1.425a1.931 1.931 0 0 0-1.027-1.81c-.66-.331-1.284-.73-1.863-1.188a.981.981 0 0 1 .667-.46c.092-.46-.467-.766-.927-.858a8.132 8.132 0 0 0-4.738.422c-.294.162-.63.236-.965.214-.33-.069-.606-.475-.399-.766.084-.123.26-.215.33-.33 2.468 0 2.039-.207 11.781-.13 3.933 0 7.858.1 11.79.107a43.359 43.359 0 0 0 1.794 3.948 33.982 33.982 0 0 0 6.132 7.98c-2.3-.276-9.65-.13-11.43-.184a.115.115 0 0 0-.114.115c.061 4.476.153 9.052.444 13.521a1.296 1.296 0 0 0-.084 1.204l-6.201 5.71c-1.25-1.532-6.033-7.136-10.893-9.642.583-.36.682-1.005 1.686-.522h.039Zm27.596-6.899c-2.607 2.254-7.413 6.715-8.647 8.18a1.486 1.486 0 0 0-2.123.628 1.356 1.356 0 0 0-.99 1.096.768.768 0 0 0-.26.138c-.268-4.17-.475-13.031-.414-13.261 0 .076 9.582 0 11.498.16.315.3.491.468.813.767-.015.736.084 1.556.084 2.308l.039-.016Zm1.287-1.08c-.26.199-.62.498-1.05.873 0-.712-.061-1.372-.092-1.939.292.26.583.514.882.767.046.115.13.214.222.314l.038-.015Zm-.835-2.461c-.92-4.086 1.663-7.213 4.691-10.287a19.596 19.596 0 0 1 4.094-3.542c1.625-.92 3.917-1.655 5.787-1.157a5.103 5.103 0 0 1 3.388 3.672c1.027 3.618-1.127 7.182-3.488 9.758-2.598 2.828-6.784 5.78-10.823 5.12a4.883 4.883 0 0 1-3.687-3.549l.038-.015Zm-.054 15.998a.132.132 0 0 0 .131.122 1854.5 1854.5 0 0 0 11.942-.36c0 2.63.414 9.26.292 9.85-.123.59-1.05.506-1.664.537-1.257.061-13.874.383-19.163.475 1.586-3.756 1.15-7.665.636-12.157a5 5 0 0 0-.399-2.009c.207-.406.767-.598.49-1.456 1.91-1.663 5.221-4.737 7.314-6.73 0 3.924.214 7.85.383 11.743l.038-.015Zm-18.55 5.113c.176-.177 4.522-4.278 6.04-5.726l.153 2.49a27.914 27.914 0 0 0-3.51 6.563 15.168 15.168 0 0 0-2.706-2.4c.048-.307.056-.618.023-.927Zm6.377-3.496-.153-2.4.368-.36c.207.246.314.813.498 1.005.054.069.292.284.384.245.092-.038-.468.606-1.097 1.503v.007Zm-3.549 7.328c.07.07.207 0 .146-.114-.061-.116-.146-.208-.245-.33a39.796 39.796 0 0 1 4.99-8.432.107.107 0 0 0-.01-.126.106.106 0 0 0-.036-.028 1.38 1.38 0 0 1-.698-.889c-.1-.276-.092-.613-.437-.659-.214 0-.536.26-.52.268.014.008 0-1.464 1.632-.897.138.054.192-.16.054-.214a2.123 2.123 0 0 0-1.189-.077c.122-.33.363-.603.675-.766a1.043 1.043 0 0 1 1.035.214.115.115 0 0 0 .16-.16.998.998 0 0 0-.904-.338c.675-1.027 2.062-.697 2.668.245.25.51.374 1.073.36 1.64.313 2.21.464 4.439.452 6.67a13.935 13.935 0 0 1-1.448 6.431 15.07 15.07 0 0 1-5.428 5.964 5.764 5.764 0 0 1-5.235.797 18.777 18.777 0 0 1-4.6-2.46 24.228 24.228 0 0 0 3.45-4.347 19.446 19.446 0 0 0 2.246-5.151c.997.904 1.97 1.801 2.882 2.76Zm6.9-13.077c.23-.176.536-.43.896-.766.053.263.004.537-.138.766-.121.116-.22.254-.291.406a1.778 1.778 0 0 0-.452-.36l-.016-.046Zm-9.905 9.398c0 1.625-.988 3.534-1.724 4.906a25.465 25.465 0 0 1-4.676 6.01c-.192.222-.23.36-.399.33-.168-.031-1.433-1.32-2.016-1.664 0-.46.07-.935.1-1.426a1357.14 1357.14 0 0 0 8.715-8.156Zm62.145-6.669c-7.574.153-41.701 1.334-42.598 1.265-.559-.046-.613-.1-.636-.705 0-.422-.176-6.608-.352-11.123.559-.537 1.019-.981 1.303-1.265a4.414 4.414 0 0 0 2.414 1.234c3.925.568 7.965-1.924 10.632-4.599 3.067-3.066 5.581-7.32 4.048-11.376 4.499.123 21.134-.222 25.296-.444.015 3.886-.084 21.885-.107 27.013Zm-1.886-31.605c2.085.468 1.985 2.3 1.985 4.354-4.177.123-20.965.399-25.357.53a5.537 5.537 0 0 0-2.468-2.86c-.292-.153-3.373-1.273-5.811-2.3 9.16-.16 29.949-.107 31.651.276Zm-54.28-6.025c-.153-1.042-.413-2.4.17-3.357.582-.959 1.992-1.166 3.065-.828 1.35.421 1.68 1.004 5.366 3.066 2.147 1.18 9.896 5.235 12.05 6.362a35.087 35.087 0 0 0 5.152 2.3 9.73 9.73 0 0 0-2.944.651 14.03 14.03 0 0 0-4.952 3.603 29.23 29.23 0 0 0-4.354 5.167c-1.801 2.974-1.571 5.987-.552 7.734-6.585-5.948-8.654-10.44-11.452-18.673a33.73 33.73 0 0 1-1.548-6.025Zm1.196 5.818a105.11 105.11 0 0 0 1.993 5.366c-13.031 0-20.076-.23-23.44.146-.04-.13-.223-.192-.361-.223 1.295-1.356 2.729-3.188 2.79-5.051 3.25.115 14.013.038 19.018-.238Zm-35.813-2.3a10.625 10.625 0 0 1 4.117-1.532 5.127 5.127 0 0 1 4.737 1.356s-7.252 2.476-11.36 8.662c-.89-3.173-.322-6.47 2.506-8.485Zm1.602 13.799a1.71 1.71 0 0 1-.467.582c-.169.192-.284.49-.115.682a.091.091 0 0 0-.044-.083.091.091 0 0 0-.094-.001c-1.786 1.12-4.017 1.065-4.753-1.18-.567-1.718.268-3.427 1.273-4.791 4.783-6.516 12.479-9.966 15.99-9.966 2.23.039 3.38 2.124 2.966 4.163-.337 1.724-1.533 3.066-2.698 4.277-.766.084-1.464.828-2.752 1.978a1.347 1.347 0 0 0-.046-.468c1.25-1.042 2.422-2.667 2.46-4.323 0-.652-.099-1.687-.697-2.093-.598-.406-1.824-.13-2.59-.015a15.031 15.031 0 0 0-6.47 2.99c-1.534 1.165-3.458 2.583-3.948 4.599-.337 1.349.536 3.227 2.115 2.805-.13.368-.007.59-.13.843Zm3.733-2.063c-.965.146-1.042-.858-1.793-.965a.43.43 0 0 0-.491.337c0 .23.138.33.26.468a.766.766 0 0 1-.436 1.18l-.368-.49c-.268.073-.5.242-.652.475a1.84 1.84 0 0 1-2.123-2.009 5.006 5.006 0 0 1 1.633-3.02c4.545-4.56 10.264-5.841 11.39-4.676.575.598.897 3.342-1.985 5.818a.343.343 0 0 0-.427-.148.345.345 0 0 0-.132.095c-.215.29.36.62-.514.912-.176.061-.575.107-.69 0-.207-.253.452-.675.184-.851-.207-.307-.766-.153-.927.16a5.895 5.895 0 0 0-.33 1.066c-.207.56-.767.706-.935.46-.445-.651.153-.628.13-.996 0-.53-.966-.453-.92.521 0 .437.177.874-.123 1.288a1.088 1.088 0 0 1-.72.398l-.03-.023ZM48.227 64.69c0-.077.253-.391.299-.46a34.076 34.076 0 0 1 2.537-3.212c3.312-3.833 3.672-4.768 7.773-6.546a28.442 28.442 0 0 1 2.721-1.027c.682-.215 2.147-.882 2.837-.606.29.62.513.843 3.87 4.676 0 0 0 .054.054 0s1.211-2.04 1.71-3.013c.092.95.413 1.862.935 2.66a.07.07 0 0 0 .057.031.069.069 0 0 0 .058-.03 13.64 13.64 0 0 0 1.134-2.83c.422.982.974 1.894 1.365 2.89 0 0 .169.054.2 0 .474-1.157 1.157-2.26 1.532-3.464a.637.637 0 0 0 .499 0c5.036 3.35 6.285 4.239 10.992 9.635a4720.05 4720.05 0 0 1-8.432 7.773 27.164 27.164 0 0 0 0-3.534c0-.076-.322-1.188-.337-.06 0 .842 0 2.299-.085 3.985-3.58 3.327-6.899 6.393-8.746 8.218a2.3 2.3 0 0 0-1.096.076.926.926 0 0 1-.89-.092c-.283-.13-6.898-3.135-8.064-3.763-.414-.23-1.655-.667-1.64-1.235 0-.199.874-1.533 1.035-1.84.866.59.843.614.92.545a24.094 24.094 0 0 0 5.434-6.838.04.04 0 0 0 .004-.03.039.039 0 0 0-.033-.028.04.04 0 0 0-.03.008.04.04 0 0 0-.01.012c-.827 1.387-5.204 6.7-5.45 6.692-.245-.008-5.458-3.833-5.695-4.025a28.11 28.11 0 0 0 2.667-3.112c.062-.819.062-1.641 0-2.46a.092.092 0 0 0-.084-.085c-.828 0-1.786-.253-2.346.414-.927 1.097-1.893 2.124-2.805 3.228-.23-.254-2.852-2.492-2.86-2.569l-.03.016Zm5.305 4.446a96.664 96.664 0 0 1-2.3-1.84c.812-.766 2.668-3.158 2.951-3.38a3.94 3.94 0 0 1 1.832-.169c.307.084.238 1.456.184 1.97-.053.514-2.031 2.729-2.637 3.404l-.03.015Zm-3.672-2.821a101.552 101.552 0 0 0 8.532 6.485c-.928 1.84-1.472 2.039-1.273 2.17 3.288 2.2 7.137 3.257 10.486 5.365.161.108.414-.406 1.388-.36l-.56.544a.268.268 0 0 1 0-.176c0-.046 0-.07-.061-.046-.353.299.398.858 1.234.245.135.13.237.29.299.468a.896.896 0 0 1-.184.766 1.388 1.388 0 0 1-1.456.384s-.077.053 0 .076a1.41 1.41 0 0 0 1.594-.245.996.996 0 0 1-.184 1.073c-.437.483-1.027.322-1.579.215a.054.054 0 0 0-.064.07.054.054 0 0 0 .026.03c.342.206.75.274 1.142.191 0 .85-1.625.767-2.093.644a3.978 3.978 0 0 1-1.25-.767c-.176-.153-.42-.567-.62-.651-.2-.085-1.533.176-5.443.107-6.278-.115-7.336-.966-9.82-3.564-3.84-4.048-3.418-9.406-.084-13.04l-.03.016ZM5.6 69.051c.766-1.457 3.449-.951 4.782-.951 3.986 0 29.083.084 37.814.268a9.26 9.26 0 0 0-1.134 4.186c-7.206-.169-34.947-.154-41.846-.046.03-1.158-.115-2.545.383-3.457Zm19.93 33.038c-.997.621-2.392 3.342-3.343 5.918-14.196.222-14.48.375-15.507-.253-1.456-.882-1.357-3.971-1.35-5.642.009-1.671-.076-3.38-.145-5.067-.337-8.11.046-24.392.046-24.422 3.396.168 34.602 0 41.839.168 0 3.519 2.07 6.37 4.821 8.509-.115.222-.874 1.142-.92 1.242.557.637 1.173 1.22 1.84 1.74l-6.508 15.768a.873.873 0 0 0-1.157.076c-.767.706-.89 2.3-1.081 3.22-.238 1.219-.2 1.594 1.08 3.066 0 0-1.533 2.062-1.533 2.101 0 .038-6.753-2.032-7.497-2.17.085-.521.13-.835.13-.835s-8.983-4.5-10.715-3.419Zm30.14-6.002c0 .061 1.664.16 5.542-1.533 0 .383-3.066 8.24-3.066 8.24s-.667 1.441-2.545.506a32.121 32.121 0 0 1-4.384-2.944s-1.02-.659-.108-2.56c.912-1.9 2.89-6.638 3.005-6.822.165 1.791.692 3.53 1.549 5.113h.007Zm-1.364-5.366c.207-.238.49-.406.766-.161l5.075 2.376a1.64 1.64 0 0 1 1.027 1.319c-.813.383-4.392 1.702-5.366 1.579a16.011 16.011 0 0 1-1.51-5.09l.008-.023Zm-22.583 19.585a8.824 8.824 0 0 1-.95 2.124c-.085.13-.33.053-.269-.115.261-.721.706-1.395 1.035-2.085a.112.112 0 0 1 .022-.033.102.102 0 0 1 .032-.021.1.1 0 0 1 .038-.008.1.1 0 0 1 .092.062.097.097 0 0 1 0 .076Zm-1.234-.766c-.146.345-.544 1.671-.713 1.924a.118.118 0 0 1-.06.053.121.121 0 0 1-.145-.039.12.12 0 0 1-.025-.076c.172-.681.43-1.338.767-1.954.069-.085.222.015.176.122v-.03Zm-2.2 1.019a13.81 13.81 0 0 1 .629-1.816.103.103 0 1 1 .199.053 8.79 8.79 0 0 1-.636 1.84.122.122 0 0 1-.05.03.116.116 0 0 1-.142-.076v-.031Zm4.454 11.154a27.476 27.476 0 0 0-4.063-10.295l4.523 3.787s.1-.169.253-.476a36.24 36.24 0 0 0 3.64 2.223c-1.471.644-3.318 3.312-4.353 4.791v-.03Zm20.13-2.959c-2.385 1.533-3.726 1.663-6.624 1.418a17.977 17.977 0 0 1-6.784-2.223 74.344 74.344 0 0 1-3.12-1.694c-.942-.545-1.847-1.181-2.805-1.694a27.124 27.124 0 0 0 2.545-7.95c.56.207 6.554 1.856 7.62 2.162.114 0 .053.069 1.586-2.169 2.545 2.874 5.65 4.407 9.13 6.132 1.004.483 2.008.974 3.066 1.418a15.918 15.918 0 0 1-4.615 4.63v-.03Zm9.106-4.991c-1.12 1.442-1.955 1.135-3.764.407-2.223-.89-4.362-2.001-6.477-3.067a22.496 22.496 0 0 1-5.696-3.978c-.828-.843-2.1-1.939-1.885-3.204.107-.636.713-2.905.766-2.982.154-.613.621-.82 1.403-.613 0 .046 16.166 10.065 16.642 10.279.306 1.081-.3 2.292-.99 3.189v-.031ZM51.155 82.58c.286-.386.542-.794.767-1.219 1.9 1.457 4.676 1.533 6.975 1.64 3.963.139 4.883-.19 5.91-.099.437.038.292.046.721.46-.652.406-2.82 2.223-3.066 2.79a.054.054 0 0 0 .012.057.054.054 0 0 0 .057.012c.552-.1 2.713-1.993 3.227-2.614.443.374.969.636 1.533.767.59.13 2.1 0 2-.92a1.143 1.143 0 0 0 .637-1.686c.26-.3.307-1.204-.268-1.426-.115-.177-.192.13-.682.245a.858.858 0 0 1-.253 0c1.747-1.426 5.273-4.6 9.198-8.233-.192 4.147-.766 9.659-2.254 13.246a26.73 26.73 0 0 1-10.731 1.756c-4.209-.153-11.046-1.71-13.783-4.776Zm22.82 31.091c-.835.637-1.701-.237-2.345-.827-.644-.591-1.533-1.656-1.533-2.584 0-.713 12.985-16.619 13.215-16.803.675-.536.767-.643 1.48.123.505.575 2.07 3.166 2.061 3.833 0 2.721-12.318 15.837-12.878 16.258Zm4.715 2.99a6.324 6.324 0 0 0-.207-1.433 5.084 5.084 0 0 0-1.066-.859 40.94 40.94 0 0 1-2.039-1.786c3.22-3.388 7.497-8.026 10.034-11.943 3.342 4.776 3.404 7.259 4.508 12.893.889 4.546 1.724 9.023 2.215 13.63-.882.276-6.178 2.775-6.723 3.104-2.667-3.833-5.802-9.045-6.722-13.606Zm12.372 15.247c.299-.169 1.426-.859 1.725-.966.076 0 .16.076.107.145a3.3 3.3 0 0 1-1.748 1.028.119.119 0 0 1-.074-.014.116.116 0 0 1-.053-.132.112.112 0 0 1 .043-.061Zm.398 1.234a18.97 18.97 0 0 1 1.718-.767c.115 0 .222.123.122.207a5.544 5.544 0 0 1-1.748.767c-.1.03-.222-.177-.1-.23l.008.023Zm2.162 1.065a6.785 6.785 0 0 1-1.617 1.089c-.123.038-.23-.131-.13-.215a13.878 13.878 0 0 1 1.617-1.05c.092-.054.191.077.13.176Z"/><path d="m134.517 41.309.935.299a3.06 3.06 0 0 0-1.073-1.955c.195-.086.378-.197.545-.33.182.212.397.393.636.537.069 0 .214.077.184-.115a2.935 2.935 0 0 0-.859-.598c-.069 0-.598.276-.72.33a4.473 4.473 0 0 0-.828-.498c0-.123.038-.675 0-.805.166-.066.318-.165.444-.291.476-.376-.628.199-.636.206-.041.254-.059.51-.053.767a5.616 5.616 0 0 0-1.457-.39c.038-.078.253-1.074.084-1.204 0-.039-.444-.453-.712-.706-.2.046.528.713.628.767-.1.36-.154.73-.161 1.104a3.827 3.827 0 0 0-1.18.084c-.085-.766-.867-.927-1.533-.575 0 0-.974-3.25-1.196-3.925-.054-.145-.077-.122-.046 0 .145.66 1.065 3.94 1.111 3.986a.82.82 0 0 0-.207.161 7.95 7.95 0 0 0-3.342-2.736c-.812-.322-.973-.33-.169.1a10.724 10.724 0 0 1 3.427 2.867c-.307.544-.245 1.578.345 1.778a4.1 4.1 0 0 0-.107.981 2.61 2.61 0 0 0-1.005 0c-.046-.092-.69-.981-.636-.767 0 .13.506.882.705.905.313.035.628.05.943.046.032.518.117 1.032.253 1.533a4.338 4.338 0 0 0-.874-.1c-.157.12-.304.253-.437.4-.414.497.154.321.514-.216 1.326.269.583-.176 1.211.928a7.02 7.02 0 0 0-.536.767c.055.3.175.585.352.835.084.23.368.13.13-.284a2.702 2.702 0 0 0-.322-.475 1.57 1.57 0 0 0 .506-.628 2.593 2.593 0 0 0 2.3 1.218l-.176-.628a2.481 2.481 0 0 0 3.193-1.983 2.483 2.483 0 0 0-.181-1.39Zm-5.779-1.319a1.1 1.1 0 0 1-.436-.999 1.106 1.106 0 0 1 .635-.886c.209-.072.43-.106.651-.1a.84.84 0 0 1 .583.606 2.098 2.098 0 0 0-1.433 1.38Zm1.433-.107 1.104.36a1.648 1.648 0 0 1-.836.575l-.268-.935Zm.307 1.081c.41-.085.778-.31 1.042-.636l.767.26a1.835 1.835 0 0 1-1.579 1.319l-.23-.943Zm.329 1.15a2 2 0 0 0 1.717-1.426l1.096.36a2.67 2.67 0 0 1-2.437 2.438l-.376-1.372Zm3.066 1.77a2.374 2.374 0 0 1-2.384.59l-.253-.888a2.586 2.586 0 0 0 2.43-1.74 2.77 2.77 0 0 0 .223-.767l.314.1c.219.434.303.923.241 1.405a2.431 2.431 0 0 1-.586 1.3h.015Zm-96.907 57.53.123.56c.395-.29.668-.716.766-1.196.097.081.205.146.322.192-.253.49.169 1.142.184-.062-.061-.191-.107-.138-.467-.398a2.68 2.68 0 0 0 0-.552c.122-.046-.054 0 .46-.245.191.245 1.103.199 0-.2-.179.045-.35.118-.506.215a3.593 3.593 0 0 0-.246-.882c.154-.061.545-.084.729-.383 0-.1.207-.445.107-.69-.176.123-.061.161-.238.652a1.71 1.71 0 0 0-.667.268 2.7 2.7 0 0 0-.406-.583.653.653 0 0 0-.16-1.088c.582-.713 1.716-1.748 2.176-2.445a11.89 11.89 0 0 0-2.3 2.36h-.107c.399-.766.698-2.552.253-3.257a7.52 7.52 0 0 1-.452 3.234c-.406 0-1.004.422-.897.82-.828.246-.253.46-.843-.329.16-.153.406-1.203-.123-.046-.084.161.1.399.268.72a4.93 4.93 0 0 0-.705.59 5.222 5.222 0 0 0-.237-.505s-.966-.284-.506.054c.121.044.247.075.375.092.058.179.13.353.215.52a2.33 2.33 0 0 0-.291.415 1.325 1.325 0 0 0-.69 0c-.192.628-.552.444-.253.651a1.02 1.02 0 0 0 .352-.49c.152.067.32.089.483.061a1.693 1.693 0 0 0 .092 1.679l.276-.284c.245 1.211 2.208 1.671 2.913.552Zm.062-4.078a.583.583 0 0 1 0 .66 1.364 1.364 0 0 0-1.196-.353.682.682 0 0 1 1.196-.307Zm-.583 1.794a1.287 1.287 0 0 1-.575-.26l.422-.438.153.698Zm-.682-.153c.202.216.473.356.766.398l.1.452a1.15 1.15 0 0 1-1.234-.436l.368-.414Zm-.552.575a1.346 1.346 0 0 0 1.433.49l.146.675a1.731 1.731 0 0 1-2.154-.56l.575-.605Zm.053 2.238a1.536 1.536 0 0 1-1.111-1.135l.376-.398a1.817 1.817 0 0 0 2.3.69v.13a1.602 1.602 0 0 1-1.534.713h-.03ZM27.2 49.833a1.103 1.103 0 0 0 .567 1.058 2.906 2.906 0 0 0-.528.89c-.66 3.54 1.533 4.192 1.533 4.192l.084-2.767c.2 1.694 1.58 3.526 2.744 1.387 1.694.767 1.993-1.433 1.02-2.468a1.71 1.71 0 0 0 .605-2.928c.982-.583 1.372-2.767-.375-2.5-.767-3.234-3.243.154-3.71 2.017l.766-4.6s-2.3.208-2.36 3.833c.058.35.178.688.352.997a.867.867 0 0 0-.59.506 8.908 8.908 0 0 1-4.6-3.833c.729 2.077 2.568 3.25 4.53 4.063-1.578-.092-4.062-.177-5.074 1.058 1.564-.997 3.204-.982 5.036-.905Zm5.78 3.35c.299.989-.398 1.625-1.31 1.25.245-1.396-1.588-3.404-2.484-4.102 1.487.376 3.15 1.25 3.794 2.852ZM30.236 50.5a7.083 7.083 0 0 0-1.058-.299c.362.027.726.027 1.088 0-.015.069.054.077-.03.299Zm.184-.291a6.96 6.96 0 0 0 .766-.1.767.767 0 0 1-.191.728 5.802 5.802 0 0 0-.629-.283.337.337 0 0 0 .054-.345Zm.92-.13c.304-.065.602-.157.889-.277.153.614.322 1.188-.276 1.626a6.775 6.775 0 0 0-.767-.522.667.667 0 0 0 .154-.828Zm2.3.39a1.717 1.717 0 0 1-1.105 1.533 3.71 3.71 0 0 0-.49-.49c.582-.223.628-1.196.314-1.77.272-.119.53-.268.767-.445.281.333.462.74.521 1.172h-.008Zm-1.304-.98a6.07 6.07 0 0 1-3.066.597c1.066-.422 3.38-1.84 3.603-3.242 2.062.053.69 2.276-.53 2.644h-.007Zm-3.357.482c2.039-8.003 6.899-2.714.069.107h-.07v-.107Zm0 .307c.199.061 3.832 3.64 1.954 4.898-2.161.958-1.993-4.01-1.954-4.898Zm-.95-1.22c.218.345.496.649.82.898a.154.154 0 0 0 0 .092 3.403 3.403 0 0 0-.898.659c-.774-.107-.705-1.495.077-1.648Zm94.852-5.373a9.161 9.161 0 0 0-.176-1.74c0-.1-.169-.076-.169 0-.013.575.025 1.15.115 1.717.038.092.23.154.23.023Zm-2.897 3.795a10.056 10.056 0 0 0-.184-1.748c0-.1-.169-.069-.169 0-.009.577.029 1.154.115 1.725.069.13.207.13.238.023Zm24.997-.154a10.057 10.057 0 0 0-.184-1.747c0-.092-.169-.07-.169 0-.011.577.03 1.154.123 1.724.038.123.207.154.23.023Zm1.663 0a10.057 10.057 0 0 0-.184-1.747c0-.092-.169-.07-.169 0a9.761 9.761 0 0 0 .115 1.724c.054.123.238.154.238.023Zm-6.792-1.157c-.009.577.03 1.154.115 1.725.039.1.207.122.238 0a9.865 9.865 0 0 0-.184-1.748c-.015-.092-.169-.092-.169.023Zm.046-2.146a9.242 9.242 0 0 0-.183-1.748c0-.1-.169-.077-.169 0a9.67 9.67 0 0 0 .123 1.725c.03.115.199.145.229.023Zm-2.315 0a9.242 9.242 0 0 0-.183-1.748c0-.1-.169-.077-.169 0a9.67 9.67 0 0 0 .123 1.725c.038.115.206.145.229.023Zm9-.667a9.247 9.247 0 0 0-.184-1.74c0-.1-.169-.077-.169 0-.01.577.031 1.154.123 1.724.038.115.207.146.23.016Zm-1.748-3.879a9.164 9.164 0 0 0-.184-1.74c0-.1-.169-.077-.169 0a9.68 9.68 0 0 0 .123 1.717c.038.123.207.153.23.023Zm-2.629-1.717a8.89 8.89 0 0 0 .115 1.717c0 .1.207.13.23 0a9.774 9.774 0 0 0-.177-1.74.086.086 0 0 0-.01-.032.085.085 0 0 0-.117-.03.098.098 0 0 0-.025.022.103.103 0 0 0-.014.03.075.075 0 0 0-.002.033Zm-4.944 2.223a10.053 10.053 0 0 0-.177-1.748c0-.1-.168-.069-.168 0a8.974 8.974 0 0 0 .115 1.725c.038.123.207.145.23.023Zm2.56-4.454a9.866 9.866 0 0 0-.176-1.74.084.084 0 0 0-.169 0c-.013.575.025 1.15.115 1.717.038.123.207.154.23.023Zm-5.236 0a9.793 9.793 0 0 0-.207-1.74c0-.1-.168-.077-.168 0-.01.575.029 1.149.115 1.717.053.123.23.154.26.023Zm-25.043 19.662c-.011.578.03 1.155.123 1.725.038.1.207.13.23 0a9.247 9.247 0 0 0-.184-1.74c-.016-.1-.169-.077-.169.015Zm4.76-.375c-.01.577.031 1.154.123 1.724.038.1.207.13.23 0a9.975 9.975 0 0 0-.207-1.747.094.094 0 0 0-.036-.022.093.093 0 0 0-.11.045Zm2.975-.13a9.67 9.67 0 0 0 .122 1.724c.039.1.207.123.23 0a9.246 9.246 0 0 0-.184-1.748c-.015-.1-.168-.069-.168.023Zm-3.151-4.316c0-.1-.169-.07-.169 0-.01.577.031 1.154.123 1.724 0 .1.207.123.23 0a9.255 9.255 0 0 0-.184-1.724Zm-2.039 1.747a9.24 9.24 0 0 0-.176-1.747c0-.1-.169-.07-.169 0a9.669 9.669 0 0 0 .115 1.724c.038.092.207.146.23.023Zm8.018-.375a.124.124 0 0 0 .185.058.122.122 0 0 0 .045-.058 9.164 9.164 0 0 0-.184-1.74c0-.1-.168-.077-.168 0a9.656 9.656 0 0 0 .122 1.74Zm6.792 0a9.775 9.775 0 0 0-.177-1.74.083.083 0 0 0-.084-.085.082.082 0 0 0-.059.025.084.084 0 0 0-.025.06c-.017.574.022 1.15.115 1.717.046.122.207.153.23.023Zm-.069 2.437a8.973 8.973 0 0 0 .115 1.725c0 .1.207.123.23 0a9.86 9.86 0 0 0-.177-1.748c-.023-.1-.168-.069-.168.023Zm-3.618.407a9.668 9.668 0 0 0 .115 1.724c0 .1.207.123.23 0a9.859 9.859 0 0 0-.177-1.747c-.015-.077-.168-.077-.168.023Zm9.965-.407a9.667 9.667 0 0 0 .115 1.725c0 .1.207.123.23 0a9.86 9.86 0 0 0-.177-1.748c-.023-.1-.168-.069-.168.023Zm.03-2.437a9.868 9.868 0 0 0-.176-1.74c0-.1-.168-.077-.168 0a9.587 9.587 0 0 0 .115 1.717c.038.122.207.153.229.023Zm4.102-2.131a9.576 9.576 0 0 0 .115 1.725c.038.1.206.13.237 0a10.055 10.055 0 0 0-.184-1.748c-.03-.092-.168-.07-.168.023Zm2.92.184c-.009.574.029 1.149.115 1.717.038.1.207.13.23 0a9.16 9.16 0 0 0-.176-1.74c-.016-.1-.169-.077-.169.023Zm-2.399 4.2c-.011.575.03 1.15.122 1.718 0 .1.207.13.23 0a9.78 9.78 0 0 0-.184-1.74c-.015-.1-.168-.077-.168.022Zm4.791-.153a9.67 9.67 0 0 0 .122 1.725c.039.1.207.123.23 0a9.163 9.163 0 0 0-.184-1.748c.023-.1-.168-.1-.168.023Zm2.445-.123c-.013.575.026 1.15.115 1.718 0 .1.207.13.23 0a9.16 9.16 0 0 0-.176-1.74c-.016-.077-.169-.054-.169.022Zm.046-2.445a9.954 9.954 0 0 0-.176-1.748.1.1 0 0 0-.033-.047.094.094 0 0 0-.055-.018.095.095 0 0 0-.089.066c-.01.577.031 1.154.123 1.724.054.115.23.169.23.023Zm1.449 88.345c3.633-3.02 3.833-8.095 3.917-12.533-.767-.146-5.22 1.901-5.55 1.909a10.892 10.892 0 0 0 2.399-4.975c.445-1.403 1.817-9.252.614-8.279-3.212 1.993-6.048 3.909-9.199 6.132 0-.728-.452-7.757-1.533-10.057a10.422 10.422 0 0 0-2.3-1.211c.085-.13 2.124-1.901 1.817-1.832a67.036 67.036 0 0 0-1.771-7.091c-5.228 4.485-7.474 12.595-8.24 19.494-.253-.767-1.794-6.408-3.112-7.758-2.645 4.301-3.534 10.065-3.005 15.101-1.641-.766-13.714.399-10.548 1.717 3.028 2.676 6.132 5.067 8.179 8.433-.95 0-4.538-.069-7.443-.046a28.284 28.284 0 0 0-3.542 0 94.13 94.13 0 0 0 11.391.199c-1.977-3.572-5.925-6.524-8.953-9.145a26.5 26.5 0 0 1 10.939-.997c.107.169 0 1.311.345 1.173a28.154 28.154 0 0 1 2.683-16.189c1.218 1.939 3.173 8.202 3.518 11.207.406-.69-.299-2.3-.383-3.289 1.226-6.968 2.384-13.315 7.543-19.256.912-.889.766.437 1.349 2.231.37 1.376.67 2.771.897 4.178.084 0-1.097 1.058-1.702 1.609-.767.69 2.407 1.319 2.338 1.932a71.45 71.45 0 0 1 1.395 9.666c-1.418 1.135-3.656 2.737-4.27 4.14 3.833-4.232 9.138-7.236 13.844-10.356.161 4.737-.766 10.639-3.633 13.414-5.91 3.067 6.086-2.184 5.695-1.924h.046c.046 4.6-.866 10.471-4.101 12.395-.107.069-8.754.131-5.711.284 2.108-.054 8.946-.115 9-.33-.744-.253-1.993.062-2.913.054Z"/><path d="M132.179 139.182c2.814-10.931 6.685-12.947 11.713-17.929-6.355 4.944-10.808 11.291-11.713 17.929Zm-.099-28.224c-.33 4.277-1.84 8.432-1.687 12.855-.099 4.086 1.02 7.964 1.043 11.789.368-3.993-1.089-8.102-.859-12.165-.222-4.131 1.633-8.7 1.503-12.479Zm-8.639 10.877c.552 2.875 3.38 13.599 4.599 16.098.445.651-.437-1.641-.598-2.3-1.387-4.208-3.219-11.989-4.001-13.798Zm-8.271 8.785c2.82 2.353 7.144 5.205 9.267 8.501-2.016-3.595-5.964-6.163-9.267-8.501Zm-40.076 1.433c-1.908-2.085-1.334-2.736-2.82-.483-.07-.176-5.742-2.974-4.6-1.678 5.918 5.503 1.686 1.004.307 0 5.887 1.87 3.189 2.958 5.458.421.46.192 1.464 2.461 1.74 1.748.207-.353.406-.767.651-.644.238.552.767.36 1.357.391.767-.107 2.07.245 2.476-.092a20.672 20.672 0 0 1-3.534-.184c-.444-1.441-.674.192-1.035.521Zm-42.988 1.679c1.127-2.392 6.47-10.847 7.114-12.587-2.56 3.48-6.278 9.605-7.114 12.587Zm-3.51-6.692c-1.626-4.04-2.001-9.199-3.442-12.886 1.142 4.163 1.602 9.115 3.441 12.886Zm-3.136 4.101c-2.644-2.399-5.519-4.837-8.279-7.175 2.572 2.601 5.34 5 8.28 7.175Zm8.425-53.996c0-.107-20.168-.383-23.64-.636-.07 0-.131.069-.139.138-.069 2.568.192 20.582.268 20.582 3.88.061 19.463-.3 23.334-.59.13.007.138 1.042.177-19.494Zm-.338 19.264c-3.832.053-19.08.245-22.912.651-.284-6.132-.46-19.846-.26-20.29.1.069 22.766.682 23.226.59-.023 6.347-.069 12.702-.054 19.049Zm3.902-15.24a9.858 9.858 0 0 0-.176-1.74.084.084 0 1 0-.169 0 9.014 9.014 0 0 0 .115 1.725c.038.115.207.161.23.016ZM12.682 101.92a9.688 9.688 0 0 0 .115 1.725c0 .1.207.123.237 0a9.895 9.895 0 0 0-.184-1.748c-.015-.099-.168-.076-.168.023Zm3.948 0a9.019 9.019 0 0 0 .115 1.725c.038.1.206.123.23 0a9.867 9.867 0 0 0-.177-1.748c-.015-.099-.168-.076-.168.023Zm.973-.115c-.014.575.027 1.15.123 1.717 0 .1.207.131.23 0a9.203 9.203 0 0 0-.184-1.74c-.016-.099-.169-.076-.169.023Zm27.94-8.424a9.202 9.202 0 0 0-.183-1.748c0-.1-.169-.069-.169 0a9.67 9.67 0 0 0 .123 1.725c.038.122.207.145.23.023Zm1.71-2.928a9.206 9.206 0 0 0-.184-1.74c0-.1-.168-.077-.168 0-.011.574.03 1.15.122 1.717.039.122.207.153.23.023Zm-8.14-9.352c1.18.214 1.241-1.165.436-1.74-.513-.353-1.034.475-1.096.766a.85.85 0 0 0 .66.974Zm-.407-1.104c.452-.997 1.196 0 1.112.398a.597.597 0 0 1-.767.422.621.621 0 0 1-.345-.82Zm8.287 13.353a.859.859 0 0 0 .988-.713c.047-.406-1.027-2.115-1.64-.299a.821.821 0 0 0 .652 1.012Zm-.407-1.111c.368-.92 1.204 0 1.112.398a.582.582 0 0 1-.767.422.628.628 0 0 1-.314-.82h-.03Zm-32.394 10.248a.824.824 0 0 0 .345.89.84.84 0 0 0 .954-.029.85.85 0 0 0 .341-.562c.054-.414-.966-1.878-1.64-.299Zm1.372.292a.595.595 0 0 1-.29.38.586.586 0 0 1-.688-.089.618.618 0 0 1-.141-.69c.421-.851 1.196-.015 1.12.399Z"/><path d="M30.244 80.549c-2.829-.039-14.166-.376-16.956-.138v.053c2.782.315 14.127.292 16.956.33a.123.123 0 1 0 0-.245Zm.276 3.541c-2.829-.038-14.174-.375-16.956-.13v.046c2.774.314 14.127.291 16.956.33a.123.123 0 1 0 0-.246Zm.23 4.025c-2.821-.039-14.166-.376-16.956-.13v.045c2.782.322 14.135.292 16.956.33a.123.123 0 0 0 0-.245Zm0 4.032c-2.821 0-14.166-.376-16.956-.13v.045c2.774.315 14.135.292 16.956.33a.123.123 0 1 0 0-.245Zm41.033-44.76a.053.053 0 0 0-.064.019.054.054 0 0 0 .002.066c.358.38.75.723 1.173 1.027.062 0 .138 0 .093-.092a8.13 8.13 0 0 0-1.204-1.02Zm1.104-4.89s.076 0 .053-.053a5.306 5.306 0 0 0-1.05-.936c-.053 0-.107 0-.069.085.315.346.673.65 1.066.904Zm3.235.49a1.91 1.91 0 0 0 .713-.267c.046 0 0-.108 0-.1-.27.024-.531.105-.767.238-.054.046 0 .13.054.13Zm-3.925.238c-.07.289-.09.587-.054.882 0 .054.092.077.123 0 .059-.296.059-.6 0-.897a.054.054 0 0 0-.069.015Zm4.37.59a1.37 1.37 0 0 0 0 .767.054.054 0 0 0 .084 0c.072-.25.072-.516 0-.766a.07.07 0 0 0-.085 0Zm-2.032.56c0 .276.36 2.024-.238 1.794-.1 0-.153.138-.046.169.108.03.568.084.629-.207a8.81 8.81 0 0 0-.291-1.763s-.054-.031-.054.007Zm-27.902-21.18c.475 2.591 2.169-.39 2.445-1.487.766 1.894 3.127 1.725 3.488-.122.628.536 2.713.682 2.3-.728.766-.108.973-1.196.59-1.955h.46a2.728 2.728 0 0 0-2.492-1.84 3.465 3.465 0 0 0-2.392.537 1.074 1.074 0 0 0-.766-.706 2.342 2.342 0 0 0 0-.237c-.046-.882-.077-3.894 1.77-4.883.453-.184.323-.23-.114-.046-1.74.767-1.924 3.289-1.802 5.028a11.66 11.66 0 0 0-1.533-3.457c-.291-.39-1.012-1.042-1.058-.935-.046.107.69.606.95.989a12.856 12.856 0 0 1 1.396 3.572 1.617 1.617 0 0 0-.981.912c-1.464-.536-4.155.391-4.185 2.622l2.406-.675c-1.356.859-3.05 3.902-.483 3.412Zm2.245-1.326c-.298.905-1.617 3.38-2.176 1.303 1.21-.429 2.023-1.64 2.667-2.79a82.86 82.86 0 0 1-.49 1.487Zm2.3-1.648c.173.258.365.501.575.729-.583.889-1.725.628-2.445.1.092-.254.184-.514.268-.767a1.089 1.089 0 0 0 1.625-.062h-.023Zm-1.533-.053a5.48 5.48 0 0 0 .153-.706.766.766 0 0 0 1.02.062c.094.192.2.379.314.56a.813.813 0 0 1-.935.36 4.12 4.12 0 0 1-.567-.276h.015Zm.813 2.683a2.146 2.146 0 0 1-1.303-1.288c.038-.092.084-.23.168-.445a1.625 1.625 0 0 0 2.576-.061c.16.153.332.294.513.422a1.6 1.6 0 0 1-1.97 1.372h.016Zm2.223-1.426c-1.173-.506-2.062-2.522-2.07-2.53h.046a5.365 5.365 0 0 0 4.001 1.993c.46 1.487-1.648.682-1.993.537h.016Zm2.468-2.53c1.288 2.46-2.3 2.246-4.408 0h4.408Zm-5.19-1.817c.499-.06.767.246.905.637-.352.305-.59.721-.675 1.18h.33l.192.445c-.238.306-.614.214-.913.046.046-.13.085-.268.13-.406l.261-.07a2.1 2.1 0 0 0-1.103-1.019c.206-.376.375-.751.873-.813Zm-.23 1.955c-.575 1.533-1.77 4.07-3.648 4.04-1.687-.291.651-3.028 1.287-3.373l2.361-.667ZM112.15 54.87a.968.968 0 0 0-1.164 1.008.968.968 0 0 0 1.283.85.962.962 0 0 0 .647-.907.88.88 0 0 0-.766-.95Zm0 1.64a.708.708 0 0 1-.724-.353.7.7 0 0 1 .081-.802.708.708 0 0 1 .78-.203.708.708 0 0 1 .46.661.65.65 0 0 1-.597.698Zm8.301-2.023a.966.966 0 1 0 .767.95.884.884 0 0 0-.767-.95Zm0 1.64a.703.703 0 0 1-.723-.354.708.708 0 0 1 .86-1.004.703.703 0 0 1 .461.661.65.65 0 0 1-.605.682l.007.016Zm9.567-2.13a.965.965 0 1 0 .766.95.88.88 0 0 0-.766-.95Zm0 1.64a.706.706 0 1 1 .598-.698.658.658 0 0 1-.36.631.65.65 0 0 1-.246.067h.008Zm-7.083-5.42a.965.965 0 1 0 .766.951.88.88 0 0 0-.766-.95Zm0 1.633a.652.652 0 0 1-.598-.69.599.599 0 0 1 .137-.489.604.604 0 0 1 1.044.23.599.599 0 0 1 .015.26.652.652 0 0 1-.606.69h.008Zm-.054-4.407a.965.965 0 1 0-.766-.951.88.88 0 0 0 .766.95Zm0-1.649a.652.652 0 0 1 .598.69.599.599 0 0 1-.137.49.602.602 0 0 1-.715.156.612.612 0 0 1-.329-.386.599.599 0 0 1-.015-.26.653.653 0 0 1 .598-.69Zm-5.872 4.538a.966.966 0 0 0 0 1.901.965.965 0 0 0 0-1.9Zm0 1.64a.65.65 0 0 1-.597-.697.61.61 0 0 1 .597-.702.604.604 0 0 1 .598.702.639.639 0 0 1-.157.475.66.66 0 0 1-.448.223h.007Zm-8.002-1.433a.96.96 0 0 0-1.148 1.005.96.96 0 0 0 1.914-.062.871.871 0 0 0-.766-.943Zm0 1.633a.651.651 0 0 1-.598-.697.597.597 0 0 1 .432-.49.608.608 0 0 1 .766.498.6.6 0 0 1-.273.594.606.606 0 0 1-.327.095Zm20.957-.36a.96.96 0 0 0 1.148-1.002.964.964 0 0 0-.692-.858.96.96 0 0 0-1.222.91.88.88 0 0 0 .766.95Zm0-1.648a.651.651 0 0 1 .598.697.599.599 0 0 1-.137.49.602.602 0 0 1-.715.156.612.612 0 0 1-.329-.386.599.599 0 0 1-.015-.26.649.649 0 0 1 .59-.697h.008Zm6.102.667a.805.805 0 1 0-.767.943.881.881 0 0 0 .767-.943Zm-1.403 0a.61.61 0 0 1 .773-.488.602.602 0 0 1 .425.496.61.61 0 0 1-.273.594.606.606 0 0 1-.327.095.654.654 0 0 1-.569-.451.642.642 0 0 1-.029-.254v.008Zm8.049-1.15a.965.965 0 1 0 .766.95.88.88 0 0 0-.766-.95Zm0 1.64a.663.663 0 0 1-.606-.697.614.614 0 0 1 .15-.472.61.61 0 0 1 .699-.15.61.61 0 0 1 .33.37.614.614 0 0 1 .025.252.659.659 0 0 1-.36.63.647.647 0 0 1-.246.067h.008Zm-5.22-5.396a.964.964 0 0 0-.949 1.554.967.967 0 0 0 1.715-.611.878.878 0 0 0-.766-.943Zm0 1.633a.652.652 0 0 1-.598-.69.599.599 0 0 1 .137-.49.602.602 0 0 1 .715-.156.612.612 0 0 1 .329.386.631.631 0 0 1 .015.26.653.653 0 0 1-.606.72l.008-.03Zm5.182.084a.965.965 0 1 0-.767-.95.88.88 0 0 0 .767.95Zm0-1.648a.653.653 0 0 1 .597.69.61.61 0 0 1-.597.702.604.604 0 0 1-.598-.702.65.65 0 0 1 .59-.69h.008Zm.475-4.117a.96.96 0 0 0-1.148 1.005.96.96 0 0 0 1.914-.062.871.871 0 0 0-.766-.943Zm0 1.633a.651.651 0 0 1-.598-.697.597.597 0 0 1 .15-.472.604.604 0 0 1 1.053.472.657.657 0 0 1-.613.697h.008Zm-2.698-4.538a.813.813 0 0 0-.59-.64.806.806 0 0 0-.924 1.136.798.798 0 0 0 .747.447.884.884 0 0 0 .767-.943Zm-1.403 0a.598.598 0 0 1 .432-.49.607.607 0 1 1 .166 1.188.654.654 0 0 1-.598-.705v.007Zm-1.25-4.415a.763.763 0 0 0-.575-.57.764.764 0 0 0-.931.65.764.764 0 0 0 .74.863.88.88 0 0 0 .766-.943Zm-1.395 0a.607.607 0 1 1 1.149.345.607.607 0 0 1-.551.352.651.651 0 0 1-.598-.697Zm-.659-5.772a1.015 1.015 0 0 0 .913-.646 1.015 1.015 0 0 0-.757-1.36 1.014 1.014 0 0 0-1.199.994 1.037 1.037 0 0 0 .312.722 1.025 1.025 0 0 0 .731.29Zm0-1.763a.766.766 0 1 1-.015 0h.015Zm4.484 1.816a1.012 1.012 0 1 0-1.042-1.011 1.022 1.022 0 0 0 1.042 1.011Zm0-1.763a.765.765 0 1 1-.007 0h.007Zm4.531 1.533a1.012 1.012 0 1 0-1.043-1.011 1.037 1.037 0 0 0 .312.721 1.031 1.031 0 0 0 .731.29Zm0-1.763a.765.765 0 0 1 .149 1.519.767.767 0 1 1-.157-1.519h.008Zm-1.947 7.812a.807.807 0 0 0-1.419-.36.812.812 0 0 0-.094.864.81.81 0 0 0 .746.446.887.887 0 0 0 .767-.95Zm-1.403 0a.606.606 0 0 1 1.04-.356.603.603 0 0 1 .125.64.606.606 0 0 1-.529.382.653.653 0 0 1-.636-.674v.008Zm3.978-1.074a.966.966 0 1 0 .767.95.884.884 0 0 0-.767-.95Zm0 1.64a.706.706 0 1 1 .606-.697.648.648 0 0 1-.161.477.646.646 0 0 1-.453.22h.008Zm1.756 16.129a.965.965 0 1 0-.767-.95.88.88 0 0 0 .767.95Zm0-1.648a.65.65 0 0 1 .605.69.597.597 0 0 1-.15.471.604.604 0 0 1-1.053-.471.65.65 0 0 1 .59-.69h.008Zm-11.483 4.254a.97.97 0 0 0-1.023.44.962.962 0 0 0 .072 1.111.966.966 0 0 0 1.717-.6.88.88 0 0 0-.766-.95Zm0 1.64a.651.651 0 0 1-.598-.697.599.599 0 0 1 .137-.489.602.602 0 0 1 .714-.157.606.606 0 0 1 .345.646.658.658 0 0 1-.36.63.649.649 0 0 1-.246.068h.008Zm4.722-1.709a.97.97 0 0 0-1.023.44.968.968 0 0 0 1.142 1.416.963.963 0 0 0 .647-.905.88.88 0 0 0-.766-.95Zm0 1.64a.708.708 0 0 1-.724-.354.7.7 0 0 1 .081-.801.708.708 0 0 1 .78-.203.708.708 0 0 1 .46.661.639.639 0 0 1-.157.475.66.66 0 0 1-.448.223h.008Zm7.029-1.885a.96.96 0 1 0 .766.95.88.88 0 0 0-.766-.95Zm0 1.61a.707.707 0 0 1-.809-.768.7.7 0 0 1 .524-.612.706.706 0 0 1 .883.682.661.661 0 0 1-.598.698Zm-90.813 39.76a.483.483 0 1 0-.483-.475.476.476 0 0 0 .483.476Zm.122-67.342a.422.422 0 1 0 .843 0 .422.422 0 0 0-.843 0Zm1.204-.192a.406.406 0 1 0 .813 0 .406.406 0 0 0-.813 0Zm.199-1.103a.445.445 0 1 0 0-.89.445.445 0 0 0 0 .89ZM71.415 65.8a.513.513 0 1 0 0 1.027.513.513 0 0 0 0-1.027Zm-.283-3.518a.483.483 0 1 0 .965 0 .483.483 0 0 0-.965 0Zm.214-2.614a.452.452 0 1 0 .016-.904.452.452 0 0 0-.016.904Z"/></g><defs><filter id="a" x="-3" y=".061" width="161.31" height="161.31" filterUnits="userSpaceOnUse" color-interpolation-filters="sRGB"><feFlood flood-opacity="0" result="BackgroundImageFix"/><feColorMatrix in="SourceAlpha" values="0 0 0 0 0 0 0 0 0 0 0 0 0 0 0 0 0 0 127 0" result="hardAlpha"/><feOffset dy="4"/><feGaussianBlur stdDeviation="2"/><feComposite in2="hardAlpha" operator="out"/><feColorMatrix values="0 0 0 0 0 0 0 0 0 0 0 0 0 0 0 0 0 0 0.25 0"/><feBlend in2="BackgroundImageFix" result="effect1_dropShadow_146_240"/><feBlend in="SourceGraphic" in2="effect1_dropShadow_146_240" result="shape"/></filter></defs></svg>