<svg width="749" height="304" fill="none" xmlns="http://www.w3.org/2000/svg"><path d="M499.603 134.364a79.7 79.7 0 0 0-108.552-.342l54.092 58.532 54.46-58.19Z" fill="#fff"/><path d="m266.181 2 .73-.684-.73-.777-.729.777.729.684ZM.271 283.886a1 1 0 1 0 1.458 1.369l-1.458-1.369ZM265.452 2.684l265.182 282.571 1.458-1.369L266.911 1.316l-1.459 1.368ZM1.729 285.255 266.911 2.685l-1.459-1.37L.271 283.887l1.458 1.369Z" fill="#fff"/><path d="m554.057 78.801.727-.686-.724-.768-.728.765.725.69ZM445.143 191.865a.999.999 0 1 0 1.449 1.378l-1.449-1.378ZM553.329 79.487l193.943 205.769 1.456-1.372L554.784 78.115l-1.455 1.372ZM446.592 193.243 554.781 79.49l-1.449-1.378-108.189 113.753 1.449 1.378Z" fill="#fff"/></svg>