<svg width="204" height="220" fill="none" xmlns="http://www.w3.org/2000/svg"><path d="m105.381 219.91-1.96-12.61c-3.7-23.82-7.07-37.41-15.23-45.57-8.16-8.16-21.75-11.53-45.57-15.23l-12.61-1.96 12.61-1.96c23.82-3.7 37.41-7.07 45.57-15.23 8.16-8.16 11.53-21.75 15.23-45.57l1.96-12.61 1.96 12.61c3.7 23.82 7.07 37.41 15.23 45.57 8.16 8.16 21.75 11.53 45.57 15.23l12.61 1.96-12.61 1.96c-23.82 3.7-37.41 7.07-45.57 15.23-8.16 8.16-11.53 21.75-15.23 45.57l-1.96 12.61Zm-50.46-75.37c17.64 3.24 28.66 6.97 36.08 14.39 7.42 7.42 11.14 18.43 14.39 36.08 3.24-17.64 6.97-28.66 14.39-36.08 7.41-7.41 18.43-11.14 36.08-14.39-17.64-3.24-28.66-6.97-36.08-14.39-7.41-7.41-11.14-18.43-14.39-36.08-3.24 17.64-6.97 28.66-14.39 36.08-7.42 7.42-18.43 11.14-36.08 14.39ZM47.6 95.01 45.64 82.4C41.63 56.6 38.9 53.87 13.1 49.86L.49 47.9l12.61-1.96c25.8-4.01 28.53-6.74 32.54-32.54L47.6.79l1.96 12.61c4.01 25.8 6.74 28.53 32.54 32.54l12.61 1.96-12.61 1.96C56.3 53.87 53.57 56.6 49.56 82.4L47.6 95.01ZM24.47 47.9c14.86 3.33 19.81 8.27 23.13 23.13 3.33-14.87 8.27-19.81 23.13-23.13-14.86-3.33-19.81-8.27-23.13-23.13-3.33 14.87-8.27 19.81-23.13 23.13Zm141.801 42.87-1.96-12.61c-2.78-17.89-4.45-19.57-22.34-22.35l-12.61-1.96 12.61-1.96c17.89-2.78 19.57-4.45 22.34-22.34l1.96-12.61 1.96 12.61c2.78 17.89 4.45 19.57 22.35 22.34l12.61 1.96-12.61 1.96c-17.9 2.78-19.57 4.45-22.35 22.35l-1.96 12.61Zm-13.73-36.92c4.01 1.09 6.88 2.48 9.07 4.66 2.18 2.18 3.58 5.05 4.67 9.07 1.09-4.01 2.48-6.88 4.66-9.07 2.18-2.18 5.05-3.58 9.07-4.66-4.01-1.09-6.88-2.48-9.07-4.66-2.18-2.18-3.58-5.05-4.66-9.07-1.09 4.01-2.48 6.88-4.67 9.07-2.18 2.18-5.05 3.58-9.07 4.66Z" fill="#472A24"/></svg>