<svg xmlns="http://www.w3.org/2000/svg" xml:space="preserve" width="964.276" height="300"><defs><clipPath id="a" clipPathUnits="userSpaceOnUse"><path d="M0 841.89h595.275V0H0Z"/></clipPath></defs><g clip-path="url(#a)" transform="matrix(3.99334 0 0 -3.99334 -627.499 2175.136)"><path d="M0 0c.369-.217.646-.428.794-.636.475-.629.714-1.504.714-2.612v-5.371c0-9.742-5.613-16.622-18.981-17.729v-6.737c12.877 0 19.689 4.466 24.299 11.91 7.192-12.497 21.515-11.918 30.231-11.918v-25.144H6.829c-1.055 0-1.752.195-2.105.589-.342.402-.507.992-.507 1.783v14.502c0 .735-.13 1.292-.403 1.665-.26.369-.781.543-1.572.543h-9.511c.468-.419.757-.956.865-1.622a11.43 11.43 0 0 0 .163-1.93V-59.66c0-1.114.37-2.038 1.109-2.773 1.11-1.169 2.929-1.748 5.469-1.748l42.572.008c2.633 0 4.648 1.399 4.648 5.406V-.983c0 1.637-1.178 2.46-3.447 2.46h-8.008c.219-.32.371-.664.482-1.034.313-1.11.473-2.744.473-6.104v-20.705C23.938-26 12.042-24.311 13.47-8.835v6.71c0 1.422-1.022 2.128-2.985 2.128z" style="fill:#295cb3;fill-opacity:1;fill-rule:nonzero;stroke:none" transform="translate(271.828 539.97)"/><path d="M388.104 481.686h-32.906v7.91h32.906zm10.503 57.349c0 1.64-1.187 2.463-3.459 2.463h-8.013c.209-.315.375-.664.482-1.032.313-1.11.475-2.751.475-6.118v-4.178h-9.904v-5.952h9.904v-6.161h-9.904v-5.956h9.904v-16.55h-32.895v3.207h-.019c-.051.905-.422 1.546-1.17 1.892l-1.192.239h-9.61c.37-.212.64-.419.794-.633.336-.455.553-1.034.646-1.721v-17.374c0-4.806 2.407-5.413 5.357-5.413h43.296c3.642 0 5.308 1.751 5.308 5.413z" style="fill:#295cb3;fill-opacity:1;fill-rule:nonzero;stroke:none"/><path d="M0 0c0 5.005 4.729 9.75 10.574 9.75 5.833 0 10.573-4.745 10.573-9.75 0-5.012-4.74-8.526-10.573-8.526C4.729-8.526 0-5.012 0 0m30.896.225c0 5.09-3.267 9.42-8.296 12.077h9.595v5.957H15.953v2.483c0 1.006-.394 1.695-1.187 2.062l-1.195.237H3.814c.374-.211.633-.423.797-.636.473-.634.713-1.504.713-2.619l.084.009v-1.536h-16.46v-5.957h9.594C-6.486 9.645-9.748 5.315-9.748.225c0-8.494 9.093-14.116 20.322-14.116 11.221 0 20.322 5.622 20.322 14.116" style="fill:#295cb3;fill-opacity:1;fill-rule:nonzero;stroke:none" transform="translate(345.992 519.687)"/><path d="m0 0 14.062-8.224v-.023l-.125.071c-5.029-3.972-9.828-5.286-13.979-5.287-4.151.001-8.95 1.315-13.979 5.287l-.125-.071v.023zm-7.146 28.824h.078l-.078-16.875-14.105-7.898-.02.023c-2.875 20.125 14.125 24.75 14.125 24.75m28.333-24.75-.02-.023-14.105 7.898-.077 16.875h.077s17-4.625 14.125-24.75m13.357-9.079c-3.777-9.391-10.107-12.046-10.107-12.046 18.625 18.875 7.25 40.625 7.25 40.625-2.75 4.875.75 7 .75 7-8-2-5.5-8.625-5.5-8.625 4.02-9.574 3.21-17.352 1.845-22.163l-2.636 1.477.041.061s6.246 24.611-19.229 33.243l-.021 4.632H1.562v-30.5l25-14.25a32.975 32.975 0 0 0-1.441-2.619L.011 6.376-25.205-8.17a32.975 32.975 0 0 0-1.441 2.619l25 14.25v30.5h-5.375l-.021-4.632C-32.517 25.935-26.271 1.324-26.271 1.324l.042-.061-2.637-1.477c-1.365 4.811-2.175 12.589 1.845 22.163 0 0 2.5 6.625-5.5 8.625 0 0 3.5-2.125.75-7 0 0-11.375-21.75 7.25-40.625 0 0-6.33 2.655-10.107 12.046 0 0-2.143 4.579-8.143 3.579 0 0 2.264-1.026 3.594-5.176 0 0 5.406-17.199 26.281-19.824v-9.5h10.25v14s-10.874.087-19.175 9.222l2.576 1.504c.48-.454 8.373-7.759 19.141-7.95v-.004l.062.002.063-.002v.004c10.767.191 18.66 7.496 19.14 7.95l2.576-1.504c-8.301-9.135-19.175-9.222-19.175-9.222v-14h10.25v9.5C33.687-23.801 39.093-6.602 39.093-6.602c1.33 4.15 3.594 5.176 3.594 5.176-6 1-8.143-3.579-8.143-3.579" style="fill:#295cb3;fill-opacity:1;fill-rule:nonzero;stroke:none" transform="translate(199.907 505.491)"/></g></svg>